<?xml version="1.0" encoding="UTF-8"?>
<svg width="93px" height="77px" viewBox="0 0 93 77" version="1.1" xmlns="http://www.w3.org/2000/svg" xmlns:xlink="http://www.w3.org/1999/xlink">
    <!-- Generator: Sketch 49.1 (51147) - http://www.bohemiancoding.com/sketch -->
    <title>Main Squid 2 Small 3 Copy 8</title>
    <desc>Created with Sketch.</desc>
    <defs>
        <filter x="-8.3%" y="-5.0%" width="121.7%" height="111.9%" filterUnits="objectBoundingBox" id="filter-1">
            <feOffset dx="1" dy="1" in="SourceAlpha" result="shadowOffsetOuter1"></feOffset>
            <feGaussianBlur stdDeviation="1.5" in="shadowOffsetOuter1" result="shadowBlurOuter1"></feGaussianBlur>
            <feColorMatrix values="0 0 0 0 0.568160077   0 0 0 0 0.568160077   0 0 0 0 0.568160077  0 0 0 0.5 0" type="matrix" in="shadowBlurOuter1" result="shadowMatrixOuter1"></feColorMatrix>
            <feMerge>
                <feMergeNode in="shadowMatrixOuter1"></feMergeNode>
                <feMergeNode in="SourceGraphic"></feMergeNode>
            </feMerge>
        </filter>
    </defs>
    <g id="Page-1" stroke="none" stroke-width="1" fill="none" fill-rule="evenodd">
        <g id="Artboard-2" transform="translate(-108.000000, -622.000000)">
            <g id="Main-Squid-2-Small-3-Copy-8" filter="url(#filter-1)" transform="translate(153.085440, 649.602732) rotate(42.000000) translate(-153.085440, -649.602732) translate(123.085440, 599.102732)">
                <g id="Tenticles" transform="translate(0.000000, 62.237762)" fill="#FFFFFF" stroke="#000000">
                    <path d="M26.2910167,1.37317228 C22.2034662,6.04289525 18.73568,8.10265367 15.8876579,7.55244755 C11.6156248,6.72713837 11.5259598,4.46830797 8.57189675,3.66179275 C5.61783371,2.85527753 1.62485824,5.6974072 0.798900519,6.63699936 C-0.0270572069,7.57659153 -0.125237197,9.06529065 0.11304791,9.38334393 C0.351333017,9.70139721 2.12206963,9.60709259 2.85645835,9.38334393 C3.19707883,9.27956595 4.8990566,8.28688097 7.20019154,8.69675779 C8.2066039,8.87601937 17.2593631,12.1296885 22.0603314,10.0699301 C26.9850336,7.95708609 28.5364742,3.0567294 29.2630446,1.60203433 C30.1775148,-0.228862047 29.1868388,-0.305149396 26.2910167,1.37317228 Z" id="Path-14"></path>
                    <path d="M42.7514793,1.60203433 C42.7514793,11.2142403 44.1993904,16.5543547 47.0952125,17.6223776 C51.4389457,19.224412 52.1247983,17.6223776 54.1823561,17.6223776 C56.2399139,17.6223776 61.0633148,22.0051574 58.5260893,22.4284806 C55.9888638,22.8518038 56.4643961,21.5130324 52.8106509,21.5130324 C49.1569057,21.5130324 47.3124713,22.5446205 45.4948897,22.4284806 C44.2831687,22.351054 42.3780226,20.7490197 39.7794513,17.6223776 C40.0842747,14.1640178 40.2366864,11.6465353 40.2366864,10.0699301 C40.2366864,8.49332486 40.0842747,5.67069294 39.7794513,1.60203433" id="Path-15"></path>
                    <path d="M37.0360409,1.60203433 C36.2739824,11.5193897 35.1308947,19.0718373 33.6067778,24.259377 C31.3206025,32.0406866 21.2614309,34.7870312 20.5755783,33.871583 C19.8897257,32.9561348 28.119957,27.6923077 30.8633674,15.5626192 C32.6923077,7.4761602 33.4543661,2.89891926 33.1495428,1.83089638 L37.0360409,1.60203433 Z" id="Path-17"></path>
                    <path d="M39.7794513,17.6223776 C38.8594443,22.8299576 38.5546209,26.415463 38.8649812,28.3788938 C39.6774501,33.5188122 43.894567,36.3890655 42.5228618,37.5333757 C41.9218666,38.0347407 38.1085594,37.3589558 35.6643357,33.6427209 C34.8144087,32.350479 34.2047619,29.1464103 33.8353954,24.0305149 L36.9468114,4.07200137 L40.4404928,4.96317463 L39.7794513,17.6223776 Z" id="Path-18"></path>
                    <path d="M31.0919849,14.647171 C26.2980062,19.4185156 22.944949,23.0803083 21.0328133,25.6325493 C18.1646099,29.4609107 18.2894029,32.9561348 16.9176977,31.8118245 C15.5459925,30.6675143 16.2748953,23.4209925 20.1183432,18.7666879 C21.2045891,17.4512754 25.252031,13.4687804 29.4916622,8.01017165 C30.6414579,6.52978697 31.8607514,4.3937412 33.1495428,1.60203433 L31.0919849,14.647171 Z" id="Path-19"></path>
                    <path d="M29.2163036,2.95878545 C26.6957219,5.25709501 23.4344509,7.8563386 19.4324906,10.7565162 C13.4295502,15.1067826 7.77299623,16.0203433 7.08714363,18.9955499 C6.40129102,21.9707565 5.94405594,26.5479975 8.00161377,25.4036872 C10.0591716,24.259377 9.47932299,20.9343218 12.345347,18.9955499 C14.8547537,17.298018 17.4821603,16.8084306 20.1183432,15.5626192 C23.5480797,13.9417891 24.1010275,14.0174473 26.9768693,10.9853783 C28.8940971,8.96399888 30.6901377,6.45780742 32.3649909,3.46680389" id="Path-20"></path>
                </g>
                <g id="Face" transform="translate(20.048343, 0.519682)">
                    <g id="Group-6" transform="translate(0.179619, 0.467924)" stroke="#000000">
                        <path d="M14.0494523,16.2015309 C13.316857,18.167056 12.4800427,20.7856092 11.5390093,24.0571902 C10.9170155,26.4993661 10.6595342,28.4247728 10.7665653,29.8334103 C10.8735963,31.2420479 11.388559,32.705357 12.3114533,34.2233376 C13.1621299,34.9166068 13.83409,35.3787044 14.3273335,35.6096304 C14.8205771,35.8405564 15.6291347,36.0716053 16.7530063,36.3027769 L27.7603335,36.3027769 C28.9975197,36.3839229 29.8987044,36.3839229 30.4638875,36.3027769 C31.0290706,36.2216309 31.8658849,35.7595332 32.9743305,34.916484 C33.570259,34.0097378 33.956481,33.2395751 34.1329965,32.605996 C34.3095121,31.9724168 34.4382527,30.8941891 34.5192185,29.3713127 C33.7807427,24.0417992 33.0400126,20.1452143 32.2970282,17.6815582 C31.1825516,13.986074 23.4436977,1.72602178 22.2047008,2.10656811 C20.965704,2.48711444 15.1483452,13.2532431 14.0494523,16.2015309 Z" id="Path-12" fill="#FFFFFF" transform="translate(22.631107, 19.230769) rotate(11.000000) translate(-22.631107, -19.230769) "></path>
                        <path d="M13.9162463,14.9190926 C10.8930649,21.3451233 10.6460952,25.8081734 9.34565347,30.909199 C8.47869231,34.3098828 7.4883972,38.840413 6.37476814,44.5007895 C5.63869405,48.7261579 5.33398786,52.05743 5.46064958,54.4946061 C5.65064216,58.1503701 8.79893647,63.8891123 9.67450114,64.4884226 C10.2582109,64.8879628 11.2150667,65.2877154 12.5450684,65.6876806 L25.5712579,65.6876806 C27.0353574,65.8280766 28.1018291,65.8280766 28.7706729,65.6876806 C29.7739386,65.4770865 32.9148896,62.9743455 33.5697953,53.6951007 C34.2247011,44.4158559 32.3748529,39.7015142 31.0559693,33.307715 C29.7370857,26.9139159 27.7949772,19.535075 25.5712579,14.9190926 C23.3475386,10.3031102 20.1355366,6.13534438 18.9966624,6.52258136 C17.8577883,6.90981834 16.9394277,8.49306193 13.9162463,14.9190926 Z" id="Path-12-Copy" fill="#FFFFFF" transform="translate(19.569362, 36.145272) rotate(11.000000) translate(-19.569362, -36.145272) "></path>
                        <path d="M12.189771,60.9874974 C16.2185039,60.9874974 19.4844371,57.6668714 19.4844371,53.5706718 C19.4844371,49.4744721 16.2185039,46.1538462 12.189771,46.1538462 C8.16103816,46.1538462 4.8951049,49.4744721 4.8951049,53.5706718 C4.8951049,57.6668714 8.16103816,60.9874974 12.189771,60.9874974 Z" id="Oval-5" fill="#FFFFFF"></path>
                        <path d="M12.7015616,58.8405679 C13.8526281,58.8405679 14.7857519,57.8918176 14.7857519,56.7214749 C14.7857519,55.5511321 13.8526281,54.6023818 12.7015616,54.6023818 C11.5504951,54.6023818 10.6173713,55.5511321 10.6173713,56.7214749 C10.6173713,57.8918176 11.5504951,58.8405679 12.7015616,58.8405679 Z" id="Pupil" fill="#000000"></path>
                    </g>
                    <g id="Group-3" transform="translate(10.622058, 64.621742)"></g>
                    <g id="Reflection" transform="translate(17.482517, 12.587413)" stroke="#000000">
                        <path d="M0,8.93740406 C2.45960936,4.79845358 4.12346274,2.28551936 4.99156016,1.3986014" id="Path-21"></path>
                        <path d="M5.59440559,0.88691796 C6.0284543,0.29563932 6.24547866,5.68434189e-14 6.24547866,5.68434189e-14 C6.24547866,5.68434189e-14 6.0284543,0.29563932 5.59440559,0.88691796 Z" id="Path-22"></path>
                    </g>
                </g>
            </g>
        </g>
    </g>
</svg>