<?xml version="1.0" encoding="UTF-8"?>
<svg width="99px" height="73px" viewBox="0 0 99 73" version="1.1" xmlns="http://www.w3.org/2000/svg" xmlns:xlink="http://www.w3.org/1999/xlink">
    <!-- Generator: Sketch 49.1 (51147) - http://www.bohemiancoding.com/sketch -->
    <title>Main Squid 2 Small 3 Copy 12</title>
    <desc>Created with Sketch.</desc>
    <defs>
        <filter x="-7.5%" y="-4.8%" width="119.4%" height="111.5%" filterUnits="objectBoundingBox" id="filter-1">
            <feOffset dx="1" dy="1" in="SourceAlpha" result="shadowOffsetOuter1"></feOffset>
            <feGaussianBlur stdDeviation="1.5" in="shadowOffsetOuter1" result="shadowBlurOuter1"></feGaussianBlur>
            <feColorMatrix values="0 0 0 0 0.568160077   0 0 0 0 0.568160077   0 0 0 0 0.568160077  0 0 0 0.5 0" type="matrix" in="shadowBlurOuter1" result="shadowMatrixOuter1"></feColorMatrix>
            <feMerge>
                <feMergeNode in="shadowMatrixOuter1"></feMergeNode>
                <feMergeNode in="SourceGraphic"></feMergeNode>
            </feMerge>
        </filter>
        <path d="M3.87787117,14.235475 C3.14527588,16.2010002 2.30846153,18.8195533 1.36742814,22.0911344 C0.745434396,24.5333102 0.48795306,26.458717 0.594984129,27.8673545 C0.702015199,29.275992 1.21697787,30.7393011 2.13987215,32.2572818 C2.99054874,32.950551 3.66250883,33.4126486 4.15575243,33.6435746 C4.64899602,33.8745006 5.45755361,34.1055494 6.5814252,34.336721 L17.5887523,34.336721 C18.8259386,34.417867 19.7271232,34.417867 20.2923064,34.336721 C20.8574895,34.255575 21.6943038,33.7934774 22.8027494,32.9504282 C23.3986779,32.043682 23.7848999,31.2735193 23.9614154,30.6399401 C24.1379309,30.006361 24.2666716,28.9281333 24.3476374,27.4052569 C23.6091616,22.0757433 22.8684315,18.1791585 22.1254471,15.7155023 C21.0109705,12.0200181 13.2721165,-0.240034057 12.0331197,0.140512274 C10.7941229,0.521058604 4.97676411,11.2871872 3.87787117,14.235475 Z" id="path-2"></path>
        <path d="M9.69581785,9.5249143 C6.33716205,16.1656359 6.06278682,20.7777946 4.61803852,26.0492434 C3.65487298,29.5635426 2.55468746,34.2454358 1.31748195,40.0949231 C0.499727673,44.4614592 0.16120905,47.9040278 0.301926085,50.4226288 C0.513001637,54.2005304 1.40746483,56.2297873 2.33303782,58.2716851 C3.2586108,60.3135829 4.01065379,60.1310015 4.98337754,60.7503345 C5.63186004,61.1632232 6.69489555,61.5763314 8.17248405,61.9896592 L22.6441551,61.9896592 C24.2707219,62.1347458 25.4555371,62.1347458 26.1986007,61.9896592 C27.3131961,61.7720293 30.8026901,59.1856728 31.530269,49.5964124 C32.2578478,40.0071519 30.202727,35.135306 28.7374903,28.5278928 C27.2722537,21.9204795 25.1146347,14.2951147 22.6441551,9.5249143 C20.1736756,4.75471388 16.6052462,0.447704782 15.3399943,0.847879185 C14.0747423,1.24805359 13.0544736,2.88419268 9.69581785,9.5249143 Z" id="path-4"></path>
    </defs>
    <g id="Page-1" stroke="none" stroke-width="1" fill="none" fill-rule="evenodd">
        <g id="Artboard-5" transform="translate(-138.000000, -103.000000)">
            <g id="Main-Squid-2-Small-3-Copy-12" filter="url(#filter-1)" transform="translate(186.939340, 128.353553) rotate(45.000000) translate(-186.939340, -128.353553) translate(153.439340, 76.353553)">
                <g id="Tenticles" transform="translate(0.000000, 65.237762)" fill="#FFFFFF" stroke="#000000">
                    <path d="M26.2910167,1.37317228 C22.2034662,6.04289525 18.73568,8.10265367 15.8876579,7.55244755 C11.6156248,6.72713837 11.5259598,4.46830797 8.57189675,3.66179275 C5.61783371,2.85527753 1.62485824,5.6974072 0.798900519,6.63699936 C-0.0270572069,7.57659153 -0.125237197,9.06529065 0.11304791,9.38334393 C0.351333017,9.70139721 2.12206963,9.60709259 2.85645835,9.38334393 C3.19707883,9.27956595 4.8990566,8.28688097 7.20019154,8.69675779 C8.2066039,8.87601937 17.2593631,12.1296885 22.0603314,10.0699301 C26.9850336,7.95708609 28.5364742,3.0567294 29.2630446,1.60203433 C30.1775148,-0.228862047 29.1868388,-0.305149396 26.2910167,1.37317228 Z" id="Path-14"></path>
                    <path d="M42.7514793,1.60203433 C42.7514793,11.2142403 44.1993904,16.5543547 47.0952125,17.6223776 C51.4389457,19.224412 52.1247983,17.6223776 54.1823561,17.6223776 C56.2399139,17.6223776 61.0633148,22.0051574 58.5260893,22.4284806 C55.9888638,22.8518038 56.4643961,21.5130324 52.8106509,21.5130324 C49.1569057,21.5130324 47.3124713,22.5446205 45.4948897,22.4284806 C44.2831687,22.351054 42.3780226,20.7490197 39.7794513,17.6223776 C40.0842747,14.1640178 40.2366864,11.6465353 40.2366864,10.0699301 C40.2366864,8.49332486 40.0842747,5.67069294 39.7794513,1.60203433" id="Path-15"></path>
                    <path d="M37.0360409,1.60203433 C36.2739824,11.5193897 35.1308947,19.0718373 33.6067778,24.259377 C31.3206025,32.0406866 21.2614309,34.7870312 20.5755783,33.871583 C19.8897257,32.9561348 28.119957,27.6923077 30.8633674,15.5626192 C32.6923077,7.4761602 33.4543661,2.89891926 33.1495428,1.83089638 L37.0360409,1.60203433 Z" id="Path-17"></path>
                    <path d="M39.7794513,17.6223776 C38.8594443,22.8299576 38.5546209,26.415463 38.8649812,28.3788938 C39.6774501,33.5188122 43.894567,36.3890655 42.5228618,37.5333757 C41.9218666,38.0347407 38.1085594,37.3589558 35.6643357,33.6427209 C34.8144087,32.350479 34.2047619,29.1464103 33.8353954,24.0305149 L36.9468114,4.07200137 L40.4404928,4.96317463 L39.7794513,17.6223776 Z" id="Path-18"></path>
                    <path d="M31.0919849,14.647171 C26.2980062,19.4185156 22.944949,23.0803083 21.0328133,25.6325493 C18.1646099,29.4609107 18.2894029,32.9561348 16.9176977,31.8118245 C15.5459925,30.6675143 16.2748953,23.4209925 20.1183432,18.7666879 C21.2045891,17.4512754 25.252031,13.4687804 29.4916622,8.01017165 C30.6414579,6.52978697 31.8607514,4.3937412 33.1495428,1.60203433 L31.0919849,14.647171 Z" id="Path-19"></path>
                    <path d="M29.2163036,2.95878545 C26.6957219,5.25709501 23.4344509,7.8563386 19.4324906,10.7565162 C13.4295502,15.1067826 7.77299623,16.0203433 7.08714363,18.9955499 C6.40129102,21.9707565 5.94405594,26.5479975 8.00161377,25.4036872 C10.0591716,24.259377 9.47932299,20.9343218 12.345347,18.9955499 C14.8547537,17.298018 17.4821603,16.8084306 20.1183432,15.5626192 C23.5480797,13.9417891 24.1010275,14.0174473 26.9768693,10.9853783 C28.8940971,8.96399888 30.6901377,6.45780742 32.3649909,3.46680389" id="Path-20"></path>
                </g>
                <g id="Face" transform="translate(42.457086, 37.762908) rotate(14.000000) translate(-42.457086, -37.762908) translate(25.957086, 3.262908)">
                    <g id="Group-6" transform="translate(0.179619, 0.467924)">
                        <g id="Camo" transform="translate(0.000000, 0.000000)">
                            <g id="colors-copy" transform="translate(3.664678, 0.269018)">
                                <mask id="mask-3" fill="white">
                                    <use xlink:href="#path-2"></use>
                                </mask>
                                <use id="Mask" stroke="#000000" fill="#FFFFFF" xlink:href="#path-2"></use>
                                <g mask="url(#mask-3)">
                                    <g transform="translate(22.689850, 3.824779) rotate(-54.000000) translate(-22.689850, -3.824779) translate(-17.310150, -32.175221)">
                                        <circle id="Oval-6" fill-opacity="0.119999997" fill="#F57B0F" cx="18.5" cy="45.8082706" r="16.5"></circle>
                                        <circle id="Oval-6-Copy" fill-opacity="0.119999997" fill="#2AE0DD" cx="42.3287943" cy="54.578297" r="16.5"></circle>
                                        <circle id="Oval-6" fill-opacity="0.119999997" fill="#1B8F4C" cx="46.596928" cy="16.7334525" r="16.5"></circle>
                                        <circle id="Oval-6-Copy" fill-opacity="0.119999997" fill="#B80000" cx="59.2540258" cy="26.1636037" r="16.5"></circle>
                                        <circle id="Oval-6-Copy-2" fill-opacity="0.17" fill="#70FF0F" cx="49.727691" cy="39.0277171" r="16.5"></circle>
                                        <circle id="Oval-6-Copy-3" fill-opacity="0.2" fill="#E1FF00" cx="37.9873299" cy="33.3493812" r="16.5"></circle>
                                        <circle id="Oval-6" fill-opacity="0.17" fill="#0F0FF2" cx="25.4785966" cy="19.2559803" r="16.5"></circle>
                                        <circle id="Oval-6-Copy" fill-opacity="0.119999997" fill="#2AE0DD" cx="37.2189576" cy="19.2559803" r="16.5"></circle>
                                        <circle id="Oval-6-Copy-3" fill-opacity="0.119999997" fill="#F01EF0" cx="16.8689985" cy="31.7483192" r="16.5"></circle>
                                    </g>
                                </g>
                            </g>
                            <g id="colors" transform="translate(-0.000000, 5.000000)">
                                <mask id="mask-5" fill="white">
                                    <use xlink:href="#path-4"></use>
                                </mask>
                                <use id="Mask" stroke="#000000" fill="#FFFFFF" xlink:href="#path-4"></use>
                                <g mask="url(#mask-5)">
                                    <g transform="translate(-15.699848, -5.774345)">
                                        <circle id="Oval-6" fill-opacity="0.119999997" fill="#F57B0F" cx="24.5001711" cy="51.4135371" r="16.5"></circle>
                                        <circle id="Oval-6-Copy" fill-opacity="0.119999997" fill="#2AE0DD" cx="42.3287943" cy="56.578297" r="16.5"></circle>
                                        <circle id="Oval-6" fill-opacity="0.119999997" fill="#1B8F4C" cx="46.596928" cy="18.7334525" r="16.5"></circle>
                                        <circle id="Oval-6-Copy" fill-opacity="0.119999997" fill="#B80000" cx="59.2540258" cy="28.1636037" r="16.5"></circle>
                                        <circle id="Oval-6-Copy-2" fill-opacity="0.17" fill="#70FF0F" cx="45.6073864" cy="47.8850555" r="16.5"></circle>
                                        <circle id="Oval-6-Copy-3" fill-opacity="0.2" fill="#E1FF00" cx="37.9873299" cy="35.3493812" r="16.5"></circle>
                                        <circle id="Oval-6-Copy-4" fill-opacity="0.2" fill="#E1FF00" transform="translate(63.094472, 23.327019) rotate(59.000000) translate(-63.094472, -23.327019) " cx="63.0944721" cy="23.3270193" r="16.5"></circle>
                                        <circle id="Oval-6" fill-opacity="0.17" fill="#0F0FF2" cx="30.7945092" cy="22.1168361" r="16.5"></circle>
                                        <circle id="Oval-6-Copy" fill-opacity="0.119999997" fill="#2AE0DD" cx="52.2984628" cy="40.8163617" r="16.5"></circle>
                                        <circle id="Oval-6-Copy-3" fill-opacity="0.119999997" fill="#F01EF0" cx="16.8689985" cy="33.7483192" r="16.5"></circle>
                                    </g>
                                </g>
                            </g>
                        </g>
                        <g id="Eye" transform="translate(1.000000, 45.000000)" stroke="#000000">
                            <path d="M8.18977101,14.9874974 C12.2185039,14.9874974 15.4844371,11.6668714 15.4844371,7.57067175 C15.4844371,3.47447208 12.2185039,0.153846154 8.18977101,0.153846154 C4.16103816,0.153846154 0.895104895,3.47447208 0.895104895,7.57067175 C0.895104895,11.6668714 4.16103816,14.9874974 8.18977101,14.9874974 Z" id="Oval-5" fill="#FFFFFF"></path>
                            <path d="M6.08419032,12.2381861 C7.23525685,12.2381861 8.16838064,11.2894358 8.16838064,10.119093 C8.16838064,8.94875027 7.23525685,8 6.08419032,8 C4.93312379,8 4,8.94875027 4,10.119093 C4,11.2894358 4.93312379,12.2381861 6.08419032,12.2381861 Z" id="Pupil" fill="#000000"></path>
                        </g>
                    </g>
                    <g id="Reflection" transform="translate(13.131039, 17.297022) rotate(-12.000000) translate(-13.131039, -17.297022) translate(9.631039, 12.797022)" stroke="#000000">
                        <path d="M0,8.93740406 C2.45960936,4.79845358 4.12346274,2.28551936 4.99156016,1.3986014" id="Path-21"></path>
                        <path d="M5.59440559,0.88691796 C6.0284543,0.29563932 6.24547866,5.68434189e-14 6.24547866,5.68434189e-14 C6.24547866,5.68434189e-14 6.0284543,0.29563932 5.59440559,0.88691796 Z" id="Path-22"></path>
                    </g>
                </g>
            </g>
        </g>
    </g>
</svg>