<?xml version="1.0" encoding="UTF-8"?>
<svg width="95px" height="78px" viewBox="0 0 95 78" version="1.1" xmlns="http://www.w3.org/2000/svg" xmlns:xlink="http://www.w3.org/1999/xlink">
    <!-- Generator: Sketch 49.1 (51147) - http://www.bohemiancoding.com/sketch -->
    <title>Main Squid 2 Small 3 Copy 10</title>
    <desc>Created with Sketch.</desc>
    <defs>
        <filter x="-7.8%" y="-3.9%" width="117.2%" height="110.7%" filterUnits="objectBoundingBox" id="filter-1">
            <feOffset dx="1" dy="1" in="SourceAlpha" result="shadowOffsetOuter1"></feOffset>
            <feGaussianBlur stdDeviation="1.5" in="shadowOffsetOuter1" result="shadowBlurOuter1"></feGaussianBlur>
            <feColorMatrix values="0 0 0 0 0.568160077   0 0 0 0 0.568160077   0 0 0 0 0.568160077  0 0 0 0.5 0" type="matrix" in="shadowBlurOuter1" result="shadowMatrixOuter1"></feColorMatrix>
            <feMerge>
                <feMergeNode in="shadowMatrixOuter1"></feMergeNode>
                <feMergeNode in="SourceGraphic"></feMergeNode>
            </feMerge>
        </filter>
        <path d="M6.53574194,16.8632696 C5.80314665,18.8287948 4.96633231,21.4473479 4.02529891,24.718929 C3.40330517,27.1611049 3.14582383,29.0865116 3.2528549,30.4951491 C3.35988597,31.9037867 3.87484865,33.3670958 4.79774292,34.8850764 C5.64841951,35.5783456 6.32037961,36.0404432 6.8136232,36.2713692 C7.30686679,36.5022952 8.11542438,36.733344 9.23929597,36.9645156 L20.2466231,36.9645156 C21.4838093,37.0456617 22.384994,37.0456617 22.9501771,36.9645156 C23.5153603,36.8833696 24.3521746,36.421272 25.4606202,35.5782228 C26.0565487,34.6714766 26.4427707,33.9013139 26.6192862,33.2677348 C26.7958017,32.6341556 26.9245424,31.5559279 27.0055082,30.0330515 C26.2670324,24.703538 25.5263023,20.8069531 24.7833179,18.343297 C23.6688413,14.6478128 15.9299873,2.38776057 14.6909905,2.7683069 C13.4519936,3.14885323 7.63463488,13.9149819 6.53574194,16.8632696 Z" id="path-2"></path>
        <path d="M15.6958178,11.5249143 C12.337162,18.1656359 12.0627868,22.7777946 10.6180385,28.0492434 C9.65487298,31.5635426 8.55468746,36.2454358 7.31748195,42.0949231 C6.49972767,46.4614592 6.16120905,49.9040278 6.30192609,52.4226288 C6.51300164,56.2005304 7.40746483,58.2297873 8.33303782,60.2716851 C9.2586108,62.3135829 10.0106538,62.1310015 10.9833775,62.7503345 C11.63186,63.1632232 12.6948955,63.5763314 14.172484,63.9896592 L28.6441551,63.9896592 C30.2707219,64.1347458 31.4555371,64.1347458 32.1986007,63.9896592 C33.3131961,63.7720293 36.8026901,61.1856728 37.530269,51.5964124 C38.2578478,42.0071519 36.202727,37.135306 34.7374903,30.5278928 C33.2722537,23.9204795 31.1146347,16.2951147 28.6441551,11.5249143 C26.1736756,6.75471388 22.6052462,2.44770478 21.3399943,2.84787919 C20.0747423,3.24805359 19.0544736,4.88419268 15.6958178,11.5249143 Z" id="path-4"></path>
    </defs>
    <g id="Page-1" stroke="none" stroke-width="1" fill="none" fill-rule="evenodd">
        <g id="Artboard-5" transform="translate(-178.000000, -173.000000)">
            <g id="Main-Squid-2-Small-3-Copy-10" filter="url(#filter-1)" transform="translate(225.240861, 201.684138) rotate(42.000000) translate(-225.240861, -201.684138) translate(193.240861, 150.184138)">
                <g id="Tenticles" transform="translate(0.000000, 64.237762)" fill="#FFFFFF" stroke="#000000">
                    <path d="M26.2910167,1.37317228 C22.2034662,6.04289525 18.73568,8.10265367 15.8876579,7.55244755 C11.6156248,6.72713837 11.5259598,4.46830797 8.57189675,3.66179275 C5.61783371,2.85527753 1.62485824,5.6974072 0.798900519,6.63699936 C-0.0270572069,7.57659153 -0.125237197,9.06529065 0.11304791,9.38334393 C0.351333017,9.70139721 2.12206963,9.60709259 2.85645835,9.38334393 C3.19707883,9.27956595 4.8990566,8.28688097 7.20019154,8.69675779 C8.2066039,8.87601937 17.2593631,12.1296885 22.0603314,10.0699301 C26.9850336,7.95708609 28.5364742,3.0567294 29.2630446,1.60203433 C30.1775148,-0.228862047 29.1868388,-0.305149396 26.2910167,1.37317228 Z" id="Path-14"></path>
                    <path d="M42.7514793,1.60203433 C42.7514793,11.2142403 44.1993904,16.5543547 47.0952125,17.6223776 C51.4389457,19.224412 52.1247983,17.6223776 54.1823561,17.6223776 C56.2399139,17.6223776 61.0633148,22.0051574 58.5260893,22.4284806 C55.9888638,22.8518038 56.4643961,21.5130324 52.8106509,21.5130324 C49.1569057,21.5130324 47.3124713,22.5446205 45.4948897,22.4284806 C44.2831687,22.351054 42.3780226,20.7490197 39.7794513,17.6223776 C40.0842747,14.1640178 40.2366864,11.6465353 40.2366864,10.0699301 C40.2366864,8.49332486 40.0842747,5.67069294 39.7794513,1.60203433" id="Path-15"></path>
                    <path d="M37.0360409,1.60203433 C36.2739824,11.5193897 35.1308947,19.0718373 33.6067778,24.259377 C31.3206025,32.0406866 21.2614309,34.7870312 20.5755783,33.871583 C19.8897257,32.9561348 28.119957,27.6923077 30.8633674,15.5626192 C32.6923077,7.4761602 33.4543661,2.89891926 33.1495428,1.83089638 L37.0360409,1.60203433 Z" id="Path-17"></path>
                    <path d="M39.7794513,17.6223776 C38.8594443,22.8299576 38.5546209,26.415463 38.8649812,28.3788938 C39.6774501,33.5188122 43.894567,36.3890655 42.5228618,37.5333757 C41.9218666,38.0347407 38.1085594,37.3589558 35.6643357,33.6427209 C34.8144087,32.350479 34.2047619,29.1464103 33.8353954,24.0305149 L36.9468114,4.07200137 L40.4404928,4.96317463 L39.7794513,17.6223776 Z" id="Path-18"></path>
                    <path d="M31.0919849,14.647171 C26.2980062,19.4185156 22.944949,23.0803083 21.0328133,25.6325493 C18.1646099,29.4609107 18.2894029,32.9561348 16.9176977,31.8118245 C15.5459925,30.6675143 16.2748953,23.4209925 20.1183432,18.7666879 C21.2045891,17.4512754 25.252031,13.4687804 29.4916622,8.01017165 C30.6414579,6.52978697 31.8607514,4.3937412 33.1495428,1.60203433 L31.0919849,14.647171 Z" id="Path-19"></path>
                    <path d="M29.2163036,2.95878545 C26.6957219,5.25709501 23.4344509,7.8563386 19.4324906,10.7565162 C13.4295502,15.1067826 7.77299623,16.0203433 7.08714363,18.9955499 C6.40129102,21.9707565 5.94405594,26.5479975 8.00161377,25.4036872 C10.0591716,24.259377 9.47932299,20.9343218 12.345347,18.9955499 C14.8547537,17.298018 17.4821603,16.8084306 20.1183432,15.5626192 C23.5480797,13.9417891 24.1010275,14.0174473 26.9768693,10.9853783 C28.8940971,8.96399888 30.6901377,6.45780742 32.3649909,3.46680389" id="Path-20"></path>
                </g>
                <g id="Face" transform="translate(18.048343, 0.519682)">
                    <g id="Group-6" transform="translate(0.179619, 0.467924)">
                        <g id="Camo" transform="translate(0.000000, 0.000000)">
                            <g id="colors-copy" transform="translate(11.000000, 0.000000)">
                                <mask id="mask-3" fill="white">
                                    <use xlink:href="#path-2"></use>
                                </mask>
                                <use id="Mask" stroke="#000000" fill="#FFFFFF" transform="translate(15.117396, 19.892508) rotate(11.000000) translate(-15.117396, -19.892508) " xlink:href="#path-2"></use>
                                <g mask="url(#mask-3)">
                                    <g transform="translate(23.044816, 11.465355) rotate(-54.000000) translate(-23.044816, -11.465355) translate(-12.455184, -24.534645)">
                                        <ellipse id="Oval-6" fill-opacity="0.119999997" fill="#F57B0F" cx="16.6538147" cy="50.5706359" rx="14.6538147" ry="21.2623653"></ellipse>
                                        <ellipse id="Oval-6-Copy" fill-opacity="0.119999997" fill="#2AE0DD" cx="34.4383924" cy="50.5706359" rx="8.6095981" ry="12.4923389"></ellipse>
                                        <ellipse id="Oval-6" fill-opacity="0.119999997" fill="#1B8F4C" cx="41.548464" cy="16.8493812" rx="11.451536" ry="16.6159287"></ellipse>
                                        <ellipse id="Oval-6-Copy" fill-opacity="0.119999997" fill="#B80000" cx="51.3636239" cy="22.1559426" rx="8.6095981" ry="12.4923389"></ellipse>
                                        <ellipse id="Oval-6-Copy-2" fill-opacity="0.17" fill="#70FF0F" cx="41.8372891" cy="35.020056" rx="8.6095981" ry="12.4923389"></ellipse>
                                        <ellipse id="Oval-6-Copy-3" fill-opacity="0.2" fill="#E1FF00" cx="30.096928" cy="29.3417201" rx="8.6095981" ry="12.4923389"></ellipse>
                                        <ellipse id="Oval-6-Copy-4" fill-opacity="0.2" fill="#E1FF00" transform="translate(55.204070, 17.319358) rotate(59.000000) translate(-55.204070, -17.319358) " cx="55.2040702" cy="17.3193582" rx="8.6095981" ry="12.4923389"></ellipse>
                                        <ellipse id="Oval-6" fill-opacity="0.17" fill="#0F0FF2" cx="17.5881947" cy="15.2483192" rx="8.6095981" ry="12.4923389"></ellipse>
                                        <ellipse id="Oval-6-Copy" fill-opacity="0.119999997" fill="#2AE0DD" cx="29.3285557" cy="15.2483192" rx="8.6095981" ry="12.4923389"></ellipse>
                                        <ellipse id="Oval-6-Copy-2" fill-opacity="0.119999997" fill="#0F0FFF" cx="20.7189576" cy="33.418994" rx="8.6095981" ry="12.4923389"></ellipse>
                                        <ellipse id="Oval-6-Copy-3" fill-opacity="0.119999997" fill="#F01EF0" cx="8.97859656" cy="27.7406581" rx="8.6095981" ry="12.4923389"></ellipse>
                                    </g>
                                </g>
                            </g>
                            <g id="colors" transform="translate(-0.000000, 6.000000)">
                                <mask id="mask-5" fill="white">
                                    <use xlink:href="#path-4"></use>
                                </mask>
                                <use id="Mask" stroke="#000000" fill="#FFFFFF" transform="translate(21.976245, 33.460251) rotate(11.000000) translate(-21.976245, -33.460251) " xlink:href="#path-4"></use>
                                <g mask="url(#mask-5)">
                                    <g transform="translate(28.700779, 39.881068) rotate(-54.000000) translate(-28.700779, -39.881068) translate(-6.799221, 3.881068)">
                                        <ellipse id="Oval-6" fill-opacity="0.119999997" fill="#F57B0F" cx="16.6538147" cy="50.5706359" rx="14.6538147" ry="21.2623653"></ellipse>
                                        <ellipse id="Oval-6-Copy" fill-opacity="0.119999997" fill="#2AE0DD" cx="34.4383924" cy="50.5706359" rx="8.6095981" ry="12.4923389"></ellipse>
                                        <ellipse id="Oval-6" fill-opacity="0.119999997" fill="#1B8F4C" cx="41.548464" cy="16.8493812" rx="11.451536" ry="16.6159287"></ellipse>
                                        <ellipse id="Oval-6-Copy" fill-opacity="0.119999997" fill="#B80000" cx="51.3636239" cy="22.1559426" rx="8.6095981" ry="12.4923389"></ellipse>
                                        <ellipse id="Oval-6-Copy-2" fill-opacity="0.17" fill="#70FF0F" cx="41.8372891" cy="35.020056" rx="8.6095981" ry="12.4923389"></ellipse>
                                        <ellipse id="Oval-6-Copy-3" fill-opacity="0.2" fill="#E1FF00" cx="30.096928" cy="29.3417201" rx="8.6095981" ry="12.4923389"></ellipse>
                                        <ellipse id="Oval-6-Copy-4" fill-opacity="0.2" fill="#E1FF00" transform="translate(55.204070, 17.319358) rotate(59.000000) translate(-55.204070, -17.319358) " cx="55.2040702" cy="17.3193582" rx="8.6095981" ry="12.4923389"></ellipse>
                                        <ellipse id="Oval-6" fill-opacity="0.17" fill="#0F0FF2" cx="17.5881947" cy="15.2483192" rx="8.6095981" ry="12.4923389"></ellipse>
                                        <ellipse id="Oval-6-Copy" fill-opacity="0.119999997" fill="#2AE0DD" cx="29.3285557" cy="15.2483192" rx="8.6095981" ry="12.4923389"></ellipse>
                                        <ellipse id="Oval-6-Copy-2" fill-opacity="0.119999997" fill="#0F0FFF" cx="20.7189576" cy="33.418994" rx="8.6095981" ry="12.4923389"></ellipse>
                                        <ellipse id="Oval-6-Copy-3" fill-opacity="0.119999997" fill="#F01EF0" cx="8.97859656" cy="27.7406581" rx="8.6095981" ry="12.4923389"></ellipse>
                                    </g>
                                </g>
                            </g>
                        </g>
                        <g id="Eye" transform="translate(6.000000, 48.000000)" stroke="#000000">
                            <path d="M8.18977101,14.9874974 C12.2185039,14.9874974 15.4844371,11.6668714 15.4844371,7.57067175 C15.4844371,3.47447208 12.2185039,0.153846154 8.18977101,0.153846154 C4.16103816,0.153846154 0.895104895,3.47447208 0.895104895,7.57067175 C0.895104895,11.6668714 4.16103816,14.9874974 8.18977101,14.9874974 Z" id="Oval-5" fill="#FFFFFF"></path>
                            <path d="M6.08419032,12.2381861 C7.23525685,12.2381861 8.16838064,11.2894358 8.16838064,10.119093 C8.16838064,8.94875027 7.23525685,8 6.08419032,8 C4.93312379,8 4,8.94875027 4,10.119093 C4,11.2894358 4.93312379,12.2381861 6.08419032,12.2381861 Z" id="Pupil" fill="#000000"></path>
                        </g>
                    </g>
                    <g id="Reflection" transform="translate(19.482517, 14.587413)" stroke="#000000">
                        <path d="M0,8.93740406 C2.45960936,4.79845358 4.12346274,2.28551936 4.99156016,1.3986014" id="Path-21"></path>
                        <path d="M5.59440559,0.88691796 C6.0284543,0.29563932 6.24547866,5.68434189e-14 6.24547866,5.68434189e-14 C6.24547866,5.68434189e-14 6.0284543,0.29563932 5.59440559,0.88691796 Z" id="Path-22"></path>
                    </g>
                </g>
            </g>
        </g>
    </g>
</svg>