<svg width="426" height="509" viewBox="0 0 426 509" fill="none" xmlns="http://www.w3.org/2000/svg">
<path opacity="0.5" d="M145.462 126.068L204.754 508.697L425.028 286.477L145.462 126.068Z" fill="url(#paint0_linear)"/>
<path fill-rule="evenodd" clip-rule="evenodd" d="M56.3691 0.0496134C56.6258 0.1286 58.4852 1.06822 62.2309 3.01189C76.5575 10.4458 92.6206 18.1335 97.4701 19.8768L98.1858 20.1341L99.3446 20.1355C100.615 20.1371 100.58 20.1423 103.434 19.5296C109.396 18.25 110.04 18.7025 113.696 26.7336C116.736 33.4116 116.517 33.2271 123.576 35.0597C137.541 38.6852 143.95 43.5142 148.522 53.8556C151.039 59.5479 154.32 64.0505 157.031 65.5305C159.216 66.7231 161.884 68.5908 164.234 70.5721C167.092 72.982 169.459 75.2477 174.529 80.4244C179.157 85.1503 180.85 86.5839 181.922 86.6843C186.091 87.0747 190.135 90.2828 192.492 95.0693C192.941 95.9812 192.849 95.9854 193.338 95.0306C195.465 90.8811 198.03 88.1285 200.202 87.6641L200.535 87.5928L206.718 91.6888C210.118 93.9415 215.216 97.3283 218.047 99.215C220.877 101.102 223.132 102.585 223.057 102.511C222.982 102.438 222.675 102.153 222.375 101.879C221.457 101.039 220.126 99.7447 216.786 96.4441C210.85 90.578 209.343 89.2083 208.15 88.5941C207.066 88.0359 206.094 87.3592 201.347 83.8576C198.695 81.9013 197.421 80.9986 196.985 80.7675C196.035 80.2639 191.03 81.3979 188.465 82.6982C185.256 84.3243 183.433 84.9565 183.051 84.5755C182.801 84.3256 182.961 83.1454 183.35 82.3768C183.6 81.882 184.028 81.5636 185.295 80.9294C185.928 80.6131 186.561 80.2024 186.886 79.8988C187.85 78.9975 187.603 77.164 186.411 76.375C184.961 75.4148 184.399 75.3155 179.945 75.2326C175.436 75.1487 174.549 75.0028 174.282 74.3005C174.046 73.682 173.862 73.7073 181.07 73.3631C182.277 73.3055 182.971 73.2583 182.997 73.2319C183.037 73.1919 182.015 72.8762 180.558 72.4788C176.104 71.2636 174.151 70.4275 174.151 69.7359C174.151 68.9434 177.958 69.4933 184.026 71.1625C184.565 71.3109 185.015 71.4234 185.026 71.4127C185.036 71.4019 183.031 70.1076 180.57 68.5363C175.764 65.4677 175.837 65.5229 176.064 65.1179C176.431 64.4638 179.805 65.622 186.232 68.6081C186.898 68.9175 187.443 69.1628 187.443 69.1533C187.443 69.1437 187.011 68.8638 186.484 68.5312C180.441 64.7174 180.703 62.7844 186.775 66.3844C187.817 67.0021 191.136 68.8729 192.043 69.3541C194.373 70.5891 196.296 72.0016 199.089 74.5297C199.703 75.0852 200.347 75.6507 200.521 75.7865C201.217 76.3315 204.354 77.9778 211.469 81.5322C226.506 89.0442 226.582 89.0866 230.041 91.8567C235.012 95.8373 237.229 98.2525 237.99 100.517C238.651 102.485 239.869 105.5 241.089 108.191L241.583 109.282L242.2 108.703C248.449 102.837 255.632 109.691 254.926 120.845C254.832 122.316 254.531 125.176 254.413 125.705C254.385 125.83 254.419 125.841 254.806 125.843C256.523 125.853 256.223 129.014 254.327 130.897C253.575 131.644 253.547 131.683 253.487 132.047C253.453 132.255 253.402 132.444 253.373 132.468C253.344 132.492 253.105 132.692 252.843 132.913C252.581 133.134 252.36 133.316 252.353 133.317C252.333 133.323 252.059 135.312 252.059 135.458C252.059 135.727 253.922 134.606 254.604 133.926C255.059 133.472 255.519 132.586 256.135 130.973C257.158 128.296 258.034 127.194 260.403 125.609C265.343 122.303 272.647 124.799 276.5 131.109C279.734 136.407 279.826 140.077 276.802 143.232L276.169 143.892L276.849 145.233C278.011 147.52 278.05 147.282 276.067 150.04C271.978 155.73 270.448 156.698 268.217 155.01C267.897 154.768 267.936 154.737 267.439 155.631L266.996 156.43L267.366 157.789C267.808 159.416 267.801 159.242 267.454 159.932C266.415 162.002 262.907 163.418 260.129 162.888C259.447 162.758 259.472 162.803 259.591 161.904C259.707 161.028 259.709 161.039 259.435 161.18C258.158 161.839 256.006 162.27 254.756 162.117C251.125 161.672 249.427 158.395 249.088 151.179L249.043 150.21H248.52H247.997L247.91 150.635C247.607 152.125 246.825 154.082 246.137 155.07C245.631 155.798 245.568 155.869 245.513 155.779C245.471 155.712 245.425 155.718 245.3 155.809C245.212 155.873 244.895 156.106 244.596 156.328C240.535 159.322 232.218 160.763 223.023 160.067C219.877 159.829 219.231 159.74 207.005 157.855C205.138 157.567 203.477 157.36 201.313 157.145C193.966 156.415 190.215 155.671 186.602 154.227C184.259 153.29 180.564 151.547 177.764 150.056C176.404 149.332 175.653 148.905 172.958 147.322C170.197 145.699 167.707 144.077 166.39 143.041C164.42 141.493 163.978 141.272 161.544 140.622C155.721 139.068 150.51 136.702 144.501 132.883C143.121 132.006 142.729 131.581 142.729 130.96C142.729 130.065 144.139 130.441 148.182 132.417C150.28 133.442 150.698 133.52 150.336 132.822C150.036 132.243 149.596 131.934 146.323 129.998C141.948 127.411 140.876 126.444 141.682 125.812C142.263 125.356 143.452 125.836 146.755 127.861C148.551 128.962 150.22 129.919 150.26 129.872C150.27 129.861 150.326 129.756 150.386 129.64L150.494 129.428L149.287 128.304C144.614 123.957 142.119 121.003 142.807 120.636C143.485 120.274 144.992 121.298 148.761 124.685C151.43 127.082 151.406 127.101 149.405 124.176C146.468 119.883 145.697 118.12 146.651 117.881C147.304 117.718 148.308 118.843 150.363 122.045C153.314 126.642 154.007 127.337 155.645 127.337C157.814 127.337 158.779 125.683 158.026 123.258C157.498 121.559 158.157 119.282 159.176 119.282C159.867 119.282 160.657 120.254 160.886 121.389C161.106 122.474 161.379 124.191 161.541 125.501C161.897 128.381 163.759 133.646 165.004 135.29L165.261 135.629L166.145 135.677C176.237 136.215 188.748 139.921 195.118 144.258C195.734 144.678 195.747 144.683 195.966 144.591C196.809 144.238 199.927 143.766 202.847 143.55C203.391 143.509 204.035 143.462 204.278 143.444C204.522 143.426 204.905 143.396 205.13 143.378C205.355 143.359 206.458 143.297 207.581 143.24C208.703 143.183 209.63 143.128 209.639 143.119C209.649 143.109 209.405 142.952 209.098 142.77C204.663 140.143 197.04 134.398 190.12 128.469L188.81 127.347L187.087 127.059C179.565 125.805 174.921 124.072 173.63 122.036C173.449 121.751 173.424 121.737 173.029 121.695C163.921 120.732 149.866 112.886 143.089 104.982C139.315 100.581 132.93 95.5247 126.697 92.0011C118.848 87.5643 100.584 78.2779 90.2451 73.4675C85.4874 71.2539 81.9024 71.1296 75.4408 72.9544C74.1923 73.307 72.8947 73.6446 72.5573 73.7047C71.1261 73.9598 70.4105 74.1653 65.5027 75.731C62.3742 76.729 58.8783 77.8194 56.7781 78.4524C31.6442 86.0269 14.8903 88.3046 3.27172 85.7265C2.58118 85.5733 -1.86237e-06 84.7806 -1.86237e-06 84.7218C-1.86237e-06 84.7095 0.49519 84.3705 1.10039 83.9683C8.08287 79.3286 13.2232 73.774 13.2232 70.8686C13.2232 70.7753 13.4186 70.6538 13.99 70.3916C20.797 67.2681 25.4717 63.9456 27.0671 61.0973L27.3641 60.5671L27.8424 60.5262C30.0324 60.3392 31.0928 60.3135 36.4661 60.3166C40.846 60.3191 42.6994 60.3468 44.5091 60.4366C45.8024 60.5007 47.5508 60.5847 48.3943 60.6232C49.2378 60.6617 51.3388 60.7834 53.0633 60.8936C54.7878 61.0037 56.7201 61.1259 57.3574 61.165C57.9947 61.2041 59.6204 61.3107 60.97 61.4019C71.77 62.1319 73.2588 62.0574 74.6539 60.717C79.9832 55.5968 84.3264 54.9186 88.2746 58.5902C88.8281 59.1049 90.2711 60.777 91.1653 61.9398C93.5534 65.0453 94.9403 66.3415 96.8063 67.2124C97.9867 67.7633 98.3044 67.805 101.73 67.8594C123.799 68.2094 137.365 74.1676 141.541 85.3442C141.847 86.1634 141.895 86.25 142.081 86.3103C142.333 86.3918 155.132 89.5765 155.208 89.5765C155.238 89.5765 155.092 89.4158 154.884 89.2196C150.487 85.074 141.682 71.6006 140.648 67.4343L140.491 66.8024L138.759 65.0193C137.806 64.0386 135.451 61.5844 133.525 59.5655C131.599 57.5467 129.132 54.9619 128.042 53.8217C126.953 52.6814 124.943 50.5708 123.577 49.1314C122.21 47.692 120.631 46.0452 120.068 45.4717C115.097 40.4133 109.486 36.8102 103.393 34.765C100.69 33.8578 98.6432 33.3832 93.0738 32.3727C89.2799 31.6843 88.2645 31.5088 86.2236 31.1887C76.4463 29.6553 72.2125 28.9444 66.934 27.9495C48.592 24.4926 36.5801 20.6484 30.4859 16.285C29.8566 15.8345 29.7296 15.7165 29.831 15.6768C29.9002 15.6498 30.2788 15.5021 30.6724 15.3488C33.9645 14.066 38.2077 10.5092 39.57 7.89045C39.7243 7.59381 39.7867 7.53671 39.9998 7.49695C41.3367 7.24748 43.9158 6.03786 47.4771 3.98998C50.5195 2.24051 51.438 1.72717 52.4049 1.23557C54.3109 0.266725 55.7121 -0.152476 56.3691 0.0496134ZM245.904 108.581C244.816 108.862 243.371 109.812 242.648 110.723L242.437 110.989L242.811 111.694C243.585 113.153 244.389 114.372 245.204 115.327C245.993 116.251 247.063 118.744 247.83 121.447L248.048 122.213L248.751 122.906C249.892 124.029 249.969 124.257 249.875 126.238C249.82 127.409 250.34 127.524 252.091 126.728L252.585 126.503L252.666 125.968C253.27 121.947 253.384 118.737 253.008 116.359C252.17 111.064 249.139 107.745 245.904 108.581ZM252.025 150.11C251.95 150.122 251.648 150.134 251.353 150.137L250.818 150.142L250.861 150.975C250.969 153.08 251.113 154.413 251.347 155.499C252.349 160.139 254.773 161.229 259.359 159.104C260.01 158.803 259.981 158.843 260.07 158.121L260.112 157.774L259.715 157.875C258.508 158.184 256.557 157.184 255.874 155.905L255.646 155.479L255.635 153.881C255.621 151.964 255.425 150.776 255.02 150.16L254.918 150.005L253.54 150.047C252.782 150.07 252.1 150.098 252.025 150.11Z" fill="black"/>
<defs>
<linearGradient id="paint0_linear" x1="150.736" y1="138.057" x2="340.329" y2="336.608" gradientUnits="userSpaceOnUse">
<stop stop-color="#E1FF00"/>
<stop offset="1" stop-color="#E1FF00" stop-opacity="0"/>
</linearGradient>
</defs>
</svg>
