<svg width="54" height="31" viewBox="0 0 54 31" fill="none" xmlns="http://www.w3.org/2000/svg">
<path opacity="1" d="M30.9786 0.729472C22.7276 0.729472 15.4851 5.77174 11.4513 10.0806L3.4753 4.02987C2.37517 3.20477 0.724972 4.12154 1.00001 5.40503L3.20027 15.3979L1.00001 25.4824C0.724981 26.7659 2.37518 27.6827 3.47531 26.8576L11.4513 20.8069C15.4851 25.1157 22.7276 30.0663 30.9786 30.0663C43.5384 30.0663 53.8063 18.3316 53.8063 15.3979C53.8063 12.4642 43.5384 0.729472 30.9786 0.729472ZM38.9546 17.5982C37.7627 17.5982 36.7543 16.6814 36.7543 15.3979C36.7543 14.2061 37.7627 13.1976 38.9545 13.1976C40.1464 13.1976 41.1548 14.2061 41.1548 15.3979C41.1548 16.6814 40.1464 17.5982 38.9546 17.5982Z" fill="#4B4BB2"/>
</svg>
