<svg width="309" height="309" viewBox="0 0 309 309" fill="none" xmlns="http://www.w3.org/2000/svg">
<path fill-rule="evenodd" clip-rule="evenodd" d="M179.899 86.8466L179.888 86.9049C191.709 76.4878 205.983 67.384 218.736 61.9712L218.561 62.009C222.279 60.424 225.869 59.1513 229.234 58.2497L228.983 58.3504C225.744 59.2346 222.3 60.4588 218.736 61.9712L222.459 61.17C208.475 67.6133 192.881 77.3129 181.497 88.6975C177.879 92.315 174.737 95.5248 171.989 98.3328C167.41 103.011 163.922 106.574 161.146 109.048C159.884 110.173 158.178 111.203 156.468 112.234C153.549 113.995 150.62 115.763 149.87 118.023C149.625 118.762 149.924 119.903 150.616 121.314C148.19 122.585 145.913 124.24 143.875 126.279C140.362 129.792 137.988 134.013 136.754 138.482C133.867 138.263 130.957 138.189 128.113 138.163C115.638 138.048 102.914 139.677 91.3277 144.486C75.5429 151.037 65.5457 163.225 58.3662 178.324C57.8738 179.36 57.3934 180.424 56.9188 181.509C56.0476 181.192 55.1912 180.884 54.352 180.592C48.8446 178.675 42.8928 176.606 36.9752 176.928C30.6256 177.273 23.967 182.376 22.933 188.87C22.5071 191.545 23.0006 194.23 23.8742 196.764C23.9251 196.912 23.9775 197.093 24.0343 197.289C24.2246 197.945 24.4648 198.774 24.8703 199.12C25.482 199.642 26.3664 199.035 26.1858 198.283C24.8838 192.863 24.1121 188.015 29.1379 184.117C30.1974 183.295 31.3729 182.633 32.5915 182.078C34.244 181.327 36.0178 181.173 37.812 181.347C42.4903 181.801 47.0074 183.882 51.2339 185.83L51.4773 185.942C52.4711 186.4 53.4614 186.865 54.4499 187.335C51.429 194.534 48.1959 201.928 43.1219 207.225C37.5364 213.056 29.091 215.397 21.2398 213.796C18.6328 213.265 16.1091 212.331 13.7718 211.062C13.3222 210.818 12.8731 210.493 12.4237 210.167C11.8406 209.745 11.2572 209.323 10.6722 209.077C10.0148 208.8 9.39596 209.441 9.58402 210.092C9.84471 210.995 12.5371 212.639 13.5458 213.255C13.615 213.298 13.6764 213.335 13.7284 213.367C18.6473 216.394 24.4155 217.914 30.19 217.586C46.1931 216.676 54.014 203.473 61.0904 190.517C64.2921 192.039 67.5131 193.518 70.8093 194.831C72.0279 195.316 73.2605 195.781 74.5051 196.219C74.1746 198.275 73.9444 200.496 73.7094 202.764C73.0746 208.887 72.4047 215.351 69.6287 219.824C65.8247 225.954 58.0403 229.097 51.3346 230.725C49.2832 231.223 47.1957 231.604 45.0941 231.813C44.739 231.848 44.3507 231.843 43.9579 231.838C43.3706 231.831 42.7732 231.824 42.2611 231.95C41.4033 232.16 41.4894 233.378 42.3227 233.546C45.2814 234.145 48.7319 233.663 51.6888 233.25L51.8129 233.233C61.5537 231.873 71.8079 227.766 76.2009 218.335C78.2601 213.915 79.2818 209.173 80.3034 204.432C80.7429 202.392 81.1824 200.352 81.7045 198.338C86.1882 199.375 90.7779 199.856 95.3973 199.398C105.651 198.379 115.266 192.193 123.358 186.046C117.211 194.137 111.025 203.752 110.006 214.006C109.547 218.626 110.029 223.215 111.066 227.699C109.051 228.221 107.012 228.661 104.972 229.1C100.231 230.122 95.4892 231.143 91.0684 233.203C81.6373 237.596 77.5303 247.85 76.1706 257.591L76.1533 257.715C75.7403 260.672 75.2584 264.122 75.8573 267.081C76.026 267.914 77.2433 268 77.4538 267.142C77.5795 266.63 77.5723 266.033 77.5653 265.446C77.5606 265.053 77.5559 264.665 77.5911 264.31C77.7994 262.208 78.1805 260.12 78.6786 258.069C80.3066 251.363 83.45 243.579 89.5797 239.775C94.0528 236.999 100.516 236.329 106.64 235.694L106.64 235.694L106.641 235.694C108.908 235.459 111.129 235.229 113.185 234.898C113.622 236.143 114.088 237.376 114.573 238.594C115.886 241.891 117.365 245.111 118.887 248.313C105.931 255.39 92.7279 263.211 91.8179 279.214C91.4895 284.988 93.0096 290.756 96.0367 295.675C96.0687 295.727 96.1061 295.789 96.1484 295.858C96.7646 296.867 98.409 299.559 99.3114 299.82C99.9624 300.008 100.603 299.389 100.327 298.731C100.081 298.146 99.6584 297.563 99.2364 296.98C98.911 296.531 98.5859 296.081 98.3417 295.632C97.0723 293.294 96.1388 290.771 95.6074 288.164C94.007 280.313 96.3478 271.867 102.179 266.282C107.476 261.208 114.87 257.975 122.069 254.954C122.538 255.942 123.004 256.932 123.462 257.926L123.574 258.17C125.522 262.396 127.603 266.913 128.057 271.592C128.231 273.386 128.077 275.16 127.325 276.812C126.771 278.031 126.109 279.206 125.287 280.266C121.389 285.291 116.541 284.52 111.121 283.218C110.369 283.037 109.761 283.922 110.284 284.533C110.63 284.939 111.458 285.179 112.114 285.369L112.114 285.369L112.115 285.369L112.115 285.369C112.311 285.426 112.492 285.478 112.64 285.529C115.174 286.403 117.859 286.896 120.534 286.471C127.028 285.437 132.13 278.778 132.476 272.428C132.798 266.511 130.729 260.559 128.812 255.052C128.519 254.212 128.212 253.356 127.895 252.485C128.98 252.01 130.044 251.53 131.08 251.037C146.178 243.858 158.366 233.861 164.918 218.076C169.727 206.49 171.356 193.766 171.241 181.291C171.215 178.447 171.141 175.537 170.921 172.65C175.391 171.416 179.612 169.042 183.125 165.529C185.164 163.49 186.819 161.213 188.09 158.787C189.5 159.479 190.642 159.778 191.381 159.533C193.641 158.784 195.408 155.854 197.169 152.936C198.201 151.226 199.23 149.519 200.356 148.257C202.83 145.481 206.393 141.994 211.071 137.415L211.071 137.415L211.071 137.414L211.072 137.414L211.072 137.414C213.88 134.665 217.089 131.524 220.706 127.907C233.9 114.713 244.831 95.8654 251.053 80.4212C247.004 95.2526 235.826 114.393 222.499 129.516L222.557 129.505L222.525 129.541C228.76 128.366 235.141 124.921 241.449 118.613C258.981 101.081 264.469 63.2296 255.336 54.0947L255.336 54.0947L255.31 54.0686L255.309 54.0677L255.309 54.0676L255.307 54.0662C246.169 44.9356 208.321 50.4242 190.791 67.9544C184.483 74.2628 181.037 80.6434 179.863 86.8788L179.899 86.8466ZM76.5606 188.097C72.4835 187.096 68.4109 185.721 64.4966 184.303C65.9089 181.782 67.3396 179.353 68.8492 177.117C72.5459 171.642 76.9238 166.606 82.2738 162.688C91.286 156.087 102.569 153.625 113.562 153.226C115.563 153.154 117.567 153.148 119.569 153.204C111.088 156.317 102.848 160.121 95.3347 165.091C86.2393 171.106 79.9501 178.406 76.5606 188.097ZM124.489 165.88C121.738 166.579 119.007 167.351 116.302 168.21C104.794 171.864 92.0318 177.136 85.69 188.063C85.4115 188.543 85.1484 189.027 84.8993 189.517C88.208 189.788 91.4483 189.648 94.5339 188.91C97.1968 188.272 99.6118 187.064 101.958 185.68C110.565 180.606 117.912 173.506 124.489 165.88ZM119.887 224.504C119.616 221.196 119.756 217.955 120.494 214.87C121.131 212.207 122.34 209.792 123.723 207.445C128.798 198.838 135.897 191.492 143.524 184.915C142.824 187.665 142.052 190.397 141.193 193.102C137.54 204.609 132.268 217.372 121.341 223.714C120.861 223.992 120.376 224.255 119.887 224.504ZM156.2 189.835C156.256 191.837 156.25 193.841 156.178 195.841C155.779 206.834 153.317 218.118 146.716 227.13C142.798 232.48 137.762 236.858 132.287 240.554C130.051 242.064 127.622 243.495 125.101 244.907C123.683 240.993 122.307 236.92 121.307 232.843C130.997 229.453 138.298 223.164 144.313 214.069C149.282 206.555 153.087 198.316 156.2 189.835Z" fill="white"/>
<path d="M149.312 146.104C149.392 164.333 177.145 164.478 177.283 146.104C177.218 127.89 149.465 127.723 149.312 146.104Z" fill="black"/>
<path d="M157.939 146.105C157.969 153.09 168.604 153.146 168.657 146.105C168.632 139.125 157.997 139.061 157.939 146.105Z" fill="#2AE0DD"/>
</svg>
