<svg width="186" height="160" viewBox="0 0 186 160" fill="none" xmlns="http://www.w3.org/2000/svg">
<path d="M90.2059 0.601504C90.4663 0.601504 90.6793 0.466165 90.6793 0.300752C90.6793 0.135338 91.0229 0 91.4426 0C92.2915 0 94.2955 1.78857 94.2955 2.54646C94.2955 2.8 94.4311 3.00752 94.5968 3.00752C94.7643 3.00752 94.8981 3.80962 94.8981 4.81203C94.8981 5.81444 94.7643 6.61654 94.5968 6.61654C94.4311 6.61654 94.2955 7.1579 94.2955 7.81955C94.2955 8.4812 94.1599 9.02256 93.9941 9.02256C93.8284 9.02256 93.6928 9.69925 93.6928 10.5263C93.6928 11.3534 93.5572 12.0301 93.3914 12.0301C93.2257 12.0301 93.0901 12.5714 93.0901 13.2331C93.0901 13.8947 92.9545 14.4361 92.7887 14.4361C92.623 14.4361 92.4874 14.9774 92.4874 15.6391C92.4874 16.3008 92.3518 16.8421 92.1861 16.8421C92.0203 16.8421 91.8847 17.1128 91.8847 17.4436C91.8847 17.7744 91.7491 18.0451 91.5834 18.0451C91.4176 18.0451 91.282 18.4511 91.282 18.9474C91.282 19.4436 91.1464 19.8496 90.9807 19.8496C90.8149 19.8496 90.6793 20.391 90.6793 21.0526C90.6793 21.7143 90.5437 22.2556 90.378 22.2556C90.2123 22.2556 90.0767 22.6617 90.0767 23.1579C90.0767 23.6541 89.941 24.0602 89.7753 24.0602C89.6096 24.0602 89.474 24.3308 89.474 24.6617C89.474 24.9925 89.3384 25.2632 89.1726 25.2632C89.0069 25.2632 88.8713 25.6692 88.8713 26.1654C88.8713 26.6617 88.7357 27.0677 88.5699 27.0677C88.4042 27.0677 88.2686 27.3383 88.2686 27.6692C88.2686 28 88.133 28.2707 87.9673 28.2707C87.8015 28.2707 87.6659 28.5414 87.6659 28.8722C87.6659 29.203 87.5303 29.4737 87.3646 29.4737C87.1988 29.4737 87.0632 29.7444 87.0632 30.0752C87.0632 30.406 86.9276 30.6767 86.7619 30.6767C86.5961 30.6767 86.4605 30.9474 86.4605 31.2782C86.4605 31.609 86.3249 31.8797 86.1592 31.8797C85.9935 31.8797 85.8578 32.1504 85.8578 32.4812C85.8578 32.812 85.7222 33.0827 85.5565 33.0827C85.3908 33.0827 85.2552 33.3534 85.2552 33.6842C85.2552 34.015 85.1196 34.2857 84.9538 34.2857C84.7881 34.2857 84.6525 34.5564 84.6525 34.8872C84.6525 35.218 84.5169 35.4887 84.3511 35.4887C84.1854 35.4887 84.0498 35.7594 84.0498 36.0902C84.0498 36.4211 83.9142 36.6917 83.7484 36.6917C83.5827 36.6917 83.4471 37.0977 83.4471 37.594C83.4471 38.0902 83.3115 38.4962 83.1458 38.4962C82.98 38.4962 82.8444 38.7669 82.8444 39.0977C82.8444 39.4286 82.7088 39.6992 82.5431 39.6992C82.3773 39.6992 82.2417 39.9699 82.2417 40.3008C82.2417 40.6316 82.1061 40.9023 81.9404 40.9023C81.7747 40.9023 81.639 41.1729 81.639 41.5038C81.639 41.8346 81.5034 42.1053 81.3377 42.1053C81.172 42.1053 81.0364 42.3759 81.0364 42.7068C81.0364 43.0376 80.9008 43.3083 80.735 43.3083C80.5693 43.3083 80.4337 43.7143 80.4337 44.2105C80.4337 44.7068 80.2981 45.1128 80.1323 45.1128C79.9666 45.1128 79.831 45.3835 79.831 45.7143C79.831 46.0451 79.6954 46.3158 79.5296 46.3158C79.3639 46.3158 79.2283 46.5865 79.2283 46.9173C79.2283 47.2481 79.0927 47.5188 78.927 47.5188C78.7612 47.5188 78.6256 47.7895 78.6256 48.1203C78.6256 48.4511 78.49 48.7218 78.3243 48.7218C78.1585 48.7218 78.0229 48.9925 78.0229 49.3233C78.0229 49.6541 77.8873 49.9248 77.7216 49.9248C77.5559 49.9248 77.4202 50.3308 77.4202 50.8271C77.4202 51.3233 77.2846 51.7293 77.1189 51.7293C76.9532 51.7293 76.8176 52.2707 76.8176 52.9323C76.8176 53.594 76.682 54.1353 76.5162 54.1353C76.3354 54.1353 76.2149 55.3383 76.2149 57.1429C76.2149 58.9474 76.0943 60.1504 75.9135 60.1504C75.7237 60.1504 75.6122 62.1555 75.6122 65.5639C75.6122 68.9723 75.5007 70.9774 75.3108 70.9774C75.1225 70.9774 75.0095 72.782 75.0095 75.7895C75.0095 78.797 74.8965 80.6015 74.7082 80.6015C74.5274 80.6015 74.4068 81.8045 74.4068 83.609C74.4068 85.4135 74.2863 86.6165 74.1055 86.6165C73.9138 86.6165 73.8041 89.0226 73.8041 93.2331C73.8041 99.649 73.8225 99.8496 74.4068 99.8496C74.9426 99.8496 75.0095 99.649 75.0095 98.0451C75.0095 97.0427 75.1433 96.2406 75.3108 96.2406C75.4766 96.2406 75.6122 96.0316 75.6122 95.7759C75.6122 94.966 77.0173 93.8346 78.0229 93.8346C79.0285 93.8346 80.4337 94.966 80.4337 95.7759C80.4337 96.0316 80.5693 96.2406 80.735 96.2406C80.9191 96.2406 81.0364 97.6442 81.0364 99.8496C81.0364 102.055 80.9191 103.459 80.735 103.459C80.563 103.459 80.4337 104.361 80.4337 105.564C80.4337 106.767 80.3044 107.669 80.1323 107.669C79.9648 107.669 79.831 108.471 79.831 109.474C79.831 110.476 79.6972 111.278 79.5296 111.278C79.3621 111.278 79.2283 112.08 79.2283 113.083C79.2283 114.085 79.0945 114.887 78.927 114.887C78.7612 114.887 78.6256 115.564 78.6256 116.391C78.6256 117.218 78.49 117.895 78.3243 117.895C78.1567 117.895 78.0229 118.697 78.0229 119.699C78.0229 120.702 78.1567 121.504 78.3243 121.504C78.49 121.504 78.6256 122.18 78.6256 123.008C78.6256 123.835 78.7612 124.511 78.927 124.511C79.0927 124.511 79.2283 124.917 79.2283 125.414C79.2283 125.91 79.3639 126.316 79.5296 126.316C79.6954 126.316 79.831 126.586 79.831 126.917C79.831 127.248 79.9666 127.519 80.1323 127.519C80.2981 127.519 80.4337 127.789 80.4337 128.12C80.4337 128.451 80.5693 128.722 80.735 128.722C80.9008 128.722 81.0364 128.992 81.0364 129.323C81.0364 129.654 81.172 129.925 81.3377 129.925C81.5034 129.925 81.639 130.134 81.639 130.389C81.639 130.921 82.9526 132.331 83.4471 132.331C83.9416 132.331 85.2552 130.921 85.2552 130.389C85.2552 130.134 85.3908 129.925 85.5565 129.925C85.7222 129.925 85.8578 129.519 85.8578 129.023C85.8578 128.526 85.9935 128.12 86.1592 128.12C86.3249 128.12 86.4605 127.579 86.4605 126.917C86.4605 126.256 86.5961 125.714 86.7619 125.714C86.9406 125.714 87.0632 124.611 87.0632 123.008C87.0632 121.404 87.1859 120.301 87.3646 120.301C87.5303 120.301 87.6659 120.03 87.6659 119.699C87.6659 119.368 87.5303 119.098 87.3646 119.098C87.1859 119.098 87.0632 117.995 87.0632 116.391C87.0632 114.787 86.9406 113.684 86.7619 113.684C86.5961 113.684 86.4605 113.008 86.4605 112.18C86.4605 111.353 86.3249 110.677 86.1592 110.677C85.9935 110.677 85.8578 110.135 85.8578 109.474C85.8578 108.812 85.7222 108.271 85.5565 108.271C85.3908 108.271 85.2552 107.729 85.2552 107.068C85.2552 106.406 85.1196 105.865 84.9538 105.865C84.7881 105.865 84.6525 105.188 84.6525 104.361C84.6525 103.534 84.5169 102.857 84.3511 102.857C84.1854 102.857 84.0498 102.316 84.0498 101.654C84.0498 100.992 83.9142 100.451 83.7484 100.451C83.5827 100.451 83.4471 99.9098 83.4471 99.2481C83.4471 98.5865 83.3115 98.0451 83.1458 98.0451C82.98 98.0451 82.8444 97.6391 82.8444 97.1429C82.8444 96.6466 82.7088 96.2406 82.5431 96.2406C82.3773 96.2406 82.2417 95.8346 82.2417 95.3383C82.2417 94.8421 82.1061 94.4361 81.9404 94.4361C81.7747 94.4361 81.639 94.0301 81.639 93.5338C81.639 93.0376 81.5034 92.6316 81.3377 92.6316C81.172 92.6316 81.0364 92.2256 81.0364 91.7293C81.0364 91.2331 80.9008 90.8271 80.735 90.8271C80.5693 90.8271 80.4337 90.2857 80.4337 89.6241C80.4337 88.9624 80.2981 88.4211 80.1323 88.4211C79.9648 88.4211 79.831 87.6189 79.831 86.6165C79.831 85.6141 79.6972 84.812 79.5296 84.812C79.3389 84.812 79.2283 82.6066 79.2283 78.797C79.2283 74.9874 79.1177 72.782 78.927 72.782C78.7341 72.782 78.6256 70.0752 78.6256 65.2632C78.6256 60.4511 78.7341 57.7444 78.927 57.7444C79.0927 57.7444 79.2283 57.0677 79.2283 56.2406C79.2283 55.4135 79.3639 54.7368 79.5296 54.7368C79.6954 54.7368 79.831 54.4662 79.831 54.1353C79.831 53.7344 80.032 53.5338 80.4337 53.5338C80.7652 53.5338 81.0364 53.3985 81.0364 53.2331C81.0364 53.0677 81.517 52.9323 82.1046 52.9323C83.3956 52.9323 84.6525 54.0385 84.6525 55.1744C84.6525 55.5955 84.7881 55.9398 84.9538 55.9398C85.1325 55.9398 85.2552 57.0427 85.2552 58.6466C85.2552 60.2505 85.3778 61.3534 85.5565 61.3534C85.7494 61.3534 85.8578 64.0602 85.8578 68.8722C85.8578 73.6842 85.9663 76.391 86.1592 76.391C86.3379 76.391 86.4605 77.4938 86.4605 79.0977C86.4605 80.7017 86.5832 81.8045 86.7619 81.8045C86.9294 81.8045 87.0632 82.6066 87.0632 83.609C87.0632 84.6114 87.197 85.4135 87.3646 85.4135C87.5303 85.4135 87.6659 85.9549 87.6659 86.6165C87.6659 87.2782 87.8015 87.8195 87.9673 87.8195C88.133 87.8195 88.2686 88.2256 88.2686 88.7218C88.2686 89.218 88.4042 89.6241 88.5699 89.6241C88.7357 89.6241 88.8713 89.8947 88.8713 90.2256C88.8713 90.5564 89.0069 90.8271 89.1726 90.8271C89.3384 90.8271 89.474 91.2331 89.474 91.7293C89.474 92.431 89.6078 92.6316 90.0767 92.6316C90.6625 92.6316 90.6793 92.431 90.6793 85.4135C90.6793 80.8021 90.5706 78.1955 90.378 78.1955C90.1824 78.1955 90.0767 74.1856 90.0767 66.7669C90.0767 59.3483 90.1824 55.3383 90.378 55.3383C90.5537 55.3383 90.6793 54.3359 90.6793 52.9323C90.6793 51.5287 90.805 50.5263 90.9807 50.5263C91.1482 50.5263 91.282 49.7242 91.282 48.7218C91.282 47.7194 91.4158 46.9173 91.5834 46.9173C91.7491 46.9173 91.8847 46.7083 91.8847 46.4526C91.8847 45.7732 93.2609 44.5113 94.0019 44.5113C94.7538 44.5113 95.5008 45.1753 95.5008 45.8433C95.5008 46.1032 95.6364 46.3158 95.8022 46.3158C95.9775 46.3158 96.1035 47.3101 96.1035 48.6968C96.1035 50.3074 96.2253 51.1344 96.4802 51.2532C96.7815 51.3934 96.7815 51.4638 96.4802 51.6039C96.0345 51.8117 95.9673 53.5338 96.4049 53.5338C96.598 53.5338 96.7062 56.3408 96.7062 61.3534C96.7062 66.366 96.8144 69.1729 97.0075 69.1729C97.1998 69.1729 97.3089 71.6791 97.3089 76.0902C97.3089 80.5014 97.418 83.0075 97.6102 83.0075C97.7943 83.0075 97.9116 84.4111 97.9116 86.6165C97.9116 88.822 98.0288 90.2256 98.2129 90.2256C98.3916 90.2256 98.5143 91.3284 98.5143 92.9323C98.5143 94.5362 98.6369 95.6391 98.8156 95.6391C98.9877 95.6391 99.1169 96.5414 99.1169 97.7444C99.1169 98.9474 99.2462 99.8496 99.4183 99.8496C99.6105 99.8496 99.7196 102.356 99.7196 106.767C99.7196 113.484 99.7371 113.684 100.322 113.684C100.724 113.684 100.925 113.484 100.925 113.083C100.925 112.752 101.061 112.481 101.226 112.481C101.392 112.481 101.528 112.075 101.528 111.579C101.528 111.083 101.663 110.677 101.829 110.677C101.995 110.677 102.13 110.271 102.13 109.774C102.13 109.278 102.266 108.872 102.432 108.872C102.597 108.872 102.733 108.331 102.733 107.669C102.733 107.008 102.869 106.466 103.034 106.466C103.2 106.466 103.336 106.06 103.336 105.564C103.336 105.068 103.471 104.662 103.637 104.662C103.803 104.662 103.938 104.12 103.938 103.459C103.938 102.797 104.074 102.256 104.24 102.256C104.406 102.256 104.541 101.85 104.541 101.353C104.541 100.857 104.677 100.451 104.842 100.451C105.008 100.451 105.144 100.045 105.144 99.5489C105.144 99.0526 105.279 98.6466 105.445 98.6466C105.611 98.6466 105.746 98.1053 105.746 97.4436C105.746 96.782 105.882 96.2406 106.048 96.2406C106.214 96.2406 106.349 95.9699 106.349 95.6391C106.349 95.3083 106.485 95.0376 106.651 95.0376C106.816 95.0376 106.952 94.3609 106.952 93.5338C106.952 92.7068 107.087 92.0301 107.253 92.0301C107.441 92.0301 107.555 90.3257 107.555 87.5188C107.555 84.7119 107.441 83.0075 107.253 83.0075C107.087 83.0075 106.952 82.3308 106.952 81.5038C106.952 80.6767 106.816 80 106.651 80C106.485 80 106.349 79.4586 106.349 78.797C106.349 78.1353 106.214 77.594 106.048 77.594C105.882 77.594 105.746 77.188 105.746 76.6917C105.746 76.1955 105.611 75.7895 105.445 75.7895C105.279 75.7895 105.144 75.2481 105.144 74.5865C105.144 73.9248 105.008 73.3835 104.842 73.3835C104.677 73.3835 104.541 72.9774 104.541 72.4812C104.541 71.985 104.406 71.5789 104.24 71.5789C104.074 71.5789 103.938 71.1729 103.938 70.6767C103.938 70.1805 103.803 69.7744 103.637 69.7744C103.471 69.7744 103.336 69.3684 103.336 68.8722C103.336 68.3759 103.2 67.9699 103.034 67.9699C102.869 67.9699 102.733 67.5639 102.733 67.0677C102.733 66.5714 102.597 66.1654 102.432 66.1654C102.266 66.1654 102.13 65.4887 102.13 64.6617C102.13 63.8346 101.995 63.1579 101.829 63.1579C101.657 63.1579 101.528 62.2556 101.528 61.0526C101.528 59.8496 101.398 58.9474 101.226 58.9474C101.035 58.9474 100.925 56.5414 100.925 52.3308C100.925 48.1203 101.035 45.7143 101.226 45.7143C101.413 45.7143 101.528 44.1104 101.528 41.5038C101.528 38.8971 101.413 37.2932 101.226 37.2932C101.059 37.2932 100.925 36.4911 100.925 35.4887C100.925 34.4863 101.059 33.6842 101.226 33.6842C101.398 33.6842 101.528 32.782 101.528 31.5789C101.528 30.3759 101.657 29.4737 101.829 29.4737C101.995 29.4737 102.13 29.1293 102.13 28.7083C102.13 27.6376 103.39 26.4662 104.541 26.4662C105.547 26.4662 106.952 27.5976 106.952 28.4075C106.952 28.6632 107.087 28.8722 107.253 28.8722C107.448 28.8722 107.555 32.1805 107.555 38.1955C107.555 44.2105 107.662 47.5188 107.856 47.5188C108.044 47.5188 108.157 49.3233 108.157 52.3308C108.157 55.3383 108.27 57.1429 108.459 57.1429C108.624 57.1429 108.76 57.8195 108.76 58.6466C108.76 59.4737 108.896 60.1504 109.061 60.1504C109.227 60.1504 109.363 60.5564 109.363 61.0526C109.363 61.5489 109.498 61.9549 109.664 61.9549C109.83 61.9549 109.965 62.3609 109.965 62.8571C109.965 63.5588 110.099 63.7594 110.568 63.7594C111.154 63.7594 111.171 63.5588 111.171 56.5414C111.171 51.9299 111.062 49.3233 110.869 49.3233C110.678 49.3233 110.568 47.0174 110.568 43.0075C110.568 38.9976 110.678 36.6917 110.869 36.6917C111.037 36.6917 111.171 35.8896 111.171 34.8872C111.171 33.8848 111.304 33.0827 111.472 33.0827C111.638 33.0827 111.773 32.6767 111.773 32.1805C111.773 31.6842 111.909 31.2782 112.075 31.2782C112.24 31.2782 112.376 31.0075 112.376 30.6767C112.376 30.3459 112.512 30.0752 112.677 30.0752C112.843 30.0752 112.979 29.8626 112.979 29.6027C112.979 28.8478 113.762 28.2707 114.787 28.2707C115.811 28.2707 116.595 28.8478 116.595 29.6027C116.595 29.8626 116.73 30.0752 116.896 30.0752C117.075 30.0752 117.198 31.178 117.198 32.782C117.198 34.3859 117.32 35.4887 117.499 35.4887C117.689 35.4887 117.8 37.4938 117.8 40.9023V46.3158H118.704H119.608V44.5113C119.608 43.5089 119.742 42.7068 119.91 42.7068C120.102 42.7068 120.211 40 120.211 35.188C120.211 30.3759 120.319 27.6692 120.512 27.6692C120.688 27.6692 120.814 26.6668 120.814 25.2632C120.814 23.8595 120.939 22.8571 121.115 22.8571C121.281 22.8571 121.416 22.1805 121.416 21.3534C121.416 20.5263 121.552 19.8496 121.718 19.8496C121.883 19.8496 122.019 19.1729 122.019 18.3459C122.019 17.5188 122.155 16.8421 122.32 16.8421C122.486 16.8421 122.622 16.4361 122.622 15.9398C122.622 15.4436 122.757 15.0376 122.923 15.0376C123.089 15.0376 123.224 14.7669 123.224 14.4361C123.224 14.1053 123.36 13.8346 123.526 13.8346C123.691 13.8346 123.827 13.5639 123.827 13.2331C123.827 12.9023 123.963 12.6316 124.128 12.6316C124.294 12.6316 124.43 12.3609 124.43 12.0301C124.43 11.6992 124.565 11.4286 124.731 11.4286C124.897 11.4286 125.032 11.2159 125.032 10.9561C125.032 10.1389 125.848 9.62406 127.142 9.62406C128.436 9.62406 129.251 10.1389 129.251 10.9561C129.251 11.2159 129.387 11.4286 129.553 11.4286C129.718 11.4286 129.854 11.8346 129.854 12.3308C129.854 12.8271 129.99 13.2331 130.155 13.2331C130.331 13.2331 130.457 14.2355 130.457 15.6391C130.457 17.0427 130.331 18.0451 130.155 18.0451C129.99 18.0451 129.854 18.7218 129.854 19.5489C129.854 20.3759 129.718 21.0526 129.553 21.0526C129.377 21.0526 129.251 22.055 129.251 23.4586C129.251 24.8623 129.126 25.8647 128.95 25.8647C128.771 25.8647 128.649 26.9675 128.649 28.5714C128.649 30.1753 128.526 31.2782 128.347 31.2782C128.172 31.2782 128.046 32.2806 128.046 33.6842C128.046 35.0878 127.92 36.0902 127.745 36.0902C127.56 36.0902 127.443 37.4938 127.443 39.6992C127.443 41.9047 127.326 43.3083 127.142 43.3083C126.963 43.3083 126.84 44.4111 126.84 46.015C126.84 47.6189 126.718 48.7218 126.539 48.7218C126.367 48.7218 126.238 49.6241 126.238 50.8271C126.238 52.0301 126.109 52.9323 125.936 52.9323C125.771 52.9323 125.635 53.609 125.635 54.4361C125.635 55.2632 125.5 55.9398 125.334 55.9398C125.168 55.9398 125.032 56.6165 125.032 57.4436C125.032 58.2707 124.897 58.9474 124.731 58.9474C124.565 58.9474 124.43 59.4887 124.43 60.1504C124.43 60.812 124.294 61.3534 124.128 61.3534C123.963 61.3534 123.827 61.7594 123.827 62.2556C123.827 62.7519 123.691 63.1579 123.526 63.1579C123.36 63.1579 123.224 63.5639 123.224 64.0602C123.224 64.5564 123.089 64.9624 122.923 64.9624C122.757 64.9624 122.622 65.5038 122.622 66.1654C122.622 66.8271 122.486 67.3684 122.32 67.3684C122.155 67.3684 122.019 67.9098 122.019 68.5714C122.019 69.2331 121.883 69.7744 121.718 69.7744C121.552 69.7744 121.416 70.3158 121.416 70.9774C121.416 71.6391 121.281 72.1805 121.115 72.1805C120.947 72.1805 120.814 72.9826 120.814 73.985C120.814 74.9874 120.68 75.7895 120.512 75.7895C120.345 75.7895 120.211 76.5916 120.211 77.594C120.211 78.5964 120.077 79.3985 119.91 79.3985C119.738 79.3985 119.608 80.3008 119.608 81.5038C119.608 82.7068 119.479 83.609 119.307 83.609C119.141 83.609 119.006 84.2857 119.006 85.1128C119.006 85.9398 118.87 86.6165 118.704 86.6165C118.538 86.6165 118.403 87.1579 118.403 87.8195C118.403 88.4812 118.267 89.0226 118.102 89.0226C117.936 89.0226 117.8 89.4286 117.8 89.9248C117.8 90.4211 117.665 90.8271 117.499 90.8271C117.333 90.8271 117.198 91.2331 117.198 91.7293C117.198 92.2256 117.062 92.6316 116.896 92.6316C116.73 92.6316 116.595 93.0376 116.595 93.5338C116.595 94.0301 116.459 94.4361 116.293 94.4361C116.128 94.4361 115.992 94.8421 115.992 95.3383C115.992 95.8346 115.857 96.2406 115.691 96.2406C115.525 96.2406 115.389 96.782 115.389 97.4436C115.389 98.1053 115.254 98.6466 115.088 98.6466C114.922 98.6466 114.787 99.0526 114.787 99.5489C114.787 100.045 114.651 100.451 114.485 100.451C114.32 100.451 114.184 100.857 114.184 101.353C114.184 101.85 114.048 102.256 113.883 102.256C113.717 102.256 113.581 102.526 113.581 102.857C113.581 103.188 113.446 103.459 113.28 103.459C113.114 103.459 112.979 103.865 112.979 104.361C112.979 104.857 112.843 105.263 112.677 105.263C112.512 105.263 112.376 105.669 112.376 106.165C112.376 106.662 112.24 107.068 112.075 107.068C111.909 107.068 111.773 107.338 111.773 107.669C111.773 108 111.638 108.271 111.472 108.271C111.306 108.271 111.171 108.677 111.171 109.173C111.171 109.669 111.035 110.075 110.869 110.075C110.704 110.075 110.568 110.346 110.568 110.677C110.568 111.008 110.432 111.278 110.267 111.278C110.101 111.278 109.965 111.684 109.965 112.18C109.965 112.677 109.83 113.083 109.664 113.083C109.498 113.083 109.363 113.353 109.363 113.684C109.363 114.015 109.227 114.286 109.061 114.286C108.896 114.286 108.76 114.556 108.76 114.887C108.76 115.218 108.624 115.489 108.459 115.489C108.293 115.489 108.157 115.895 108.157 116.391C108.157 116.887 108.022 117.293 107.856 117.293C107.69 117.293 107.555 117.534 107.555 117.828C107.555 118.123 107.283 118.558 106.952 118.797C106.62 119.035 106.349 119.471 106.349 119.766C106.349 120.06 106.214 120.301 106.048 120.301C105.882 120.301 105.746 120.542 105.746 120.836C105.746 121.13 105.475 121.566 105.144 121.805C104.812 122.043 104.541 122.449 104.541 122.707C104.541 122.965 104.27 123.371 103.938 123.609C103.607 123.848 103.336 124.283 103.336 124.578C103.336 124.872 103.2 125.113 103.034 125.113C102.869 125.113 102.733 125.383 102.733 125.714C102.733 126.045 102.597 126.316 102.432 126.316C102.266 126.316 102.13 126.557 102.13 126.851C102.13 127.145 101.859 127.581 101.528 127.82C101.196 128.058 100.925 128.494 100.925 128.788C100.925 129.082 100.789 129.323 100.624 129.323C100.458 129.323 100.322 129.729 100.322 130.226C100.322 130.722 100.187 131.128 100.021 131.128C99.8552 131.128 99.7196 131.398 99.7196 131.729C99.7196 132.06 99.584 132.331 99.4183 132.331C99.2525 132.331 99.1169 132.737 99.1169 133.233C99.1169 133.729 98.9813 134.135 98.8156 134.135C98.6348 134.135 98.5143 135.338 98.5143 137.143C98.5143 138.947 98.6348 140.15 98.8156 140.15C98.9813 140.15 99.1169 140.421 99.1169 140.752C99.1169 141.083 99.2525 141.353 99.4183 141.353C99.584 141.353 99.7196 141.566 99.7196 141.826C99.7196 142.434 100.445 143.158 101.054 143.158C101.315 143.158 101.528 143.293 101.528 143.459C101.528 143.624 102.07 143.759 102.733 143.759C103.396 143.759 103.938 143.624 103.938 143.459C103.938 143.293 104.21 143.158 104.541 143.158C104.873 143.158 105.144 143.023 105.144 142.857C105.144 142.692 105.351 142.556 105.604 142.556C106.129 142.556 108.76 140.036 108.76 139.533C108.76 139.35 109.302 138.681 109.965 138.045C110.628 137.409 111.171 136.73 111.171 136.535C111.171 136.34 111.577 135.802 112.075 135.338C112.572 134.875 112.979 134.279 112.979 134.015C112.979 133.75 113.114 133.534 113.28 133.534C113.446 133.534 113.581 133.263 113.581 132.932C113.581 132.602 113.717 132.331 113.883 132.331C114.048 132.331 114.184 132.06 114.184 131.729C114.184 131.398 114.32 131.128 114.485 131.128C114.651 131.128 114.787 130.857 114.787 130.526C114.787 130.195 114.922 129.925 115.088 129.925C115.254 129.925 115.389 129.654 115.389 129.323C115.389 128.992 115.525 128.722 115.691 128.722C115.857 128.722 115.992 128.316 115.992 127.82C115.992 127.323 116.128 126.917 116.293 126.917C116.459 126.917 116.595 126.647 116.595 126.316C116.595 125.985 116.73 125.714 116.896 125.714C117.062 125.714 117.198 125.444 117.198 125.113C117.198 124.782 117.333 124.511 117.499 124.511C117.665 124.511 117.8 124.105 117.8 123.609C117.8 123.113 117.936 122.707 118.102 122.707C118.267 122.707 118.403 122.436 118.403 122.105C118.403 121.774 118.538 121.504 118.704 121.504C118.87 121.504 119.006 120.962 119.006 120.301C119.006 119.639 119.141 119.098 119.307 119.098C119.474 119.098 119.608 118.296 119.608 117.293C119.608 116.291 119.742 115.489 119.91 115.489C120.077 115.489 120.211 114.687 120.211 113.684C120.211 112.682 120.345 111.88 120.512 111.88C120.691 111.88 120.814 110.777 120.814 109.173C120.814 107.569 120.936 106.466 121.115 106.466C121.3 106.466 121.416 104.962 121.416 102.556C121.416 100.15 121.532 98.6466 121.718 98.6466C121.903 98.6466 122.019 97.1429 122.019 94.7368C122.019 92.3308 122.135 90.8271 122.32 90.8271C122.503 90.8271 122.622 89.5239 122.622 87.5188C122.622 85.5137 122.74 84.2105 122.923 84.2105C123.089 84.2105 123.224 83.6692 123.224 83.0075C123.224 82.3459 123.36 81.8045 123.526 81.8045C123.691 81.8045 123.827 81.2632 123.827 80.6015C123.827 79.9398 123.963 79.3985 124.128 79.3985C124.294 79.3985 124.43 79.1278 124.43 78.797C124.43 78.3961 124.631 78.1955 125.032 78.1955C125.364 78.1955 125.635 78.0602 125.635 77.8947C125.635 77.3435 126.557 77.585 127.306 78.3323C127.713 78.7383 128.046 79.2797 128.046 79.5353C128.046 79.791 128.181 80 128.347 80C128.542 80 128.649 83.4084 128.649 89.6241C128.649 95.8397 128.755 99.2481 128.95 99.2481C129.116 99.2481 129.251 99.8668 129.251 100.623C129.251 102.042 129.738 102.857 130.586 102.857C130.971 102.857 131.059 102.465 131.059 100.752C131.059 99.5489 131.189 98.6466 131.361 98.6466C131.556 98.6466 131.662 94.6367 131.662 87.218C131.662 79.7994 131.768 75.7895 131.963 75.7895C132.129 75.7895 132.265 75.1128 132.265 74.2857C132.265 73.4586 132.4 72.782 132.566 72.782C132.732 72.782 132.867 72.5693 132.867 72.3095C132.867 71.5257 133.665 70.9774 134.805 70.9774C135.68 70.9774 135.881 71.0896 135.881 71.5789C135.881 71.9098 136.016 72.1805 136.182 72.1805C136.348 72.1805 136.483 72.8571 136.483 73.6842C136.483 74.5113 136.619 75.188 136.785 75.188C136.951 75.188 137.086 75.8066 137.086 76.5627C137.086 77.3786 137.268 78.1197 137.534 78.385C137.931 78.7808 138.069 78.7453 138.74 78.0764C139.156 77.6608 139.497 76.9759 139.497 76.5549C139.497 76.1338 139.632 75.7895 139.798 75.7895C139.99 75.7895 140.1 73.2833 140.1 68.8722C140.1 64.4611 139.99 61.9549 139.798 61.9549C139.632 61.9549 139.497 61.2782 139.497 60.4511C139.497 59.6241 139.361 58.9474 139.196 58.9474C139.03 58.9474 138.894 58.5414 138.894 58.0451C138.894 57.5489 138.759 57.1429 138.593 57.1429C138.427 57.1429 138.292 56.7368 138.292 56.2406C138.292 55.7444 138.156 55.3383 137.99 55.3383C137.824 55.3383 137.689 54.9323 137.689 54.4361C137.689 53.9398 137.553 53.5338 137.387 53.5338C137.222 53.5338 137.086 53.1278 137.086 52.6316C137.086 52.1353 136.951 51.7293 136.785 51.7293C136.619 51.7293 136.483 51.3233 136.483 50.8271C136.483 50.3308 136.348 49.9248 136.182 49.9248C136.016 49.9248 135.881 49.5188 135.881 49.0226C135.881 48.5263 135.745 48.1203 135.579 48.1203C135.414 48.1203 135.278 47.5789 135.278 46.9173C135.278 46.2556 135.142 45.7143 134.977 45.7143C134.811 45.7143 134.675 45.1729 134.675 44.5113C134.675 43.8496 134.54 43.3083 134.374 43.3083C134.208 43.3083 134.073 42.6316 134.073 41.8045C134.073 40.9774 133.937 40.3008 133.771 40.3008C133.604 40.3008 133.47 39.4986 133.47 38.4962C133.47 37.4938 133.336 36.6917 133.169 36.6917C132.983 36.6917 132.867 35.188 132.867 32.782C132.867 30.3759 132.983 28.8722 133.169 28.8722C133.334 28.8722 133.47 28.4662 133.47 27.9699C133.47 27.4737 133.606 27.0677 133.771 27.0677C133.937 27.0677 134.073 26.855 134.073 26.5952C134.073 25.9284 134.819 25.2632 135.568 25.2632C136.465 25.2632 138.292 27.172 138.292 28.1104C138.292 28.5293 138.427 28.8722 138.593 28.8722C138.759 28.8722 138.894 29.4135 138.894 30.0752C138.894 30.7368 139.03 31.2782 139.196 31.2782C139.363 31.2782 139.497 32.0803 139.497 33.0827C139.497 34.0851 139.631 34.8872 139.798 34.8872C139.964 34.8872 140.1 35.5059 140.1 36.262C140.1 37.938 140.741 38.8015 141.456 38.0881C141.704 37.84 141.908 37.4244 141.908 37.1642C141.908 36.9044 142.043 36.6917 142.209 36.6917C142.375 36.6917 142.51 36.2857 142.51 35.7895C142.51 35.2932 142.646 34.8872 142.812 34.8872C142.977 34.8872 143.113 34.6165 143.113 34.2857C143.113 33.7865 143.314 33.6842 144.293 33.6842C144.965 33.6842 145.527 33.8451 145.598 34.0574C145.764 34.5543 146.729 33.6126 146.729 32.9537C146.729 32.6938 146.865 32.4812 147.03 32.4812C147.203 32.4812 147.332 31.5789 147.332 30.3759C147.332 29.1729 147.461 28.2707 147.633 28.2707C147.817 28.2707 147.935 26.8671 147.935 24.6617C147.935 22.4562 148.052 21.0526 148.236 21.0526C148.402 21.0526 148.537 20.3759 148.537 19.5489C148.537 18.7218 148.402 18.0451 148.236 18.0451C148.06 18.0451 147.935 17.0427 147.935 15.6391C147.935 14.2355 147.809 13.2331 147.633 13.2331C147.467 13.2331 147.332 12.6917 147.332 12.0301C147.332 11.3684 147.467 10.8271 147.633 10.8271C147.799 10.8271 147.935 10.4508 147.935 9.99127C147.935 9.50045 148.183 8.97654 148.537 8.72181C148.869 8.48331 149.14 8.04752 149.14 7.75309C149.14 7.41865 149.366 7.21805 149.743 7.21805C150.074 7.21805 150.345 7.08271 150.345 6.91729C150.345 6.75188 150.96 6.61654 151.711 6.61654C152.868 6.61654 153.237 6.77624 154.122 7.65925C154.92 8.45534 155.167 8.95278 155.167 9.76451C155.167 10.3489 155.302 10.8271 155.468 10.8271C155.636 10.8271 155.769 11.6292 155.769 12.6316C155.769 13.634 155.903 14.4361 156.071 14.4361C156.238 14.4361 156.372 15.2382 156.372 16.2406C156.372 17.243 156.506 18.0451 156.673 18.0451C156.854 18.0451 156.975 19.2481 156.975 21.0526C156.975 22.8571 156.854 24.0602 156.673 24.0602C156.501 24.0602 156.372 24.9624 156.372 26.1654C156.372 27.3684 156.243 28.2707 156.071 28.2707C155.905 28.2707 155.769 28.9474 155.769 29.7744C155.769 30.6015 155.634 31.2782 155.468 31.2782C155.302 31.2782 155.167 31.9549 155.167 32.782C155.167 33.609 155.031 34.2857 154.865 34.2857C154.7 34.2857 154.564 34.8271 154.564 35.4887C154.564 36.1504 154.428 36.6917 154.263 36.6917C154.097 36.6917 153.961 37.2331 153.961 37.8947C153.961 38.5564 153.826 39.0977 153.66 39.0977C153.494 39.0977 153.359 39.6391 153.359 40.3008C153.359 40.9624 153.223 41.5038 153.057 41.5038C152.892 41.5038 152.756 41.9098 152.756 42.406C152.756 42.9023 152.62 43.3083 152.455 43.3083C152.289 43.3083 152.153 43.8496 152.153 44.5113C152.153 45.1729 152.018 45.7143 151.852 45.7143C151.68 45.7143 151.551 46.6165 151.551 47.8195C151.551 49.0226 151.421 49.9248 151.249 49.9248C151.084 49.9248 150.948 50.0602 150.948 50.2256C150.948 50.391 151.219 50.5263 151.551 50.5263C151.952 50.5263 152.153 50.3257 152.153 49.9248C152.153 49.594 152.289 49.3233 152.455 49.3233C152.62 49.3233 152.756 48.9173 152.756 48.4211C152.756 47.9248 152.892 47.5188 153.057 47.5188C153.223 47.5188 153.359 47.2481 153.359 46.9173C153.359 46.3826 153.56 46.3158 155.167 46.3158C156.774 46.3158 156.975 46.3826 156.975 46.9173C156.975 47.2481 157.11 47.5188 157.276 47.5188C157.461 47.5188 157.577 49.0226 157.577 51.4286C157.577 53.8346 157.461 55.3383 157.276 55.3383C157.11 55.3383 156.975 55.8797 156.975 56.5414C156.975 57.203 156.839 57.7444 156.673 57.7444C156.508 57.7444 156.372 58.2857 156.372 58.9474C156.372 59.609 156.236 60.1504 156.071 60.1504C155.905 60.1504 155.769 60.4211 155.769 60.7519C155.769 61.0827 155.634 61.3534 155.468 61.3534C155.302 61.3534 155.167 61.7594 155.167 62.2556C155.167 62.7519 155.031 63.1579 154.865 63.1579C154.7 63.1579 154.564 63.4286 154.564 63.7594C154.564 64.0902 154.428 64.3609 154.263 64.3609C154.097 64.3609 153.961 64.7669 153.961 65.2632C153.961 65.7594 153.826 66.1654 153.66 66.1654C153.494 66.1654 153.359 66.4361 153.359 66.7669C153.359 67.0977 153.223 67.3684 153.057 67.3684C152.892 67.3684 152.756 67.7744 152.756 68.2707C152.756 68.7669 152.62 69.1729 152.455 69.1729C152.289 69.1729 152.153 69.4436 152.153 69.7744C152.153 70.1053 152.018 70.3759 151.852 70.3759C151.686 70.3759 151.551 70.782 151.551 71.2782C151.551 71.7744 151.415 72.1805 151.249 72.1805C151.084 72.1805 150.948 72.4511 150.948 72.782C150.948 73.1128 150.812 73.3835 150.647 73.3835C150.481 73.3835 150.345 73.6541 150.345 73.985C150.345 74.3158 150.21 74.5865 150.044 74.5865C149.878 74.5865 149.743 74.9925 149.743 75.4887C149.743 75.985 149.607 76.391 149.441 76.391C149.275 76.391 149.14 76.6617 149.14 76.9925C149.14 77.3233 149.004 77.594 148.839 77.594C148.673 77.594 148.537 78 148.537 78.4962C148.537 78.9925 148.402 79.3985 148.236 79.3985C148.07 79.3985 147.935 79.6692 147.935 80C147.935 80.3308 147.799 80.6015 147.633 80.6015C147.467 80.6015 147.332 81.0075 147.332 81.5038C147.332 82 147.196 82.406 147.03 82.406C146.865 82.406 146.729 82.812 146.729 83.3083C146.729 83.8045 146.594 84.2105 146.428 84.2105C146.262 84.2105 146.126 84.6165 146.126 85.1128C146.126 85.609 145.991 86.015 145.825 86.015C145.659 86.015 145.524 86.4211 145.524 86.9173C145.524 87.4135 145.388 87.8195 145.222 87.8195C145.057 87.8195 144.921 88.3609 144.921 89.0226C144.921 89.6842 144.785 90.2256 144.62 90.2256C144.454 90.2256 144.318 90.7669 144.318 91.4286C144.318 92.0902 144.183 92.6316 144.017 92.6316C143.851 92.6316 143.716 93.3083 143.716 94.1353C143.716 94.9624 143.58 95.6391 143.414 95.6391C143.249 95.6391 143.113 96.3158 143.113 97.1429C143.113 97.9699 142.977 98.6466 142.812 98.6466C142.646 98.6466 142.51 99.188 142.51 99.8496C142.51 100.511 142.375 101.053 142.209 101.053C142.043 101.053 141.908 101.459 141.908 101.955C141.908 102.451 141.772 102.857 141.606 102.857C141.441 102.857 141.305 103.128 141.305 103.459C141.305 103.789 141.169 104.06 141.004 104.06C140.838 104.06 140.702 104.466 140.702 104.962C140.702 105.459 140.567 105.865 140.401 105.865C140.235 105.865 140.1 106.135 140.1 106.466C140.1 106.797 139.964 107.068 139.798 107.068C139.632 107.068 139.497 107.474 139.497 107.97C139.497 108.466 139.361 108.872 139.196 108.872C139.03 108.872 138.894 109.143 138.894 109.474C138.894 109.805 138.759 110.075 138.593 110.075C138.427 110.075 138.292 110.346 138.292 110.677C138.292 111.008 138.156 111.278 137.99 111.278C137.824 111.278 137.689 111.684 137.689 112.18C137.689 112.677 137.553 113.083 137.387 113.083C137.222 113.083 137.086 113.353 137.086 113.684C137.086 114.015 136.951 114.286 136.785 114.286C136.619 114.286 136.483 114.556 136.483 114.887C136.483 115.218 136.348 115.489 136.182 115.489C136.016 115.489 135.881 115.759 135.881 116.09C135.881 116.421 135.745 116.692 135.579 116.692C135.414 116.692 135.278 117.098 135.278 117.594C135.278 118.09 135.142 118.496 134.977 118.496C134.811 118.496 134.675 118.767 134.675 119.098C134.675 119.429 134.54 119.699 134.374 119.699C134.208 119.699 134.073 119.97 134.073 120.301C134.073 120.632 133.937 120.902 133.771 120.902C133.606 120.902 133.47 121.308 133.47 121.805C133.47 122.301 133.334 122.707 133.169 122.707C133.003 122.707 132.867 122.977 132.867 123.308C132.867 123.639 132.732 123.91 132.566 123.91C132.4 123.91 132.265 124.316 132.265 124.812C132.265 125.308 132.129 125.714 131.963 125.714C131.798 125.714 131.662 125.985 131.662 126.316C131.662 126.647 131.526 126.917 131.361 126.917C131.195 126.917 131.059 127.188 131.059 127.519C131.059 127.85 130.924 128.12 130.758 128.12C130.592 128.12 130.457 128.391 130.457 128.722C130.457 129.053 130.321 129.323 130.155 129.323C129.99 129.323 129.854 129.54 129.854 129.804C129.854 130.069 129.447 130.664 128.95 131.128C128.453 131.591 128.046 132.133 128.046 132.331C128.046 132.529 127.639 133.07 127.142 133.534C126.645 133.997 126.238 134.563 126.238 134.791C126.238 135.019 125.967 135.401 125.635 135.639C125.304 135.878 125.032 136.256 125.032 136.481C125.032 136.706 124.49 137.409 123.827 138.045C123.164 138.681 122.622 139.36 122.622 139.555C122.622 139.75 122.215 140.288 121.718 140.752C121.22 141.215 120.814 141.745 120.814 141.928C120.814 142.397 112.767 150.376 112.295 150.376C112.081 150.376 111.711 150.647 111.472 150.977C111.233 151.308 110.796 151.579 110.501 151.579C110.207 151.579 109.965 151.714 109.965 151.88C109.965 152.045 109.724 152.18 109.429 152.18C109.134 152.18 108.698 152.451 108.459 152.782C108.22 153.113 107.813 153.383 107.555 153.383C107.296 153.383 106.889 153.654 106.651 153.985C106.412 154.316 105.975 154.586 105.68 154.586C105.385 154.586 105.144 154.722 105.144 154.887C105.144 155.053 104.902 155.188 104.608 155.188C104.313 155.188 103.876 155.459 103.637 155.789C103.398 156.12 102.961 156.391 102.666 156.391C102.372 156.391 102.13 156.526 102.13 156.692C102.13 156.857 101.859 156.992 101.528 156.992C101.196 156.992 100.925 157.128 100.925 157.293C100.925 157.459 100.654 157.594 100.322 157.594C99.9908 157.594 99.7196 157.729 99.7196 157.895C99.7196 158.06 99.4484 158.195 99.1169 158.195C98.7855 158.195 98.5143 158.331 98.5143 158.496C98.5143 158.662 98.243 158.797 97.9116 158.797C97.5801 158.797 97.3089 158.932 97.3089 159.098C97.3089 159.263 96.7665 159.398 96.1035 159.398C95.4406 159.398 94.8981 159.534 94.8981 159.699C94.8981 159.866 94.0945 160 93.0901 160C92.0857 160 91.282 159.866 91.282 159.699C91.282 159.534 90.7396 159.398 90.0767 159.398C89.4137 159.398 88.8713 159.263 88.8713 159.098C88.8713 158.932 88.3289 158.797 87.6659 158.797C87.003 158.797 86.4605 158.662 86.4605 158.496C86.4605 158.331 86.1893 158.195 85.8578 158.195C85.5264 158.195 85.2552 158.06 85.2552 157.895C85.2552 157.729 84.8782 157.594 84.4177 157.594C83.9259 157.594 83.401 157.346 83.1458 156.992C82.9068 156.662 82.5 156.391 82.2417 156.391C81.9835 156.391 81.5767 156.12 81.3377 155.789C81.0987 155.459 80.7263 155.188 80.5099 155.188C79.9979 155.188 77.4202 152.615 77.4202 152.104C77.4202 151.888 77.149 151.517 76.8176 151.278C76.4861 151.04 76.2149 150.604 76.2149 150.309C76.2149 150.015 76.0793 149.774 75.9135 149.774C75.7478 149.774 75.6122 149.534 75.6122 149.239C75.6122 148.945 75.341 148.509 75.0095 148.271C74.6557 148.016 74.4068 147.492 74.4068 147.001C74.4068 146.542 74.2712 146.165 74.1055 146.165C73.9397 146.165 73.8041 145.895 73.8041 145.564C73.8041 145.233 73.6685 144.962 73.5028 144.962C73.337 144.962 73.2014 144.692 73.2014 144.361C73.2014 144.03 73.0658 143.759 72.9001 143.759C72.7344 143.759 72.5988 143.489 72.5988 143.158C72.5988 142.827 72.4632 142.556 72.2974 142.556C72.1317 142.556 71.9961 142.286 71.9961 141.955C71.9961 141.624 71.8605 141.353 71.6947 141.353C71.529 141.353 71.3934 141.083 71.3934 140.752C71.3934 140.421 71.2578 140.15 71.092 140.15C70.9263 140.15 70.7907 139.944 70.7907 139.691C70.7907 139.439 69.0278 137.48 66.8732 135.338C64.7186 133.197 62.9558 131.295 62.9558 131.112C62.9558 130.93 62.4134 130.26 61.7504 129.624C61.0875 128.988 60.545 128.255 60.545 127.993C60.545 127.732 60.4094 127.519 60.2437 127.519C60.078 127.519 59.9424 127.248 59.9424 126.917C59.9424 126.586 59.8067 126.316 59.641 126.316C59.4753 126.316 59.3397 126.045 59.3397 125.714C59.3397 125.383 59.2041 125.113 59.0383 125.113C58.8726 125.113 58.737 124.842 58.737 124.511C58.737 124.18 58.6014 123.91 58.4356 123.91C58.2699 123.91 58.1343 123.504 58.1343 123.008C58.1343 122.511 57.9987 122.105 57.833 122.105C57.6672 122.105 57.5316 121.835 57.5316 121.504C57.5316 121.173 57.396 120.902 57.2303 120.902C57.0645 120.902 56.9289 120.496 56.9289 120C56.9289 119.504 56.7933 119.098 56.6276 119.098C56.4618 119.098 56.3262 118.421 56.3262 117.594C56.3262 116.767 56.1906 116.09 56.0249 116.09C55.8592 116.09 55.7236 115.414 55.7236 114.586C55.7236 113.759 55.5879 113.083 55.4222 113.083C55.2339 113.083 55.1209 111.278 55.1209 108.271C55.1209 105.263 55.2339 103.459 55.4222 103.459C55.5879 103.459 55.7236 103.188 55.7236 102.857C55.7236 102.317 55.9245 102.256 57.6922 102.256C59.537 102.256 59.7269 102.322 60.7057 103.298C61.3478 103.939 61.7504 104.634 61.7504 105.103C61.7504 105.522 61.886 105.865 62.0518 105.865C62.2175 105.865 62.3531 106.271 62.3531 106.767C62.3531 107.263 62.4887 107.669 62.6544 107.669C62.8202 107.669 62.9558 108.211 62.9558 108.872C62.9558 109.534 63.0914 110.075 63.2571 110.075C63.4229 110.075 63.5585 110.617 63.5585 111.278C63.5585 111.94 63.6941 112.481 63.8598 112.481C64.0256 112.481 64.1612 113.023 64.1612 113.684C64.1612 114.346 64.2968 114.887 64.4625 114.887C64.6282 114.887 64.7638 115.429 64.7638 116.09C64.7638 116.752 64.8994 117.293 65.0652 117.293C65.2309 117.293 65.3665 117.636 65.3665 118.055C65.3665 118.715 67.095 120.902 67.6167 120.902C67.705 120.902 67.7773 120.09 67.7773 119.098C67.7773 118.095 67.6435 117.293 67.4759 117.293C67.3102 117.293 67.1746 116.752 67.1746 116.09C67.1746 115.429 67.039 114.887 66.8732 114.887C66.7075 114.887 66.5719 114.346 66.5719 113.684C66.5719 113.023 66.4363 112.481 66.2706 112.481C66.1048 112.481 65.9692 112.075 65.9692 111.579C65.9692 111.083 65.8336 110.677 65.6679 110.677C65.5021 110.677 65.3665 110.271 65.3665 109.774C65.3665 109.278 65.2309 108.872 65.0652 108.872C64.8994 108.872 64.7638 108.466 64.7638 107.97C64.7638 107.474 64.6282 107.068 64.4625 107.068C64.2968 107.068 64.1612 106.662 64.1612 106.165C64.1612 105.669 64.0256 105.263 63.8598 105.263C63.6941 105.263 63.5585 104.992 63.5585 104.662C63.5585 104.331 63.4229 104.06 63.2571 104.06C63.0914 104.06 62.9558 103.789 62.9558 103.459C62.9558 103.128 62.8202 102.857 62.6544 102.857C62.4887 102.857 62.3531 102.586 62.3531 102.256C62.3531 101.925 62.2175 101.654 62.0518 101.654C61.886 101.654 61.7504 101.413 61.7504 101.119C61.7504 100.825 61.4792 100.389 61.1477 100.15C60.8162 99.9119 60.545 99.5059 60.545 99.2481C60.545 98.9904 60.2738 98.5844 59.9424 98.3459C59.6109 98.1074 59.3397 97.6716 59.3397 97.3771C59.3397 97.083 59.2041 96.8421 59.0383 96.8421C58.8726 96.8421 58.737 96.6012 58.737 96.3071C58.737 96.0126 58.4658 95.5769 58.1343 95.3383C57.8028 95.0999 57.5316 94.6938 57.5316 94.4361C57.5316 94.1784 57.2604 93.7723 56.9289 93.5338C56.5974 93.2953 56.3262 92.8596 56.3262 92.5651C56.3262 92.271 56.1906 92.0301 56.0249 92.0301C55.8592 92.0301 55.7236 91.7892 55.7236 91.495C55.7236 91.2006 55.4523 90.7648 55.1209 90.5263C54.7894 90.2878 54.5182 89.8818 54.5182 89.6241C54.5182 89.3663 54.247 88.9603 53.9155 88.7218C53.584 88.4833 53.3128 88.0475 53.3128 87.7531C53.3128 87.4589 53.1772 87.218 53.0115 87.218C52.8457 87.218 52.7101 86.9771 52.7101 86.683C52.7101 86.3886 52.4389 85.9528 52.1074 85.7143C51.776 85.4758 51.5048 85.0698 51.5048 84.812C51.5048 84.5543 51.2335 84.1483 50.9021 83.9098C50.5706 83.6713 50.2994 83.2355 50.2994 82.9411C50.2994 82.6469 50.1638 82.406 49.998 82.406C49.8323 82.406 49.6967 82.1651 49.6967 81.871C49.6967 81.5765 49.4255 81.1408 49.094 80.9023C48.7625 80.6638 48.4913 80.2577 48.4913 80C48.4913 79.7423 48.2201 79.3362 47.8886 79.0977C47.5572 78.8593 47.2859 78.4235 47.2859 78.129C47.2859 77.8349 47.1503 77.594 46.9846 77.594C46.8189 77.594 46.6833 77.3777 46.6833 77.1131C46.6833 76.8487 46.2765 76.2529 45.7792 75.7895C45.282 75.326 44.8752 74.76 44.8752 74.5323C44.8752 74.3044 44.604 73.9227 44.2725 73.6842C43.941 73.4457 43.6698 73.0397 43.6698 72.782C43.6698 72.5242 43.3986 72.1182 43.0671 71.8797C42.7357 71.6412 42.4645 71.2352 42.4645 70.9774C42.4645 70.7197 42.1933 70.3137 41.8618 70.0752C41.5303 69.8367 41.2591 69.4009 41.2591 69.1065C41.2591 68.8123 41.1235 68.5714 40.9577 68.5714C40.792 68.5714 40.6564 68.3305 40.6564 68.0364C40.6564 67.742 40.3852 67.3062 40.0537 67.0677C39.7222 66.8292 39.451 66.3934 39.451 66.0989C39.451 65.8048 39.3154 65.5639 39.1497 65.5639C38.984 65.5639 38.8483 65.2932 38.8483 64.9624C38.8483 64.6316 38.7127 64.3609 38.547 64.3609C38.3813 64.3609 38.2457 64.0902 38.2457 63.7594C38.2457 63.4286 38.1101 63.1579 37.9443 63.1579C37.7786 63.1579 37.643 62.917 37.643 62.6229C37.643 62.3284 37.3718 61.8926 37.0403 61.6541C36.7088 61.4156 36.4376 60.9798 36.4376 60.6854C36.4376 60.3913 36.302 60.1504 36.1363 60.1504C35.9705 60.1504 35.8349 59.8797 35.8349 59.5489C35.8349 59.218 35.6993 58.9474 35.5336 58.9474C35.3678 58.9474 35.2322 58.6767 35.2322 58.3459C35.2322 58.015 35.0966 57.7444 34.9309 57.7444C34.7651 57.7444 34.6295 57.4737 34.6295 57.1429C34.6295 56.812 34.4939 56.5414 34.3282 56.5414C34.1625 56.5414 34.0269 56.1353 34.0269 55.6391C34.0269 55.1429 33.8913 54.7368 33.7255 54.7368C33.5598 54.7368 33.4242 54.4662 33.4242 54.1353C33.4242 53.8045 33.2886 53.5338 33.1228 53.5338C32.9571 53.5338 32.8215 53.1278 32.8215 52.6316C32.8215 52.1353 32.6859 51.7293 32.5201 51.7293C32.3544 51.7293 32.2188 51.3233 32.2188 50.8271C32.2188 50.3308 32.0832 49.9248 31.9175 49.9248C31.7517 49.9248 31.6161 49.6541 31.6161 49.3233C31.6161 48.9925 31.4805 48.7218 31.3148 48.7218C31.149 48.7218 31.0134 48.3158 31.0134 47.8195C31.0134 47.3233 30.8778 46.9173 30.7121 46.9173C30.5463 46.9173 30.4107 46.3759 30.4107 45.7143C30.4107 45.0526 30.2751 44.5113 30.1094 44.5113C29.9437 44.5113 29.8081 43.9699 29.8081 43.3083C29.8081 42.6466 29.6725 42.1053 29.5067 42.1053C29.341 42.1053 29.2054 41.4286 29.2054 40.6015C29.2054 39.7744 29.0698 39.0977 28.904 39.0977C28.7365 39.0977 28.6027 38.2956 28.6027 37.2932C28.6027 36.2908 28.4689 35.4887 28.3013 35.4887C28.1356 35.4887 28 35.218 28 34.8872C28 34.5564 28.1356 34.2857 28.3013 34.2857C28.4671 34.2857 28.6027 33.609 28.6027 32.782C28.6027 31.9549 28.7383 31.2782 28.904 31.2782C29.0698 31.2782 29.2054 31.0692 29.2054 30.8135C29.2054 30.5579 29.5384 30.0165 29.9452 29.6105C31.1587 28.3991 33.4242 28.7856 33.4242 30.2042C33.4242 30.4641 33.5598 30.6767 33.7255 30.6767C33.8913 30.6767 34.0269 30.9474 34.0269 31.2782C34.0269 31.609 34.1625 31.8797 34.3282 31.8797C34.4939 31.8797 34.6295 32.1504 34.6295 32.4812C34.6295 32.812 34.7651 33.0827 34.9309 33.0827C35.0966 33.0827 35.2322 33.3534 35.2322 33.6842C35.2322 34.015 35.3678 34.2857 35.5336 34.2857C35.6993 34.2857 35.8349 34.6917 35.8349 35.188C35.8349 35.6842 35.9705 36.0902 36.1363 36.0902C36.302 36.0902 36.4376 36.3609 36.4376 36.6917C36.4376 37.0226 36.5732 37.2932 36.7389 37.2932C36.9047 37.2932 37.0403 37.5639 37.0403 37.8947C37.0403 38.2256 37.1759 38.4962 37.3416 38.4962C37.5074 38.4962 37.643 38.9023 37.643 39.3985C37.643 39.8947 37.7786 40.3008 37.9443 40.3008C38.1101 40.3008 38.2457 40.8421 38.2457 41.5038C38.2457 42.1654 38.3813 42.7068 38.547 42.7068C38.7127 42.7068 38.8483 43.2481 38.8483 43.9098C38.8483 44.5714 38.984 45.1128 39.1497 45.1128C39.3154 45.1128 39.451 45.5188 39.451 46.015C39.451 46.5113 39.5866 46.9173 39.7524 46.9173C39.9181 46.9173 40.0537 47.4586 40.0537 48.1203C40.0537 48.782 40.1893 49.3233 40.3551 49.3233C40.5208 49.3233 40.6564 49.7293 40.6564 50.2256C40.6564 50.7218 40.792 51.1278 40.9577 51.1278C41.1235 51.1278 41.2591 51.5338 41.2591 52.0301C41.2591 52.5263 41.3947 52.9323 41.5604 52.9323C41.7262 52.9323 41.8618 53.3383 41.8618 53.8346C41.8618 54.3308 41.9974 54.7368 42.1631 54.7368C42.3289 54.7368 42.4645 55.1429 42.4645 55.6391C42.4645 56.1353 42.6001 56.5414 42.7658 56.5414C42.9315 56.5414 43.0671 56.9474 43.0671 57.4436C43.0671 57.9398 43.2028 58.3459 43.3685 58.3459C43.5342 58.3459 43.6698 58.5585 43.6698 58.8183C43.6698 59.2743 44.3494 60.1504 44.7031 60.1504C44.7978 60.1504 44.8752 59.203 44.8752 58.0451C44.8752 56.8421 44.7459 55.9398 44.5739 55.9398C44.4081 55.9398 44.2725 55.2632 44.2725 54.4361C44.2725 53.609 44.1369 52.9323 43.9712 52.9323C43.8054 52.9323 43.6698 52.391 43.6698 51.7293C43.6698 51.0677 43.5342 50.5263 43.3685 50.5263C43.1928 50.5263 43.0671 49.5239 43.0671 48.1203C43.0671 46.7167 42.9415 45.7143 42.7658 45.7143C42.5832 45.7143 42.4645 44.4111 42.4645 42.406C42.4645 40.4009 42.3457 39.0977 42.1631 39.0977C41.9718 39.0977 41.8618 36.7919 41.8618 32.782C41.8618 28.772 41.9718 26.4662 42.1631 26.4662C42.3289 26.4662 42.4645 25.7895 42.4645 24.9624C42.4645 24.1353 42.6001 23.4586 42.7658 23.4586C42.9315 23.4586 43.0671 23.188 43.0671 22.8571C43.0671 22.4562 43.2681 22.2556 43.6698 22.2556C44.0013 22.2556 44.2725 22.1203 44.2725 21.9549C44.2725 21.7895 44.6176 21.6541 45.0394 21.6541C45.8853 21.6541 47.2859 22.8647 47.2859 23.5955C47.2859 23.8511 47.4216 24.0602 47.5873 24.0602C47.753 24.0602 47.8886 24.4662 47.8886 24.9624C47.8886 25.4586 48.0242 25.8647 48.19 25.8647C48.3557 25.8647 48.4913 26.5414 48.4913 27.3684C48.4913 28.1955 48.6269 28.8722 48.7927 28.8722C48.9683 28.8722 49.094 29.8746 49.094 31.2782C49.094 32.6818 49.2197 33.6842 49.3954 33.6842C49.574 33.6842 49.6967 34.7871 49.6967 36.391C49.6967 37.9949 49.8193 39.0977 49.998 39.0977C50.1638 39.0977 50.2994 39.5038 50.2994 40C50.2994 41.009 50.4467 41.099 51.0741 40.4725C51.3875 40.16 51.5048 39.258 51.5048 37.1642C51.5048 35.4457 51.6262 34.2857 51.8061 34.2857C51.9718 34.2857 52.1074 33.7444 52.1074 33.0827C52.1074 32.0803 52.2078 31.8797 52.7101 31.8797C53.0416 31.8797 53.3128 31.7444 53.3128 31.5789C53.3128 31.4135 53.9275 31.2782 54.6788 31.2782C55.836 31.2782 56.2048 31.4379 57.0895 32.3209C57.6642 32.8941 58.1343 33.5708 58.1343 33.8247C58.1343 34.0782 58.2699 34.2857 58.4356 34.2857C58.6014 34.2857 58.737 34.9624 58.737 35.7895C58.737 36.6165 58.8726 37.2932 59.0383 37.2932C59.2041 37.2932 59.3397 37.6992 59.3397 38.1955C59.3397 38.6917 59.2041 39.0977 59.0383 39.0977C58.8726 39.0977 58.737 39.7744 58.737 40.6015C58.737 41.4286 58.6014 42.1053 58.4356 42.1053C58.2699 42.1053 58.1343 42.6466 58.1343 43.3083C58.1343 43.9699 57.9987 44.5113 57.833 44.5113C57.6672 44.5113 57.5316 45.188 57.5316 46.015C57.5316 46.8421 57.396 47.5188 57.2303 47.5188C57.0627 47.5188 56.9289 48.3209 56.9289 49.3233C56.9289 50.3257 56.7951 51.1278 56.6276 51.1278C56.4347 51.1278 56.3262 53.8346 56.3262 58.6466C56.3262 63.4586 56.4347 66.1654 56.6276 66.1654C56.8063 66.1654 56.9289 67.2683 56.9289 68.8722C56.9289 70.4761 57.0516 71.5789 57.2303 71.5789C57.396 71.5789 57.5316 72.1203 57.5316 72.782C57.5316 73.4436 57.6672 73.985 57.833 73.985C57.9987 73.985 58.1343 74.5263 58.1343 75.188C58.1343 75.8496 58.2699 76.391 58.4356 76.391C58.6014 76.391 58.737 76.6617 58.737 76.9925C58.737 77.3233 58.8726 77.594 59.0383 77.594C59.2041 77.594 59.3397 77.8647 59.3397 78.1955C59.3397 78.5263 59.4753 78.797 59.641 78.797C59.8067 78.797 59.9424 79.003 59.9424 79.2547C59.9424 79.7702 63.0679 83.0075 63.5657 83.0075C63.7426 83.0075 64.2199 82.6752 64.6267 82.2692C65.1954 81.702 65.3665 81.2144 65.3665 80.1639C65.3665 79.412 65.5021 78.797 65.6679 78.797C65.8532 78.797 65.9692 77.2932 65.9692 74.8872C65.9692 72.4812 65.8532 70.9774 65.6679 70.9774C65.4892 70.9774 65.3665 69.8746 65.3665 68.2707C65.3665 66.6668 65.2439 65.5639 65.0652 65.5639C64.8865 65.5639 64.7638 64.4611 64.7638 62.8571C64.7638 61.2532 64.6412 60.1504 64.4625 60.1504C64.2868 60.1504 64.1612 59.148 64.1612 57.7444C64.1612 56.3408 64.0355 55.3383 63.8598 55.3383C63.6923 55.3383 63.5585 54.5362 63.5585 53.5338C63.5585 52.5314 63.4247 51.7293 63.2571 51.7293C63.0896 51.7293 62.9558 50.9272 62.9558 49.9248C62.9558 48.9224 62.822 48.1203 62.6544 48.1203C62.4887 48.1203 62.3531 47.4436 62.3531 46.6165C62.3531 45.7895 62.2175 45.1128 62.0518 45.1128C61.886 45.1128 61.7504 44.4361 61.7504 43.609C61.7504 42.782 61.6148 42.1053 61.4491 42.1053C61.2833 42.1053 61.1477 41.4286 61.1477 40.6015C61.1477 39.7744 61.0121 39.0977 60.8464 39.0977C60.6806 39.0977 60.545 38.4211 60.545 37.594C60.545 36.7669 60.4094 36.0902 60.2437 36.0902C60.078 36.0902 59.9424 35.5489 59.9424 34.8872C59.9424 34.2256 59.8067 33.6842 59.641 33.6842C59.4753 33.6842 59.3397 33.1429 59.3397 32.4812C59.3397 31.8195 59.2041 31.2782 59.0383 31.2782C58.8726 31.2782 58.737 30.7368 58.737 30.0752C58.737 29.4135 58.6014 28.8722 58.4356 28.8722C58.2699 28.8722 58.1343 28.4662 58.1343 27.9699C58.1343 27.4737 57.9987 27.0677 57.833 27.0677C57.6672 27.0677 57.5316 26.5263 57.5316 25.8647C57.5316 25.203 57.396 24.6617 57.2303 24.6617C57.0645 24.6617 56.9289 24.2556 56.9289 23.7594C56.9289 23.2632 56.7933 22.8571 56.6276 22.8571C56.4618 22.8571 56.3262 22.4511 56.3262 21.9549C56.3262 21.4586 56.1906 21.0526 56.0249 21.0526C55.8592 21.0526 55.7236 20.5113 55.7236 19.8496C55.7236 19.188 55.5879 18.6466 55.4222 18.6466C55.2565 18.6466 55.1209 18.1053 55.1209 17.4436C55.1209 16.782 54.9853 16.2406 54.8195 16.2406C54.6538 16.2406 54.5182 15.5639 54.5182 14.7368C54.5182 13.9098 54.3826 13.2331 54.2168 13.2331C54.0412 13.2331 53.9155 12.2307 53.9155 10.8271C53.9155 9.42346 54.0412 8.42105 54.2168 8.42105C54.3844 8.42105 54.5182 7.61895 54.5182 6.61654C54.5182 5.61414 54.652 4.81203 54.8195 4.81203C54.9853 4.81203 55.1209 4.46917 55.1209 4.05022C55.1209 3.58165 55.5235 2.88661 56.1656 2.24571C57.1058 1.30707 57.3767 1.20301 58.8777 1.20301C60.344 1.20301 60.545 1.27549 60.545 1.80451C60.545 2.13534 60.6806 2.40601 60.8464 2.40601C61.0121 2.40601 61.1477 2.94737 61.1477 3.60902C61.1477 4.27068 61.2833 4.81203 61.4491 4.81203C61.6398 4.81203 61.7504 7.01744 61.7504 10.8271C61.7504 14.6367 61.861 16.8421 62.0518 16.8421C62.2193 16.8421 62.3531 17.6442 62.3531 18.6466C62.3531 19.649 62.4869 20.4511 62.6544 20.4511C62.8265 20.4511 62.9558 21.3534 62.9558 22.5564C62.9558 23.7594 63.0851 24.6617 63.2571 24.6617C63.4229 24.6617 63.5585 24.9323 63.5585 25.2632C63.5585 25.6641 63.7595 25.8647 64.1612 25.8647C64.5628 25.8647 64.7638 25.6641 64.7638 25.2632C64.7638 24.9323 64.8994 24.6617 65.0652 24.6617C65.2309 24.6617 65.3665 24.1203 65.3665 23.4586C65.3665 22.797 65.5021 22.2556 65.6679 22.2556C65.8336 22.2556 65.9692 21.985 65.9692 21.6541C65.9692 21.3233 66.1048 21.0526 66.2706 21.0526C66.4363 21.0526 66.5719 20.84 66.5719 20.5802C66.5719 19.8701 67.3358 19.2481 68.2079 19.2481C68.634 19.2481 68.9826 19.1128 68.9826 18.9474C68.9826 18.782 69.3895 18.6466 69.8867 18.6466C70.3839 18.6466 70.7907 18.782 70.7907 18.9474C70.7907 19.1128 71.0619 19.2481 71.3934 19.2481C71.7951 19.2481 71.9961 19.4487 71.9961 19.8496C71.9961 20.1805 72.1317 20.4511 72.2974 20.4511C72.4827 20.4511 72.5988 21.9549 72.5988 24.3609C72.5988 26.7669 72.4827 28.2707 72.2974 28.2707C72.1317 28.2707 71.9961 28.812 71.9961 29.4737C71.9961 30.1353 71.8605 30.6767 71.6947 30.6767C71.5085 30.6767 71.3934 32.2376 71.3934 34.7582C71.3934 37.8947 71.4931 38.9396 71.824 39.2695C72.4511 39.8956 73.2014 39.8018 73.2014 39.0977C73.2014 38.7669 73.337 38.4962 73.5028 38.4962C73.6685 38.4962 73.8041 38.2256 73.8041 37.8947C73.8041 37.5639 73.9397 37.2932 74.1055 37.2932C74.2712 37.2932 74.4068 36.8872 74.4068 36.391C74.4068 35.8947 74.5424 35.4887 74.7082 35.4887C74.8739 35.4887 75.0095 35.0827 75.0095 34.5865C75.0095 34.0902 75.1451 33.6842 75.3108 33.6842C75.4766 33.6842 75.6122 33.1429 75.6122 32.4812C75.6122 31.8195 75.7478 31.2782 75.9135 31.2782C76.0811 31.2782 76.2149 30.4761 76.2149 29.4737C76.2149 28.4713 76.3487 27.6692 76.5162 27.6692C76.6919 27.6692 76.8176 26.6668 76.8176 25.2632C76.8176 23.8595 76.9432 22.8571 77.1189 22.8571C77.3103 22.8571 77.4202 20.5513 77.4202 16.5414C77.4202 12.5314 77.5302 10.2256 77.7216 10.2256C77.8958 10.2256 78.0229 9.26977 78.0229 7.96C78.0229 5.77564 78.0606 5.65684 79.0677 4.65173C79.6421 4.07819 80.3201 3.60902 80.5744 3.60902C80.8284 3.60902 81.0364 3.47368 81.0364 3.30827C81.0364 3.14286 81.517 3.00752 82.1046 3.00752C83.5535 3.00752 84.6525 4.10436 84.6525 5.55038C84.6525 6.13684 84.7881 6.61654 84.9538 6.61654C85.1196 6.61654 85.2552 7.37053 85.2552 8.29203C85.2552 10.2653 85.8425 11.1862 86.6112 10.4189C86.8598 10.1708 87.0632 9.61985 87.0632 9.19429C87.0632 8.76902 87.1988 8.42105 87.3646 8.42105C87.5427 8.42105 87.6659 7.34045 87.6659 5.78075C87.6659 3.48541 87.7446 3.08361 88.2686 2.70677C88.6001 2.46827 88.8713 2.09052 88.8713 1.86707C88.8713 1.31639 89.6249 0.601504 90.2059 0.601504Z" fill="#01010E"/>
</svg>
