<svg width="186" height="160" viewBox="0 0 186 160" fill="none" xmlns="http://www.w3.org/2000/svg">
<path d="M77.337 2.36762C77.337 2.13069 77.7499 1.50555 78.2543 0.978158C78.7587 0.451053 79.4615 0.0110021 79.816 0.000296587C80.6947 -0.0261855 82.4175 1.72726 82.4175 2.64794C82.4175 3.04038 82.5446 3.36154 82.6998 3.36154C82.8745 3.36154 82.982 4.86398 82.982 7.30568C82.982 9.74738 82.8745 11.2498 82.6998 11.2498C82.5446 11.2498 82.4175 11.8837 82.4175 12.6584C82.4175 13.4332 82.2905 14.067 82.1353 14.067C81.9741 14.067 81.853 14.9122 81.853 16.0391C81.853 17.166 81.732 18.0112 81.5708 18.0112C81.4034 18.0112 81.2885 19.0443 81.2885 20.5467C81.2885 22.0491 81.1737 23.0822 81.0063 23.0822C80.8276 23.0822 80.724 25.1481 80.724 28.7167C80.724 32.2853 80.8276 34.3512 81.0063 34.3512C81.1615 34.3512 81.2885 34.0976 81.2885 33.7877C81.2885 33.4778 81.4156 33.2243 81.5708 33.2243C81.7277 33.2243 81.853 32.4729 81.853 31.5339C81.853 30.5949 81.9784 29.8436 82.1353 29.8436C82.2965 29.8436 82.4175 28.9984 82.4175 27.8715C82.4175 26.7869 82.5338 25.8995 82.6758 25.8995C82.8178 25.8995 83.0083 25.0754 83.0992 24.0682L83.4294 20.4058C83.5203 19.3987 83.7108 18.5746 83.8528 18.5746C83.9948 18.5746 84.1111 17.6872 84.1111 16.6026C84.1111 15.4757 84.2321 14.6305 84.3933 14.6305C84.5485 14.6305 84.6756 14.1234 84.6756 13.5036C84.6756 12.8838 84.8026 12.3767 84.9578 12.3767C85.1131 12.3767 85.2401 11.9964 85.2401 11.5315C85.2401 11.0667 85.3671 10.6864 85.5223 10.6864C85.6776 10.6864 85.8046 10.306 85.8046 9.84119C85.8046 9.37635 85.9316 8.99602 86.0868 8.99602C86.2421 8.99602 86.3691 8.80163 86.3691 8.56414C86.3691 8.32636 86.8094 7.69248 87.3476 7.15552C88.0948 6.40951 88.5616 6.17878 89.3234 6.17878C90.1323 6.17878 90.3206 6.28499 90.3206 6.74223C90.3206 7.05213 90.4476 7.30568 90.6029 7.30568C90.7581 7.30568 90.8851 7.55923 90.8851 7.86912C90.8851 8.17902 91.0121 8.43257 91.1674 8.43257C91.3226 8.43257 91.4496 9.06645 91.4496 9.84119C91.4496 10.6159 91.5766 11.2498 91.7319 11.2498C91.9097 11.2498 92.0141 13.1281 92.0141 16.3208C92.0141 19.5136 91.9097 21.3919 91.7319 21.3919C91.5766 21.3919 91.4496 22.0257 91.4496 22.8005C91.4496 23.5752 91.3226 24.2091 91.1674 24.2091C91.0121 24.2091 90.8851 24.7162 90.8851 25.336C90.8851 25.9558 90.7581 26.4629 90.6029 26.4629C90.4476 26.4629 90.3206 27.0968 90.3206 27.8715C90.3206 28.6463 90.1936 29.2801 90.0383 29.2801C89.8831 29.2801 89.7561 29.7872 89.7561 30.407C89.7561 31.0268 89.6291 31.5339 89.4738 31.5339C89.3186 31.5339 89.1916 32.1678 89.1916 32.9425C89.1916 33.7173 89.0646 34.3512 88.9093 34.3512C88.7524 34.3512 88.6271 35.1025 88.6271 36.0415C88.6271 36.9805 88.5018 37.7318 88.3448 37.7318C88.1837 37.7318 88.0626 38.577 88.0626 39.7039C88.0626 40.8308 87.9415 41.676 87.7803 41.676C87.6234 41.676 87.4981 42.4273 87.4981 43.3663C87.4981 44.3053 87.3728 45.0567 87.2158 45.0567C87.0465 45.0567 86.9336 46.1836 86.9336 47.8739C86.9336 49.5643 86.8207 50.6911 86.6513 50.6911C86.4735 50.6911 86.3691 52.5694 86.3691 55.7622C86.3691 58.9549 86.2646 60.8332 86.0868 60.8332C85.9121 60.8332 85.8046 62.3356 85.8046 64.7773C85.8046 67.219 85.9121 68.7215 86.0868 68.7215C86.248 68.7215 86.3691 69.5666 86.3691 70.6935C86.3691 71.8204 86.4902 72.6656 86.6513 72.6656C86.8083 72.6656 86.9336 73.417 86.9336 74.3559C86.9336 75.2949 87.0589 76.0463 87.2158 76.0463C87.3711 76.0463 87.4981 76.4266 87.4981 76.8915C87.4981 77.3563 87.6251 77.7366 87.7803 77.7366C87.9356 77.7366 88.0626 77.9358 88.0626 78.1792C88.0626 78.8838 88.7953 79.427 89.7454 79.427C90.3689 79.427 90.904 79.1452 91.6 78.4502C92.1383 77.9133 92.5786 77.3073 92.5786 77.1039C92.5786 76.9005 92.8326 76.5514 93.1431 76.328C93.4536 76.1046 93.7076 75.6964 93.7076 75.4206C93.7076 75.1451 93.8346 74.9194 93.9899 74.9194C94.1451 74.9194 94.2721 74.6658 94.2721 74.3559C94.2721 74.046 94.3991 73.7925 94.5544 73.7925C94.7096 73.7925 94.8366 73.4122 94.8366 72.9473C94.8366 72.4825 94.9636 72.1022 95.1189 72.1022C95.2741 72.1022 95.4011 71.7218 95.4011 71.257C95.4011 70.7921 95.5281 70.4118 95.6834 70.4118C95.8386 70.4118 95.9656 70.0315 95.9656 69.5666C95.9656 69.1018 96.0926 68.7215 96.2479 68.7215C96.4031 68.7215 96.5301 68.3411 96.5301 67.8763C96.5301 67.4115 96.6572 67.0311 96.8124 67.0311C96.9693 67.0311 97.0946 66.2798 97.0946 65.3408C97.0946 64.4018 97.22 63.6504 97.3769 63.6504C97.5381 63.6504 97.6591 62.8053 97.6591 61.6784C97.6591 60.5937 97.7816 59.7063 97.931 59.7063C98.0933 59.7063 98.2595 57.1745 98.3425 53.438C98.5189 45.5063 98.7582 41.676 99.0772 41.676C99.2149 41.676 99.3944 39.4892 99.4763 36.8162C99.5579 34.1433 99.6978 30.34 99.787 28.3645C99.8974 25.9262 99.8537 24.7726 99.651 24.7726C99.4509 24.7726 99.3527 22.8258 99.3527 18.8564C99.3527 15.1001 99.4557 12.9402 99.6349 12.9402C99.7901 12.9402 99.9172 12.4331 99.9172 11.8133C99.9172 11.1935 100.044 10.6864 100.199 10.6864C100.355 10.6864 100.482 10.4906 100.482 10.2511C100.482 9.49242 101.798 8.43257 102.74 8.43257C103.682 8.43257 104.998 9.49242 104.998 10.2511C104.998 10.4906 105.125 10.6864 105.28 10.6864C105.435 10.6864 105.562 11.0667 105.562 11.5315C105.562 11.9964 105.689 12.3767 105.844 12.3767C106.028 12.3767 106.127 16.5088 106.127 24.2091C106.127 35.8536 106.136 36.0415 106.691 36.0415C107.232 36.0415 107.256 35.8536 107.256 31.5339C107.256 28.7167 107.362 27.0263 107.538 27.0263C107.705 27.0263 107.82 25.9933 107.82 24.4908C107.82 22.9884 107.935 21.9553 108.102 21.9553C108.27 21.9553 108.385 20.9222 108.385 19.4198C108.385 17.9174 108.5 16.8843 108.667 16.8843C108.822 16.8843 108.949 16.4363 108.949 15.889C108.949 14.5539 110.5 12.9402 111.782 12.9402C112.7 12.9402 113.465 13.4791 113.465 14.1256C113.465 14.335 113.719 14.6888 114.03 14.9122C114.361 15.1508 114.594 15.6416 114.594 16.1014C114.594 16.5318 114.721 16.8843 114.877 16.8843C115.058 16.8843 115.159 19.8894 115.159 25.336C115.159 30.7826 115.058 33.7877 114.877 33.7877C114.709 33.7877 114.594 34.8208 114.594 36.3232C114.594 37.8257 114.479 38.8587 114.312 38.8587C114.151 38.8587 114.03 39.7039 114.03 40.8308C114.03 41.9577 113.909 42.8029 113.748 42.8029C113.592 42.8029 113.465 43.4368 113.465 44.2115C113.465 44.9862 113.338 45.6201 113.183 45.6201C113.028 45.6201 112.901 46.1272 112.901 46.747C112.901 47.3668 112.774 47.8739 112.618 47.8739C112.463 47.8739 112.336 48.381 112.336 49.0008C112.336 49.6206 112.209 50.1277 112.054 50.1277C111.899 50.1277 111.772 50.508 111.772 50.9729C111.772 51.4377 111.645 51.818 111.489 51.818C111.334 51.818 111.207 52.1984 111.207 52.6632C111.207 53.1281 111.08 53.5084 110.925 53.5084C110.77 53.5084 110.643 53.8887 110.643 54.3536C110.643 54.8184 110.516 55.1987 110.36 55.1987C110.205 55.1987 110.078 55.5791 110.078 56.0439C110.078 56.5087 109.951 56.8891 109.796 56.8891C109.641 56.8891 109.514 57.2694 109.514 57.7342C109.514 58.1991 109.387 58.5794 109.231 58.5794C109.076 58.5794 108.949 58.9597 108.949 59.4246C108.949 59.8894 108.822 60.2698 108.667 60.2698C108.512 60.2698 108.385 60.6501 108.385 61.1149C108.385 61.5798 108.258 61.9601 108.102 61.9601C107.947 61.9601 107.82 62.2136 107.82 62.5235C107.82 62.8334 107.693 63.087 107.538 63.087C107.383 63.087 107.256 63.4673 107.256 63.9322C107.256 64.397 107.129 64.7773 106.973 64.7773C106.818 64.7773 106.691 65.0309 106.691 65.3408C106.691 65.6507 106.564 65.9042 106.409 65.9042C106.254 65.9042 106.127 66.1578 106.127 66.4677C106.127 66.7776 106 67.0311 105.844 67.0311C105.689 67.0311 105.562 67.2847 105.562 67.5946C105.562 67.9045 105.435 68.158 105.28 68.158C105.125 68.158 104.998 68.5384 104.998 69.0032C104.998 69.468 104.871 69.8484 104.715 69.8484C104.56 69.8484 104.433 70.1019 104.433 70.4118C104.433 70.7217 104.306 70.9753 104.151 70.9753C103.996 70.9753 103.869 71.2288 103.869 71.5387C103.869 71.8486 103.742 72.1022 103.586 72.1022C103.431 72.1022 103.304 72.4825 103.304 72.9473C103.304 73.4122 103.177 73.7925 103.022 73.7925C102.867 73.7925 102.74 74.046 102.74 74.3559C102.74 74.6658 102.613 74.9194 102.457 74.9194C102.302 74.9194 102.175 75.1729 102.175 75.4828C102.175 75.7927 102.048 76.0463 101.893 76.0463C101.738 76.0463 101.611 76.2998 101.611 76.6097C101.611 76.9196 101.484 77.1732 101.328 77.1732C101.173 77.1732 101.046 77.4267 101.046 77.7366C101.046 78.0465 100.919 78.3001 100.764 78.3001C100.609 78.3001 100.482 78.5536 100.482 78.8635C100.482 79.1734 100.355 79.427 100.199 79.427C100.044 79.427 99.9172 79.6805 99.9172 79.9904C99.9172 80.3003 99.7901 80.5539 99.6349 80.5539C99.4797 80.5539 99.3527 80.8074 99.3527 81.1173C99.3527 81.4272 99.2256 81.6808 99.0704 81.6808C98.9152 81.6808 98.7882 82.0611 98.7882 82.5259C98.7882 82.9908 98.6611 83.3711 98.5059 83.3711C98.3507 83.3711 98.2236 83.6247 98.2236 83.9346C98.2236 84.2445 98.0966 84.498 97.9414 84.498C97.7862 84.498 97.6591 84.8783 97.6591 85.3432C97.6591 85.808 97.5321 86.1883 97.3769 86.1883C97.2217 86.1883 97.0946 86.5687 97.0946 87.0335C97.0946 87.4984 96.9676 87.8787 96.8124 87.8787C96.6572 87.8787 96.5301 88.259 96.5301 88.7239C96.5301 89.1887 96.4031 89.569 96.2479 89.569C96.0926 89.569 95.9656 90.0761 95.9656 90.6959C95.9656 91.3157 95.8386 91.8228 95.6834 91.8228C95.5281 91.8228 95.4011 92.0764 95.4011 92.3863C95.4011 92.6962 95.2741 92.9497 95.1189 92.9497C94.9636 92.9497 94.8366 93.4568 94.8366 94.0766C94.8366 94.6964 94.7096 95.2035 94.5544 95.2035C94.3991 95.2035 94.2721 95.5838 94.2721 96.0487C94.2721 96.5135 94.1451 96.8939 93.9899 96.8939C93.8346 96.8939 93.7076 97.2742 93.7076 97.739C93.7076 98.2039 93.5806 98.5842 93.4254 98.5842C93.2701 98.5842 93.1431 99.0913 93.1431 99.7111C93.1431 100.331 93.0161 100.838 92.8609 100.838C92.7056 100.838 92.5786 101.218 92.5786 101.683C92.5786 102.148 92.4516 102.528 92.2964 102.528C92.1352 102.528 92.0141 103.373 92.0141 104.5C92.0141 105.627 91.893 106.472 91.7319 106.472C91.5749 106.472 91.4496 107.224 91.4496 108.163C91.4496 109.102 91.3243 109.853 91.1674 109.853C91.0121 109.853 90.8851 110.487 90.8851 111.262C90.8851 112.036 90.7581 112.67 90.6029 112.67C90.4476 112.67 90.3206 113.177 90.3206 113.797C90.3206 114.417 90.1936 114.924 90.0383 114.924C89.8814 114.924 89.7561 115.676 89.7561 116.615C89.7561 117.553 89.6308 118.305 89.4738 118.305C89.3169 118.305 89.1916 119.056 89.1916 119.995C89.1916 120.934 89.0663 121.686 88.9093 121.686C88.7293 121.686 88.6271 124.033 88.6271 128.165C88.6271 132.297 88.7293 134.645 88.9093 134.645C89.0646 134.645 89.1916 135.279 89.1916 136.053C89.1916 136.828 89.3186 137.462 89.4738 137.462C89.6291 137.462 89.7561 137.842 89.7561 138.307C89.7561 138.772 89.8831 139.152 90.0383 139.152C90.1936 139.152 90.3206 139.406 90.3206 139.716C90.3206 140.026 90.4476 140.279 90.6029 140.279C90.7581 140.279 90.8851 140.475 90.8851 140.715C90.8851 141.278 92.1422 142.533 92.707 142.533C92.9469 142.533 93.1431 142.66 93.1431 142.815C93.1431 142.97 93.3971 143.097 93.7076 143.097C94.0181 143.097 94.2721 143.223 94.2721 143.378C94.2721 143.533 94.9072 143.66 95.6834 143.66C96.4596 143.66 97.0946 143.533 97.0946 143.378C97.0946 143.223 97.4246 143.097 97.8282 143.097C98.2793 143.097 98.8663 142.771 99.3527 142.251C99.7876 141.787 100.287 141.406 100.463 141.406C100.906 141.406 102.74 139.536 102.74 139.083C102.74 138.88 102.994 138.531 103.304 138.307C103.615 138.084 103.869 137.676 103.869 137.4C103.869 137.124 103.996 136.899 104.151 136.899C104.306 136.899 104.433 136.518 104.433 136.053C104.433 135.589 104.56 135.208 104.715 135.208C104.886 135.208 104.998 133.988 104.998 132.109C104.998 130.231 104.886 129.01 104.715 129.01C104.56 129.01 104.433 128.503 104.433 127.883C104.433 127.264 104.306 126.757 104.151 126.757C103.996 126.757 103.869 126.376 103.869 125.911C103.869 125.447 103.742 125.066 103.586 125.066C103.431 125.066 103.304 124.813 103.304 124.503C103.304 124.193 103.177 123.939 103.022 123.939C102.867 123.939 102.74 123.714 102.74 123.438C102.74 123.162 102.486 122.754 102.175 122.531C101.865 122.307 101.611 121.899 101.611 121.623C101.611 121.348 101.484 121.122 101.328 121.122C101.173 121.122 101.046 120.869 101.046 120.559C101.046 120.249 100.919 119.995 100.764 119.995C100.609 119.995 100.482 119.742 100.482 119.432C100.482 119.122 100.355 118.868 100.199 118.868C100.044 118.868 99.9172 118.488 99.9172 118.023C99.9172 117.558 99.7901 117.178 99.6349 117.178C99.4797 117.178 99.3527 116.924 99.3527 116.615C99.3527 116.305 99.2256 116.051 99.0704 116.051C98.9152 116.051 98.7882 115.671 98.7882 115.206C98.7882 114.741 98.6611 114.361 98.5059 114.361C98.3507 114.361 98.2236 113.98 98.2236 113.516C98.2236 113.051 98.0966 112.67 97.9414 112.67C97.7862 112.67 97.6591 112.163 97.6591 111.543C97.6591 110.924 97.5321 110.417 97.3769 110.417C97.1965 110.417 97.0946 107.975 97.0946 103.655C97.0946 99.3356 97.1965 96.8939 97.3769 96.8939C97.5321 96.8939 97.6591 96.3867 97.6591 95.767C97.6591 95.1472 97.7862 94.6401 97.9414 94.6401C98.0966 94.6401 98.2236 94.133 98.2236 93.5132C98.2236 92.8934 98.3507 92.3863 98.5059 92.3863C98.6611 92.3863 98.7882 92.1327 98.7882 91.8228C98.7882 91.5129 98.9152 91.2594 99.0704 91.2594C99.2256 91.2594 99.3527 91.0602 99.3527 90.8168C99.3527 90.257 100.029 89.569 100.579 89.569C100.81 89.569 101.073 89.4107 101.164 89.2169C101.295 88.9352 101.361 88.9352 101.493 89.2169C101.584 89.4104 101.847 89.569 102.078 89.569C102.628 89.569 103.304 90.257 103.304 90.8168C103.304 91.0602 103.431 91.2594 103.586 91.2594C103.742 91.2594 103.869 91.8932 103.869 92.668C103.869 93.4427 103.996 94.0766 104.151 94.0766C104.306 94.0766 104.433 94.4569 104.433 94.9218C104.433 95.3866 104.306 95.767 104.151 95.767C103.98 95.767 103.869 96.9877 103.869 98.8659C103.869 100.744 103.98 101.965 104.151 101.965C104.306 101.965 104.433 102.472 104.433 103.092C104.433 103.712 104.506 104.219 104.594 104.219C104.926 104.219 105.562 103.398 105.562 102.971C105.562 102.728 105.689 102.528 105.844 102.528C106 102.528 106.127 101.894 106.127 101.12C106.127 100.345 106.245 99.7111 106.389 99.7111C106.534 99.7111 106.725 98.5067 106.813 97.0347L107.134 91.682C107.222 90.21 107.413 89.0056 107.557 89.0056C107.702 89.0056 107.82 88.1182 107.82 87.0335C107.82 85.9066 107.941 85.0614 108.102 85.0614C108.258 85.0614 108.385 84.5543 108.385 83.9346C108.385 83.3148 108.512 82.8077 108.667 82.8077C108.822 82.8077 108.949 82.5541 108.949 82.2442C108.949 81.9343 109.076 81.6808 109.231 81.6808C109.387 81.6808 109.514 81.485 109.514 81.2455C109.514 80.4302 110.83 79.427 111.9 79.427C112.712 79.427 112.901 79.5329 112.901 79.9904C112.901 80.3003 113.028 80.5539 113.183 80.5539C113.355 80.5539 113.465 81.8687 113.465 83.9346C113.465 86.82 113.53 87.3152 113.909 87.3152C114.703 87.3152 115.159 86.5518 115.159 85.2223C115.159 84.5141 115.286 83.9346 115.441 83.9346C115.596 83.9346 115.723 83.5542 115.723 83.0894C115.723 82.6245 115.85 82.2442 116.006 82.2442C116.161 82.2442 116.288 81.9907 116.288 81.6808C116.288 81.3709 116.415 81.1173 116.57 81.1173C116.725 81.1173 116.852 80.9229 116.852 80.6854C116.852 80.0479 118.716 78.3001 119.396 78.3001C120.345 78.3001 121.368 79.5357 121.368 80.682C121.368 81.2314 121.495 81.6808 121.651 81.6808C121.812 81.6808 121.933 82.5259 121.933 83.6528C121.933 84.7797 121.812 85.6249 121.651 85.6249C121.494 85.6249 121.368 86.3763 121.368 87.3152C121.368 88.2542 121.243 89.0056 121.086 89.0056C120.931 89.0056 120.804 89.5127 120.804 90.1325C120.804 90.7523 120.677 91.2594 120.522 91.2594C120.366 91.2594 120.239 91.6397 120.239 92.1045C120.239 92.5694 120.112 92.9497 119.957 92.9497C119.802 92.9497 119.675 93.33 119.675 93.7949C119.675 94.2597 119.548 94.6401 119.393 94.6401C119.237 94.6401 119.11 95.0204 119.11 95.4852C119.11 95.9501 118.983 96.3304 118.828 96.3304C118.673 96.3304 118.546 96.8375 118.546 97.4573C118.546 98.0771 118.419 98.5842 118.264 98.5842C118.108 98.5842 117.981 99.0913 117.981 99.7111C117.981 100.331 117.854 100.838 117.699 100.838C117.544 100.838 117.417 101.345 117.417 101.965C117.417 102.585 117.29 103.092 117.135 103.092C116.979 103.092 116.852 103.599 116.852 104.219C116.852 104.838 116.725 105.346 116.57 105.346C116.415 105.346 116.288 105.853 116.288 106.472C116.288 107.092 116.161 107.599 116.006 107.599C115.85 107.599 115.723 108.233 115.723 109.008C115.723 109.783 115.596 110.417 115.441 110.417C115.286 110.417 115.159 110.797 115.159 111.262C115.159 111.727 115.032 112.107 114.877 112.107C114.721 112.107 114.594 112.614 114.594 113.234C114.594 113.854 114.467 114.361 114.312 114.361C114.157 114.361 114.03 114.868 114.03 115.488C114.03 116.107 113.903 116.615 113.748 116.615C113.592 116.615 113.465 117.248 113.465 118.023C113.465 118.798 113.338 119.432 113.183 119.432C113.007 119.432 112.901 121.028 112.901 123.658C112.901 126.287 113.007 127.883 113.183 127.883C113.338 127.883 113.465 128.209 113.465 128.608C113.465 129.006 113.647 129.514 113.869 129.735C114.326 130.192 116.852 130.294 116.852 129.856C116.852 129.701 117.048 129.574 117.288 129.574C117.792 129.574 119.11 128.344 119.11 127.874C119.11 127.7 119.618 127.07 120.239 126.475C120.86 125.879 121.368 125.22 121.368 125.01C121.368 124.799 121.622 124.444 121.933 124.221C122.243 123.998 122.497 123.589 122.497 123.314C122.497 123.038 122.624 122.812 122.78 122.812C122.935 122.812 123.062 122.559 123.062 122.249C123.062 121.939 123.189 121.686 123.344 121.686C123.499 121.686 123.626 121.305 123.626 120.84C123.626 120.376 123.753 119.995 123.909 119.995C124.064 119.995 124.191 119.742 124.191 119.432C124.191 119.122 124.318 118.868 124.473 118.868C124.628 118.868 124.755 118.361 124.755 117.741C124.755 117.122 124.882 116.615 125.038 116.615C125.193 116.615 125.32 116.234 125.32 115.769C125.32 115.304 125.447 114.924 125.602 114.924C125.757 114.924 125.884 114.544 125.884 114.079C125.884 113.614 126.011 113.234 126.167 113.234C126.322 113.234 126.449 112.727 126.449 112.107C126.449 111.487 126.576 110.98 126.731 110.98C126.886 110.98 127.013 110.6 127.013 110.135C127.013 109.67 127.14 109.29 127.296 109.29C127.451 109.29 127.578 108.656 127.578 107.881C127.578 107.106 127.705 106.472 127.86 106.472C128.015 106.472 128.142 105.839 128.142 105.064C128.142 104.289 128.269 103.655 128.425 103.655C128.589 103.655 128.707 102.716 128.707 101.401C128.707 100.087 128.589 99.1476 128.425 99.1476C128.269 99.1476 128.142 98.7673 128.142 98.3025C128.142 97.8376 128.015 97.4573 127.86 97.4573C127.705 97.4573 127.578 96.9502 127.578 96.3304C127.578 95.7106 127.451 95.2035 127.296 95.2035C127.134 95.2035 127.013 94.3583 127.013 93.2314C127.013 92.1045 126.892 91.2594 126.731 91.2594C126.556 91.2594 126.449 89.7569 126.449 87.3152C126.449 84.8735 126.341 83.3711 126.167 83.3711C125.996 83.3711 125.884 82.1504 125.884 80.2721C125.884 78.3939 125.773 77.1732 125.602 77.1732C125.447 77.1732 125.32 76.6661 125.32 76.0463C125.32 75.4265 125.193 74.9194 125.038 74.9194C124.882 74.9194 124.755 74.4123 124.755 73.7925C124.755 73.1727 124.628 72.6656 124.473 72.6656C124.318 72.6656 124.191 72.0317 124.191 71.257C124.191 70.4822 124.064 69.8484 123.909 69.8484C123.753 69.8484 123.626 69.2145 123.626 68.4397C123.626 67.665 123.499 67.0311 123.344 67.0311C123.189 67.0311 123.062 66.524 123.062 65.9042C123.062 65.2844 122.935 64.7773 122.78 64.7773C122.623 64.7773 122.497 64.026 122.497 63.087C122.497 62.1573 122.374 61.3966 122.223 61.3966C122.053 61.3966 121.899 57.9261 121.82 52.3111C121.749 47.3138 121.587 41.7788 121.459 40.0104C121.154 35.782 121.613 29.8436 122.246 29.8436C122.384 29.8436 122.497 29.3365 122.497 28.7167C122.497 28.0969 122.624 27.5898 122.78 27.5898C122.935 27.5898 123.062 27.2095 123.062 26.7446C123.062 26.2798 123.189 25.8995 123.344 25.8995C123.499 25.8995 123.626 25.5191 123.626 25.0543C123.626 24.5894 123.753 24.2091 123.909 24.2091C124.064 24.2091 124.191 23.9556 124.191 23.6457C124.191 23.3358 124.318 23.0822 124.473 23.0822C124.628 23.0822 124.755 22.7019 124.755 22.237C124.755 21.7722 124.882 21.3919 125.038 21.3919C125.193 21.3919 125.32 21.1383 125.32 20.8284C125.32 20.5185 125.447 20.265 125.602 20.265C125.757 20.265 125.884 20.0114 125.884 19.7015C125.884 19.3916 126.011 19.1381 126.167 19.1381C126.322 19.1381 126.449 18.9437 126.449 18.7062C126.449 18.4684 126.889 17.8345 127.427 17.2976C128.175 16.5516 128.641 16.3208 129.403 16.3208C129.952 16.3208 130.4 16.4476 130.4 16.6026C130.4 16.7575 130.654 16.8843 130.965 16.8843C131.341 16.8843 131.529 17.0722 131.529 17.4477C131.529 17.7576 131.656 18.0112 131.812 18.0112C131.967 18.0112 132.094 18.5183 132.094 19.1381C132.094 19.7579 132.221 20.265 132.376 20.265C132.531 20.265 132.658 20.8989 132.658 21.6736C132.658 22.4483 132.531 23.0822 132.376 23.0822C132.219 23.0822 132.094 23.8336 132.094 24.7726C132.094 25.7115 131.969 26.4629 131.812 26.4629C131.656 26.4629 131.529 26.97 131.529 27.5898C131.529 28.2096 131.402 28.7167 131.247 28.7167C131.092 28.7167 130.965 29.2238 130.965 29.8436C130.965 30.4634 130.838 30.9705 130.683 30.9705C130.527 30.9705 130.4 31.6044 130.4 32.3791C130.4 33.1538 130.273 33.7877 130.118 33.7877C129.963 33.7877 129.836 34.4216 129.836 35.1963C129.836 35.9711 129.709 36.605 129.554 36.605C129.398 36.605 129.271 37.2388 129.271 38.0136C129.271 38.7883 129.144 39.4222 128.989 39.4222C128.822 39.4222 128.707 40.4553 128.707 41.9577C128.707 44.0749 128.78 44.4932 129.15 44.4932C129.721 44.4932 130.4 43.8148 130.4 43.2455C130.4 43.0021 130.527 42.8029 130.683 42.8029C130.838 42.8029 130.965 42.6071 130.965 42.3676C130.965 42.1281 131.277 41.621 131.658 41.2407C132.252 40.6471 132.613 40.5491 134.198 40.5491H136.045V42.5212C136.045 43.6481 135.924 44.4932 135.763 44.4932C135.606 44.4932 135.481 45.2446 135.481 46.1836C135.481 47.1226 135.356 47.8739 135.199 47.8739C135.043 47.8739 134.916 48.381 134.916 49.0008C134.916 49.6206 134.789 50.1277 134.634 50.1277C134.479 50.1277 134.352 50.6348 134.352 51.2546C134.352 51.8744 134.225 52.3815 134.07 52.3815C133.914 52.3815 133.787 52.8886 133.787 53.5084C133.787 54.1282 133.66 54.6353 133.505 54.6353C133.348 54.6353 133.223 55.3866 133.223 56.3256C133.223 57.2646 133.098 58.016 132.941 58.016C132.785 58.016 132.658 58.5231 132.658 59.1429C132.658 59.7626 132.531 60.2698 132.376 60.2698C132.215 60.2698 132.094 61.1149 132.094 62.2418C132.094 63.3687 131.973 64.2139 131.812 64.2139C131.642 64.2139 131.529 65.3408 131.529 67.0311C131.529 68.7215 131.642 69.8484 131.812 69.8484C131.976 69.8484 132.094 70.7874 132.094 72.1022C132.094 73.417 132.212 74.3559 132.376 74.3559C132.531 74.3559 132.658 74.863 132.658 75.4828C132.658 76.1026 132.785 76.6097 132.941 76.6097C133.096 76.6097 133.223 76.8633 133.223 77.1732C133.223 77.4831 133.35 77.7366 133.505 77.7366C133.66 77.7366 133.787 77.931 133.787 78.1685C133.787 78.9669 135.667 80.5539 136.613 80.5539C137.552 80.5539 138.868 79.4923 138.868 78.7353C138.868 78.4959 138.995 78.3001 139.15 78.3001C139.305 78.3001 139.432 78.0465 139.432 77.7366C139.432 77.4267 139.559 77.1732 139.715 77.1732C139.87 77.1732 139.997 76.7929 139.997 76.328C139.997 75.8632 140.124 75.4828 140.279 75.4828C140.434 75.4828 140.561 74.9757 140.561 74.3559C140.561 73.7362 140.688 73.229 140.844 73.229C141.001 73.229 141.126 72.4777 141.126 71.5387C141.126 70.5997 141.251 69.8484 141.408 69.8484C141.576 69.8484 141.69 68.8153 141.69 67.3129C141.69 65.8104 141.805 64.7773 141.973 64.7773C142.145 64.7773 142.255 63.4625 142.255 61.3966C142.255 59.3308 142.365 58.016 142.537 58.016C142.694 58.016 142.819 57.2646 142.819 56.3256C142.819 55.3866 142.945 54.6353 143.102 54.6353C143.274 54.6353 143.384 53.3205 143.384 51.2546C143.384 49.1887 143.274 47.8739 143.102 47.8739C142.934 47.8739 142.819 46.8408 142.819 45.3384C142.819 43.836 142.705 42.8029 142.537 42.8029C142.373 42.8029 142.255 41.8639 142.255 40.5491C142.255 39.2343 142.137 38.2953 141.973 38.2953C141.808 38.2953 141.69 37.3563 141.69 36.0415C141.69 34.7267 141.573 33.7877 141.408 33.7877C141.247 33.7877 141.126 32.9425 141.126 31.8156C141.126 30.731 141.009 29.8436 140.866 29.8436C140.473 29.8436 140.256 26.3065 140.111 17.5182C140.023 12.1612 140.075 9.55947 140.271 9.55947C140.431 9.55947 140.561 9.30592 140.561 8.99602C140.561 8.68612 140.688 8.43257 140.844 8.43257C140.999 8.43257 141.126 8.17902 141.126 7.86912C141.126 7.41189 141.314 7.30568 142.123 7.30568C142.885 7.30568 143.352 7.53641 144.099 8.28241C144.637 8.81938 145.077 9.45326 145.077 9.69103C145.077 9.92852 145.204 10.1229 145.36 10.1229C145.515 10.1229 145.642 10.7568 145.642 11.5315C145.642 12.3063 145.769 12.9402 145.924 12.9402C146.079 12.9402 146.206 13.6464 146.206 14.5096C146.206 15.4945 146.357 16.2293 146.61 16.4817C147.197 17.0685 147.335 16.9843 147.335 16.0391C147.335 15.5743 147.462 15.1939 147.618 15.1939C147.788 15.1939 147.9 14.0158 147.9 12.2232C147.9 9.44424 147.945 9.20731 148.593 8.56076C148.974 8.18043 149.482 7.86912 149.722 7.86912C149.962 7.86912 150.158 7.74235 150.158 7.5874C150.158 7.43245 150.412 7.30568 150.722 7.30568C151.033 7.30568 151.287 7.43245 151.287 7.5874C151.287 7.74235 151.487 7.86912 151.73 7.86912C152.301 7.86912 152.981 8.54752 152.981 9.11688C152.981 9.36029 153.108 9.55947 153.263 9.55947C153.418 9.55947 153.545 9.93979 153.545 10.4046C153.545 10.8695 153.672 11.2498 153.827 11.2498C153.982 11.2498 154.11 11.8837 154.11 12.6584C154.11 13.4332 154.237 14.067 154.392 14.067C154.549 14.067 154.674 14.8184 154.674 15.7574C154.674 16.6964 154.799 17.4477 154.956 17.4477C155.112 17.4477 155.239 18.0816 155.239 18.8564C155.239 19.6311 155.366 20.265 155.521 20.265C155.701 20.265 155.803 22.6664 155.803 26.9055C155.803 32.4326 155.874 33.617 156.226 33.9689C156.603 34.3444 156.697 34.3444 157.073 33.9689C157.306 33.7364 157.497 33.3471 157.497 33.1034C157.497 32.86 157.624 32.6608 157.779 32.6608C157.934 32.6608 158.061 32.2805 158.061 31.8156C158.061 31.3508 158.188 30.9705 158.343 30.9705C158.499 30.9705 158.626 30.3366 158.626 29.5619C158.626 28.7871 158.753 28.1532 158.908 28.1532C159.063 28.1532 159.19 27.5194 159.19 26.7446C159.19 25.9699 159.317 25.336 159.472 25.336C159.649 25.336 159.755 23.6457 159.755 20.8284C159.755 18.0112 159.86 16.3208 160.037 16.3208C160.194 16.3208 160.319 15.5695 160.319 14.6305C160.319 13.6915 160.444 12.9402 160.601 12.9402C160.757 12.9402 160.884 12.5598 160.884 12.095C160.884 11.6301 161.011 11.2498 161.166 11.2498C161.321 11.2498 161.448 11.0554 161.448 10.8179C161.448 10.5802 161.888 9.94627 162.427 9.40931C163.223 8.614 163.619 8.43257 164.556 8.43257C165.777 8.43257 167.093 9.37578 167.093 10.2511C167.093 10.4906 167.22 10.6864 167.375 10.6864C167.548 10.6864 167.658 12.0012 167.658 14.067C167.658 16.1329 167.548 17.4477 167.375 17.4477C167.206 17.4477 167.093 18.5746 167.093 20.265C167.093 21.9553 166.98 23.0822 166.811 23.0822C166.654 23.0822 166.529 23.8336 166.529 24.7726C166.529 25.7115 166.403 26.4629 166.246 26.4629C166.091 26.4629 165.964 26.8432 165.964 27.3081C165.964 27.7729 165.837 28.1532 165.682 28.1532C165.527 28.1532 165.4 28.5336 165.4 28.9984C165.4 29.4633 165.273 29.8436 165.117 29.8436C164.962 29.8436 164.835 30.3507 164.835 30.9705C164.835 31.5903 164.708 32.0974 164.553 32.0974C164.398 32.0974 164.271 32.4777 164.271 32.9425C164.271 33.4074 164.144 33.7877 163.988 33.7877C163.833 33.7877 163.706 34.2948 163.706 34.9146C163.706 35.5344 163.579 36.0415 163.424 36.0415C163.269 36.0415 163.142 36.4218 163.142 36.8867C163.142 37.3515 163.015 37.7318 162.859 37.7318C162.704 37.7318 162.577 38.239 162.577 38.8587C162.577 39.4785 162.45 39.9856 162.295 39.9856C162.14 39.9856 162.013 40.366 162.013 40.8308C162.013 41.2957 161.886 41.676 161.73 41.676C161.575 41.676 161.448 42.0563 161.448 42.5212C161.448 42.986 161.321 43.3663 161.166 43.3663C161.011 43.3663 160.884 43.7467 160.884 44.2115C160.884 44.6763 160.757 45.0567 160.601 45.0567C160.446 45.0567 160.319 45.3102 160.319 45.6201C160.319 45.93 160.192 46.1836 160.037 46.1836C159.882 46.1836 159.755 46.5639 159.755 47.0287C159.755 47.4936 159.628 47.8739 159.472 47.8739C159.317 47.8739 159.19 48.2542 159.19 48.7191C159.19 49.1839 159.063 49.5643 158.908 49.5643C158.753 49.5643 158.626 49.9446 158.626 50.4094C158.626 50.8743 158.499 51.2546 158.343 51.2546C158.188 51.2546 158.061 51.5081 158.061 51.818C158.061 52.1279 157.934 52.3815 157.779 52.3815C157.624 52.3815 157.497 52.7618 157.497 53.2267C157.497 53.6915 157.37 54.0718 157.214 54.0718C157.059 54.0718 156.932 54.3254 156.932 54.6353C156.932 54.9452 156.805 55.1987 156.65 55.1987C156.495 55.1987 156.368 55.5791 156.368 56.0439C156.368 56.5087 156.241 56.8891 156.085 56.8891C155.93 56.8891 155.803 57.1426 155.803 57.4525C155.803 57.7624 155.676 58.016 155.521 58.016C155.366 58.016 155.239 58.3963 155.239 58.8611C155.239 59.326 155.112 59.7063 154.956 59.7063C154.801 59.7063 154.674 60.0866 154.674 60.5515C154.674 61.0163 154.547 61.3966 154.392 61.3966C154.237 61.3966 154.11 61.777 154.11 62.2418C154.11 62.7067 153.982 63.087 153.827 63.087C153.672 63.087 153.545 63.4673 153.545 63.9322C153.545 64.397 153.418 64.7773 153.263 64.7773C153.108 64.7773 152.981 65.2844 152.981 65.9042C152.981 66.524 152.854 67.0311 152.698 67.0311C152.543 67.0311 152.416 67.2847 152.416 67.5946C152.416 67.9045 152.289 68.158 152.134 68.158C151.979 68.158 151.852 68.6651 151.852 69.2849C151.852 69.9047 151.724 70.4118 151.569 70.4118C151.414 70.4118 151.287 70.7921 151.287 71.257C151.287 71.7218 151.16 72.1022 151.005 72.1022C150.85 72.1022 150.722 72.4825 150.722 72.9473C150.722 73.4122 150.595 73.7925 150.44 73.7925C150.285 73.7925 150.158 74.046 150.158 74.3559C150.158 74.6658 150.031 74.9194 149.876 74.9194C149.721 74.9194 149.593 75.2997 149.593 75.7646C149.593 76.2294 149.466 76.6097 149.311 76.6097C149.156 76.6097 149.029 76.9901 149.029 77.4549C149.029 77.9197 148.902 78.3001 148.747 78.3001C148.591 78.3001 148.464 78.6804 148.464 79.1452C148.464 79.6101 148.337 79.9904 148.182 79.9904C148.027 79.9904 147.9 80.3708 147.9 80.8356C147.9 81.3004 147.773 81.6808 147.618 81.6808C147.462 81.6808 147.335 81.9343 147.335 82.2442C147.335 82.5541 147.208 82.8077 147.053 82.8077C146.898 82.8077 146.771 83.188 146.771 83.6528C146.771 84.1177 146.644 84.498 146.489 84.498C146.333 84.498 146.206 84.8783 146.206 85.3432C146.206 85.808 146.079 86.1883 145.924 86.1883C145.769 86.1883 145.642 86.5687 145.642 87.0335C145.642 87.4984 145.515 87.8787 145.36 87.8787C145.204 87.8787 145.077 88.259 145.077 88.7239C145.077 89.1887 144.95 89.569 144.795 89.569C144.64 89.569 144.513 89.9494 144.513 90.4142C144.513 90.879 144.386 91.2594 144.231 91.2594C144.075 91.2594 143.948 91.6397 143.948 92.1045C143.948 92.5694 143.821 92.9497 143.666 92.9497C143.511 92.9497 143.384 93.33 143.384 93.7949C143.384 94.2597 143.257 94.6401 143.102 94.6401C142.946 94.6401 142.819 95.0204 142.819 95.4852C142.819 95.9501 142.692 96.3304 142.537 96.3304C142.382 96.3304 142.255 96.584 142.255 96.8939C142.255 97.2038 142.128 97.4573 141.973 97.4573C141.817 97.4573 141.69 97.8376 141.69 98.3025C141.69 98.7673 141.563 99.1476 141.408 99.1476C141.253 99.1476 141.126 99.4012 141.126 99.7111C141.126 100.021 140.999 100.275 140.844 100.275C140.688 100.275 140.561 100.528 140.561 100.838C140.561 101.148 140.434 101.401 140.279 101.401C140.124 101.401 139.997 101.782 139.997 102.247C139.997 102.711 139.87 103.092 139.715 103.092C139.559 103.092 139.432 103.345 139.432 103.655C139.432 103.965 139.305 104.219 139.15 104.219C138.995 104.219 138.868 104.472 138.868 104.782C138.868 105.092 138.741 105.346 138.586 105.346C138.43 105.346 138.303 105.599 138.303 105.909C138.303 106.219 138.176 106.472 138.021 106.472C137.866 106.472 137.739 106.853 137.739 107.318C137.739 107.782 137.612 108.163 137.457 108.163C137.301 108.163 137.174 108.67 137.174 109.29C137.174 109.909 137.047 110.417 136.892 110.417C136.728 110.417 136.61 111.356 136.61 112.67C136.61 113.985 136.728 114.924 136.892 114.924C137.047 114.924 137.174 115.178 137.174 115.488C137.174 115.806 137.363 116.051 137.607 116.051C138.169 116.051 139.997 114.227 139.997 113.666C139.997 113.428 140.124 113.234 140.279 113.234C140.434 113.234 140.561 112.98 140.561 112.67C140.561 112.36 140.688 112.107 140.844 112.107C140.999 112.107 141.126 111.853 141.126 111.543C141.126 111.234 141.253 110.98 141.408 110.98C141.563 110.98 141.69 110.6 141.69 110.135C141.69 109.67 141.817 109.29 141.973 109.29C142.128 109.29 142.255 109.036 142.255 108.726C142.255 108.416 142.382 108.163 142.537 108.163C142.692 108.163 142.819 107.782 142.819 107.318C142.819 106.853 142.946 106.472 143.102 106.472C143.257 106.472 143.384 105.965 143.384 105.346C143.384 104.726 143.511 104.219 143.666 104.219C143.821 104.219 143.948 103.712 143.948 103.092C143.948 102.472 144.075 101.965 144.231 101.965C144.386 101.965 144.513 101.585 144.513 101.12C144.513 100.655 144.64 100.275 144.795 100.275C144.95 100.275 145.077 99.7674 145.077 99.1476C145.077 98.5278 145.204 98.0207 145.36 98.0207C145.515 98.0207 145.642 97.6404 145.642 97.1756C145.642 96.7107 145.769 96.3304 145.924 96.3304C146.079 96.3304 146.206 95.8233 146.206 95.2035C146.206 94.5837 146.333 94.0766 146.489 94.0766C146.644 94.0766 146.771 93.851 146.771 93.5754C146.771 93.2996 147.025 92.8914 147.335 92.668C147.646 92.4446 147.9 92.0907 147.9 91.8814C147.9 91.3749 148.602 90.6959 149.126 90.6959C149.358 90.6959 149.621 90.5373 149.711 90.3438C149.843 90.062 149.909 90.062 150.04 90.3438C150.131 90.5373 150.448 90.6959 150.746 90.6959C151.099 90.6959 151.287 90.892 151.287 91.2594C151.287 91.5693 151.414 91.8228 151.569 91.8228C151.739 91.8228 151.852 92.9497 151.852 94.6401C151.852 96.3304 151.739 97.4573 151.569 97.4573C151.414 97.4573 151.287 98.0912 151.287 98.8659C151.287 99.6407 151.16 100.275 151.005 100.275C150.85 100.275 150.722 100.908 150.722 101.683C150.722 102.458 150.595 103.092 150.44 103.092C150.285 103.092 150.158 103.345 150.158 103.655C150.158 103.965 150.285 104.219 150.44 104.219C150.595 104.219 150.722 104.853 150.722 105.627V107.036H151.72C152.481 107.036 152.948 106.805 153.695 106.059C154.234 105.522 154.674 104.916 154.674 104.713C154.674 104.509 154.928 104.16 155.239 103.937C155.549 103.714 155.803 103.305 155.803 103.03C155.803 102.754 155.93 102.528 156.085 102.528C156.241 102.528 156.368 102.275 156.368 101.965C156.368 101.655 156.495 101.401 156.65 101.401C156.805 101.401 156.932 101.021 156.932 100.556C156.932 100.091 157.059 99.7111 157.214 99.7111C157.37 99.7111 157.497 99.4575 157.497 99.1476C157.497 98.8377 157.624 98.5842 157.779 98.5842C157.934 98.5842 158.061 98.0771 158.061 97.4573C158.061 96.8375 158.188 96.3304 158.343 96.3304C158.499 96.3304 158.626 95.8233 158.626 95.2035C158.626 94.5837 158.743 94.0766 158.887 94.0766C159.15 94.0766 159.355 91.8558 159.637 85.9771C159.72 84.234 159.908 82.8077 160.054 82.8077C160.2 82.8077 160.319 81.6667 160.319 80.2721C160.319 78.8776 160.437 77.7366 160.581 77.7366C160.724 77.7366 160.912 76.6909 160.996 75.4124C161.293 70.9423 161.498 69.2849 161.754 69.2849C161.896 69.2849 162.013 68.5243 162.013 67.5946C162.013 66.6556 162.138 65.9042 162.295 65.9042C162.45 65.9042 162.577 65.5239 162.577 65.0591C162.577 64.5942 162.704 64.2139 162.859 64.2139C163.015 64.2139 163.142 63.7068 163.142 63.087C163.142 62.4672 163.269 61.9601 163.424 61.9601C163.579 61.9601 163.706 61.3262 163.706 60.5515C163.706 59.7767 163.833 59.1429 163.988 59.1429C164.144 59.1429 164.271 58.6358 164.271 58.016C164.271 57.3962 164.398 56.8891 164.553 56.8891C164.708 56.8891 164.835 56.5087 164.835 56.0439C164.835 55.5791 164.962 55.1987 165.117 55.1987C165.273 55.1987 165.4 54.8184 165.4 54.3536C165.4 53.8887 165.527 53.5084 165.682 53.5084C165.837 53.5084 165.964 53.0013 165.964 52.3815C165.964 51.7617 166.091 51.2546 166.246 51.2546C166.402 51.2546 166.529 50.8743 166.529 50.4094C166.529 49.9446 166.656 49.5643 166.811 49.5643C166.966 49.5643 167.093 49.3107 167.093 49.0008C167.093 48.6909 167.22 48.4374 167.375 48.4374C167.531 48.4374 167.658 48.1838 167.658 47.8739C167.658 47.564 167.785 47.3105 167.94 47.3105C168.095 47.3105 168.222 47.1161 168.222 46.8786C168.222 46.6408 168.662 46.0069 169.201 45.47C169.999 44.6727 170.392 44.4932 171.338 44.4932C172.54 44.4932 173.303 44.9775 173.303 45.741C173.303 45.9844 173.43 46.1836 173.585 46.1836C173.74 46.1836 173.867 46.8174 173.867 47.5922C173.867 48.3669 173.994 49.0008 174.149 49.0008C174.305 49.0008 174.432 49.5079 174.432 50.1277C174.432 50.7475 174.305 51.2546 174.149 51.2546C173.992 51.2546 173.867 52.006 173.867 52.9449C173.867 53.8839 173.742 54.6353 173.585 54.6353C173.43 54.6353 173.303 55.1424 173.303 55.7622C173.303 56.382 173.176 56.8891 173.02 56.8891C172.865 56.8891 172.738 57.5229 172.738 58.2977C172.738 59.0724 172.611 59.7063 172.456 59.7063C172.301 59.7063 172.174 60.3402 172.174 61.1149C172.174 61.8897 172.047 62.5235 171.891 62.5235C171.736 62.5235 171.609 63.0306 171.609 63.6504C171.609 64.2702 171.482 64.7773 171.327 64.7773C171.172 64.7773 171.045 65.2844 171.045 65.9042C171.045 66.524 170.918 67.0311 170.762 67.0311C170.607 67.0311 170.48 67.4115 170.48 67.8763C170.48 68.3411 170.353 68.7215 170.198 68.7215C170.043 68.7215 169.916 69.2286 169.916 69.8484C169.916 70.4682 169.789 70.9753 169.633 70.9753C169.478 70.9753 169.351 71.3556 169.351 71.8204C169.351 72.2853 169.224 72.6656 169.069 72.6656C168.914 72.6656 168.787 73.1727 168.787 73.7925C168.787 74.4123 168.66 74.9194 168.504 74.9194C168.349 74.9194 168.222 75.5533 168.222 76.328C168.222 77.1028 168.295 77.7366 168.383 77.7366C168.715 77.7366 169.351 76.916 169.351 76.4889C169.351 76.2455 169.478 76.0463 169.633 76.0463C169.789 76.0463 169.916 75.666 169.916 75.2011C169.916 74.7363 170.043 74.3559 170.198 74.3559C170.353 74.3559 170.48 74.1024 170.48 73.7925C170.48 73.4826 170.607 73.229 170.762 73.229C170.918 73.229 171.045 72.8487 171.045 72.3839C171.045 71.919 171.172 71.5387 171.327 71.5387C171.482 71.5387 171.609 71.2852 171.609 70.9753C171.609 70.6654 171.736 70.4118 171.891 70.4118C172.047 70.4118 172.174 70.1583 172.174 69.8484C172.174 69.5385 172.301 69.2849 172.456 69.2849C172.611 69.2849 172.738 68.9046 172.738 68.4397C172.738 67.9749 172.865 67.5946 173.02 67.5946C173.176 67.5946 173.303 67.341 173.303 67.0311C173.303 66.7212 173.43 66.4677 173.585 66.4677C173.74 66.4677 173.867 66.0873 173.867 65.6225C173.867 65.1577 173.994 64.7773 174.149 64.7773C174.305 64.7773 174.432 64.5238 174.432 64.2139C174.432 63.904 174.559 63.6504 174.714 63.6504C174.869 63.6504 174.996 63.2701 174.996 62.8053C174.996 62.3404 175.123 61.9601 175.278 61.9601C175.434 61.9601 175.561 61.5798 175.561 61.1149C175.561 60.6501 175.688 60.2698 175.843 60.2698C175.998 60.2698 176.125 59.8894 176.125 59.4246C176.125 58.9597 176.252 58.5794 176.407 58.5794C176.563 58.5794 176.69 58.1991 176.69 57.7342C176.69 57.2694 176.817 56.8891 176.972 56.8891C177.127 56.8891 177.254 56.382 177.254 55.7622C177.254 55.1424 177.381 54.6353 177.536 54.6353C177.692 54.6353 177.819 54.3817 177.819 54.0718C177.819 53.7619 177.946 53.5084 178.101 53.5084C178.256 53.5084 178.383 53.1281 178.383 52.6632C178.383 52.1984 178.51 51.818 178.665 51.818C178.821 51.818 178.948 51.5645 178.948 51.2546C178.948 50.9447 179.075 50.6911 179.23 50.6911C179.385 50.6911 179.512 50.492 179.512 50.2486C179.512 49.6792 180.192 49.0008 180.762 49.0008C181.006 49.0008 181.206 48.874 181.206 48.7191C181.206 48.5641 181.656 48.4374 182.206 48.4374C183.415 48.4374 184.593 49.4735 184.593 50.5376C184.593 50.932 184.72 51.2546 184.875 51.2546C185.032 51.2546 185.157 52.006 185.157 52.9449C185.157 53.8839 185.032 54.6353 184.875 54.6353C184.72 54.6353 184.593 55.0156 184.593 55.4804C184.593 55.9453 184.466 56.3256 184.31 56.3256C184.155 56.3256 184.028 56.8327 184.028 57.4525C184.028 58.0723 183.901 58.5794 183.746 58.5794C183.591 58.5794 183.464 58.833 183.464 59.1429C183.464 59.4528 183.337 59.7063 183.181 59.7063C183.026 59.7063 182.899 60.0866 182.899 60.5515C182.899 61.0163 182.772 61.3966 182.617 61.3966C182.462 61.3966 182.335 61.6502 182.335 61.9601C182.335 62.27 182.208 62.5235 182.052 62.5235C181.897 62.5235 181.77 62.9039 181.77 63.3687C181.77 63.8336 181.643 64.2139 181.488 64.2139C181.333 64.2139 181.206 64.5942 181.206 65.0591C181.206 65.5239 181.079 65.9042 180.923 65.9042C180.768 65.9042 180.641 66.2846 180.641 66.7494C180.641 67.2142 180.514 67.5946 180.359 67.5946C180.204 67.5946 180.077 67.9749 180.077 68.4397C180.077 68.9046 179.95 69.2849 179.794 69.2849C179.639 69.2849 179.512 69.5385 179.512 69.8484C179.512 70.1583 179.385 70.4118 179.23 70.4118C179.075 70.4118 178.948 70.7921 178.948 71.257C178.948 71.7218 178.821 72.1022 178.665 72.1022C178.51 72.1022 178.383 72.4825 178.383 72.9473C178.383 73.4122 178.256 73.7925 178.101 73.7925C177.946 73.7925 177.819 74.046 177.819 74.3559C177.819 74.6658 177.692 74.9194 177.536 74.9194C177.381 74.9194 177.254 75.2997 177.254 75.7646C177.254 76.2294 177.127 76.6097 176.972 76.6097C176.817 76.6097 176.69 76.8633 176.69 77.1732C176.69 77.4831 176.563 77.7366 176.407 77.7366C176.252 77.7366 176.125 77.9902 176.125 78.3001C176.125 78.61 175.998 78.8635 175.843 78.8635C175.688 78.8635 175.561 79.2439 175.561 79.7087C175.561 80.1735 175.434 80.5539 175.278 80.5539C175.123 80.5539 174.996 80.8074 174.996 81.1173C174.996 81.4272 174.869 81.6808 174.714 81.6808C174.559 81.6808 174.432 81.9343 174.432 82.2442C174.432 82.5541 174.305 82.8077 174.149 82.8077C173.994 82.8077 173.867 83.0612 173.867 83.3711C173.867 83.681 173.74 83.9346 173.585 83.9346C173.43 83.9346 173.303 84.3149 173.303 84.7797C173.303 85.2446 173.176 85.6249 173.02 85.6249C172.865 85.6249 172.738 85.8784 172.738 86.1883C172.738 86.4982 172.611 86.7518 172.456 86.7518C172.301 86.7518 172.174 87.1321 172.174 87.597C172.174 88.0618 172.047 88.4421 171.891 88.4421C171.736 88.4421 171.609 88.6957 171.609 89.0056C171.609 89.3155 171.482 89.569 171.327 89.569C171.172 89.569 171.045 89.9494 171.045 90.4142C171.045 90.879 170.918 91.2594 170.762 91.2594C170.607 91.2594 170.48 91.5129 170.48 91.8228C170.48 92.1327 170.353 92.3863 170.198 92.3863C170.043 92.3863 169.916 92.7666 169.916 93.2314C169.916 93.6963 169.789 94.0766 169.633 94.0766C169.478 94.0766 169.351 94.3302 169.351 94.6401C169.351 94.95 169.224 95.2035 169.069 95.2035C168.914 95.2035 168.787 95.4571 168.787 95.767C168.787 96.0769 168.66 96.3304 168.504 96.3304C168.349 96.3304 168.222 96.584 168.222 96.8939C168.222 97.2038 168.095 97.4573 167.94 97.4573C167.785 97.4573 167.658 97.683 167.658 97.9585C167.658 98.2343 167.404 98.6425 167.093 98.8659C166.783 99.0893 166.529 99.4975 166.529 99.7734C166.529 100.049 166.402 100.275 166.246 100.275C166.091 100.275 165.964 100.528 165.964 100.838C165.964 101.148 165.837 101.401 165.682 101.401C165.527 101.401 165.4 101.655 165.4 101.965C165.4 102.275 165.273 102.528 165.117 102.528C164.962 102.528 164.835 102.754 164.835 103.03C164.835 103.305 164.581 103.714 164.271 103.937C163.96 104.16 163.706 104.541 163.706 104.782C163.706 105.024 163.452 105.404 163.142 105.627C162.831 105.851 162.577 106.231 162.577 106.472C162.577 106.714 162.323 107.094 162.013 107.318C161.702 107.541 161.448 107.896 161.448 108.106C161.448 108.317 160.94 108.976 160.319 109.571C159.698 110.167 159.19 110.799 159.19 110.976C159.19 111.153 158.555 111.916 157.779 112.67C157.003 113.425 156.368 114.187 156.368 114.364C156.368 114.542 155.859 115.174 155.239 115.769C154.618 116.365 154.11 116.991 154.11 117.16C154.11 117.559 149.415 122.249 149.015 122.249C148.847 122.249 148.092 122.883 147.335 123.658C146.579 124.432 145.816 125.066 145.638 125.066C145.461 125.066 144.827 125.573 144.231 126.193C143.634 126.813 142.974 127.32 142.763 127.32C142.552 127.32 142.197 127.574 141.973 127.883C141.749 128.193 141.34 128.447 141.064 128.447C140.788 128.447 140.561 128.574 140.561 128.729C140.561 128.884 140.307 129.01 139.997 129.01C139.686 129.01 139.432 129.137 139.432 129.292C139.432 129.447 139.178 129.574 138.868 129.574C138.557 129.574 138.303 129.701 138.303 129.856C138.303 130.01 138.077 130.137 137.801 130.137C137.525 130.137 137.116 130.391 136.892 130.701C136.668 131.011 136.259 131.264 135.983 131.264C135.707 131.264 135.481 131.391 135.481 131.546C135.481 131.701 135.227 131.828 134.916 131.828C134.606 131.828 134.352 131.954 134.352 132.109C134.352 132.264 134.098 132.391 133.787 132.391C133.477 132.391 133.223 132.518 133.223 132.673C133.223 132.828 132.969 132.954 132.658 132.954C132.348 132.954 132.094 133.081 132.094 133.236C132.094 133.391 131.84 133.518 131.529 133.518C131.219 133.518 130.965 133.645 130.965 133.8C130.965 133.955 130.711 134.081 130.4 134.081C130.09 134.081 129.836 134.208 129.836 134.363C129.836 134.518 129.582 134.645 129.271 134.645C128.961 134.645 128.707 134.772 128.707 134.927C128.707 135.082 128.453 135.208 128.142 135.208C127.832 135.208 127.578 135.335 127.578 135.49C127.578 135.645 127.197 135.772 126.731 135.772C126.265 135.772 125.884 135.899 125.884 136.053C125.884 136.208 125.658 136.335 125.382 136.335C125.106 136.335 124.697 136.589 124.473 136.899C124.249 137.209 123.84 137.462 123.564 137.462C123.288 137.462 123.062 137.589 123.062 137.744C123.062 137.899 122.866 138.026 122.626 138.026C122.387 138.026 121.186 139.04 119.957 140.279C118.728 141.519 117.588 142.533 117.423 142.533C117.258 142.533 114.969 144.688 112.336 147.322C109.704 149.957 107.41 152.112 107.24 152.112C107.069 152.112 106.441 152.619 105.844 153.239C105.248 153.858 104.587 154.366 104.376 154.366C104.166 154.366 103.81 154.619 103.586 154.929C103.363 155.239 102.954 155.492 102.677 155.492C102.401 155.492 102.175 155.619 102.175 155.774C102.175 155.929 101.921 156.056 101.611 156.056C101.3 156.056 101.046 156.183 101.046 156.338C101.046 156.493 100.665 156.619 100.199 156.619C99.7337 156.619 99.3527 156.746 99.3527 156.901C99.3527 157.056 99.0986 157.183 98.7882 157.183C98.4777 157.183 98.2236 157.31 98.2236 157.464C98.2236 157.619 97.8426 157.746 97.3769 157.746C96.9112 157.746 96.5301 157.873 96.5301 158.028C96.5301 158.183 96.0221 158.31 95.4011 158.31C94.7802 158.31 94.2721 158.436 94.2721 158.591C94.2721 158.746 93.8911 158.873 93.4254 158.873C92.9596 158.873 92.5786 159 92.5786 159.155C92.5786 159.311 91.8258 159.437 90.8851 159.437C89.9444 159.437 89.1916 159.562 89.1916 159.718C89.1916 159.875 88.4388 160 87.4981 160C86.5573 160 85.8046 159.875 85.8046 159.718C85.8046 159.563 85.4235 159.437 84.9578 159.437C84.4921 159.437 84.1111 159.31 84.1111 159.155C84.1111 159 83.73 158.873 83.2643 158.873C82.7986 158.873 82.4175 158.746 82.4175 158.591C82.4175 158.436 82.1635 158.31 81.853 158.31C81.5426 158.31 81.2885 158.183 81.2885 158.028C81.2885 157.873 81.0957 157.746 80.8598 157.746C80.3726 157.746 76.7725 154.258 76.7725 153.785C76.7725 153.615 76.2645 152.989 75.6435 152.393C75.0225 151.798 74.5145 151.172 74.5145 151.003C74.5145 150.598 69.8164 145.914 69.41 145.914C69.2372 145.914 68.7399 145.533 68.305 145.069C67.87 144.604 67.3619 144.223 67.1759 144.223C66.9899 144.223 66.4819 143.843 66.0469 143.378C65.612 142.913 65.0808 142.533 64.8671 142.533C64.6532 142.533 64.295 142.28 64.0712 141.97C63.8473 141.66 63.4384 141.406 63.1621 141.406C62.886 141.406 62.6599 141.279 62.6599 141.124C62.6599 140.97 62.4059 140.843 62.0954 140.843C61.7849 140.843 61.5309 140.716 61.5309 140.561C61.5309 140.406 61.2769 140.279 60.9664 140.279C60.6559 140.279 60.4019 140.153 60.4019 139.998C60.4019 139.843 60.1479 139.716 59.8374 139.716C59.5269 139.716 59.2729 139.589 59.2729 139.434C59.2729 139.279 58.8919 139.152 58.4261 139.152C57.9604 139.152 57.5794 139.026 57.5794 138.871C57.5794 138.716 57.0713 138.589 56.4504 138.589C55.8294 138.589 55.3214 138.462 55.3214 138.307C55.3214 138.146 54.4746 138.026 53.3456 138.026C52.2166 138.026 51.3698 137.905 51.3698 137.744C51.3698 137.58 50.4291 137.462 49.1118 137.462C47.7946 137.462 46.8538 137.345 46.8538 137.18C46.8538 137.019 46.0071 136.899 44.878 136.899C43.749 136.899 42.9023 136.778 42.9023 136.617C42.9023 136.462 42.3942 136.335 41.7733 136.335C41.1523 136.335 40.6443 136.208 40.6443 136.053C40.6443 135.899 40.1362 135.772 39.5153 135.772C38.8943 135.772 38.3863 135.645 38.3863 135.49C38.3863 135.335 38.0052 135.208 37.5395 135.208C37.0738 135.208 36.6927 135.082 36.6927 134.927C36.6927 134.772 36.3117 134.645 35.846 134.645C35.3803 134.645 34.9992 134.518 34.9992 134.363C34.9992 134.208 34.7452 134.081 34.4347 134.081C34.1243 134.081 33.8702 133.955 33.8702 133.8C33.8702 133.645 33.5171 133.518 33.0858 133.518C32.6252 133.518 32.1335 133.285 31.8945 132.954C31.6706 132.645 31.2617 132.391 30.9853 132.391C30.7093 132.391 30.4832 132.264 30.4832 132.109C30.4832 131.954 30.2571 131.828 29.9811 131.828C29.7048 131.828 29.2958 131.574 29.0719 131.264C28.8481 130.954 28.4391 130.701 28.1628 130.701C27.8868 130.701 27.6607 130.574 27.6607 130.419C27.6607 130.264 27.4577 130.137 27.2094 130.137C26.9613 130.137 26.4021 129.757 25.9672 129.292C25.5322 128.827 25.0366 128.447 24.8661 128.447C24.6953 128.447 24.5559 128.32 24.5559 128.165C24.5559 128.01 24.4165 127.883 24.2457 127.883C24.0752 127.883 23.5796 127.503 23.1447 127.038C22.7097 126.573 22.2132 126.193 22.0413 126.193C21.6369 126.193 12.9836 117.561 12.9836 117.158C12.9836 116.99 12.4755 116.365 11.8546 115.769C11.2336 115.174 10.7256 114.487 10.7256 114.242C10.7256 113.997 10.5986 113.797 10.4433 113.797C10.2881 113.797 10.1611 113.572 10.1611 113.296C10.1611 113.02 9.90704 112.612 9.59656 112.389C9.28609 112.165 9.03206 111.757 9.03206 111.481C9.03206 111.206 8.90505 110.98 8.74981 110.98C8.59457 110.98 8.46756 110.726 8.46756 110.417C8.46756 110.107 8.34054 109.853 8.1853 109.853C8.03007 109.853 7.90305 109.6 7.90305 109.29C7.90305 108.98 7.77604 108.726 7.6208 108.726C7.46556 108.726 7.33855 108.346 7.33855 107.881C7.33855 107.416 7.21153 107.036 7.0563 107.036C6.89682 107.036 6.77404 106.235 6.77404 105.195C6.77404 103.471 6.83585 103.293 7.75261 102.378C8.69505 101.437 9.59656 101.097 9.59656 101.683C9.59656 101.838 9.85059 101.965 10.1611 101.965C10.4715 101.965 10.7256 102.092 10.7256 102.247C10.7256 102.402 10.9217 102.528 11.1616 102.528C11.6951 102.528 12.9836 103.77 12.9836 104.285C12.9836 104.49 13.2376 104.84 13.5481 105.064C13.8586 105.287 14.1126 105.695 14.1126 105.971C14.1126 106.247 14.2396 106.472 14.3948 106.472C14.5501 106.472 14.6771 106.698 14.6771 106.974C14.6771 107.249 14.9311 107.658 15.2416 107.881C15.5521 108.104 15.8061 108.513 15.8061 108.789C15.8061 109.064 15.9331 109.29 16.0884 109.29C16.2436 109.29 16.3706 109.543 16.3706 109.853C16.3706 110.163 16.4976 110.417 16.6529 110.417C16.8081 110.417 16.9351 110.67 16.9351 110.98C16.9351 111.29 17.0621 111.543 17.2174 111.543C17.3726 111.543 17.4996 111.746 17.4996 111.994C17.4996 112.242 17.8807 112.8 18.3464 113.234C18.8121 113.668 19.1931 114.166 19.1931 114.34C19.1931 114.749 21.6205 117.178 22.0283 117.178C22.5505 117.178 23.3372 116.256 22.9304 116.121C22.7377 116.056 22.5801 115.634 22.5801 115.183C22.5801 114.731 22.4531 114.361 22.2979 114.361C22.1427 114.361 22.0156 113.98 22.0156 113.516C22.0156 113.051 21.8886 112.67 21.7334 112.67C21.5782 112.67 21.4511 112.417 21.4511 112.107C21.4511 111.797 21.3241 111.543 21.1689 111.543C21.0137 111.543 20.8866 111.29 20.8866 110.98C20.8866 110.67 20.7596 110.417 20.6044 110.417C20.4491 110.417 20.3221 110.163 20.3221 109.853C20.3221 109.543 20.1951 109.29 20.0399 109.29C19.8846 109.29 19.7576 109.036 19.7576 108.726C19.7576 108.416 19.6306 108.163 19.4754 108.163C19.3201 108.163 19.1931 107.909 19.1931 107.599C19.1931 107.289 19.0661 107.036 18.9109 107.036C18.7556 107.036 18.6286 106.782 18.6286 106.472C18.6286 106.163 18.5016 105.909 18.3464 105.909C18.1911 105.909 18.0641 105.655 18.0641 105.346C18.0641 105.036 17.9371 104.782 17.7819 104.782C17.6266 104.782 17.4996 104.556 17.4996 104.281C17.4996 104.005 17.2456 103.597 16.9351 103.373C16.6246 103.15 16.3706 102.742 16.3706 102.466C16.3706 102.191 16.2436 101.965 16.0884 101.965C15.9331 101.965 15.8061 101.739 15.8061 101.464C15.8061 101.188 15.5521 100.78 15.2416 100.556C14.9311 100.333 14.6771 99.9525 14.6771 99.7111C14.6771 99.4697 14.4231 99.0893 14.1126 98.8659C13.8021 98.6425 13.5481 98.2343 13.5481 97.9585C13.5481 97.683 13.4211 97.4573 13.2658 97.4573C13.1106 97.4573 12.9836 97.2316 12.9836 96.9561C12.9836 96.6803 12.7296 96.2721 12.4191 96.0487C12.1086 95.8253 11.8546 95.4171 11.8546 95.1412C11.8546 94.8657 11.7276 94.6401 11.5723 94.6401C11.4171 94.6401 11.2901 94.3865 11.2901 94.0766C11.2901 93.7667 11.1631 93.5132 11.0078 93.5132C10.8526 93.5132 10.7256 92.937 10.7256 92.2327C10.7256 91.2487 10.8859 90.792 11.4185 90.2607C12.1007 89.5795 13.5481 89.3011 13.5481 89.8508C13.5481 90.0057 13.8021 90.1325 14.1126 90.1325C14.4231 90.1325 14.6771 90.2593 14.6771 90.4142C14.6771 90.5692 14.9311 90.6959 15.2416 90.6959C15.5521 90.6959 15.8061 90.8227 15.8061 90.9777C15.8061 91.1326 15.9994 91.2594 16.2357 91.2594C16.7587 91.2594 19.7576 94.1997 19.7576 94.7127C19.7576 94.9142 20.0117 95.2618 20.3221 95.4852C20.6326 95.7086 20.8866 96.1169 20.8866 96.3927C20.8866 96.6682 21.0137 96.8939 21.1689 96.8939C21.3241 96.8939 21.4511 97.1474 21.4511 97.4573C21.4511 97.7672 21.5782 98.0207 21.7334 98.0207C21.8886 98.0207 22.0156 98.2743 22.0156 98.5842C22.0156 98.8941 22.1427 99.1476 22.2979 99.1476C22.4531 99.1476 22.5801 99.4012 22.5801 99.7111C22.5801 100.021 22.7072 100.275 22.8624 100.275C23.0176 100.275 23.1447 100.528 23.1447 100.838C23.1447 101.148 23.2717 101.401 23.4269 101.401C23.5821 101.401 23.7092 101.655 23.7092 101.965C23.7092 102.275 23.8362 102.528 23.9914 102.528C24.1466 102.528 24.2737 102.782 24.2737 103.092C24.2737 103.402 24.4007 103.655 24.5559 103.655C24.7112 103.655 24.8382 103.909 24.8382 104.219C24.8382 104.529 24.9652 104.782 25.1204 104.782C25.2757 104.782 25.4027 105.036 25.4027 105.346C25.4027 105.655 25.5297 105.909 25.6849 105.909C25.8402 105.909 25.9672 106.163 25.9672 106.472C25.9672 106.782 26.0942 107.036 26.2494 107.036C26.4047 107.036 26.5317 107.289 26.5317 107.599C26.5317 107.909 26.6587 108.163 26.8139 108.163C26.9692 108.163 27.0962 108.416 27.0962 108.726C27.0962 109.036 27.2232 109.29 27.3784 109.29C27.5337 109.29 27.6607 109.543 27.6607 109.853C27.6607 110.163 27.7877 110.417 27.9429 110.417C28.0982 110.417 28.2252 110.67 28.2252 110.98C28.2252 111.29 28.3522 111.543 28.5074 111.543C28.6627 111.543 28.7897 111.797 28.7897 112.107C28.7897 112.417 28.9167 112.67 29.0719 112.67C29.2272 112.67 29.3542 112.896 29.3542 113.172C29.3542 113.447 29.6082 113.856 29.9187 114.079C30.2292 114.302 30.4832 114.711 30.4832 114.986C30.4832 115.262 30.6102 115.488 30.7655 115.488C30.9207 115.488 31.0477 115.713 31.0477 115.989C31.0477 116.265 31.3017 116.673 31.6122 116.896C31.9227 117.12 32.1767 117.528 32.1767 117.804C32.1767 118.079 32.3037 118.305 32.459 118.305C32.6142 118.305 32.7412 118.531 32.7412 118.806C32.7412 119.082 32.9952 119.49 33.3057 119.713C33.6162 119.937 33.8702 120.294 33.8702 120.508C33.8702 120.721 34.2513 121.251 34.717 121.686C35.1827 122.12 35.5637 122.619 35.5637 122.794C35.5637 123.209 37.4246 125.066 37.8401 125.066C38.0159 125.066 38.5158 125.447 38.9508 125.911C39.4371 126.431 40.0242 126.757 40.4752 126.757C40.8788 126.757 41.2088 126.883 41.2088 127.038C41.2088 127.193 41.5898 127.32 42.0555 127.32C42.5212 127.32 42.9023 127.447 42.9023 127.602C42.9023 127.757 43.4103 127.883 44.0313 127.883C44.6522 127.883 45.1603 128.01 45.1603 128.165C45.1603 128.604 47.6862 128.502 48.144 128.044C48.6066 127.583 48.6842 126.757 48.2651 126.757C48.1098 126.757 47.9828 126.503 47.9828 126.193C47.9828 125.883 47.8558 125.63 47.7006 125.63C47.5453 125.63 47.4183 125.43 47.4183 125.185C47.4183 124.94 46.9103 124.253 46.2893 123.658C45.6684 123.062 45.1603 122.435 45.1603 122.265C45.1603 121.874 42.1684 118.868 41.7795 118.868C41.6209 118.868 41.491 118.742 41.491 118.587C41.491 118.432 41.3612 118.305 41.2026 118.305C40.8102 118.305 37.8218 115.297 37.8218 114.902C37.8218 114.729 37.4407 114.231 36.975 113.797C36.5093 113.363 36.1282 112.833 36.1282 112.62C36.1282 112.406 35.8742 112.049 35.5637 111.825C35.2533 111.602 34.9992 111.194 34.9992 110.918C34.9992 110.642 34.8722 110.417 34.717 110.417C34.5617 110.417 34.4347 110.163 34.4347 109.853C34.4347 109.543 34.3077 109.29 34.1525 109.29C33.9972 109.29 33.8702 109.064 33.8702 108.789C33.8702 108.513 33.6162 108.104 33.3057 107.881C32.9952 107.658 32.7412 107.249 32.7412 106.974C32.7412 106.698 32.6142 106.472 32.459 106.472C32.3037 106.472 32.1767 106.219 32.1767 105.909C32.1767 105.599 32.0497 105.346 31.8945 105.346C31.7392 105.346 31.6122 105.092 31.6122 104.782C31.6122 104.472 31.4852 104.219 31.33 104.219C31.1747 104.219 31.0477 103.965 31.0477 103.655C31.0477 103.345 30.9207 103.092 30.7655 103.092C30.6102 103.092 30.4832 102.838 30.4832 102.528C30.4832 102.218 30.3562 101.965 30.2009 101.965C30.0457 101.965 29.9187 101.739 29.9187 101.464C29.9187 101.188 29.6647 100.78 29.3542 100.556C29.0437 100.333 28.7897 99.9246 28.7897 99.6488C28.7897 99.3733 28.6627 99.1476 28.5074 99.1476C28.3522 99.1476 28.2252 98.922 28.2252 98.6465C28.2252 98.3707 27.9712 97.9624 27.6607 97.739C27.3502 97.5156 27.0962 97.1353 27.0962 96.8939C27.0962 96.6524 26.8422 96.2721 26.5317 96.0487C26.2212 95.8253 25.9672 95.4706 25.9672 95.2601C25.9672 95.0497 25.4591 94.3904 24.8382 93.7949C24.2172 93.1993 23.7092 92.5705 23.7092 92.3975C23.7092 92.2246 22.566 90.9517 21.1689 89.569C19.7717 88.1863 18.6286 86.9135 18.6286 86.7405C18.6286 86.5675 18.1206 85.9387 17.4996 85.3432C16.8787 84.7476 16.3706 84.0884 16.3706 83.8779C16.3706 83.6675 16.1166 83.3128 15.8061 83.0894C15.4956 82.866 15.2416 82.5085 15.2416 82.2949C15.2416 82.0817 14.8606 81.5515 14.3948 81.1173C13.9291 80.6832 13.5481 80.153 13.5481 79.9397C13.5481 79.7262 13.2941 79.3687 12.9836 79.1452C12.6731 78.9218 12.4191 78.5136 12.4191 78.2378C12.4191 77.9623 12.2921 77.7366 12.1368 77.7366C11.9816 77.7366 11.8546 77.4831 11.8546 77.1732C11.8546 76.8633 11.7276 76.6097 11.5723 76.6097C11.4171 76.6097 11.2901 76.3841 11.2901 76.1086C11.2901 75.8327 11.036 75.4245 10.7256 75.2011C10.4151 74.9777 10.1611 74.5695 10.1611 74.2937C10.1611 74.0182 10.0496 73.7925 9.91296 73.7925C9.77663 73.7925 9.50709 73.4122 9.31431 72.9473C9.12153 72.4825 8.85199 72.1022 8.71566 72.1022C8.57905 72.1022 8.46756 71.8765 8.46756 71.601C8.46756 71.3252 8.21353 70.9169 7.90305 70.6935C7.59258 70.4701 7.33855 70.0898 7.33855 69.8484C7.33855 69.6069 7.08452 69.2266 6.77404 69.0032C6.46357 68.7798 6.20954 68.3995 6.20954 68.158C6.20954 67.9166 5.95551 67.5363 5.64504 67.3129C5.33456 67.0894 5.08053 66.6812 5.08053 66.4054C5.08053 66.1299 4.95352 65.9042 4.79828 65.9042C4.64304 65.9042 4.51603 65.6786 4.51603 65.403C4.51603 65.1272 4.262 64.719 3.95153 64.4956C3.62016 64.257 3.38702 63.7662 3.38702 63.3065C3.38702 62.876 3.26001 62.5235 3.10477 62.5235C2.94953 62.5235 2.82252 62.27 2.82252 61.9601C2.82252 61.6502 2.69551 61.3966 2.54027 61.3966C2.38503 61.3966 2.25801 61.1431 2.25801 60.8332C2.25801 60.5233 2.131 60.2698 1.97576 60.2698C1.82052 60.2698 1.69351 59.7626 1.69351 59.1429C1.69351 58.5231 1.5665 58.016 1.41126 58.016C1.25602 58.016 1.12901 57.5089 1.12901 56.8891C1.12901 56.2693 1.00199 55.7622 0.846756 55.7622C0.691517 55.7622 0.564504 55.1283 0.564504 54.3536C0.564504 53.5788 0.43749 52.9449 0.282252 52.9449C0.105844 52.9449 0 51.2546 0 48.4374C0 45.6201 0.105844 43.9298 0.282252 43.9298C0.43749 43.9298 0.564504 43.2235 0.564504 42.3603C0.564504 41.3754 0.714666 40.6406 0.967846 40.3882C1.42368 39.933 3.38702 39.8352 3.38702 40.2674C3.38702 40.4223 3.58657 40.5491 3.83044 40.5491C4.40087 40.5491 5.08053 41.2275 5.08053 41.7968C5.08053 42.0402 5.20755 42.2394 5.36279 42.2394C5.51802 42.2394 5.64504 42.7465 5.64504 43.3663C5.64504 43.9861 5.77205 44.4932 5.92729 44.4932C6.08422 44.4932 6.20954 45.2446 6.20954 46.1836C6.20954 47.1226 6.33486 47.8739 6.49179 47.8739C6.66114 47.8739 6.77404 49.0008 6.77404 50.6911C6.77404 52.3815 6.88695 53.5084 7.0563 53.5084C7.21323 53.5084 7.33855 54.2597 7.33855 55.1987C7.33855 56.1377 7.46387 56.8891 7.6208 56.8891C7.77604 56.8891 7.90305 57.2694 7.90305 57.7342C7.90305 58.3915 8.02837 58.5794 8.46756 58.5794C8.99029 58.5794 9.03206 58.3915 9.03206 56.0439C9.03206 54.5415 9.14694 53.5084 9.31431 53.5084C9.48169 53.5084 9.59656 52.4753 9.59656 50.9729C9.59656 49.4704 9.71144 48.4374 9.87882 48.4374C10.0341 48.4374 10.1611 48.1114 10.1611 47.713C10.1611 47.3144 10.3426 46.8073 10.5644 46.5861C11.0225 46.1286 12.4191 46.0376 12.4191 46.4653C12.4191 46.6202 12.6186 46.747 12.8625 46.747C13.4329 46.747 14.1126 47.4254 14.1126 47.9948C14.1126 48.2382 14.2396 48.4374 14.3948 48.4374C14.5501 48.4374 14.6771 48.6909 14.6771 49.0008C14.6771 49.3107 14.8041 49.5643 14.9593 49.5643C15.1146 49.5643 15.2416 50.0714 15.2416 50.6911C15.2416 51.3109 15.3686 51.818 15.5239 51.818C15.6808 51.818 15.8061 52.5694 15.8061 53.5084C15.8061 54.4474 15.6808 55.1987 15.5239 55.1987C15.3593 55.1987 15.2416 56.1377 15.2416 57.4525C15.2416 58.7673 15.1239 59.7063 14.9593 59.7063C14.7982 59.7063 14.6771 60.5515 14.6771 61.6784C14.6771 62.8053 14.7982 63.6504 14.9593 63.6504C15.1163 63.6504 15.2416 64.4018 15.2416 65.3408C15.2416 66.2798 15.3669 67.0311 15.5239 67.0311C15.6791 67.0311 15.8061 67.5382 15.8061 68.158C15.8061 68.7778 15.9331 69.2849 16.0884 69.2849C16.2436 69.2849 16.3706 69.6652 16.3706 70.1301C16.3706 70.5949 16.4976 70.9753 16.6529 70.9753C16.8081 70.9753 16.9351 71.2288 16.9351 71.5387C16.9351 71.8486 17.0621 72.1022 17.2174 72.1022C17.3726 72.1022 17.4996 72.4247 17.4996 72.8191C17.4996 73.6099 18.6357 74.9194 19.3216 74.9194C19.6732 74.9194 19.7576 74.5382 19.7576 72.9473C19.7576 71.8204 19.8787 70.9753 20.0399 70.9753C20.2219 70.9753 20.3221 67.8763 20.3221 62.2418C20.3221 56.6073 20.2219 53.5084 20.0399 53.5084C19.8674 53.5084 19.7576 52.1936 19.7576 50.1277C19.7576 48.0618 19.6478 46.747 19.4754 46.747C19.3007 46.747 19.1931 45.2446 19.1931 42.8029C19.1931 40.3612 19.0856 38.8587 18.9109 38.8587C18.7305 38.8587 18.6286 36.417 18.6286 32.0974C18.6286 27.7777 18.7305 25.336 18.9109 25.336C19.0661 25.336 19.1931 24.8833 19.1931 24.33C19.1931 23.0915 19.7263 22.5188 20.8793 22.5188C21.8285 22.5188 23.1447 23.5752 23.1447 24.3373C23.1447 24.5768 23.2717 24.7726 23.4269 24.7726C23.5821 24.7726 23.7092 25.1529 23.7092 25.6177C23.7092 26.0826 23.8362 26.4629 23.9914 26.4629C24.1466 26.4629 24.2737 27.0968 24.2737 27.8715C24.2737 28.6463 24.4007 29.2801 24.5559 29.2801C24.7171 29.2801 24.8382 30.1253 24.8382 31.2522C24.8382 32.3791 24.9592 33.2243 25.1204 33.2243C25.2878 33.2243 25.4027 34.2574 25.4027 35.7598C25.4027 37.2622 25.5175 38.2953 25.6849 38.2953C25.8543 38.2953 25.9672 39.4222 25.9672 41.1125C25.9672 42.8029 26.0801 43.9298 26.2494 43.9298C26.425 43.9298 26.5317 45.5263 26.5317 48.1556C26.5317 50.785 26.6384 52.3815 26.8139 52.3815C26.9954 52.3815 27.0962 55.1987 27.0962 60.2698C27.0962 65.3408 27.1969 68.158 27.3784 68.158C27.5531 68.158 27.6607 69.6605 27.6607 72.1022C27.6607 74.5439 27.7682 76.0463 27.9429 76.0463C28.1075 76.0463 28.2252 76.9853 28.2252 78.3001C28.2252 79.6149 28.3429 80.5539 28.5074 80.5539C28.6627 80.5539 28.7897 81.1877 28.7897 81.9625C28.7897 82.7372 28.9167 83.3711 29.0719 83.3711C29.2272 83.3711 29.3542 83.8782 29.3542 84.498C29.3542 85.1178 29.4812 85.6249 29.6364 85.6249C29.7917 85.6249 29.9187 86.132 29.9187 86.7518C29.9187 87.3716 30.0457 87.8787 30.2009 87.8787C30.3562 87.8787 30.4832 88.259 30.4832 88.7239C30.4832 89.1887 30.6102 89.569 30.7655 89.569C30.9207 89.569 31.0477 89.9215 31.0477 90.3519C31.0477 90.8117 31.2808 91.3025 31.6122 91.5411C31.9227 91.7645 32.1767 92.1152 32.1767 92.3203C32.1767 92.5257 32.4959 93.0123 32.886 93.4016C33.5137 94.0282 33.6436 94.0614 34.015 93.6907C34.2459 93.4602 34.4347 92.9458 34.4347 92.5471C34.4347 92.1488 34.5617 91.8228 34.717 91.8228C34.8894 91.8228 34.9992 90.508 34.9992 88.4421C34.9992 86.3763 34.8894 85.0614 34.717 85.0614C34.56 85.0614 34.4347 84.3101 34.4347 83.3711C34.4347 82.4321 34.3094 81.6808 34.1525 81.6808C33.9972 81.6808 33.8702 81.0469 33.8702 80.2721C33.8702 79.4974 33.7432 78.8635 33.588 78.8635C33.4116 78.8635 33.3057 77.1732 33.3057 74.3559C33.3057 71.5387 33.4116 69.8484 33.588 69.8484C33.7432 69.8484 33.8702 69.6492 33.8702 69.4058C33.8702 68.7017 34.6027 68.158 35.551 68.158C36.2101 68.158 36.7362 68.4682 37.688 69.4185C38.3826 70.1115 38.9508 70.8721 38.9508 71.1088C38.9508 71.3452 39.0778 71.5387 39.233 71.5387C39.3882 71.5387 39.5153 71.919 39.5153 72.3839C39.5153 72.8487 39.6423 73.229 39.7975 73.229C39.9739 73.229 40.0798 74.9194 40.0798 77.7366C40.0798 80.5539 40.1856 82.2442 40.362 82.2442C40.5446 82.2442 40.6443 85.6249 40.6443 91.8228C40.6443 98.0207 40.7439 101.401 40.9265 101.401C41.0818 101.401 41.2088 102.035 41.2088 102.81C41.2088 103.585 41.3358 104.219 41.491 104.219C41.6463 104.219 41.7733 104.599 41.7733 105.064C41.7733 105.529 41.9003 105.909 42.0555 105.909C42.2108 105.909 42.3378 106.163 42.3378 106.472C42.3378 106.782 42.4648 107.036 42.62 107.036C42.7753 107.036 42.9023 107.388 42.9023 107.819C42.9023 108.279 43.1354 108.769 43.4668 109.008C43.7773 109.231 44.0313 109.585 44.0313 109.795C44.0313 110.31 44.7372 110.98 45.2814 110.98C45.5253 110.98 45.7248 111.107 45.7248 111.262C45.7248 111.417 46.048 111.543 46.4431 111.543C47.3681 111.543 48.5473 110.366 48.5473 109.443C48.5473 109.049 48.6743 108.726 48.8296 108.726C48.9848 108.726 49.1118 108.092 49.1118 107.318C49.1118 106.543 49.2388 105.909 49.3941 105.909C49.5651 105.909 49.6763 104.688 49.6763 102.81C49.6763 100.932 49.7875 99.7111 49.9586 99.7111C50.1406 99.7111 50.2408 96.6121 50.2408 90.9777C50.2408 85.3432 50.1406 82.2442 49.9586 82.2442C49.8033 82.2442 49.6763 81.6103 49.6763 80.8356C49.6763 80.0609 49.5493 79.427 49.3941 79.427C49.2388 79.427 49.1118 79.0466 49.1118 78.5818C49.1118 78.117 48.9848 77.7366 48.8296 77.7366C48.6743 77.7366 48.5473 77.4831 48.5473 77.1732C48.5473 76.8633 48.4203 76.6097 48.2651 76.6097C48.1098 76.6097 47.9828 76.2294 47.9828 75.7646C47.9828 75.2997 47.8558 74.9194 47.7006 74.9194C47.5453 74.9194 47.4183 74.5391 47.4183 74.0742C47.4183 73.6094 47.2913 73.229 47.1361 73.229C46.9808 73.229 46.8538 72.9755 46.8538 72.6656C46.8538 72.3557 46.7268 72.1022 46.5716 72.1022C46.4163 72.1022 46.2893 71.8486 46.2893 71.5387C46.2893 71.2288 46.1623 70.9753 46.0071 70.9753C45.8518 70.9753 45.7248 70.7217 45.7248 70.4118C45.7248 70.1019 45.5978 69.8484 45.4426 69.8484C45.2873 69.8484 45.1603 69.6227 45.1603 69.3472C45.1603 69.0714 44.9063 68.6632 44.5958 68.4397C44.2853 68.2163 44.0313 67.8081 44.0313 67.5323C44.0313 67.2568 43.9043 67.0311 43.749 67.0311C43.5938 67.0311 43.4668 66.8055 43.4668 66.5299C43.4668 66.2541 43.2128 65.8459 42.9023 65.6225C42.5918 65.3991 42.3378 64.9909 42.3378 64.7151C42.3378 64.4395 42.2108 64.2139 42.0555 64.2139C41.9003 64.2139 41.7733 63.9882 41.7733 63.7127C41.7733 63.4369 41.5192 63.0287 41.2088 62.8053C40.8983 62.5819 40.6443 62.2015 40.6443 61.9601C40.6443 61.7187 40.3902 61.3383 40.0798 61.1149C39.7693 60.8915 39.5153 60.534 39.5153 60.3205C39.5153 60.1072 39.1342 59.577 38.6685 59.1429C38.2028 58.7087 37.8218 58.2016 37.8218 58.016C37.8218 57.8303 37.4407 57.3232 36.975 56.8891C36.5093 56.4549 36.1282 55.9247 36.1282 55.7115C36.1282 55.4979 35.8742 55.1404 35.5637 54.917C35.2533 54.6936 34.9992 54.3133 34.9992 54.0718C34.9992 53.8304 34.7452 53.4501 34.4347 53.2267C34.1243 53.0033 33.8702 52.595 33.8702 52.3192C33.8702 52.0437 33.7432 51.818 33.588 51.818C33.4327 51.818 33.3057 51.5645 33.3057 51.2546C33.3057 50.9447 33.1787 50.6911 33.0235 50.6911C32.8682 50.6911 32.7412 50.3108 32.7412 49.846C32.7412 49.3811 32.6142 49.0008 32.459 49.0008C32.3037 49.0008 32.1767 48.6205 32.1767 48.1556C32.1767 47.6908 32.0497 47.3105 31.8945 47.3105C31.7392 47.3105 31.6122 46.6766 31.6122 45.9018C31.6122 45.1271 31.4852 44.4932 31.33 44.4932C31.1747 44.4932 31.0477 43.8593 31.0477 43.0846C31.0477 42.3099 30.9207 41.676 30.7655 41.676C30.6102 41.676 30.4832 41.0421 30.4832 40.2674C30.4832 39.4926 30.3562 38.8587 30.2009 38.8587C30.044 38.8587 29.9187 38.1074 29.9187 37.1684C29.9187 36.2294 29.7934 35.4781 29.6364 35.4781C29.4538 35.4781 29.3542 32.0461 29.3542 25.7459V16.0135L30.0471 15.3221C30.556 14.8139 31.0452 14.6305 31.8911 14.6305C33.4564 14.6305 34.9992 16.0943 34.9992 17.5793C34.9992 18.1267 35.1262 18.5746 35.2815 18.5746C35.4627 18.5746 35.5637 21.2981 35.5637 26.1812C35.5637 31.0643 35.6648 33.7877 35.846 33.7877C36.0012 33.7877 36.1282 34.4216 36.1282 35.1963C36.1282 35.9711 36.2553 36.605 36.4105 36.605C36.5657 36.605 36.6927 36.9853 36.6927 37.4501C36.6927 37.915 36.8198 38.2953 36.975 38.2953C37.1302 38.2953 37.2572 38.5489 37.2572 38.8587C37.2572 39.2343 37.4455 39.4222 37.8218 39.4222C38.3699 39.4222 38.3863 39.2343 38.3863 32.9425C38.3863 28.8105 38.4884 26.4629 38.6685 26.4629C38.8237 26.4629 38.9508 25.9558 38.9508 25.336C38.9508 24.7162 39.0778 24.2091 39.233 24.2091C39.3882 24.2091 39.5153 23.9556 39.5153 23.6457C39.5153 23.3358 39.6423 23.0822 39.7975 23.0822C39.9528 23.0822 40.0798 22.883 40.0798 22.6396C40.0798 21.9325 40.8136 21.3919 41.7733 21.3919C42.7329 21.3919 43.4668 21.9325 43.4668 22.6396C43.4668 22.883 43.5938 23.0822 43.749 23.0822C43.9102 23.0822 44.0313 23.9274 44.0313 25.0543C44.0313 26.1812 44.1524 27.0263 44.3135 27.0263C44.4747 27.0263 44.5958 27.8715 44.5958 28.9984C44.5958 30.1253 44.4747 30.9705 44.3135 30.9705C44.1335 30.9705 44.0313 33.3181 44.0313 37.4501C44.0313 41.5822 44.1335 43.9298 44.3135 43.9298C44.4688 43.9298 44.5958 44.5637 44.5958 45.3384C44.5958 46.1131 44.7228 46.747 44.878 46.747C45.0333 46.747 45.1603 47.2541 45.1603 47.8739C45.1603 48.4937 45.2873 49.0008 45.4426 49.0008C45.5978 49.0008 45.7248 49.3811 45.7248 49.846C45.7248 50.3108 45.8518 50.6911 46.0071 50.6911C46.1623 50.6911 46.2893 51.0715 46.2893 51.5363C46.2893 52.0012 46.4163 52.3815 46.5716 52.3815C46.7268 52.3815 46.8538 52.5807 46.8538 52.8241C46.8538 53.2512 47.4903 54.0718 47.8217 54.0718C47.9103 54.0718 47.9828 53.3112 47.9828 52.3815C47.9828 51.4425 47.8575 50.6911 47.7006 50.6911C47.5453 50.6911 47.4183 50.184 47.4183 49.5643C47.4183 48.9445 47.2913 48.4374 47.1361 48.4374C46.9591 48.4374 46.8538 46.6532 46.8538 43.6481C46.8538 40.6429 46.9591 38.8587 47.1361 38.8587C47.2913 38.8587 47.4183 38.3516 47.4183 37.7318C47.4183 37.1121 47.5453 36.605 47.7006 36.605C47.8558 36.605 47.9828 36.0979 47.9828 35.4781C47.9828 34.8583 48.1098 34.3512 48.2651 34.3512C48.4203 34.3512 48.5473 33.9708 48.5473 33.506C48.5473 33.0411 48.6743 32.6608 48.8296 32.6608C48.9848 32.6608 49.1118 32.2805 49.1118 31.8156C49.1118 31.3508 49.2388 30.9705 49.3941 30.9705C49.5493 30.9705 49.6763 30.5902 49.6763 30.1253C49.6763 29.6605 49.8033 29.2801 49.9586 29.2801C50.1138 29.2801 50.2408 28.8998 50.2408 28.435C50.2408 27.9701 50.3678 27.5898 50.5231 27.5898C50.6783 27.5898 50.8053 27.2095 50.8053 26.7446C50.8053 26.2798 50.9324 25.8995 51.0876 25.8995C51.2428 25.8995 51.3698 25.3923 51.3698 24.7726C51.3698 24.1528 51.4969 23.6457 51.6521 23.6457C51.8073 23.6457 51.9343 23.2653 51.9343 22.8005C51.9343 22.3356 52.0614 21.9553 52.2166 21.9553C52.3718 21.9553 52.4988 21.575 52.4988 21.1101C52.4988 20.6453 52.6259 20.265 52.7811 20.265C52.9363 20.265 53.0634 19.8846 53.0634 19.4198C53.0634 18.955 53.1904 18.5746 53.3456 18.5746C53.5008 18.5746 53.6279 18.349 53.6279 18.0734C53.6279 17.7976 53.8819 17.3894 54.1924 17.166C54.5028 16.9426 54.7569 16.5944 54.7569 16.3921C54.7569 16.1898 55.325 15.4571 56.0197 14.764C56.9714 13.8138 57.4975 13.5036 58.1566 13.5036C59.6937 13.5036 59.8374 13.8991 59.8374 18.132C59.8374 20.4932 59.7296 21.9553 59.5551 21.9553C59.3982 21.9553 59.2729 22.7067 59.2729 23.6457C59.2729 24.5846 59.1476 25.336 58.9906 25.336C58.8354 25.336 58.7084 25.9699 58.7084 26.7446C58.7084 27.5194 58.5814 28.1532 58.4261 28.1532C58.2692 28.1532 58.1439 28.9046 58.1439 29.8436C58.1439 30.7826 58.0186 31.5339 57.8616 31.5339C57.7064 31.5339 57.5794 32.1678 57.5794 32.9425C57.5794 33.7173 57.4524 34.3512 57.2971 34.3512C57.1419 34.3512 57.0149 34.8583 57.0149 35.4781C57.0149 36.0979 56.8879 36.605 56.7326 36.605C56.5757 36.605 56.4504 37.3563 56.4504 38.2953C56.4504 39.2343 56.3251 39.9856 56.1681 39.9856C56.0129 39.9856 55.8859 40.4927 55.8859 41.1125C55.8859 41.7323 55.7589 42.2394 55.6036 42.2394C55.4484 42.2394 55.3214 42.7465 55.3214 43.3663C55.3214 43.9861 55.1944 44.4932 55.0391 44.4932C54.8746 44.4932 54.7569 45.4322 54.7569 46.747C54.7569 48.0618 54.6392 49.0008 54.4746 49.0008C54.3134 49.0008 54.1924 49.846 54.1924 50.9729C54.1924 52.0998 54.3134 52.9449 54.4746 52.9449C54.6457 52.9449 54.7569 54.1656 54.7569 56.0439C54.7569 57.9221 54.8681 59.1429 55.0391 59.1429C55.196 59.1429 55.3214 59.8942 55.3214 60.8332C55.3214 61.7722 55.4467 62.5235 55.6036 62.5235C55.7682 62.5235 55.8859 63.4625 55.8859 64.7773C55.8859 66.0921 56.0036 67.0311 56.1681 67.0311C56.3392 67.0311 56.4504 68.2518 56.4504 70.1301C56.4504 72.0083 56.5616 73.229 56.7326 73.229C56.8938 73.229 57.0149 74.0742 57.0149 75.2011C57.0149 76.328 57.136 77.1732 57.2971 77.1732C57.4541 77.1732 57.5794 77.9245 57.5794 78.8635C57.5794 79.8025 57.7047 80.5539 57.8616 80.5539C58.0169 80.5539 58.1439 80.8074 58.1439 81.1173C58.1439 81.4272 58.2709 81.6808 58.4261 81.6808C58.5814 81.6808 58.7084 81.8799 58.7084 82.1234C58.7084 82.6927 59.388 83.3711 59.9585 83.3711C60.3514 83.3711 60.4019 82.4406 60.4019 75.2011C60.4019 70.3741 60.5089 67.0311 60.6635 67.0311C60.8072 67.0311 60.9958 65.9854 61.0824 64.7069C61.453 59.2322 61.5899 58.016 61.8354 58.016C61.9786 58.016 62.0954 57.1285 62.0954 56.0439C62.0954 54.917 62.2165 54.0718 62.3777 54.0718C62.5546 54.0718 62.6599 52.2877 62.6599 49.2825C62.6599 46.2774 62.7652 44.4932 62.9422 44.4932C63.0974 44.4932 63.2244 44.1129 63.2244 43.6481C63.2244 43.1832 63.3514 42.8029 63.5067 42.8029C63.6619 42.8029 63.7889 42.5772 63.7889 42.3017C63.7889 42.0259 64.0429 41.6177 64.3534 41.3943C64.6639 41.1709 64.9179 40.7626 64.9179 40.4868C64.9179 40.0899 65.1528 39.9856 66.0469 39.9856C66.6679 39.9856 67.1759 40.1124 67.1759 40.2674C67.1759 40.4223 67.43 40.5491 67.7404 40.5491C68.1167 40.5491 68.305 40.737 68.305 41.1125C68.305 41.4224 68.432 41.676 68.5872 41.676C68.7424 41.676 68.8695 42.0459 68.8695 42.4978C68.8695 42.9497 69.0284 43.3934 69.2223 43.4838C69.5045 43.6151 69.5045 43.681 69.2223 43.8123C68.955 43.9368 68.8695 45.5435 68.8695 50.4328C68.8695 54.5491 68.7673 56.8891 68.5872 56.8891C68.4102 56.8891 68.305 58.6732 68.305 61.6784C68.305 64.6835 68.1997 66.4677 68.0227 66.4677C67.8432 66.4677 67.7404 68.7215 67.7404 72.6656C67.7404 76.6097 67.6377 78.8635 67.4582 78.8635C67.3013 78.8635 67.1759 79.6149 67.1759 80.5539C67.1759 81.4929 67.0506 82.2442 66.8937 82.2442C66.7385 82.2442 66.6114 82.7513 66.6114 83.3711C66.6114 83.9909 66.4844 84.498 66.3292 84.498C66.174 84.498 66.0469 84.8783 66.0469 85.3432C66.0469 85.808 65.9199 86.1883 65.7647 86.1883C65.6094 86.1883 65.4824 86.5687 65.4824 87.0335C65.4824 87.4984 65.3554 87.8787 65.2002 87.8787C65.0449 87.8787 64.9179 88.259 64.9179 88.7239C64.9179 89.1887 64.7909 89.569 64.6357 89.569C64.4804 89.569 64.3534 89.8226 64.3534 90.1325C64.3534 90.4424 64.2264 90.6959 64.0712 90.6959C63.9159 90.6959 63.7889 90.9495 63.7889 91.2594C63.7889 91.5693 63.6619 91.8228 63.5067 91.8228C63.3514 91.8228 63.2244 92.0764 63.2244 92.3863C63.2244 92.6962 63.0974 92.9497 62.9422 92.9497C62.7869 92.9497 62.6599 93.2033 62.6599 93.5132C62.6599 93.8231 62.5329 94.0766 62.3777 94.0766C62.2224 94.0766 62.0954 94.3023 62.0954 94.5778C62.0954 94.8536 61.8414 95.2618 61.5309 95.4852C61.2204 95.7086 60.9664 96.089 60.9664 96.3304C60.9664 96.5718 60.7124 96.9522 60.4019 97.1756C60.0914 97.399 59.8374 97.8072 59.8374 98.083C59.8374 98.3585 59.7104 98.5842 59.5551 98.5842C59.3999 98.5842 59.2729 98.8099 59.2729 99.0854C59.2729 99.3612 59.0189 99.7694 58.7084 99.9928C58.3979 100.216 58.1439 100.624 58.1439 100.9C58.1439 101.176 58.0169 101.401 57.8616 101.401C57.7064 101.401 57.5794 101.782 57.5794 102.247C57.5794 102.711 57.4524 103.092 57.2971 103.092C57.1419 103.092 57.0149 103.472 57.0149 103.937C57.0149 104.402 56.8879 104.782 56.7326 104.782C56.5774 104.782 56.4504 105.416 56.4504 106.191C56.4504 106.965 56.3234 107.599 56.1681 107.599C56.0007 107.599 55.8859 108.632 55.8859 110.135C55.8859 111.637 56.0007 112.67 56.1681 112.67C56.3293 112.67 56.4504 113.516 56.4504 114.642C56.4504 115.769 56.5715 116.615 56.7326 116.615C56.8879 116.615 57.0149 117.122 57.0149 117.741C57.0149 118.361 57.1419 118.868 57.2971 118.868C57.4524 118.868 57.5794 119.249 57.5794 119.713C57.5794 120.178 57.7064 120.559 57.8616 120.559C58.0169 120.559 58.1439 120.939 58.1439 121.404C58.1439 121.869 58.2709 122.249 58.4261 122.249C58.5814 122.249 58.7084 122.475 58.7084 122.75C58.7084 123.026 58.9624 123.434 59.2729 123.658C59.5834 123.881 59.8374 124.239 59.8374 124.452C59.8374 124.665 60.2184 125.196 60.6842 125.63C61.1499 126.064 61.5309 126.564 61.5309 126.742C61.5309 127.155 62.8183 128.447 63.2298 128.447C63.4022 128.447 64.1618 129.081 64.9179 129.856C65.6741 130.63 66.4314 131.264 66.6007 131.264C66.7704 131.264 68.5533 132.912 70.563 134.927C72.5726 136.941 74.3827 138.589 74.5856 138.589C74.7885 138.589 75.1374 138.843 75.3612 139.152C75.8462 139.824 77.4553 139.92 78.0627 139.313C78.2845 139.092 78.466 138.458 78.466 137.905C78.466 137.351 78.593 136.899 78.7483 136.899C78.9128 136.899 79.0305 135.96 79.0305 134.645C79.0305 133.33 78.9128 132.391 78.7483 132.391C78.593 132.391 78.466 132.011 78.466 131.546C78.466 131.081 78.339 130.701 78.1838 130.701C78.0285 130.701 77.9015 130.447 77.9015 130.137C77.9015 129.827 77.7745 129.574 77.6193 129.574C77.464 129.574 77.337 129.32 77.337 129.01C77.337 128.7 77.21 128.447 77.0548 128.447C76.8995 128.447 76.7725 128.193 76.7725 127.883C76.7725 127.574 76.6455 127.32 76.4903 127.32C76.335 127.32 76.208 127.066 76.208 126.757C76.208 126.447 76.081 126.193 75.9258 126.193C75.7705 126.193 75.6435 125.94 75.6435 125.63C75.6435 125.32 75.5165 125.066 75.3612 125.066C75.206 125.066 75.079 124.813 75.079 124.503C75.079 124.193 74.952 123.939 74.7967 123.939C74.6415 123.939 74.5145 123.559 74.5145 123.094C74.5145 122.629 74.3875 122.249 74.2322 122.249C74.077 122.249 73.95 121.995 73.95 121.686C73.95 121.376 73.823 121.122 73.6677 121.122C73.5125 121.122 73.3855 120.742 73.3855 120.277C73.3855 119.812 73.2585 119.432 73.1032 119.432C72.948 119.432 72.821 118.925 72.821 118.305C72.821 117.685 72.694 117.178 72.5387 117.178C72.3835 117.178 72.2565 116.671 72.2565 116.051C72.2565 115.431 72.1295 114.924 71.9742 114.924C71.819 114.924 71.692 114.29 71.692 113.516C71.692 112.741 71.565 112.107 71.4097 112.107C71.2387 112.107 71.1275 110.886 71.1275 109.008C71.1275 107.255 71.0117 105.909 70.8613 105.909C70.6078 105.909 70.467 103.774 70.1221 94.7105C70.0371 92.4739 69.8508 90.6959 69.7018 90.6959C69.5508 90.6959 69.434 89.4673 69.434 87.8787C69.434 86.1883 69.5469 85.0614 69.7162 85.0614C69.8715 85.0614 69.9985 84.5543 69.9985 83.9346C69.9985 83.3148 70.1255 82.8077 70.2807 82.8077C70.436 82.8077 70.563 82.6133 70.563 82.3758C70.563 81.8149 72.3908 79.9904 72.9528 79.9904C73.1907 79.9904 73.3855 79.8636 73.3855 79.7087C73.3855 79.5537 73.6395 79.427 73.95 79.427C74.2605 79.427 74.5145 79.5537 74.5145 79.7087C74.5145 79.8636 74.7141 79.9904 74.9579 79.9904C75.5284 79.9904 76.208 80.6688 76.208 81.2382C76.208 81.4816 76.335 81.6808 76.4903 81.6808C76.6455 81.6808 76.7725 81.9343 76.7725 82.2442C76.7725 82.5541 76.8995 82.8077 77.0548 82.8077C77.2379 82.8077 77.337 86.4701 77.337 93.2314C77.337 99.9928 77.4361 103.655 77.6193 103.655C77.7866 103.655 77.9015 104.688 77.9015 106.191C77.9015 107.693 78.0164 108.726 78.1838 108.726C78.339 108.726 78.466 109.36 78.466 110.135C78.466 110.91 78.593 111.543 78.7483 111.543C78.9035 111.543 79.0305 111.924 79.0305 112.389C79.0305 112.854 79.1575 113.234 79.3128 113.234C79.468 113.234 79.595 113.433 79.595 113.676C79.595 114.104 80.2315 114.924 80.5629 114.924C80.6515 114.924 80.724 114.671 80.724 114.361C80.724 114.051 80.851 113.797 81.0063 113.797C81.1615 113.797 81.2885 113.417 81.2885 112.952C81.2885 112.487 81.4156 112.107 81.5708 112.107C81.7486 112.107 81.853 110.229 81.853 107.036C81.853 103.843 81.7486 101.965 81.5708 101.965C81.4139 101.965 81.2885 101.214 81.2885 100.275C81.2885 99.3356 81.1632 98.5842 81.0063 98.5842C80.8352 98.5842 80.724 97.3635 80.724 95.4852C80.724 93.607 80.6128 92.3863 80.4418 92.3863C80.2865 92.3863 80.1595 91.7524 80.1595 90.9777C80.1595 90.2029 80.0325 89.569 79.8773 89.569C79.722 89.569 79.595 89.1887 79.595 88.7239C79.595 88.259 79.468 87.8787 79.3128 87.8787C79.1575 87.8787 79.0305 87.2448 79.0305 86.4701C79.0305 85.6953 78.9035 85.0614 78.7483 85.0614C78.593 85.0614 78.466 84.5543 78.466 83.9346C78.466 83.3148 78.339 82.8077 78.1838 82.8077C78.0268 82.8077 77.9015 82.0563 77.9015 81.1173C77.9015 80.1783 77.7762 79.427 77.6193 79.427C77.4499 79.427 77.337 78.3001 77.337 76.6097C77.337 74.9194 77.2241 73.7925 77.0548 73.7925C76.8902 73.7925 76.7725 72.8535 76.7725 71.5387C76.7725 70.2239 76.6548 69.2849 76.4903 69.2849C76.3291 69.2849 76.208 68.4397 76.208 67.3129C76.208 66.186 76.0869 65.3408 75.9258 65.3408C75.7564 65.3408 75.6435 64.2139 75.6435 62.5235C75.6435 60.8332 75.5306 59.7063 75.3612 59.7063C75.206 59.7063 75.079 59.0724 75.079 58.2977C75.079 57.5229 74.952 56.8891 74.7967 56.8891C74.6415 56.8891 74.5145 56.5087 74.5145 56.0439C74.5145 55.5791 74.3875 55.1987 74.2322 55.1987C74.077 55.1987 73.95 54.6916 73.95 54.0718C73.95 53.452 73.823 52.9449 73.6677 52.9449C73.5125 52.9449 73.3855 52.3111 73.3855 51.5363C73.3855 50.7616 73.2585 50.1277 73.1032 50.1277C72.948 50.1277 72.821 49.4938 72.821 48.7191C72.821 47.9443 72.694 47.3105 72.5387 47.3105C72.3632 47.3105 72.2565 45.7139 72.2565 43.0846C72.2565 40.4553 72.3632 38.8587 72.5387 38.8587C72.7033 38.8587 72.821 37.9198 72.821 36.605C72.821 35.2901 72.9387 34.3512 73.1032 34.3512C73.2706 34.3512 73.3855 33.3181 73.3855 31.8156C73.3855 30.3132 73.5004 29.2801 73.6677 29.2801C73.8433 29.2801 73.95 27.6836 73.95 25.0543C73.95 22.4249 74.0567 20.8284 74.2322 20.8284C74.407 20.8284 74.5145 19.326 74.5145 16.8843C74.5145 14.4426 74.622 12.9402 74.7967 12.9402C74.9579 12.9402 75.079 12.095 75.079 10.9681C75.079 9.84119 75.2001 8.99602 75.3612 8.99602C75.5165 8.99602 75.6435 8.36214 75.6435 7.5874C75.6435 6.81266 75.7705 6.17878 75.9258 6.17878C76.081 6.17878 76.208 5.67168 76.208 5.05189C76.208 4.43209 76.335 3.92499 76.4903 3.92499C76.6455 3.92499 76.7725 3.67144 76.7725 3.36154C76.7725 3.05165 76.8995 2.7981 77.0548 2.7981C77.21 2.7981 77.337 2.60427 77.337 2.36762Z" fill="#01010E"/>
</svg>
