<svg width="186" height="160" viewBox="0 0 186 160" fill="none" xmlns="http://www.w3.org/2000/svg">
<path fill-rule="evenodd" clip-rule="evenodd" d="M75.4158 0.41148C75.2205 0.633058 75.0605 1.01126 75.0605 1.25184C75.0605 1.49243 74.9326 1.68932 74.7762 1.68932C74.6199 1.68932 74.4919 2.32767 74.4919 3.10788C74.4919 3.88808 74.6199 4.52643 74.7762 4.52643C74.9326 4.52643 75.0605 5.03711 75.0605 5.66127C75.0605 6.28544 75.1884 6.79612 75.3448 6.79612C75.5011 6.79612 75.6291 7.17913 75.6291 7.64725C75.6291 8.11537 75.757 8.49838 75.9133 8.49838C76.0697 8.49838 76.1976 8.75372 76.1976 9.0658C76.1976 9.37789 76.3255 9.63323 76.4819 9.63323C76.6382 9.63323 76.7662 9.88857 76.7662 10.2006C76.7662 10.5127 76.8941 10.7681 77.0504 10.7681C77.2068 10.7681 77.3347 11.0234 77.3347 11.3355C77.3347 11.6476 77.4626 11.9029 77.619 11.9029C77.7753 11.9029 77.9033 12.2859 77.9033 12.754C77.9033 13.2222 78.0312 13.6052 78.1876 13.6052C78.3439 13.6052 78.4718 13.8605 78.4718 14.1726C78.4718 14.4847 78.5998 14.74 78.7561 14.74C78.9125 14.74 79.0404 15.123 79.0404 15.5912C79.0404 16.0593 79.1683 16.4423 79.3247 16.4423C79.4827 16.4423 79.6089 17.1989 79.6089 18.1446C79.6089 19.0902 79.4827 19.8468 79.3247 19.8468C79.1683 19.8468 79.0404 20.2298 79.0404 20.6979C79.0404 21.1661 78.9125 21.5491 78.7561 21.5491C78.5998 21.5491 78.4718 21.8044 78.4718 22.1165C78.4718 22.5341 78.2822 22.6839 77.7537 22.6839C76.9507 22.6839 74.4919 20.444 74.4919 19.7123C74.4919 19.4743 74.364 19.2794 74.2077 19.2794C74.0513 19.2794 73.9234 18.7687 73.9234 18.1446C73.9234 17.5204 73.7955 17.0097 73.6391 17.0097C73.4614 17.0097 73.3548 15.3074 73.3548 12.4703C73.3548 9.63323 73.2482 7.93096 73.0706 7.93096C72.9142 7.93096 72.7863 7.42028 72.7863 6.79612C72.7863 6.17195 72.6584 5.66127 72.502 5.66127C72.3456 5.66127 72.2177 5.46551 72.2177 5.22634C72.2177 4.66147 70.3767 2.82417 69.8107 2.82417C69.5711 2.82417 69.3749 2.6965 69.3749 2.54045C69.3749 2.38441 69.0494 2.25674 68.6514 2.25674C67.8535 2.25674 66.5322 3.39868 66.5322 4.0881C66.5322 4.32926 66.4042 4.52643 66.2479 4.52643C66.0915 4.52643 65.9636 4.90944 65.9636 5.37756C65.9636 5.84569 65.8357 6.2287 65.6793 6.2287C65.523 6.2287 65.3951 6.48404 65.3951 6.79612C65.3951 7.1082 65.2671 7.36354 65.1108 7.36354C64.9544 7.36354 64.8265 7.61888 64.8265 7.93096C64.8265 8.42263 64.6369 8.49838 63.4051 8.49838C62.6234 8.49838 61.9837 8.37071 61.9837 8.21467C61.9837 8.05863 61.7864 7.93096 61.5451 7.93096C61.304 7.93096 60.0941 6.9096 58.8567 5.66127C57.6192 4.41295 56.4093 3.39159 56.1683 3.39159C55.9269 3.39159 55.7296 3.26392 55.7296 3.10788C55.7296 2.95184 55.09 2.82417 54.3082 2.82417C53.5265 2.82417 52.8868 2.95184 52.8868 3.10788C52.8868 3.26392 52.631 3.39159 52.3183 3.39159C51.9393 3.39159 51.7497 3.58082 51.7497 3.95901C51.7497 4.27109 51.6218 4.52643 51.4655 4.52643C51.3091 4.52643 51.1812 5.03711 51.1812 5.66127C51.1812 6.28544 51.3091 6.79612 51.4655 6.79612C51.6218 6.79612 51.7497 7.02337 51.7497 7.30084C51.7497 7.57859 52.0056 7.98969 52.3183 8.21467C52.631 8.43965 52.8868 8.78975 52.8868 8.99261C52.8868 9.43208 55.8698 12.4703 56.301 12.4703C56.4659 12.4703 57.9996 13.8747 59.7095 15.5912C61.4194 17.3076 62.9528 18.712 63.1172 18.712C63.5842 18.712 67.1007 22.3387 67.1007 22.8204C67.1007 23.0576 67.2287 23.2513 67.385 23.2513C67.5414 23.2513 67.6693 23.6344 67.6693 24.1025C67.6693 24.5706 67.7972 24.9536 67.9536 24.9536C68.1099 24.9536 68.2378 25.4643 68.2378 26.0885C68.2378 26.7126 68.3658 27.2233 68.5221 27.2233C68.6785 27.2233 68.8064 27.6063 68.8064 28.0744C68.8064 28.5426 68.9204 28.9256 69.0597 28.9256C69.1987 28.9256 69.3946 29.4045 69.4944 29.9895C69.9361 32.5792 70.02 32.8975 70.2588 32.8975C70.3981 32.8975 70.5121 33.2805 70.5121 33.7486C70.5121 34.2168 70.64 34.5998 70.7963 34.5998C70.9527 34.5998 71.0806 34.9828 71.0806 35.4509C71.0806 35.919 71.2085 36.302 71.3649 36.302C71.5212 36.302 71.6492 36.5574 71.6492 36.8695C71.6492 37.1816 71.7771 37.4369 71.9334 37.4369C72.0898 37.4369 72.2177 37.8199 72.2177 38.288C72.2177 38.7561 72.3456 39.1392 72.502 39.1392C72.6584 39.1392 72.7863 39.3945 72.7863 39.7066C72.7863 40.0187 72.9142 40.274 73.0706 40.274C73.2269 40.274 73.3548 40.5293 73.3548 40.8414C73.3548 41.1535 73.4828 41.4088 73.6391 41.4088C73.7955 41.4088 73.9234 41.7919 73.9234 42.26C73.9234 42.7281 74.0513 43.1111 74.2077 43.1111C74.37 43.1111 74.4919 43.9622 74.4919 45.0971C74.4919 46.2319 74.6139 47.0831 74.7762 47.0831C74.9593 47.0831 75.0605 50.1094 75.0605 55.5944C75.0605 61.0794 74.9593 64.1057 74.7762 64.1057C74.6076 64.1057 74.4919 65.1461 74.4919 66.6591C74.4919 68.1721 74.3762 69.2125 74.2077 69.2125C74.0513 69.2125 73.9234 69.5955 73.9234 70.0636C73.9234 70.5318 73.7955 70.9148 73.6391 70.9148C73.4828 70.9148 73.3548 71.1154 73.3548 71.3605C73.3548 71.6059 73.1658 71.9951 72.9349 72.2255C72.5642 72.5955 72.3633 72.4936 71.2293 71.3616C70.522 70.656 69.9435 69.8838 69.9435 69.6455C69.9435 69.4074 69.8156 69.2125 69.6592 69.2125C69.5029 69.2125 69.3749 68.9572 69.3749 68.6451C69.3749 68.333 69.247 68.0777 69.0907 68.0777C68.9343 68.0777 68.8064 67.8828 68.8064 67.6447C68.8064 66.913 66.3477 64.6731 65.5446 64.6731C65.1497 64.6731 64.8265 64.8008 64.8265 64.9568C64.8265 65.1129 64.6289 65.2406 64.3873 65.2406C64.1456 65.2406 63.6339 65.554 63.2502 65.9371C62.7137 66.4721 62.5523 66.932 62.5523 67.923C62.5523 68.6323 62.6802 69.2125 62.8366 69.2125C62.9929 69.2125 63.1208 69.4678 63.1208 69.7799C63.1208 70.092 63.2488 70.3474 63.4051 70.3474C63.5615 70.3474 63.6894 70.6027 63.6894 70.9148C63.6894 71.2268 63.8173 71.4822 63.9737 71.4822C64.13 71.4822 64.258 71.7094 64.258 71.9869C64.258 72.2647 64.5138 72.6757 64.8265 72.9007C65.1392 73.1257 65.3951 73.5368 65.3951 73.8145C65.3951 74.092 65.523 74.3193 65.6793 74.3193C65.8357 74.3193 65.9636 74.5746 65.9636 74.8867C65.9636 75.1988 66.0915 75.4541 66.2479 75.4541C66.4042 75.4541 66.5322 75.9648 66.5322 76.589C66.5322 77.2132 66.6601 77.7238 66.8164 77.7238C66.9728 77.7238 67.1007 78.2345 67.1007 78.8587C67.1007 79.4828 66.9728 79.9935 66.8164 79.9935C66.6601 79.9935 66.5322 80.6319 66.5322 81.4121C66.5322 82.1923 66.4042 82.8306 66.2479 82.8306C66.0915 82.8306 65.9636 83.2136 65.9636 83.6818C65.9636 84.1499 65.8357 84.5329 65.6793 84.5329C65.523 84.5329 65.3951 84.9159 65.3951 85.384C65.3951 85.8521 65.2671 86.2352 65.1108 86.2352C64.9544 86.2352 64.8265 86.6182 64.8265 87.0863C64.8265 87.5544 64.6986 87.9374 64.5422 87.9374C64.3859 87.9374 64.258 88.1928 64.258 88.5048C64.258 88.8169 64.13 89.0723 63.9737 89.0723C63.8173 89.0723 63.6894 89.4553 63.6894 89.9234C63.6894 90.3915 63.5615 90.7745 63.4051 90.7745C63.2488 90.7745 63.1208 91.0299 63.1208 91.342C63.1208 91.654 62.9929 91.9094 62.8366 91.9094C62.6802 91.9094 62.5523 92.2924 62.5523 92.7605C62.5523 93.2286 62.4244 93.6116 62.268 93.6116C62.1117 93.6116 61.9837 93.9947 61.9837 94.4628C61.9837 94.9309 61.8558 95.3139 61.6995 95.3139C61.5431 95.3139 61.4152 95.6969 61.4152 96.165C61.4152 96.6332 61.2872 97.0162 61.1309 97.0162C60.9745 97.0162 60.8466 97.2715 60.8466 97.5836C60.8466 97.8957 60.7187 98.151 60.5623 98.151C60.406 98.151 60.2781 98.534 60.2781 99.0021C60.2781 99.4703 60.1501 99.8533 59.9938 99.8533C59.8374 99.8533 59.7095 100.054 59.7095 100.299C59.7095 100.544 59.5267 100.927 59.3033 101.15C58.8419 101.611 57.4353 101.703 57.4353 101.272C57.4353 101.116 57.2343 100.988 56.9887 100.988C56.4406 100.988 55.7296 100.314 55.7296 99.7943C55.7296 99.5835 55.4738 99.2271 55.1611 99.0021C54.8273 98.7618 54.5925 98.2676 54.5925 97.8046C54.5925 97.3711 54.4646 97.0162 54.3082 97.0162C54.1459 97.0162 54.024 96.165 54.024 95.0302C54.024 93.8954 53.902 93.0442 53.7397 93.0442C53.5739 93.0442 53.4554 92.0986 53.4554 90.7745C53.4554 89.4505 53.5739 88.5048 53.7397 88.5048C53.902 88.5048 54.024 87.6537 54.024 86.5189C54.024 85.384 54.1459 84.5329 54.3082 84.5329C54.4663 84.5329 54.5925 83.7762 54.5925 82.8306C54.5925 81.885 54.7187 81.1284 54.8768 81.1284C55.0348 81.1284 55.1611 80.3717 55.1611 79.4261C55.1611 78.4805 55.2873 77.7238 55.4453 77.7238C55.6017 77.7238 55.7296 77.0855 55.7296 76.3053C55.7296 75.5251 55.8575 74.8867 56.0139 74.8867C56.1703 74.8867 56.2982 74.2484 56.2982 73.4682C56.2982 72.6879 56.4261 72.0496 56.5825 72.0496C56.7388 72.0496 56.8667 71.5389 56.8667 70.9148C56.8667 70.2906 56.9947 69.7799 57.151 69.7799C57.3074 69.7799 57.4353 69.1416 57.4353 68.3614C57.4353 67.5812 57.5632 66.9428 57.7196 66.9428C57.8759 66.9428 58.0038 66.4321 58.0038 65.808C58.0038 65.1838 58.1318 64.6731 58.2881 64.6731C58.4445 64.6731 58.5724 64.1625 58.5724 63.5383C58.5724 62.9141 58.7003 62.4034 58.8567 62.4034C59.013 62.4034 59.141 61.8928 59.141 61.2686C59.141 60.6444 59.2689 60.1338 59.4252 60.1338C59.5816 60.1338 59.7095 59.7508 59.7095 59.2826C59.7095 58.8145 59.8374 58.4315 59.9938 58.4315C60.1501 58.4315 60.2781 58.0485 60.2781 57.5804C60.2781 57.1122 60.406 56.7292 60.5623 56.7292C60.7187 56.7292 60.8466 56.3462 60.8466 55.8781C60.8466 55.41 60.9745 55.027 61.1309 55.027C61.2872 55.027 61.4152 54.644 61.4152 54.1758C61.4152 53.7077 61.5431 53.3247 61.6995 53.3247C61.8558 53.3247 61.9837 52.9417 61.9837 52.4736C61.9837 52.0054 62.1117 51.6224 62.268 51.6224C62.4244 51.6224 62.5523 51.2394 62.5523 50.7713C62.5523 50.3032 62.6802 49.9202 62.8366 49.9202C62.9929 49.9202 63.1208 49.6648 63.1208 49.3527C63.1208 49.0407 63.2488 48.7853 63.4051 48.7853C63.5615 48.7853 63.6894 48.4023 63.6894 47.9342C63.6894 47.4661 63.8173 47.0831 63.9737 47.0831C64.13 47.0831 64.258 46.8277 64.258 46.5156C64.258 46.2036 64.3859 45.9482 64.5422 45.9482C64.6986 45.9482 64.8265 45.5652 64.8265 45.0971C64.8265 44.629 64.9544 44.246 65.1108 44.246C65.2671 44.246 65.3951 43.7353 65.3951 43.1111C65.3951 42.4869 65.523 41.9763 65.6793 41.9763C65.8357 41.9763 65.9636 41.4656 65.9636 40.8414C65.9636 40.2173 66.0915 39.7066 66.2479 39.7066C66.4042 39.7066 66.5322 39.1959 66.5322 38.5717C66.5322 37.9476 66.6601 37.4369 66.8164 37.4369C66.9728 37.4369 67.1007 36.9858 67.1007 36.4346C67.1007 35.6688 66.8679 35.1996 66.1151 34.4486C65.2481 33.5833 64.9553 33.4649 63.6786 33.4649C61.9456 33.4649 61.4152 33.0377 61.4152 31.641C61.4152 31.0837 61.2872 30.6278 61.1309 30.6278C60.9745 30.6278 60.8466 30.1172 60.8466 29.493C60.8466 28.8688 60.7187 28.3581 60.5623 28.3581C60.406 28.3581 60.2781 28.1624 60.2781 27.9232C60.2781 27.2775 58.3993 25.521 57.7088 25.521C56.8989 25.521 56.2982 26.177 56.2982 27.0613C56.2982 27.4625 56.1703 27.7907 56.0139 27.7907C55.8433 27.7907 55.7296 28.9256 55.7296 30.6278C55.7296 32.3301 55.8433 33.4649 56.0139 33.4649C56.1916 33.4649 56.2982 35.1672 56.2982 38.0043C56.2982 40.8414 56.1916 42.5437 56.0139 42.5437C55.8558 42.5437 55.7296 43.3003 55.7296 44.246C55.7296 45.1916 55.6034 45.9482 55.4453 45.9482C55.289 45.9482 55.1611 46.3312 55.1611 46.7993C55.1611 47.2675 55.0331 47.6505 54.8768 47.6505C54.7204 47.6505 54.5925 47.8477 54.5925 48.0888C54.5925 48.33 54.2784 48.8407 53.8946 49.2237C53.2772 49.8402 52.9503 49.9202 51.0518 49.9202C49.8115 49.9202 48.907 49.8004 48.907 49.6365C48.907 49.4804 48.7122 49.3527 48.4743 49.3527C47.9114 49.3527 44.9271 46.3743 44.9271 45.8126C44.9271 45.5751 44.7991 45.3808 44.6428 45.3808C44.4864 45.3808 44.3585 45.1255 44.3585 44.8134C44.3585 44.5013 44.2306 44.246 44.0742 44.246C43.9179 44.246 43.79 43.9906 43.79 43.6785C43.79 43.3664 43.662 43.1111 43.5057 43.1111C43.3493 43.1111 43.2214 42.6004 43.2214 41.9763C43.2214 41.3521 43.0935 40.8414 42.9371 40.8414C42.7808 40.8414 42.6529 40.3307 42.6529 39.7066C42.6529 39.0824 42.7808 38.5717 42.9371 38.5717C43.0935 38.5717 43.2214 38.0611 43.2214 37.4369C43.2214 36.8127 43.3493 36.302 43.5057 36.302C43.662 36.302 43.79 36.0467 43.79 35.7346C43.79 35.4225 43.9179 35.1672 44.0742 35.1672C44.2306 35.1672 44.3585 34.7842 44.3585 34.3161C44.3585 33.8479 44.4864 33.4649 44.6428 33.4649C44.7991 33.4649 44.9271 33.2096 44.9271 32.8975C44.9271 32.5854 45.055 32.3301 45.2114 32.3301C45.3677 32.3301 45.4956 32.0748 45.4956 31.7627C45.4956 31.4506 45.6236 31.1953 45.7799 31.1953C45.9363 31.1953 46.0642 30.9399 46.0642 30.6278C46.0642 30.3157 46.1921 30.0604 46.3485 30.0604C46.5048 30.0604 46.6327 29.8051 46.6327 29.493C46.6327 29.1809 46.7607 28.9256 46.917 28.9256C47.0734 28.9256 47.2013 28.3468 47.2013 27.6395C47.2013 26.55 47.0503 26.2028 46.2157 25.3698C45.4632 24.6185 44.993 24.3862 44.2258 24.3862C43.6734 24.3862 43.2214 24.5139 43.2214 24.6699C43.2214 24.8259 43.0238 24.9536 42.7822 24.9536C42.2134 24.9536 40.9472 26.2173 40.9472 26.785C40.9472 27.0261 40.8193 27.2233 40.6629 27.2233C40.5066 27.2233 40.3786 27.4786 40.3786 27.7907C40.3786 28.1028 40.2507 28.3581 40.0944 28.3581C39.938 28.3581 39.8101 28.5587 39.8101 28.8038C39.8101 29.3236 39.1432 30.0604 38.673 30.0604C38.1121 30.0604 37.5359 29.2796 37.5359 28.5201C37.5359 28.119 37.4079 27.7907 37.2516 27.7907C37.0952 27.7907 36.9673 27.1524 36.9673 26.3722C36.9673 25.592 36.8394 24.9536 36.683 24.9536C36.5048 24.9536 36.3987 23.1569 36.3987 20.1305C36.3987 17.1042 36.2927 15.3074 36.1145 15.3074C35.9581 15.3074 35.8302 14.984 35.8302 14.5888C35.8302 14.1468 35.4504 13.4911 34.8446 12.8865C34.0432 12.0868 33.6432 11.9029 32.7031 11.9029C31.763 11.9029 31.363 12.0868 30.5617 12.8865C30.0196 13.4273 29.5761 14.0656 29.5761 14.3051C29.5761 14.5443 29.4482 14.74 29.2918 14.74C29.1355 14.74 29.0075 15.123 29.0075 15.5912C29.0075 16.0593 28.8796 16.4423 28.7233 16.4423C28.5515 16.4423 28.439 17.631 28.439 19.4414C28.439 21.6626 28.3335 22.546 28.0327 22.8459C27.5714 23.3067 26.1648 23.3983 26.1648 22.9676C26.1648 22.8116 25.9089 22.6839 25.5962 22.6839C25.2835 22.6839 25.0276 22.5563 25.0276 22.4002C25.0276 22.2442 24.8232 22.1165 24.5731 22.1165C24.3232 22.1165 23.76 21.7335 23.322 21.2654C22.8839 20.7972 22.3489 20.4142 22.1337 20.4142C21.9182 20.4142 21.5575 20.1589 21.332 19.8468C21.1066 19.5347 20.6947 19.2794 20.4164 19.2794C20.1384 19.2794 19.9106 19.1517 19.9106 18.9957C19.9106 18.8396 19.5269 18.712 19.0578 18.712C18.5888 18.712 18.205 18.5843 18.205 18.4283C18.205 18.2722 17.5654 18.1446 16.7836 18.1446C16.0018 18.1446 15.3622 18.2722 15.3622 18.4283C15.3622 18.5843 15.1064 18.712 14.7936 18.712C14.4809 18.712 14.2251 18.8396 14.2251 18.9957C14.2251 19.1517 13.9692 19.2794 13.6565 19.2794C13.2776 19.2794 13.088 19.4686 13.088 19.8468C13.088 20.1589 12.9601 20.4142 12.8037 20.4142C12.6474 20.4142 12.5194 21.0526 12.5194 21.8328C12.5194 22.613 12.6474 23.2513 12.8037 23.2513C12.9601 23.2513 13.088 23.4528 13.088 23.699C13.088 23.9456 13.5997 24.6376 14.2251 25.2373C14.8505 25.8371 15.3622 26.5291 15.3622 26.7756C15.3622 27.0219 15.564 27.2233 15.8108 27.2233C16.0578 27.2233 16.7512 27.734 17.3521 28.3581C17.9531 28.9823 18.6465 29.493 18.8935 29.493C19.1403 29.493 19.3421 29.6207 19.3421 29.7767C19.3421 29.9327 19.5979 30.0604 19.9106 30.0604C20.2234 30.0604 20.4792 30.1881 20.4792 30.3441C20.4792 30.5002 20.863 30.6278 21.332 30.6278C21.8011 30.6278 22.1849 30.7555 22.1849 30.9115C22.1849 31.0676 22.4407 31.1953 22.7534 31.1953C23.0661 31.1953 23.322 31.3229 23.322 31.479C23.322 31.635 23.5778 31.7627 23.8905 31.7627C24.2032 31.7627 24.4591 31.8903 24.4591 32.0464C24.4591 32.2024 24.7149 32.3301 25.0276 32.3301C25.3403 32.3301 25.5962 32.4578 25.5962 32.6138C25.5962 32.7698 25.852 32.8975 26.1648 32.8975C26.4775 32.8975 26.7333 33.0252 26.7333 33.1812C26.7333 33.3373 26.9295 33.4649 27.1691 33.4649C27.7351 33.4649 29.5761 35.3023 29.5761 35.8671C29.5761 36.1063 29.704 36.302 29.8604 36.302C30.0167 36.302 30.1446 36.5574 30.1446 36.8695C30.1446 37.1816 30.2726 37.4369 30.4289 37.4369C30.5853 37.4369 30.7132 37.6922 30.7132 38.0043C30.7132 38.3164 30.8411 38.5717 30.9975 38.5717C31.1538 38.5717 31.2818 38.9547 31.2818 39.4229C31.2818 39.891 31.4097 40.274 31.566 40.274C31.7224 40.274 31.8503 40.657 31.8503 41.1251C31.8503 41.5933 31.9782 41.9763 32.1346 41.9763C32.2909 41.9763 32.4189 42.2316 32.4189 42.5437C32.4189 42.8558 32.5468 43.1111 32.7031 43.1111C32.8595 43.1111 32.9874 43.3384 32.9874 43.6158C32.9874 43.8936 33.2433 44.3047 33.556 44.5297C33.8687 44.7546 34.1245 45.1047 34.1245 45.3076C34.1245 45.7584 37.1129 48.7853 37.5578 48.7853C37.7329 48.7853 38.2349 49.1683 38.673 49.6365C39.111 50.1046 39.6227 50.4876 39.8101 50.4876C39.9974 50.4876 40.5091 50.8706 40.9472 51.3387C41.3853 51.8068 41.8859 52.1899 42.0596 52.1899C42.5411 52.1899 48.3384 58.0808 48.3384 58.57C48.3384 58.806 48.4663 58.9989 48.6227 58.9989C48.779 58.9989 48.907 59.6373 48.907 60.4175C48.907 61.1977 49.0349 61.836 49.1912 61.836C49.357 61.836 49.4755 62.7816 49.4755 64.1057C49.4755 65.4298 49.357 66.3754 49.1912 66.3754C49.0349 66.3754 48.907 66.8861 48.907 67.5102C48.907 68.1344 48.779 68.6451 48.6227 68.6451C48.4663 68.6451 48.3384 69.0281 48.3384 69.4962C48.3384 69.9643 48.2105 70.3474 48.0541 70.3474C47.8978 70.3474 47.7699 70.9857 47.7699 71.7659C47.7699 72.5461 47.6419 73.1844 47.4856 73.1844C47.3133 73.1844 47.2013 74.4138 47.2013 76.3053C47.2013 78.1968 47.3133 79.4261 47.4856 79.4261C47.6604 79.4261 47.7699 80.8447 47.7699 83.1143C47.7699 85.384 47.6604 86.8026 47.4856 86.8026C47.3292 86.8026 47.2013 86.9998 47.2013 87.2409C47.2013 87.9059 45.8916 89.0723 45.1448 89.0723C44.7815 89.0723 44.2997 88.8169 44.0742 88.5048C43.8488 88.1928 43.4974 87.9374 43.2933 87.9374C42.8103 87.9374 40.3786 85.5105 40.3786 85.0285C40.3786 84.8248 40.1228 84.4742 39.8101 84.2492C39.4974 84.0242 39.2415 83.6131 39.2415 83.3354C39.2415 83.0579 39.1136 82.8306 38.9572 82.8306C38.8009 82.8306 38.673 82.5753 38.673 82.2632C38.673 81.9511 38.545 81.6958 38.3887 81.6958C38.2323 81.6958 38.1044 81.3128 38.1044 80.8447C38.1044 80.3765 37.9765 79.9935 37.8201 79.9935C37.6638 79.9935 37.5359 79.3552 37.5359 78.575C37.5359 77.7948 37.4079 77.1564 37.2516 77.1564C37.083 77.1564 36.9673 76.116 36.9673 74.603C36.9673 73.09 37.083 72.0496 37.2516 72.0496C37.4096 72.0496 37.5359 71.293 37.5359 70.3474C37.5359 69.4017 37.6621 68.6451 37.8201 68.6451C37.9765 68.6451 38.1044 68.1344 38.1044 67.5102C38.1044 66.8861 38.2323 66.3754 38.3887 66.3754C38.545 66.3754 38.673 65.8647 38.673 65.2406C38.673 64.6164 38.8009 64.1057 38.9572 64.1057C39.1136 64.1057 39.2415 63.7227 39.2415 63.2546C39.2415 62.7865 39.3694 62.4034 39.5258 62.4034C39.6822 62.4034 39.8101 61.7651 39.8101 60.9849C39.8101 60.2047 39.6822 59.5663 39.5258 59.5663C39.3694 59.5663 39.2415 59.2429 39.2415 58.8477C39.2415 57.7951 37.5105 56.1618 36.3953 56.1618C35.5209 56.1618 34.1245 57.213 34.1245 57.8714C34.1245 58.0456 33.9326 58.3798 33.6981 58.6139C33.3192 58.9921 33.2242 58.9921 32.8453 58.6139C32.6107 58.3798 32.4189 57.8601 32.4189 57.4587C32.4189 57.0575 32.2909 56.7292 32.1346 56.7292C31.9782 56.7292 31.8503 56.4739 31.8503 56.1618C31.8503 55.8497 31.7224 55.5944 31.566 55.5944C31.4097 55.5944 31.2818 55.3972 31.2818 55.156C31.2818 54.9149 30.9676 54.4042 30.5838 54.0212C29.6997 53.1386 28.1777 53.073 27.5861 53.8921C27.3607 54.2042 26.9488 54.4595 26.6705 54.4595C26.3544 54.4595 26.1648 54.672 26.1648 55.027C26.1648 55.339 26.0368 55.5944 25.8805 55.5944C25.7241 55.5944 25.5962 56.0946 25.5962 56.7057C25.5962 57.3171 25.4364 57.8913 25.2409 57.9824C24.9566 58.1146 24.9566 58.181 25.2409 58.3132C25.4958 58.4321 25.5962 59.4324 25.5962 61.8596C25.5962 63.9244 25.7068 65.2406 25.8805 65.2406C26.0368 65.2406 26.1648 65.8789 26.1648 66.6591C26.1648 67.4393 26.2927 68.0777 26.449 68.0777C26.6071 68.0777 26.7333 68.8343 26.7333 69.7799C26.7333 70.7255 26.8595 71.4822 27.0176 71.4822C27.1739 71.4822 27.3019 72.1205 27.3019 72.9007C27.3019 73.6809 27.1739 74.3193 27.0176 74.3193C26.8612 74.3193 26.7333 74.5199 26.7333 74.765C26.7333 75.0104 26.5505 75.3934 26.3271 75.6162C25.8614 76.0812 25.0276 76.1592 25.0276 75.7379C25.0276 75.5818 24.7718 75.4541 24.4591 75.4541C24.1464 75.4541 23.8905 75.3265 23.8905 75.1704C23.8905 75.0144 23.6904 74.8867 23.4456 74.8867C23.2009 74.8867 22.3779 74.2484 21.6163 73.4682C20.8547 72.6879 20.0886 72.0496 19.9135 72.0496C19.7381 72.0496 18.8415 71.2836 17.9207 70.3474C16.9999 69.4111 16.0988 68.6451 15.9185 68.6451C15.738 68.6451 15.2317 68.2621 14.7936 67.794C14.3556 67.3258 13.8206 66.9428 13.6054 66.9428C13.3899 66.9428 13.0291 66.6875 12.8037 66.3754C12.5783 66.0633 12.1664 65.808 11.888 65.808C11.61 65.808 11.3823 65.6803 11.3823 65.5243C11.3823 65.3682 10.9985 65.2406 10.5295 65.2406C10.0604 65.2406 9.67665 65.1129 9.67665 64.9568C9.67665 64.7991 8.91848 64.6731 7.97099 64.6731C7.02349 64.6731 6.26532 64.7991 6.26532 64.9568C6.26532 65.1129 5.93642 65.2406 5.53445 65.2406C4.60173 65.2406 3.9911 65.85 3.9911 66.7808C3.9911 67.182 3.86318 67.5102 3.70682 67.5102C3.55047 67.5102 3.42255 67.7656 3.42255 68.0777C3.42255 68.3897 3.55047 68.6451 3.70682 68.6451C3.86318 68.6451 3.9911 69.0281 3.9911 69.4962C3.9911 69.9643 4.11903 70.3474 4.27538 70.3474C4.43173 70.3474 4.55966 70.5746 4.55966 70.8521C4.55966 71.1298 4.81551 71.5409 5.12821 71.7659C5.44092 71.9909 5.69677 72.3464 5.69677 72.5563C5.69677 72.766 6.33639 73.5592 7.11816 74.3193C7.89992 75.0793 8.53954 75.8403 8.53954 76.0105C8.53954 76.4826 11.0236 78.8587 11.5171 78.8587C11.7556 78.8587 11.9509 78.9863 11.9509 79.1424C11.9509 79.2984 12.2067 79.4261 12.5194 79.4261C12.8321 79.4261 13.088 79.5538 13.088 79.7098C13.088 79.8659 13.3438 79.9935 13.6565 79.9935C13.9692 79.9935 14.2251 80.1212 14.2251 80.2772C14.2251 80.4333 14.6089 80.5609 15.0779 80.5609C15.547 80.5609 15.9308 80.6886 15.9308 80.8447C15.9308 81.0007 16.1866 81.1284 16.4993 81.1284C16.812 81.1284 17.0679 81.256 17.0679 81.4121C17.0679 81.5681 17.4516 81.6958 17.9207 81.6958C18.3898 81.6958 18.7735 81.8235 18.7735 81.9795C18.7735 82.1355 19.0294 82.2632 19.3421 82.2632C19.6548 82.2632 19.9106 82.3909 19.9106 82.5469C19.9106 82.703 20.2944 82.8306 20.7635 82.8306C21.2325 82.8306 21.6163 82.9583 21.6163 83.1143C21.6163 83.2704 21.8722 83.3981 22.1849 83.3981C22.4976 83.3981 22.7534 83.5257 22.7534 83.6818C22.7534 83.8378 23.0093 83.9655 23.322 83.9655C23.6347 83.9655 23.8905 84.0931 23.8905 84.2492C23.8905 84.4052 24.1464 84.5329 24.4591 84.5329C24.7718 84.5329 25.0276 84.6606 25.0276 84.8166C25.0276 84.9726 25.2835 85.1003 25.5962 85.1003C25.9089 85.1003 26.1648 85.228 26.1648 85.384C26.1648 85.5401 26.3691 85.6677 26.6193 85.6677C26.8692 85.6677 27.4323 86.0507 27.8704 86.5189C28.3085 86.987 28.8088 87.37 28.9822 87.37C29.3777 87.37 36.3987 94.3527 36.3987 94.7459C36.3987 95.1709 45.1431 103.825 45.5727 103.825C45.7739 103.825 46.123 104.081 46.3485 104.393C46.5739 104.705 46.9577 104.96 47.2013 104.96C47.4449 104.96 47.8287 105.215 48.0541 105.527C48.2796 105.84 48.6403 106.095 48.8558 106.095C49.071 106.095 49.606 106.478 50.0441 106.946C50.4821 107.414 50.9913 107.797 51.1755 107.797C51.555 107.797 53.7397 109.981 53.7397 110.361C53.7397 110.497 54.0595 110.928 54.4504 111.318C54.8413 111.708 55.1611 112.224 55.1611 112.466C55.1611 112.707 55.289 112.904 55.4453 112.904C55.8675 112.904 55.7893 113.736 55.3234 114.201C54.8643 114.659 52.8868 114.758 52.8868 114.323C52.8868 114.166 52.2472 114.039 51.4655 114.039C50.6837 114.039 50.0441 113.911 50.0441 113.755C50.0441 113.599 49.6603 113.471 49.1912 113.471C48.7222 113.471 48.3384 113.344 48.3384 113.188C48.3384 113.032 47.9546 112.904 47.4856 112.904C47.0165 112.904 46.6327 112.776 46.6327 112.62C46.6327 112.464 46.3769 112.337 46.0642 112.337C45.7515 112.337 45.4956 112.209 45.4956 112.053C45.4956 111.897 45.2398 111.769 44.9271 111.769C44.6144 111.769 44.3585 111.641 44.3585 111.485C44.3585 111.329 44.1027 111.202 43.79 111.202C43.4773 111.202 43.2214 111.074 43.2214 110.918C43.2214 110.762 42.9656 110.634 42.6529 110.634C42.3401 110.634 42.0843 110.507 42.0843 110.351C42.0843 110.195 41.8284 110.067 41.5157 110.067C41.203 110.067 40.9472 109.939 40.9472 109.783C40.9472 109.627 40.6913 109.499 40.3786 109.499C40.0659 109.499 39.8101 109.372 39.8101 109.216C39.8101 109.06 39.5542 108.932 39.2415 108.932C38.9288 108.932 38.673 108.804 38.673 108.648C38.673 108.492 38.4171 108.365 38.1044 108.365C37.7917 108.365 37.5359 108.237 37.5359 108.081C37.5359 107.925 37.28 107.797 36.9673 107.797C36.6546 107.797 36.3987 107.67 36.3987 107.513C36.3987 107.357 36.1429 107.23 35.8302 107.23C35.5175 107.23 35.2616 107.102 35.2616 106.946C35.2616 106.79 35.0058 106.662 34.6931 106.662C34.3804 106.662 34.1245 106.535 34.1245 106.379C34.1245 106.223 33.8968 106.095 33.6188 106.095C33.3405 106.095 32.9286 105.84 32.7031 105.527C32.4777 105.215 32.0658 104.96 31.7875 104.96C31.5095 104.96 31.2818 104.832 31.2818 104.676C31.2818 104.52 31.0259 104.393 30.7132 104.393C30.4005 104.393 30.1446 104.265 30.1446 104.109C30.1446 103.953 29.7609 103.825 29.2918 103.825C28.8227 103.825 28.439 103.698 28.439 103.542C28.439 103.385 27.7297 103.258 26.8627 103.258C25.5678 103.258 25.1613 103.382 24.5884 103.954C23.4394 105.101 23.6412 106.173 25.3119 107.797C26.0937 108.557 26.7333 109.328 26.7333 109.509C26.7333 109.691 27.1171 110.197 27.5861 110.634C28.0552 111.071 28.439 111.634 28.439 111.883C28.439 112.133 28.5669 112.337 28.7233 112.337C28.8796 112.337 29.0075 112.72 29.0075 113.188V114.039H22.1849C17.826 114.039 15.3622 114.141 15.3622 114.323C15.3622 114.479 14.9784 114.606 14.5094 114.606C14.0403 114.606 13.6565 114.734 13.6565 114.89C13.6565 115.046 13.4007 115.174 13.088 115.174C12.7753 115.174 12.5194 115.301 12.5194 115.457C12.5194 115.613 12.2917 115.741 12.0137 115.741C11.7354 115.741 11.3235 115.996 11.098 116.309C10.8726 116.621 10.4607 116.876 10.1824 116.876C9.78183 116.876 9.67665 117.112 9.67665 118.011C9.67665 118.635 9.80458 119.146 9.96093 119.146C10.1173 119.146 10.2452 119.401 10.2452 119.713C10.2452 120.025 10.3731 120.28 10.5295 120.28C10.6858 120.28 10.8138 120.478 10.8138 120.719C10.8138 121.255 12.0671 122.55 12.586 122.55C12.7929 122.55 13.1468 122.805 13.3723 123.118C13.6577 123.513 14.1083 123.685 14.8565 123.685C15.4472 123.685 15.9308 123.813 15.9308 123.969C15.9308 124.125 16.4425 124.252 17.0679 124.252C17.6933 124.252 18.205 124.125 18.205 123.969C18.205 123.811 18.9631 123.685 19.9106 123.685C20.8581 123.685 21.6163 123.559 21.6163 123.401C21.6163 123.245 21.8722 123.118 22.1849 123.118C22.4976 123.118 22.7534 122.99 22.7534 122.834C22.7534 122.678 23.1372 122.55 23.6063 122.55C24.0753 122.55 24.4591 122.422 24.4591 122.266C24.4591 122.11 24.9708 121.983 25.5962 121.983C26.2216 121.983 26.7333 121.855 26.7333 121.699C26.7333 121.537 27.5861 121.415 28.7233 121.415C29.8604 121.415 30.7132 121.294 30.7132 121.132C30.7132 120.949 33.8402 120.848 39.5258 120.848C45.2114 120.848 48.3384 120.949 48.3384 121.132C48.3384 121.288 48.978 121.415 49.7598 121.415C50.5416 121.415 51.1812 121.543 51.1812 121.699C51.1812 121.855 51.6929 121.983 52.3183 121.983C52.9437 121.983 53.4554 122.11 53.4554 122.266C53.4554 122.422 53.8392 122.55 54.3082 122.55C54.7773 122.55 55.1611 122.678 55.1611 122.834C55.1611 122.99 55.4169 123.118 55.7296 123.118C56.0423 123.118 56.2982 123.245 56.2982 123.401C56.2982 123.557 56.5259 123.685 56.8039 123.685C57.0822 123.685 57.4941 123.94 57.7196 124.252C57.945 124.564 58.2989 124.82 58.5059 124.82C58.9675 124.82 60.2781 126.09 60.2781 126.537C60.2781 126.716 60.6618 127.22 61.1309 127.657C61.6 128.094 61.9837 128.656 61.9837 128.906C61.9837 129.155 62.1117 129.359 62.268 129.359C62.4244 129.359 62.5523 129.742 62.5523 130.21C62.5523 130.678 62.6802 131.061 62.8366 131.061C62.9929 131.061 63.1208 131.317 63.1208 131.629C63.1208 131.941 63.2488 132.196 63.4051 132.196C63.5615 132.196 63.6894 132.452 63.6894 132.764C63.6894 133.076 63.8173 133.331 63.9737 133.331C64.13 133.331 64.258 133.714 64.258 134.182C64.258 134.65 64.3859 135.033 64.5422 135.033C64.6986 135.033 64.8265 135.416 64.8265 135.885C64.8265 136.353 64.9314 136.736 65.0593 136.736C65.1875 136.736 65.4664 137.374 65.6793 138.154C65.8923 138.934 66.1711 139.573 66.2994 139.573C66.4273 139.573 66.5322 139.828 66.5322 140.14C66.5322 140.452 66.6601 140.708 66.8164 140.708C66.9728 140.708 67.1007 140.963 67.1007 141.275C67.1007 141.587 67.2287 141.842 67.385 141.842C67.5414 141.842 67.6693 142.098 67.6693 142.41C67.6693 142.722 67.7972 142.977 67.9536 142.977C68.1099 142.977 68.2378 143.205 68.2378 143.482C68.2378 143.76 68.4937 144.171 68.8064 144.396C69.1191 144.621 69.3749 144.971 69.3749 145.173C69.3749 145.376 70.2065 146.371 71.2228 147.385C72.239 148.4 73.0706 149.349 73.0706 149.496C73.0706 149.911 77.5491 154.326 77.9704 154.326C78.1773 154.326 78.5307 154.581 78.7561 154.893C78.9815 155.205 79.3934 155.461 79.6718 155.461C79.9498 155.461 80.1775 155.588 80.1775 155.744C80.1775 155.9 80.4052 156.028 80.6832 156.028C80.9615 156.028 81.3735 156.283 81.5989 156.595C81.8243 156.908 82.2362 157.163 82.5145 157.163C82.7925 157.163 83.0203 157.291 83.0203 157.447C83.0203 157.603 83.2761 157.73 83.5888 157.73C83.9015 157.73 84.1574 157.858 84.1574 158.014C84.1574 158.17 84.4132 158.298 84.7259 158.298C85.0386 158.298 85.2945 158.425 85.2945 158.581C85.2945 158.737 85.6783 158.865 86.1473 158.865C86.6164 158.865 87.0002 158.993 87.0002 159.149C87.0002 159.305 87.256 159.433 87.5687 159.433C87.8814 159.433 88.1373 159.56 88.1373 159.716C88.1373 159.872 88.7149 160 89.4211 160C90.6395 160 90.8135 159.892 92.8324 157.877C94.0025 156.709 94.9599 155.611 94.9599 155.437C94.9599 155.263 95.3437 154.763 95.8128 154.326C96.2818 153.889 96.6656 153.378 96.6656 153.191C96.6656 153.004 97.0494 152.493 97.5184 152.056C97.9875 151.619 98.3713 151.111 98.3713 150.927C98.3713 150.743 98.883 150.102 99.5084 149.503C100.134 148.903 100.645 148.271 100.645 148.099C100.645 147.688 103.096 145.247 103.509 145.247C103.685 145.247 104.187 144.864 104.625 144.396C105.063 143.928 105.598 143.545 105.814 143.545C106.029 143.545 106.39 143.289 106.615 142.977C106.841 142.665 107.225 142.41 107.468 142.41C107.712 142.41 108.096 142.155 108.321 141.842C108.546 141.53 108.958 141.275 109.237 141.275C109.515 141.275 109.742 141.147 109.742 140.991C109.742 140.835 109.998 140.708 110.311 140.708C110.624 140.708 110.879 140.58 110.879 140.424C110.879 140.268 111.135 140.14 111.448 140.14C111.761 140.14 112.017 140.013 112.017 139.857C112.017 139.7 112.244 139.573 112.522 139.573C112.801 139.573 113.213 139.317 113.438 139.005C113.663 138.693 114.075 138.438 114.354 138.438C114.632 138.438 114.859 138.31 114.859 138.154C114.859 137.998 115.115 137.871 115.428 137.871C115.741 137.871 115.996 137.743 115.996 137.587C115.996 137.431 116.252 137.303 116.565 137.303C116.878 137.303 117.134 137.175 117.134 137.019C117.134 136.863 117.389 136.736 117.702 136.736C118.015 136.736 118.271 136.608 118.271 136.452C118.271 136.296 118.654 136.168 119.124 136.168C119.593 136.168 119.976 136.041 119.976 135.885C119.976 135.729 120.36 135.601 120.829 135.601C121.298 135.601 121.682 135.473 121.682 135.317C121.682 135.161 121.938 135.033 122.251 135.033C122.563 135.033 122.819 134.906 122.819 134.75C122.819 134.594 123.331 134.466 123.956 134.466C124.582 134.466 125.093 134.338 125.093 134.182C125.093 134.026 125.477 133.899 125.946 133.899C126.415 133.899 126.799 133.771 126.799 133.615C126.799 133.459 127.311 133.331 127.936 133.331C128.562 133.331 129.073 133.203 129.073 133.047C129.073 132.891 129.713 132.764 130.495 132.764C131.276 132.764 131.916 132.636 131.916 132.48C131.916 132.324 132.428 132.196 133.053 132.196C133.679 132.196 134.19 132.069 134.19 131.913C134.19 131.757 134.702 131.629 135.327 131.629C135.953 131.629 136.464 131.501 136.464 131.345C136.464 131.189 136.848 131.061 137.317 131.061C137.786 131.061 138.17 130.934 138.17 130.778C138.17 130.622 138.554 130.494 139.023 130.494C139.492 130.494 139.876 130.366 139.876 130.21C139.876 130.054 140.26 129.927 140.729 129.927C141.198 129.927 141.581 129.799 141.581 129.643C141.581 129.487 141.965 129.359 142.434 129.359C142.903 129.359 143.287 129.232 143.287 129.076C143.287 128.919 143.543 128.792 143.856 128.792C144.168 128.792 144.424 128.664 144.424 128.508C144.424 128.352 144.808 128.224 145.277 128.224C145.746 128.224 146.13 128.097 146.13 127.941C146.13 127.785 146.514 127.657 146.983 127.657C147.452 127.657 147.836 127.529 147.836 127.373C147.836 127.217 148.347 127.09 148.973 127.09C149.598 127.09 150.11 126.962 150.11 126.806C150.11 126.65 150.494 126.522 150.963 126.522C151.432 126.522 151.815 126.394 151.815 126.238C151.815 126.082 152.071 125.955 152.384 125.955C152.697 125.955 152.953 125.827 152.953 125.671C152.953 125.515 153.208 125.387 153.521 125.387C153.834 125.387 154.09 125.26 154.09 125.104C154.09 124.948 154.445 124.82 154.88 124.82C155.344 124.82 155.839 124.585 156.08 124.252C156.305 123.94 156.662 123.685 156.873 123.685C157.085 123.685 157.44 123.503 157.663 123.28C157.887 123.057 158.07 122.702 158.07 122.491C158.07 122.28 158.325 121.924 158.638 121.699C160.099 120.648 158.787 118.011 156.803 118.011C156.249 118.011 155.795 117.883 155.795 117.727C155.795 117.569 155.037 117.443 154.09 117.443C153.142 117.443 152.384 117.569 152.384 117.727C152.384 117.883 151.872 118.011 151.247 118.011C150.621 118.011 150.11 118.138 150.11 118.294C150.11 118.451 149.882 118.578 149.604 118.578C149.326 118.578 148.914 118.834 148.688 119.146C148.463 119.458 148.051 119.713 147.773 119.713C147.495 119.713 147.267 119.841 147.267 119.997C147.267 120.154 146.509 120.28 145.561 120.28H143.856V119.429C143.856 118.846 143.996 118.578 144.301 118.578C144.545 118.578 145.368 117.94 146.13 117.16C146.891 116.379 147.686 115.741 147.896 115.741C148.107 115.741 148.463 115.486 148.688 115.174C148.914 114.862 149.298 114.606 149.541 114.606C149.785 114.606 150.169 114.351 150.394 114.039C150.619 113.727 151.031 113.471 151.31 113.471C151.588 113.471 151.815 113.344 151.815 113.188C151.815 113.032 152.043 112.904 152.321 112.904C152.599 112.904 153.011 112.649 153.237 112.337C153.462 112.024 153.846 111.769 154.09 111.769C154.333 111.769 154.717 111.514 154.943 111.202C155.168 110.89 155.529 110.634 155.744 110.634C155.959 110.634 156.494 110.251 156.932 109.783C157.371 109.315 157.88 108.932 158.064 108.932C158.248 108.932 158.89 108.421 159.491 107.797C160.092 107.173 160.734 106.662 160.918 106.662C161.102 106.662 161.611 106.279 162.049 105.811C162.488 105.343 162.99 104.96 163.165 104.96C163.645 104.96 166.598 101.915 166.598 101.42C166.598 101.182 166.726 100.988 166.882 100.988C167.039 100.988 167.166 100.733 167.166 100.421C167.166 100.109 167.294 99.8533 167.451 99.8533C167.607 99.8533 167.735 99.2731 167.735 98.5638C167.735 96.6002 166.879 95.8813 164.541 95.8813C163.07 95.8813 162.669 95.9843 162.334 96.4488C162.108 96.7608 161.696 97.0162 161.418 97.0162C161.14 97.0162 160.912 97.1438 160.912 97.2999C160.912 97.4559 160.656 97.5836 160.344 97.5836C160.031 97.5836 159.775 97.7113 159.775 97.8673C159.775 98.0233 159.547 98.151 159.269 98.151C158.991 98.151 158.579 98.4064 158.354 98.7184C158.128 99.0305 157.745 99.2859 157.501 99.2859C157.257 99.2859 156.874 99.5412 156.648 99.8533C156.423 100.165 156.07 100.421 155.866 100.421C155.661 100.421 154.094 101.825 152.384 103.542C150.674 105.258 149.126 106.662 148.944 106.662C148.762 106.662 148.379 106.932 148.093 107.261C147.625 107.799 147.529 107.816 147.136 107.423C146.654 106.942 146.53 104.96 146.983 104.96C147.139 104.96 147.267 104.577 147.267 104.109C147.267 103.641 147.139 103.258 146.983 103.258C146.826 103.258 146.698 103.057 146.698 102.812C146.698 102.043 145.93 101.556 144.719 101.556C143.767 101.556 143.371 101.736 142.567 102.539C142.025 103.08 141.581 103.69 141.581 103.895C141.581 104.1 141.326 104.451 141.013 104.676C140.7 104.901 140.444 105.312 140.444 105.59C140.444 105.868 140.316 106.095 140.16 106.095C140.004 106.095 139.876 106.35 139.876 106.662C139.876 106.974 139.748 107.23 139.592 107.23C139.435 107.23 139.307 107.485 139.307 107.797C139.307 108.109 139.179 108.365 139.023 108.365C138.867 108.365 138.739 108.875 138.739 109.499C138.739 110.124 138.611 110.634 138.454 110.634C138.298 110.634 138.17 111.017 138.17 111.485C138.17 111.954 138.042 112.337 137.886 112.337C137.729 112.337 137.602 112.72 137.602 113.188C137.602 113.656 137.474 114.039 137.317 114.039C137.161 114.039 137.033 114.266 137.033 114.544C137.033 114.821 136.777 115.232 136.464 115.457C136.152 115.682 135.896 116.031 135.896 116.233C135.896 116.749 130.595 121.983 130.072 121.983C129.835 121.983 129.642 122.11 129.642 122.266C129.642 122.422 129.414 122.55 129.136 122.55C128.858 122.55 128.446 122.805 128.22 123.118C127.995 123.43 127.611 123.685 127.368 123.685C127.124 123.685 126.74 123.94 126.515 124.252C126.289 124.564 125.906 124.82 125.662 124.82C125.418 124.82 125.035 125.075 124.809 125.387C124.584 125.699 124.2 125.955 123.956 125.955C123.713 125.955 123.329 126.21 123.103 126.522C122.878 126.834 122.466 127.09 122.188 127.09C121.91 127.09 121.682 127.217 121.682 127.373C121.682 127.529 121.426 127.657 121.113 127.657C120.801 127.657 120.545 127.785 120.545 127.941C120.545 128.097 120.289 128.224 119.976 128.224C119.664 128.224 119.408 128.352 119.408 128.508C119.408 128.664 119.024 128.792 118.555 128.792C118.086 128.792 117.702 128.919 117.702 129.076C117.702 129.497 116.868 129.419 116.403 128.954C115.937 128.489 115.859 127.657 116.281 127.657C116.437 127.657 116.565 127.402 116.565 127.09C116.565 126.777 116.693 126.522 116.849 126.522C117.006 126.522 117.134 126.267 117.134 125.955C117.134 125.643 117.262 125.387 117.418 125.387C117.574 125.387 117.702 125.183 117.702 124.934C117.702 124.684 118.086 124.122 118.555 123.685C119.024 123.248 119.408 122.714 119.408 122.499C119.408 122.284 119.664 121.924 119.976 121.699C120.289 121.474 120.545 121.091 120.545 120.848C120.545 120.605 120.801 120.222 121.113 119.997C121.426 119.772 121.682 119.389 121.682 119.146C121.682 118.902 121.938 118.519 122.251 118.294C122.563 118.07 122.819 117.686 122.819 117.443C122.819 117.2 123.075 116.817 123.388 116.592C123.7 116.367 123.956 115.984 123.956 115.741C123.956 115.498 124.212 115.115 124.525 114.89C124.838 114.665 125.093 114.282 125.093 114.039C125.093 113.796 125.349 113.413 125.662 113.188C125.975 112.963 126.23 112.603 126.23 112.388C126.23 112.173 126.614 111.639 127.083 111.202C127.552 110.765 127.936 110.265 127.936 110.092C127.936 109.686 133.8 103.825 134.205 103.825C134.374 103.825 135.134 103.187 135.896 102.407C136.657 101.626 137.452 100.988 137.662 100.988C137.873 100.988 138.229 100.733 138.454 100.421C138.68 100.109 139.092 99.8533 139.37 99.8533C139.648 99.8533 139.876 99.7256 139.876 99.5696C139.876 99.4135 140.104 99.2859 140.382 99.2859C140.66 99.2859 141.072 99.0305 141.297 98.7184C141.523 98.4064 141.935 98.151 142.213 98.151C142.491 98.151 142.719 98.0233 142.719 97.8673C142.719 97.7113 142.974 97.5836 143.287 97.5836C143.6 97.5836 143.856 97.4559 143.856 97.2999C143.856 97.1438 144.112 97.0162 144.424 97.0162C144.737 97.0162 144.993 96.8885 144.993 96.7325C144.993 96.5764 145.249 96.4488 145.561 96.4488C145.874 96.4488 146.13 96.3211 146.13 96.165C146.13 96.009 146.386 95.8813 146.698 95.8813C147.011 95.8813 147.267 95.7537 147.267 95.5976C147.267 95.4416 147.523 95.3139 147.836 95.3139C148.148 95.3139 148.404 95.1862 148.404 95.0302C148.404 94.8742 148.66 94.7465 148.973 94.7465C149.285 94.7465 149.541 94.6188 149.541 94.4628C149.541 94.3067 149.797 94.1791 150.11 94.1791C150.422 94.1791 150.678 94.0514 150.678 93.8954C150.678 93.7393 150.934 93.6116 151.247 93.6116C151.56 93.6116 151.815 93.484 151.815 93.3279C151.815 93.1719 152.071 93.0442 152.384 93.0442C152.697 93.0442 152.953 92.9166 152.953 92.7605C152.953 92.6045 153.336 92.4768 153.805 92.4768C154.274 92.4768 154.658 92.3491 154.658 92.1931C154.658 92.037 155.042 91.9094 155.511 91.9094C155.98 91.9094 156.364 91.7817 156.364 91.6257C156.364 91.4696 156.592 91.342 156.87 91.342C157.148 91.342 157.56 91.0866 157.785 90.7745C158.011 90.4625 158.361 90.2071 158.565 90.2071C159.082 90.2071 162.049 87.1927 162.049 86.667C162.049 86.4295 162.177 86.2352 162.334 86.2352C162.49 86.2352 162.618 85.9798 162.618 85.6677C162.618 85.3557 162.746 85.1003 162.902 85.1003C163.059 85.1003 163.187 84.5216 163.187 83.8143C163.187 82.7248 163.036 82.3776 162.201 81.5446C161.251 80.5964 161.139 80.5609 159.074 80.5609C157.836 80.5609 156.932 80.6807 156.932 80.8447C156.932 81.0007 156.677 81.1284 156.364 81.1284C156.051 81.1284 155.795 81.256 155.795 81.4121C155.795 81.5681 155.568 81.6958 155.29 81.6958C155.011 81.6958 154.599 81.9511 154.374 82.2632C154.149 82.5753 153.796 82.8306 153.59 82.8306C153.384 82.8306 152.074 83.9797 150.678 85.384C149.283 86.7884 147.973 87.9374 147.767 87.9374C147.561 87.9374 147.208 88.1928 146.983 88.5048C146.757 88.8169 146.345 89.0723 146.067 89.0723C145.789 89.0723 145.561 89.1999 145.561 89.356C145.561 89.512 145.305 89.6397 144.993 89.6397C144.68 89.6397 144.424 89.7674 144.424 89.9234C144.424 90.0794 144.04 90.2071 143.571 90.2071C143.102 90.2071 142.719 90.3348 142.719 90.4908C142.719 90.6469 142.335 90.7745 141.866 90.7745C141.06 90.7745 141.013 90.7115 141.013 89.6397C141.013 89.0155 141.141 88.5048 141.297 88.5048C141.454 88.5048 141.581 88.1218 141.581 87.6537C141.581 87.1856 141.709 86.8026 141.866 86.8026C142.022 86.8026 142.15 86.5753 142.15 86.2978C142.15 86.0201 142.406 85.609 142.719 85.384C143.031 85.159 143.287 84.776 143.287 84.5329C143.287 84.2898 143.543 83.9067 143.856 83.6818C144.168 83.4568 144.424 83.0457 144.424 82.7679C144.424 82.4905 144.552 82.2632 144.709 82.2632C144.865 82.2632 144.993 82.0359 144.993 81.7585C144.993 81.4807 145.249 81.0696 145.561 80.8447C145.874 80.6197 146.13 80.2367 146.13 79.9935C146.13 79.7504 146.386 79.3674 146.698 79.1424C147.011 78.9174 147.267 78.5574 147.267 78.3423C147.267 78.1276 147.651 77.5936 148.12 77.1564C148.589 76.7192 148.973 76.2085 148.973 76.0216C148.973 75.8346 149.356 75.3239 149.826 74.8867C150.295 74.4495 150.678 73.9493 150.678 73.7754C150.678 73.332 154.852 69.2125 155.302 69.2125C155.504 69.2125 155.854 68.9572 156.08 68.6451C156.305 68.333 156.717 68.0777 156.995 68.0777C157.273 68.0777 157.501 67.95 157.501 67.794C157.501 67.6379 157.757 67.5102 158.07 67.5102C158.382 67.5102 158.638 67.3826 158.638 67.2265C158.638 67.0705 158.894 66.9428 159.207 66.9428C159.519 66.9428 159.775 66.8152 159.775 66.6591C159.775 66.5031 160.031 66.3754 160.344 66.3754C160.656 66.3754 160.912 66.2477 160.912 66.0917C160.912 65.9356 161.296 65.808 161.765 65.808C162.234 65.808 162.618 65.6803 162.618 65.5243C162.618 65.3682 162.874 65.2406 163.187 65.2406C163.499 65.2406 163.755 65.1129 163.755 64.9568C163.755 64.8008 164.267 64.6731 164.892 64.6731C165.518 64.6731 166.029 64.5455 166.029 64.3894C166.029 64.2334 166.541 64.1057 167.166 64.1057C167.792 64.1057 168.304 63.978 168.304 63.822C168.304 63.666 168.687 63.5383 169.156 63.5383C169.625 63.5383 170.009 63.4106 170.009 63.2546C170.009 63.0985 170.393 62.9709 170.862 62.9709C171.331 62.9709 171.715 62.8432 171.715 62.6872C171.715 62.5311 171.971 62.4034 172.283 62.4034C172.596 62.4034 172.852 62.2758 172.852 62.1197C172.852 61.9637 173.108 61.836 173.421 61.836C173.733 61.836 173.989 61.7084 173.989 61.5523C173.989 61.3963 174.19 61.2686 174.436 61.2686C175.01 61.2686 175.695 60.5854 175.695 60.0121C175.695 59.7669 175.823 59.5663 175.979 59.5663C176.135 59.5663 176.263 58.9876 176.263 58.2803C176.263 57.1908 176.112 56.8436 175.278 56.0106C174.339 55.0741 172.852 54.6448 172.852 55.3107C172.852 55.4684 172.094 55.5944 171.146 55.5944C169.63 55.5944 169.441 55.5314 169.441 55.027C169.441 54.7149 169.569 54.4595 169.725 54.4595C169.881 54.4595 170.009 54.2042 170.009 53.8921C170.009 53.5372 170.199 53.3247 170.515 53.3247C170.793 53.3247 171.205 53.0694 171.431 52.7573C171.656 52.4452 172.012 52.1899 172.223 52.1899C172.433 52.1899 173.228 51.5515 173.989 50.7713C174.751 49.9911 175.513 49.3527 175.684 49.3527C176.093 49.3527 178.538 46.9052 178.538 46.4952C178.538 46.3196 178.921 45.818 179.39 45.3808C179.859 44.9436 180.243 44.4096 180.243 44.1949C180.243 43.9798 180.499 43.6198 180.812 43.3948C181.124 43.1698 181.38 42.7588 181.38 42.481C181.38 42.2035 181.508 41.9763 181.665 41.9763C181.832 41.9763 181.949 40.979 181.949 39.5519C181.949 37.356 181.883 37.0618 181.251 36.4311C180.663 35.8444 180.281 35.7346 178.825 35.7346C177.232 35.7346 177.02 35.8115 176.112 36.7183C175.57 37.259 175.126 37.8974 175.126 38.1368C175.126 38.376 174.998 38.5717 174.842 38.5717C174.686 38.5717 174.558 38.7757 174.558 39.0254C174.558 39.2748 174.174 39.8368 173.705 40.274C173.236 40.7112 172.852 41.2732 172.852 41.5226C172.852 42.0832 172.648 42.0969 172.121 41.5709C171.647 41.0985 171.54 37.4369 171.999 37.4369C172.173 37.4369 172.283 36.1128 172.283 34.0324C172.283 31.9519 172.173 30.6278 171.999 30.6278C171.843 30.6278 171.715 30.2996 171.715 29.8984C171.715 28.1073 169.704 27.793 168.152 29.3418C167.61 29.8825 167.166 30.5209 167.166 30.7603C167.166 30.9995 167.039 31.1953 166.882 31.1953C166.726 31.1953 166.598 31.4506 166.598 31.7627C166.598 32.0748 166.47 32.3301 166.314 32.3301C166.157 32.3301 166.029 32.5854 166.029 32.8975C166.029 33.2096 165.901 33.4649 165.745 33.4649C165.589 33.4649 165.461 33.9756 165.461 34.5998C165.461 35.2239 165.333 35.7346 165.176 35.7346C165.02 35.7346 164.892 36.2453 164.892 36.8695C164.892 37.4936 164.764 38.0043 164.608 38.0043C164.433 38.0043 164.324 39.4229 164.324 41.6926C164.324 43.9622 164.214 45.3808 164.039 45.3808C163.883 45.3808 163.755 45.7638 163.755 46.2319C163.755 46.7001 163.627 47.0831 163.471 47.0831C163.314 47.0831 163.187 47.287 163.187 47.5367C163.187 47.7861 162.803 48.3481 162.334 48.7853C161.865 49.2225 161.481 49.7216 161.481 49.8941C161.481 50.3752 150.456 61.2686 149.969 61.2686C149.636 61.2686 149.541 60.8935 149.541 59.5663C149.541 58.6207 149.667 57.8641 149.826 57.8641C149.982 57.8641 150.11 57.4811 150.11 57.0129C150.11 56.5448 150.238 56.1618 150.394 56.1618C150.55 56.1618 150.678 55.7788 150.678 55.3107C150.678 54.8426 150.806 54.4595 150.963 54.4595C151.119 54.4595 151.247 54.0765 151.247 53.6084C151.247 53.1403 151.375 52.7573 151.531 52.7573C151.688 52.7573 151.815 52.3743 151.815 51.9061C151.815 51.438 151.943 51.055 152.1 51.055C152.256 51.055 152.384 50.5443 152.384 49.9202C152.384 49.296 152.512 48.7853 152.668 48.7853C152.834 48.7853 152.953 47.8397 152.953 46.5156C152.953 45.1916 152.834 44.246 152.668 44.246C152.512 44.246 152.384 43.9225 152.384 43.5273C152.384 42.4748 150.653 40.8414 149.538 40.8414C148.593 40.8414 147.267 41.9104 147.267 42.6728C147.267 42.9139 147.139 43.1111 146.983 43.1111C146.826 43.1111 146.698 43.4941 146.698 43.9622C146.698 44.4304 146.571 44.8134 146.414 44.8134C146.258 44.8134 146.13 45.1964 146.13 45.6645C146.13 46.1326 146.002 46.5156 145.846 46.5156C145.689 46.5156 145.561 46.8382 145.561 47.2323C145.561 47.7041 145.122 48.3878 144.276 49.2322C143.142 50.3642 142.941 50.466 142.57 50.0961C142.339 49.8657 142.15 49.4765 142.15 49.231C142.15 48.9859 142.022 48.7853 141.866 48.7853C141.709 48.7853 141.581 48.53 141.581 48.2179C141.581 47.9058 141.454 47.6505 141.297 47.6505C141.141 47.6505 141.013 47.3951 141.013 47.0831C141.013 46.771 140.885 46.5156 140.729 46.5156C140.572 46.5156 140.444 46.1607 140.444 45.7272C140.444 45.2642 140.21 44.77 139.876 44.5297C139.563 44.3047 139.307 43.8936 139.307 43.6158C139.307 43.3004 139.094 43.1111 138.739 43.1111C138.426 43.1111 138.17 42.9834 138.17 42.8274C138.17 42.6714 137.914 42.5437 137.602 42.5437C137.289 42.5437 137.033 42.6714 137.033 42.8274C137.033 42.9834 136.832 43.1111 136.586 43.1111C136.012 43.1111 135.327 43.7943 135.327 44.3677C135.327 44.6128 135.199 44.8134 135.043 44.8134C134.874 44.8134 134.759 45.8537 134.759 47.3668C134.759 48.8798 134.874 49.9202 135.043 49.9202C135.199 49.9202 135.327 50.4308 135.327 51.055C135.327 51.6792 135.455 52.1899 135.612 52.1899C135.768 52.1899 135.896 52.5729 135.896 53.041C135.896 53.5091 136.024 53.8921 136.18 53.8921C136.337 53.8921 136.464 54.2751 136.464 54.7433C136.464 55.2114 136.592 55.5944 136.749 55.5944C136.905 55.5944 137.033 56.1051 137.033 56.7292C137.033 57.3534 137.161 57.8641 137.317 57.8641C137.48 57.8641 137.602 58.7152 137.602 59.85C137.602 60.9849 137.724 61.836 137.886 61.836C138.064 61.836 138.17 63.6328 138.17 66.6591C138.17 69.6855 138.064 71.4822 137.886 71.4822C137.729 71.4822 137.602 72.1205 137.602 72.9007C137.602 73.6809 137.474 74.3193 137.317 74.3193C137.161 74.3193 137.033 74.83 137.033 75.4541C137.033 76.0783 136.905 76.589 136.749 76.589C136.592 76.589 136.464 76.972 136.464 77.4401C136.464 77.9082 136.337 78.2913 136.18 78.2913C136.024 78.2913 135.896 78.6743 135.896 79.1424C135.896 79.6105 135.768 79.9935 135.612 79.9935C135.455 79.9935 135.327 80.3765 135.327 80.8447C135.327 81.3128 135.199 81.6958 135.043 81.6958C134.887 81.6958 134.759 81.9511 134.759 82.2632C134.759 82.5753 134.631 82.8306 134.475 82.8306C134.318 82.8306 134.19 83.086 134.19 83.3981C134.19 83.7101 134.062 83.9655 133.906 83.9655C133.75 83.9655 133.622 84.2208 133.622 84.5329C133.622 84.845 133.494 85.1003 133.337 85.1003C133.181 85.1003 133.053 85.3557 133.053 85.6677C133.053 85.9798 132.925 86.2352 132.769 86.2352C132.612 86.2352 132.485 86.4905 132.485 86.8026C132.485 87.1147 132.357 87.37 132.2 87.37C132.044 87.37 131.916 87.6253 131.916 87.9374C131.916 88.2495 131.788 88.5048 131.632 88.5048C131.475 88.5048 131.347 88.7602 131.347 89.0723C131.347 89.3844 131.22 89.6397 131.063 89.6397C130.907 89.6397 130.779 89.895 130.779 90.2071C130.779 90.5192 130.651 90.7745 130.495 90.7745C130.338 90.7745 130.21 91.1575 130.21 91.6257C130.21 92.0938 130.082 92.4768 129.926 92.4768C129.77 92.4768 129.642 92.7321 129.642 93.0442C129.642 93.3563 129.514 93.6116 129.358 93.6116C129.201 93.6116 129.073 93.867 129.073 94.1791C129.073 94.4911 128.945 94.7465 128.789 94.7465C128.633 94.7465 128.505 95.0018 128.505 95.3139C128.505 95.626 128.377 95.8813 128.22 95.8813C128.064 95.8813 127.936 96.1367 127.936 96.4488C127.936 96.7608 127.808 97.0162 127.652 97.0162C127.495 97.0162 127.368 97.2715 127.368 97.5836C127.368 97.8957 127.24 98.151 127.083 98.151C126.927 98.151 126.799 98.4064 126.799 98.7184C126.799 99.0305 126.671 99.2859 126.515 99.2859C126.358 99.2859 126.23 99.5412 126.23 99.8533C126.23 100.165 126.103 100.421 125.946 100.421C125.79 100.421 125.662 100.676 125.662 100.988C125.662 101.3 125.534 101.556 125.378 101.556C125.221 101.556 125.093 101.939 125.093 102.407C125.093 102.875 124.965 103.258 124.809 103.258C124.653 103.258 124.525 103.513 124.525 103.825C124.525 104.137 124.397 104.393 124.241 104.393C124.084 104.393 123.956 104.62 123.956 104.897C123.956 105.175 123.7 105.586 123.388 105.811C123.075 106.036 122.819 106.396 122.819 106.611C122.819 106.826 122.435 107.36 121.966 107.797C121.497 108.234 121.113 108.737 121.113 108.914C121.113 109.09 120.67 109.677 120.128 110.218C119.054 111.29 117.712 111.536 116.971 110.796C116.485 110.312 116.373 104.393 116.849 104.393C117.006 104.393 117.134 103.882 117.134 103.258C117.134 102.634 117.262 102.123 117.418 102.123C117.574 102.123 117.702 101.485 117.702 100.704C117.702 99.9242 117.83 99.2859 117.986 99.2859C118.143 99.2859 118.271 98.6475 118.271 97.8673C118.271 97.0871 118.399 96.4488 118.555 96.4488C118.711 96.4488 118.839 95.8104 118.839 95.0302C118.839 94.25 118.967 93.6116 119.124 93.6116C119.28 93.6116 119.408 93.101 119.408 92.4768C119.408 91.8526 119.536 91.342 119.692 91.342C119.848 91.342 119.976 90.9589 119.976 90.4908C119.976 90.0227 120.104 89.6397 120.261 89.6397C120.417 89.6397 120.545 89.3844 120.545 89.0723C120.545 88.7602 120.673 88.5048 120.829 88.5048C120.986 88.5048 121.113 88.2495 121.113 87.9374C121.113 87.6253 121.241 87.37 121.398 87.37C121.554 87.37 121.682 87.166 121.682 86.9163C121.682 86.667 122.066 86.1049 122.535 85.6677C123.004 85.2305 123.388 84.7241 123.388 84.5426C123.388 84.361 124.027 83.5907 124.809 82.8306C125.591 82.0706 126.23 81.3003 126.23 81.1187C126.23 80.9371 126.614 80.4307 127.083 79.9935C127.552 79.5563 127.936 79.0456 127.936 78.8587C127.936 78.6717 128.32 78.161 128.789 77.7238C129.258 77.2866 129.642 76.7785 129.642 76.5947C129.642 76.4111 130.153 75.7702 130.779 75.1704C131.404 74.5707 131.916 73.9068 131.916 73.6948C131.916 73.4829 132.172 73.1257 132.485 72.9007C132.797 72.6757 133.053 72.2647 133.053 71.9869C133.053 71.7094 133.181 71.4822 133.337 71.4822C133.494 71.4822 133.622 71.2268 133.622 70.9148C133.622 70.6027 133.75 70.3474 133.906 70.3474C134.062 70.3474 134.19 69.9643 134.19 69.4962C134.19 69.0281 134.318 68.6451 134.475 68.6451C134.631 68.6451 134.759 68.3897 134.759 68.0777C134.759 67.7656 134.887 67.5102 135.043 67.5102C135.199 67.5102 135.327 66.9996 135.327 66.3754C135.327 65.7512 135.199 65.2406 135.043 65.2406C134.887 65.2406 134.759 64.9852 134.759 64.6731C134.759 64.1815 134.569 64.1057 133.337 64.1057C132.556 64.1057 131.916 64.2334 131.916 64.3894C131.916 64.5455 131.66 64.6731 131.347 64.6731C131.035 64.6731 130.779 64.8008 130.779 64.9568C130.779 65.1129 130.551 65.2406 130.273 65.2406C129.995 65.2406 129.583 65.4959 129.358 65.808C129.132 66.1201 128.777 66.3754 128.568 66.3754C128.36 66.3754 127.436 67.1414 126.515 68.0777C124.979 69.6395 123.956 70.2063 123.956 69.4962C123.956 69.3402 124.084 69.2125 124.241 69.2125C124.397 69.2125 124.525 68.5742 124.525 67.794C124.525 67.0137 124.653 66.3754 124.809 66.3754C124.965 66.3754 125.093 65.8647 125.093 65.2406C125.093 64.6164 125.221 64.1057 125.378 64.1057C125.534 64.1057 125.662 63.8504 125.662 63.5383C125.662 63.2262 125.79 62.9709 125.946 62.9709C126.103 62.9709 126.23 62.5879 126.23 62.1197C126.23 61.6516 126.358 61.2686 126.515 61.2686C126.671 61.2686 126.799 61.0133 126.799 60.7012C126.799 60.3891 126.927 60.1338 127.083 60.1338C127.24 60.1338 127.368 59.7508 127.368 59.2826C127.368 58.8145 127.495 58.4315 127.652 58.4315C127.808 58.4315 127.936 58.1762 127.936 57.8641C127.936 57.552 128.064 57.2967 128.22 57.2967C128.377 57.2967 128.505 57.0413 128.505 56.7292C128.505 56.4171 128.633 56.1618 128.789 56.1618C128.945 56.1618 129.073 55.9065 129.073 55.5944C129.073 55.2823 129.201 55.027 129.358 55.027C129.514 55.027 129.642 54.644 129.642 54.1758C129.642 53.7077 129.77 53.3247 129.926 53.3247C130.082 53.3247 130.21 53.0694 130.21 52.7573C130.21 52.4452 130.338 52.1899 130.495 52.1899C130.651 52.1899 130.779 51.9345 130.779 51.6224C130.779 51.3104 130.907 51.055 131.063 51.055C131.22 51.055 131.347 50.672 131.347 50.2039C131.347 49.7358 131.475 49.3527 131.632 49.3527C131.788 49.3527 131.916 49.0974 131.916 48.7853C131.916 48.4732 132.044 48.2179 132.2 48.2179C132.357 48.2179 132.485 47.9626 132.485 47.6505C132.485 47.3384 132.612 47.0831 132.769 47.0831C132.925 47.0831 133.053 46.8277 133.053 46.5156C133.053 46.2036 133.181 45.9482 133.337 45.9482C133.494 45.9482 133.622 45.6929 133.622 45.3808C133.622 45.0687 133.75 44.8134 133.906 44.8134C134.062 44.8134 134.19 44.558 134.19 44.246C134.19 43.9339 134.318 43.6785 134.475 43.6785C134.631 43.6785 134.759 43.4232 134.759 43.1111C134.759 42.799 134.887 42.5437 135.043 42.5437C135.199 42.5437 135.327 42.3164 135.327 42.0389C135.327 41.7612 135.583 41.3501 135.896 41.1251C136.209 40.9001 136.464 40.5171 136.464 40.274C136.464 40.0309 136.72 39.6478 137.033 39.4229C137.346 39.1979 137.602 38.8481 137.602 38.6458C137.602 38.166 141.175 34.5998 141.656 34.5998C141.858 34.5998 142.209 34.3444 142.434 34.0324C142.66 33.7203 143.043 33.4649 143.287 33.4649C143.531 33.4649 143.915 33.2096 144.14 32.8975C144.365 32.5854 144.749 32.3301 144.993 32.3301C145.236 32.3301 145.62 32.0748 145.846 31.7627C146.071 31.4506 146.483 31.1953 146.761 31.1953C147.039 31.1953 147.267 31.0676 147.267 30.9115C147.267 30.7555 147.495 30.6278 147.773 30.6278C148.051 30.6278 148.463 30.3725 148.688 30.0604C148.914 29.7483 149.264 29.493 149.467 29.493C149.984 29.493 153.521 25.9086 153.521 25.3846C153.521 25.1474 153.649 24.9536 153.805 24.9536C153.963 24.9536 154.09 24.197 154.09 23.2513C154.09 21.7383 154.027 21.5491 153.521 21.5491C153.208 21.5491 152.953 21.4214 152.953 21.2654C152.953 21.1093 152.697 20.9817 152.384 20.9817C152.071 20.9817 151.815 21.1093 151.815 21.2654C151.815 21.4214 151.304 21.5491 150.678 21.5491C150.053 21.5491 149.541 21.6768 149.541 21.8328C149.541 21.9888 149.314 22.1165 149.035 22.1165C148.757 22.1165 148.345 22.3718 148.12 22.6839C147.894 22.996 147.534 23.2513 147.318 23.2513C147.103 23.2513 146.568 23.6344 146.13 24.1025C144.987 25.3233 144.424 25.2297 144.424 23.8188C144.424 23.1946 144.552 22.6839 144.709 22.6839C144.865 22.6839 144.993 22.4567 144.993 22.1792C144.993 21.9015 145.249 21.4904 145.561 21.2654C145.874 21.0404 146.13 20.6293 146.13 20.3515C146.13 20.0741 146.258 19.8468 146.414 19.8468C146.571 19.8468 146.698 19.6196 146.698 19.3421C146.698 19.0643 146.954 18.6532 147.267 18.4283C147.58 18.2033 147.836 17.8203 147.836 17.5771C147.836 17.334 148.091 16.951 148.404 16.726C148.738 16.4857 148.973 15.9915 148.973 15.5285C148.973 15.0949 149.101 14.74 149.257 14.74C149.413 14.74 149.541 14.357 149.541 13.8889C149.541 13.4208 149.413 13.0378 149.257 13.0378C149.101 13.0378 148.973 12.8372 148.973 12.5921C148.973 11.9222 148.252 11.3355 147.429 11.3355C147.027 11.3355 146.698 11.2078 146.698 11.0518C146.698 10.8957 146.059 10.7681 145.277 10.7681C144.495 10.7681 143.856 10.8957 143.856 11.0518C143.856 11.2078 143.472 11.3355 143.003 11.3355C142.534 11.3355 142.15 11.4632 142.15 11.6192C142.15 11.7752 141.949 11.9029 141.703 11.9029C141.184 11.9029 140.444 12.5682 140.444 13.0358C140.444 13.2131 139.805 13.98 139.023 14.74C138.241 15.5001 137.602 16.2933 137.602 16.503C137.602 16.7129 137.346 17.0684 137.033 17.2934C136.72 17.5184 136.464 17.9295 136.464 18.2073C136.464 18.4847 136.337 18.712 136.18 18.712C136.024 18.712 135.896 18.9392 135.896 19.2167C135.896 19.4944 135.64 19.9055 135.327 20.1305C135.015 20.3555 134.759 20.7666 134.759 21.0444C134.759 21.3218 134.631 21.5491 134.475 21.5491C134.318 21.5491 134.19 21.8044 134.19 22.1165C134.19 22.4286 134.062 22.6839 133.906 22.6839C133.75 22.6839 133.622 22.9393 133.622 23.2513C133.622 23.5634 133.494 23.8188 133.337 23.8188C133.181 23.8188 133.053 24.0741 133.053 24.3862C133.053 24.6983 132.925 24.9536 132.769 24.9536C132.612 24.9536 132.485 25.3366 132.485 25.8047C132.485 26.2729 132.357 26.6559 132.2 26.6559C132.044 26.6559 131.916 26.9112 131.916 27.2233C131.916 27.5354 131.788 27.7907 131.632 27.7907C131.475 27.7907 131.347 28.0461 131.347 28.3581C131.347 28.6702 131.22 28.9256 131.063 28.9256C130.907 28.9256 130.779 29.1528 130.779 29.4303C130.779 29.708 130.523 30.1191 130.21 30.3441C129.898 30.5691 129.642 30.9254 129.642 31.1362C129.642 31.6557 128.931 32.3301 128.383 32.3301C128.126 32.3301 127.936 32.0895 127.936 31.7627C127.936 31.4506 127.808 31.1953 127.652 31.1953C127.495 31.1953 127.368 30.9399 127.368 30.6278C127.368 30.3157 127.24 30.0604 127.083 30.0604C126.927 30.0604 126.799 29.5497 126.799 28.9256C126.799 28.3014 126.671 27.7907 126.515 27.7907C126.357 27.7907 126.23 27.0341 126.23 26.0885C126.23 25.1428 126.104 24.3862 125.946 24.3862C125.767 24.3862 125.662 22.4947 125.662 19.2794C125.662 16.0641 125.557 14.1726 125.378 14.1726C125.212 14.1726 125.093 13.227 125.093 11.9029C125.093 10.5788 124.975 9.63323 124.809 9.63323C124.653 9.63323 124.525 9.43605 124.525 9.1949C124.525 8.63882 123.263 7.36354 122.714 7.36354C122.485 7.36354 122.223 7.20409 122.132 7.0089C122 6.72519 121.933 6.72519 121.801 7.0089C121.709 7.20409 121.32 7.36354 120.935 7.36354C120.156 7.36354 118.839 8.51456 118.839 9.1949C118.839 9.43605 118.711 9.63323 118.555 9.63323C118.399 9.63323 118.271 9.88857 118.271 10.2006C118.271 10.5127 118.143 10.7681 117.986 10.7681C117.812 10.7681 117.702 12.1866 117.702 14.4563C117.702 16.726 117.593 18.1446 117.418 18.1446C117.262 18.1446 117.134 18.3999 117.134 18.712C117.134 19.0241 117.006 19.2794 116.849 19.2794C116.693 19.2794 116.565 19.5347 116.565 19.8468C116.565 20.2168 116.375 20.4142 116.02 20.4142C115.72 20.4142 115.401 20.574 115.309 20.7689C115.177 21.0526 115.11 21.0526 114.978 20.7689C114.887 20.574 114.595 20.4142 114.33 20.4142C114.065 20.4142 113.663 20.1589 113.438 19.8468C113.213 19.5347 112.852 19.2794 112.636 19.2794C112.421 19.2794 111.886 18.8964 111.448 18.4283C111.01 17.9601 110.498 17.5771 110.311 17.5771C110.124 17.5771 109.612 17.1941 109.174 16.726C108.736 16.2579 108.173 15.8749 107.923 15.8749C107.673 15.8749 107.468 15.7472 107.468 15.5912C107.468 15.4351 106.888 15.3074 106.18 15.3074C105.088 15.3074 104.74 15.4581 103.905 16.2911C102.955 17.2392 102.92 17.3513 102.92 19.4119C102.92 20.6474 103.04 21.5491 103.204 21.5491C103.36 21.5491 103.488 21.9321 103.488 22.4002C103.488 22.8683 103.616 23.2513 103.773 23.2513C103.929 23.2513 104.057 23.4786 104.057 23.7561C104.057 24.0338 104.313 24.4449 104.625 24.6699C104.938 24.8949 105.194 25.2779 105.194 25.521C105.194 25.7642 105.45 26.1472 105.762 26.3722C106.075 26.5971 106.331 26.9526 106.331 27.1626C106.331 27.3723 106.971 28.1655 107.752 28.9256C108.534 29.6856 109.174 30.4465 109.174 30.6168C109.174 31.0106 111.619 33.4649 112.011 33.4649C112.479 33.4649 121.113 42.2092 121.113 42.6833C121.113 42.9185 121.241 43.1111 121.398 43.1111C121.554 43.1111 121.682 43.3664 121.682 43.6785C121.682 43.9906 121.81 44.246 121.966 44.246C122.139 44.246 122.251 45.4753 122.251 47.3668C122.251 49.2583 122.139 50.4876 121.966 50.4876C121.81 50.4876 121.682 50.8706 121.682 51.3387C121.682 51.8068 121.554 52.1899 121.398 52.1899C121.241 52.1899 121.113 52.5729 121.113 53.041C121.113 53.5091 120.986 53.8921 120.829 53.8921C120.673 53.8921 120.545 54.1194 120.545 54.3969C120.545 54.6746 120.289 55.0857 119.976 55.3107C119.664 55.5357 119.408 55.9467 119.408 56.2245C119.408 56.502 119.28 56.7292 119.124 56.7292C118.967 56.7292 118.839 56.925 118.839 57.1641C118.839 57.8791 116.949 59.5663 116.148 59.5663C115.497 59.5663 115.428 59.4568 115.428 58.4315C115.428 57.8073 115.3 57.2967 115.144 57.2967C114.967 57.2967 114.859 55.6889 114.859 53.041C114.859 50.3931 114.752 48.7853 114.575 48.7853C114.409 48.7853 114.291 47.8397 114.291 46.5156C114.291 45.1916 114.172 44.246 114.007 44.246C113.85 44.246 113.722 43.7353 113.722 43.1111C113.722 42.4869 113.594 41.9763 113.438 41.9763C113.282 41.9763 113.154 41.7209 113.154 41.4088C113.154 41.0968 113.026 40.8414 112.869 40.8414C112.713 40.8414 112.585 40.6442 112.585 40.4031C112.585 39.639 111.26 38.5717 110.311 38.5717C109.362 38.5717 108.037 39.639 108.037 40.4031C108.037 40.6442 107.909 40.8414 107.752 40.8414C107.596 40.8414 107.468 41.2244 107.468 41.6926C107.468 42.1607 107.34 42.5437 107.184 42.5437C107.006 42.5437 106.9 44.246 106.9 47.0831C106.9 49.9202 107.006 51.6224 107.184 51.6224C107.35 51.6224 107.468 52.568 107.468 53.8921C107.468 55.2162 107.587 56.1618 107.752 56.1618C107.91 56.1618 108.037 56.9185 108.037 57.8641C108.037 58.8097 108.163 59.5663 108.321 59.5663C108.479 59.5663 108.605 60.323 108.605 61.2686C108.605 62.2142 108.731 62.9709 108.89 62.9709C109.048 62.9709 109.174 63.7275 109.174 64.6731C109.174 65.6187 109.3 66.3754 109.458 66.3754C109.642 66.3754 109.742 69.7799 109.742 76.0216C109.742 82.2632 109.642 85.6677 109.458 85.6677C109.281 85.6677 109.174 87.2755 109.174 89.9234C109.174 92.5713 109.066 94.1791 108.89 94.1791C108.707 94.1791 108.605 97.0162 108.605 102.123C108.605 107.23 108.504 110.067 108.321 110.067C108.152 110.067 108.037 111.109 108.037 112.625C108.037 115.056 107.58 117.443 107.115 117.443C106.996 117.443 106.9 117.699 106.9 118.011C106.9 118.323 106.78 118.578 106.634 118.578C106.489 118.578 106.288 118.834 106.189 119.146C105.965 119.849 105.194 119.897 105.194 119.208C105.194 118.931 104.938 118.519 104.625 118.294C104.313 118.07 104.057 117.658 104.057 117.381C104.057 117.103 103.929 116.876 103.773 116.876C103.616 116.876 103.488 116.493 103.488 116.025C103.488 115.557 103.36 115.174 103.204 115.174C103.048 115.174 102.92 114.663 102.92 114.039C102.92 113.415 102.792 112.904 102.635 112.904C102.47 112.904 102.351 111.958 102.351 110.634C102.351 109.31 102.47 108.365 102.635 108.365C102.792 108.365 102.92 107.982 102.92 107.513C102.92 107.045 103.048 106.662 103.204 106.662C103.36 106.662 103.488 106.279 103.488 105.811C103.488 105.343 103.616 104.96 103.773 104.96C103.929 104.96 104.057 104.705 104.057 104.393C104.057 104.081 104.185 103.825 104.341 103.825C104.497 103.825 104.625 103.57 104.625 103.258C104.625 102.946 104.753 102.69 104.91 102.69C105.066 102.69 105.194 102.435 105.194 102.123C105.194 101.811 105.322 101.556 105.478 101.556C105.635 101.556 105.762 101.3 105.762 100.988C105.762 100.676 105.89 100.421 106.047 100.421C106.203 100.421 106.331 100.038 106.331 99.5696C106.331 99.1014 106.459 98.7184 106.615 98.7184C106.772 98.7184 106.9 97.9828 106.9 97.0789C106.9 95.7647 106.787 95.3579 106.331 95.0302C106.018 94.8052 105.762 94.4489 105.762 94.2381C105.762 93.5628 104.979 93.0442 103.959 93.0442C103.413 93.0442 102.914 93.2025 102.85 93.3963C102.767 93.6434 102.57 93.587 102.189 93.2062C101.807 92.8258 101.751 92.6291 101.998 92.5469C102.193 92.4822 102.351 92.0572 102.351 91.6021C102.351 91.147 102.479 90.7745 102.635 90.7745C102.792 90.7745 102.92 90.3915 102.92 89.9234C102.92 89.4553 103.048 89.0723 103.204 89.0723C103.36 89.0723 103.488 88.5616 103.488 87.9374C103.488 87.3133 103.616 86.8026 103.773 86.8026C103.929 86.8026 104.057 86.4196 104.057 85.9514C104.057 85.4833 104.185 85.1003 104.341 85.1003C104.497 85.1003 104.625 84.845 104.625 84.5329C104.625 84.2208 104.753 83.9655 104.91 83.9655C105.066 83.9655 105.194 83.5825 105.194 83.1143C105.194 82.6462 105.322 82.2632 105.478 82.2632C105.635 82.2632 105.762 81.7525 105.762 81.1284C105.762 80.5042 105.89 79.9935 106.047 79.9935C106.212 79.9935 106.331 79.0479 106.331 77.7238C106.331 76.3998 106.212 75.4541 106.047 75.4541C105.89 75.4541 105.762 75.0711 105.762 74.603C105.762 74.1349 105.635 73.7519 105.478 73.7519C105.322 73.7519 105.194 73.4965 105.194 73.1844C105.194 72.8724 105.066 72.617 104.91 72.617C104.753 72.617 104.625 72.3617 104.625 72.0496C104.625 71.6714 104.436 71.4822 104.057 71.4822C103.744 71.4822 103.488 71.3545 103.488 71.1985C103.488 71.0424 103.232 70.9148 102.92 70.9148C102.607 70.9148 102.351 70.7871 102.351 70.631C102.351 70.475 102.095 70.3474 101.783 70.3474C101.47 70.3474 101.214 70.475 101.214 70.631C101.214 70.7871 101.018 70.9148 100.778 70.9148C100.279 70.9148 98.3713 72.7228 98.3713 73.1952C98.3713 73.3677 98.1794 73.7002 97.9448 73.9343C97.5659 74.3125 97.471 74.3125 97.092 73.9343C96.8575 73.7002 96.6656 73.3362 96.6656 73.1254C96.6656 72.9146 96.4097 72.5583 96.097 72.3333C95.7843 72.1083 95.5285 71.752 95.5285 71.5412C95.5285 71.0473 94.8272 70.3474 94.3322 70.3474C94.121 70.3474 93.764 70.092 93.5385 69.7799C93.2531 69.3847 92.8026 69.2125 92.0543 69.2125C91.4636 69.2125 90.98 69.3402 90.98 69.4962C90.98 69.6523 90.7242 69.7799 90.4115 69.7799C90.0325 69.7799 89.8429 69.9692 89.8429 70.3474C89.8429 70.6594 89.715 70.9148 89.5587 70.9148C89.4023 70.9148 89.2744 71.4254 89.2744 72.0496C89.2744 72.6738 89.1465 73.1844 88.9901 73.1844C88.8337 73.1844 88.7058 73.5675 88.7058 74.0356C88.7058 74.5037 88.8337 74.8867 88.9901 74.8867C89.1465 74.8867 89.2744 75.3974 89.2744 76.0216C89.2744 76.6457 89.4023 77.1564 89.5587 77.1564C89.715 77.1564 89.8429 77.3837 89.8429 77.6611C89.8429 77.9389 90.0988 78.35 90.4115 78.575C90.7242 78.7999 90.98 79.211 90.98 79.4888C90.98 79.7663 91.108 79.9935 91.2643 79.9935C91.4207 79.9935 91.5486 80.2489 91.5486 80.5609C91.5486 80.873 91.6765 81.1284 91.8329 81.1284C91.9892 81.1284 92.1172 81.3837 92.1172 81.6958C92.1172 82.0079 92.2451 82.2632 92.4014 82.2632C92.5578 82.2632 92.6857 82.5185 92.6857 82.8306C92.6857 83.1427 92.8136 83.3981 92.97 83.3981C93.1263 83.3981 93.2543 83.6534 93.2543 83.9655C93.2543 84.2776 93.3822 84.5329 93.5385 84.5329C93.6949 84.5329 93.8228 84.9159 93.8228 85.384C93.8228 85.8521 93.9507 86.2352 94.1071 86.2352C94.2839 86.2352 94.3914 87.8429 94.3914 90.4908C94.3914 93.1387 94.2839 94.7465 94.1071 94.7465C93.9507 94.7465 93.8228 95.3848 93.8228 96.165C93.8228 96.9452 93.6949 97.5836 93.5385 97.5836C93.3822 97.5836 93.2543 98.2219 93.2543 99.0021C93.2543 99.7824 93.1263 100.421 92.97 100.421C92.8136 100.421 92.6857 100.931 92.6857 101.556C92.6857 102.18 92.5578 102.69 92.4014 102.69C92.2434 102.69 92.1172 103.447 92.1172 104.393C92.1172 105.338 91.9909 106.095 91.8329 106.095C91.6569 106.095 91.5486 107.608 91.5486 110.067C91.5486 112.526 91.6569 114.039 91.8329 114.039C91.9909 114.039 92.1172 114.795 92.1172 115.741C92.1172 116.687 92.2434 117.443 92.4014 117.443C92.5578 117.443 92.6857 117.826 92.6857 118.294C92.6857 118.763 92.8136 119.146 92.97 119.146C93.1263 119.146 93.2543 119.529 93.2543 119.997C93.2543 120.465 93.3822 120.848 93.5385 120.848C93.6949 120.848 93.8228 121.231 93.8228 121.699C93.8228 122.167 93.9507 122.55 94.1071 122.55C94.2634 122.55 94.3914 122.805 94.3914 123.118C94.3914 123.43 94.5193 123.685 94.6757 123.685C94.832 123.685 94.9599 124.068 94.9599 124.536C94.9599 125.004 95.0879 125.387 95.2442 125.387C95.4006 125.387 95.5285 125.77 95.5285 126.238C95.5285 126.707 95.6564 127.09 95.8128 127.09C95.9691 127.09 96.097 127.6 96.097 128.224C96.097 128.849 96.225 129.359 96.3813 129.359C96.5377 129.359 96.6656 129.998 96.6656 130.778C96.6656 131.558 96.7935 132.196 96.9499 132.196C97.1062 132.196 97.2342 132.452 97.2342 132.764C97.2342 133.076 97.1062 133.331 96.9499 133.331C96.7935 133.331 96.6656 133.97 96.6656 134.75C96.6656 135.53 96.5377 136.168 96.3813 136.168C96.225 136.168 96.097 136.424 96.097 136.736C96.097 137.048 95.9691 137.303 95.8128 137.303C95.6564 137.303 95.5285 137.686 95.5285 138.154C95.5285 138.622 95.4006 139.005 95.2442 139.005C95.0879 139.005 94.9599 139.261 94.9599 139.573C94.9599 139.885 94.832 140.14 94.6757 140.14C94.5193 140.14 94.3914 140.367 94.3914 140.645C94.3914 140.923 94.1355 141.334 93.8228 141.559C93.5101 141.784 93.2543 142.134 93.2543 142.338C93.2543 142.855 90.8058 145.247 90.2767 145.247C90.0382 145.247 89.8429 145.375 89.8429 145.531C89.8429 145.687 89.5871 145.814 89.2744 145.814C88.9617 145.814 88.7058 145.942 88.7058 146.098C88.7058 146.254 88.45 146.382 88.1373 146.382C87.8246 146.382 87.5687 146.51 87.5687 146.666C87.5687 146.823 86.8105 146.949 85.863 146.949C84.9155 146.949 84.1574 146.823 84.1574 146.666C84.1574 146.51 83.9015 146.382 83.5888 146.382C83.2099 146.382 83.0203 146.193 83.0203 145.814C83.0203 145.502 82.8923 145.247 82.736 145.247C82.5796 145.247 82.4517 144.992 82.4517 144.68C82.4517 144.368 82.3238 144.112 82.1674 144.112C82.0111 144.112 81.8832 143.857 81.8832 143.545C81.8832 143.233 82.0111 142.977 82.1674 142.977C82.3238 142.977 82.4517 142.75 82.4517 142.473C82.4517 142.195 82.7076 141.784 83.0203 141.559C83.333 141.334 83.5888 140.978 83.5888 140.768C83.5888 140.559 84.2285 139.765 85.0102 139.005C85.792 138.245 86.4316 137.478 86.4316 137.301C86.4316 136.859 87.1602 136.168 87.6278 136.168C87.8391 136.168 88.1961 135.913 88.4215 135.601C88.647 135.289 89.0077 135.033 89.2232 135.033C89.4384 135.033 89.9734 134.65 90.4115 134.182C90.8496 133.714 91.3544 133.331 91.5335 133.331C92.012 133.331 93.2543 132.009 93.2543 131.5C93.2543 131.259 93.3822 131.061 93.5385 131.061C93.6949 131.061 93.8228 130.817 93.8228 130.518C93.8228 130.219 93.9829 129.899 94.1782 129.808C94.4624 129.676 94.4624 129.61 94.1782 129.478C93.9829 129.386 93.8228 128.999 93.8228 128.617C93.8228 127.517 92.0765 125.955 90.8473 125.955C90.2949 125.955 89.8429 126.082 89.8429 126.238C89.8429 126.394 89.6428 126.522 89.3981 126.522C89.1533 126.522 88.3303 127.16 87.5687 127.941C86.1072 129.438 85.2945 129.742 85.2945 128.792C85.2945 128.48 85.1666 128.224 85.0102 128.224C84.8539 128.224 84.7259 127.841 84.7259 127.373C84.7259 126.905 84.8539 126.522 85.0102 126.522C85.1666 126.522 85.2945 126.011 85.2945 125.387C85.2945 124.763 85.4224 124.252 85.5788 124.252C85.7351 124.252 85.863 123.742 85.863 123.118C85.863 122.493 85.991 121.983 86.1473 121.983C86.3037 121.983 86.4316 121.6 86.4316 121.132C86.4316 120.663 86.5595 120.28 86.7159 120.28C86.8722 120.28 87.0002 119.897 87.0002 119.429C87.0002 118.961 87.1281 118.578 87.2844 118.578C87.4408 118.578 87.5687 118.068 87.5687 117.443C87.5687 116.819 87.6966 116.309 87.853 116.309C88.0093 116.309 88.1373 115.798 88.1373 115.174C88.1373 114.55 88.2652 114.039 88.4215 114.039C88.5839 114.039 88.7058 113.188 88.7058 112.053C88.7058 110.918 88.8278 110.067 88.9901 110.067C89.1607 110.067 89.2744 108.932 89.2744 107.23C89.2744 105.527 89.3881 104.393 89.5587 104.393C89.7383 104.393 89.8429 102.407 89.8429 99.0021C89.8429 95.5976 89.7383 93.6116 89.5587 93.6116C89.4006 93.6116 89.2744 92.855 89.2744 91.9094C89.2744 90.9638 89.1482 90.2071 88.9901 90.2071C88.8337 90.2071 88.7058 89.9518 88.7058 89.6397C88.7058 89.3276 88.5779 89.0723 88.4215 89.0723C88.2652 89.0723 88.1373 88.845 88.1373 88.5675C88.1373 88.2898 87.8814 87.8787 87.5687 87.6537C87.256 87.4287 87.0002 87.0176 87.0002 86.7399C87.0002 86.4244 86.7872 86.2352 86.4316 86.2352C86.1189 86.2352 85.863 86.1075 85.863 85.9514C85.863 85.7954 85.6072 85.6677 85.2945 85.6677C84.9818 85.6677 84.7259 85.7954 84.7259 85.9514C84.7259 86.1075 84.5284 86.2352 84.2867 86.2352C83.464 86.2352 82.4517 87.5584 82.4517 88.6339C82.4517 89.1872 82.3238 89.6397 82.1674 89.6397C81.9892 89.6397 81.8832 91.4364 81.8832 94.4628C81.8832 97.4891 81.9892 99.2859 82.1674 99.2859C82.3477 99.2859 82.4517 101.421 82.4517 105.122C82.4517 111.056 82.3303 111.769 81.322 111.769C80.8498 111.769 79.6089 110.443 79.6089 109.938C79.6089 109.697 79.481 109.499 79.3247 109.499C79.1683 109.499 79.0404 109.116 79.0404 108.648C79.0404 108.18 78.9125 107.797 78.7561 107.797C78.5998 107.797 78.4718 107.542 78.4718 107.23C78.4718 106.918 78.3439 106.662 78.1876 106.662C78.0312 106.662 77.9033 106.465 77.9033 106.224C77.9033 105.656 76.6371 104.393 76.0683 104.393C75.8266 104.393 75.6291 104.265 75.6291 104.109C75.6291 103.953 75.3732 103.825 75.0605 103.825C74.7478 103.825 74.4919 103.953 74.4919 104.109C74.4919 104.265 74.2909 104.393 74.0453 104.393C73.4708 104.393 72.7863 105.076 72.7863 105.649C72.7863 105.894 72.6584 106.095 72.502 106.095C72.3456 106.095 72.2177 106.478 72.2177 106.946C72.2177 107.414 72.3456 107.797 72.502 107.797C72.6584 107.797 72.7863 108.436 72.7863 109.216C72.7863 109.996 72.9142 110.634 73.0706 110.634C73.2269 110.634 73.3548 111.145 73.3548 111.769C73.3548 112.393 73.4828 112.904 73.6391 112.904C73.7955 112.904 73.9234 113.287 73.9234 113.755C73.9234 114.223 74.0513 114.606 74.2077 114.606C74.364 114.606 74.4919 114.989 74.4919 115.457C74.4919 115.926 74.6199 116.309 74.7762 116.309C74.9326 116.309 75.0605 116.692 75.0605 117.16C75.0605 117.628 75.1884 118.011 75.3448 118.011C75.5011 118.011 75.6291 118.394 75.6291 118.862C75.6291 119.33 75.757 119.713 75.9133 119.713C76.0697 119.713 76.1976 120.224 76.1976 120.848C76.1976 121.472 76.3255 121.983 76.4819 121.983C76.6382 121.983 76.7662 122.366 76.7662 122.834C76.7662 123.302 76.8941 123.685 77.0504 123.685C77.2085 123.685 77.3347 124.442 77.3347 125.387C77.3347 126.333 77.4609 127.09 77.619 127.09C77.7753 127.09 77.9033 127.6 77.9033 128.224C77.9033 128.849 77.7753 129.359 77.619 129.359C77.4626 129.359 77.3347 129.742 77.3347 130.21C77.3347 130.678 77.2068 131.061 77.0504 131.061C76.8941 131.061 76.7662 131.444 76.7662 131.913C76.7662 132.381 76.6382 132.764 76.4819 132.764C76.3255 132.764 76.1976 133.019 76.1976 133.331C76.1976 133.643 76.0697 133.899 75.9133 133.899C75.757 133.899 75.6291 134.154 75.6291 134.466C75.6291 134.778 75.5011 135.033 75.3448 135.033C75.1884 135.033 75.0605 135.289 75.0605 135.601C75.0605 135.921 74.8709 136.168 74.6247 136.168C74.0925 136.168 72.2177 134.346 72.2177 133.829C72.2177 133.624 71.9619 133.272 71.6492 133.047C71.3154 132.807 71.0806 132.313 71.0806 131.85C71.0806 131.416 70.9527 131.061 70.7963 131.061C70.64 131.061 70.5121 130.806 70.5121 130.494C70.5121 130.182 70.3841 129.927 70.2278 129.927C70.0714 129.927 69.9435 129.544 69.9435 129.076C69.9435 128.607 69.8156 128.224 69.6592 128.224C69.5029 128.224 69.3749 127.841 69.3749 127.373C69.3749 126.905 69.247 126.522 69.0907 126.522C68.9343 126.522 68.8064 126.011 68.8064 125.387C68.8064 124.763 68.6785 124.252 68.5221 124.252C68.3658 124.252 68.2378 123.869 68.2378 123.401C68.2378 122.933 68.1099 122.55 67.9536 122.55C67.7972 122.55 67.6693 122.167 67.6693 121.699C67.6693 121.231 67.5414 120.848 67.385 120.848C67.2287 120.848 67.1007 120.465 67.1007 119.997C67.1007 119.529 66.9728 119.146 66.8164 119.146C66.6601 119.146 66.5322 118.763 66.5322 118.294C66.5322 117.826 66.4042 117.443 66.2479 117.443C66.0915 117.443 65.9636 116.933 65.9636 116.309C65.9636 115.684 65.8357 115.174 65.6793 115.174C65.4988 115.174 65.3951 112.998 65.3951 109.216C65.3951 105.433 65.4988 103.258 65.6793 103.258C65.8357 103.258 65.9636 102.875 65.9636 102.407C65.9636 101.939 66.0915 101.556 66.2479 101.556C66.4042 101.556 66.5322 101.3 66.5322 100.988C66.5322 100.676 66.6601 100.421 66.8164 100.421C66.9728 100.421 67.1007 100.038 67.1007 99.5696C67.1007 99.1014 67.2287 98.7184 67.385 98.7184C67.5414 98.7184 67.6693 98.4631 67.6693 98.151C67.6693 97.8389 67.7972 97.5836 67.9536 97.5836C68.1099 97.5836 68.2378 97.3563 68.2378 97.0789C68.2378 96.8011 68.4937 96.39 68.8064 96.165C69.1191 95.9401 69.3749 95.529 69.3749 95.2512C69.3749 94.9738 69.5029 94.7465 69.6592 94.7465C69.8156 94.7465 69.9435 94.4911 69.9435 94.1791C69.9435 93.867 70.0714 93.6116 70.2278 93.6116C70.3841 93.6116 70.5121 93.3563 70.5121 93.0442C70.5121 92.7321 70.64 92.4768 70.7963 92.4768C70.9527 92.4768 71.0806 92.2495 71.0806 91.9721C71.0806 91.6943 71.3365 91.2832 71.6492 91.0582C71.9619 90.8333 72.2177 90.4222 72.2177 90.1444C72.2177 89.867 72.3456 89.6397 72.502 89.6397C72.6584 89.6397 72.7863 89.3844 72.7863 89.0723C72.7863 88.7602 72.9142 88.5048 73.0706 88.5048C73.2269 88.5048 73.3548 88.2495 73.3548 87.9374C73.3548 87.6253 73.4828 87.37 73.6391 87.37C73.7955 87.37 73.9234 87.1147 73.9234 86.8026C73.9234 86.4905 74.0513 86.2352 74.2077 86.2352C74.364 86.2352 74.4919 85.9798 74.4919 85.6677C74.4919 85.3557 74.6199 85.1003 74.7762 85.1003C74.9326 85.1003 75.0605 84.845 75.0605 84.5329C75.0605 84.2208 75.1884 83.9655 75.3448 83.9655C75.5011 83.9655 75.6291 83.7101 75.6291 83.3981C75.6291 83.086 75.757 82.8306 75.9133 82.8306C76.0697 82.8306 76.1976 82.6034 76.1976 82.3259C76.1976 82.0481 76.4535 81.6371 76.7662 81.4121C77.0789 81.1871 77.3347 80.776 77.3347 80.4983C77.3347 80.2208 77.4626 79.9935 77.619 79.9935C77.7753 79.9935 77.9033 79.7382 77.9033 79.4261C77.9033 79.114 78.0312 78.8587 78.1876 78.8587C78.3439 78.8587 78.4718 78.6033 78.4718 78.2913C78.4718 77.9792 78.5998 77.7238 78.7561 77.7238C78.9125 77.7238 79.0404 77.4966 79.0404 77.2191C79.0404 76.9413 79.2962 76.5303 79.6089 76.3053C79.9216 76.0803 80.1775 75.6692 80.1775 75.3914C80.1775 75.114 80.3054 74.8867 80.4618 74.8867C80.6181 74.8867 80.7461 74.6594 80.7461 74.382C80.7461 74.1042 81.0019 73.6931 81.3146 73.4682C81.6273 73.2432 81.8832 72.8602 81.8832 72.617C81.8832 72.3739 82.139 71.9909 82.4517 71.7659C82.7644 71.5409 83.0203 71.1579 83.0203 70.9148C83.0203 70.6716 83.2761 70.2886 83.5888 70.0636C83.9015 69.8387 84.1574 69.4815 84.1574 69.2695C84.1574 69.0576 84.6691 68.3937 85.2945 67.794C85.9199 67.1942 86.4316 66.5644 86.4316 66.3941C86.4316 65.9924 91.7297 60.7012 92.1319 60.7012C92.3005 60.7012 93.0612 60.0628 93.8228 59.2826C94.5844 58.5024 95.3451 57.8641 95.5134 57.8641C95.9882 57.8641 101.783 51.9671 101.783 51.484C101.783 51.2479 101.911 51.055 102.067 51.055C102.223 51.055 102.351 50.4167 102.351 49.6365C102.351 48.8563 102.223 48.2179 102.067 48.2179C101.911 48.2179 101.783 48.0207 101.783 47.7796C101.783 47.5384 101.468 47.0277 101.085 46.6447C100.512 46.0728 100.105 45.9482 98.8105 45.9482C97.9434 45.9482 97.2342 46.0759 97.2342 46.2319C97.2342 46.388 97.0064 46.5156 96.7284 46.5156C96.4501 46.5156 96.0382 46.771 95.8128 47.0831C95.5873 47.3951 95.238 47.6505 95.0364 47.6505C94.5944 47.6505 88.1373 54.0397 88.1373 54.4769C88.1373 54.9314 87.3905 55.5944 86.8782 55.5944C86.5317 55.5944 86.4316 55.2763 86.4316 54.1758C86.4316 53.3956 86.5595 52.7573 86.7159 52.7573C86.8722 52.7573 87.0002 52.5019 87.0002 52.1899C87.0002 51.8778 87.1281 51.6224 87.2844 51.6224C87.4408 51.6224 87.5687 51.3671 87.5687 51.055C87.5687 50.7429 87.6966 50.4876 87.853 50.4876C88.0093 50.4876 88.1373 50.2323 88.1373 49.9202C88.1373 49.6081 88.2652 49.3527 88.4215 49.3527C88.5779 49.3527 88.7058 49.0974 88.7058 48.7853C88.7058 48.4732 88.8337 48.2179 88.9901 48.2179C89.1465 48.2179 89.2744 47.9626 89.2744 47.6505C89.2744 47.3384 89.4023 47.0831 89.5587 47.0831C89.715 47.0831 89.8429 46.8277 89.8429 46.5156C89.8429 46.2036 89.9709 45.9482 90.1272 45.9482C90.2836 45.9482 90.4115 45.7442 90.4115 45.4946C90.4115 45.2452 90.7953 44.6831 91.2643 44.246C91.7334 43.8088 92.1172 43.2748 92.1172 43.06C92.1172 42.845 92.373 42.485 92.6857 42.26C92.9984 42.035 93.2543 41.6239 93.2543 41.3462C93.2543 41.0687 93.3822 40.8414 93.5385 40.8414C93.6949 40.8414 93.8228 40.5861 93.8228 40.274C93.8228 39.9619 93.9507 39.7066 94.1071 39.7066C94.2634 39.7066 94.3914 38.9987 94.3914 38.1334C94.3914 36.8411 94.2666 36.4354 93.6935 35.8637C93.0064 35.1777 91.5486 34.8974 91.5486 35.4509C91.5486 35.607 91.3442 35.7346 91.094 35.7346C90.8442 35.7346 90.281 36.1176 89.8429 36.5858C89.4049 37.0539 88.8957 37.4369 88.7115 37.4369C88.5276 37.4369 87.8854 37.9476 87.2844 38.5717C86.6741 39.2055 85.9222 39.7066 85.5807 39.7066C84.8635 39.7066 84.1574 39.0833 84.1574 38.45C84.1574 38.2049 84.0295 38.0043 83.8731 38.0043C83.7025 38.0043 83.5888 36.8695 83.5888 35.1672C83.5888 33.4649 83.7025 32.3301 83.8731 32.3301C84.0295 32.3301 84.1574 31.8194 84.1574 31.1953C84.1574 30.5711 84.2853 30.0604 84.4417 30.0604C84.598 30.0604 84.7259 29.5497 84.7259 28.9256C84.7259 28.3014 84.8539 27.7907 85.0102 27.7907C85.1666 27.7907 85.2945 27.5354 85.2945 27.2233C85.2945 26.9112 85.4224 26.6559 85.5788 26.6559C85.7351 26.6559 85.863 26.2729 85.863 25.8047C85.863 25.3366 85.991 24.9536 86.1473 24.9536C86.3037 24.9536 86.4316 24.5706 86.4316 24.1025C86.4316 23.6344 86.5595 23.2513 86.7159 23.2513C86.8722 23.2513 87.0002 22.996 87.0002 22.6839C87.0002 22.3718 87.1281 22.1165 87.2844 22.1165C87.4408 22.1165 87.5687 21.7335 87.5687 21.2654C87.5687 20.7972 87.6966 20.4142 87.853 20.4142C88.0093 20.4142 88.1373 20.1589 88.1373 19.8468C88.1373 19.5347 88.2652 19.2794 88.4215 19.2794C88.5779 19.2794 88.7058 18.8964 88.7058 18.4283C88.7058 17.9601 88.8337 17.5771 88.9901 17.5771C89.1465 17.5771 89.2744 17.3218 89.2744 17.0097C89.2744 16.6976 89.4023 16.4423 89.5587 16.4423C89.715 16.4423 89.8429 16.1869 89.8429 15.8749C89.8429 15.5628 89.9709 15.3074 90.1272 15.3074C90.2836 15.3074 90.4115 15.0521 90.4115 14.74C90.4115 14.4279 90.5394 14.1726 90.6958 14.1726C90.8521 14.1726 90.98 13.6619 90.98 13.0378C90.98 12.4136 91.108 11.9029 91.2643 11.9029C91.4366 11.9029 91.5486 10.6736 91.5486 8.78209C91.5486 6.89059 91.4366 5.66127 91.2643 5.66127C91.108 5.66127 90.98 5.46551 90.98 5.22634C90.98 4.98689 90.5366 4.34854 89.9944 3.80779C89.1598 2.97481 88.8118 2.82417 87.7202 2.82417C87.0115 2.82417 86.4316 2.95184 86.4316 3.10788C86.4316 3.26392 86.2306 3.39159 85.985 3.39159C85.4105 3.39159 84.7259 4.07477 84.7259 4.64815C84.7259 4.89327 84.598 5.09385 84.4417 5.09385C84.2853 5.09385 84.1574 5.47686 84.1574 5.94498C84.1574 6.41311 84.0295 6.79612 83.8731 6.79612C83.7168 6.79612 83.5888 7.05146 83.5888 7.36354C83.5888 7.67562 83.4609 7.93096 83.3045 7.93096C83.1482 7.93096 83.0203 8.1863 83.0203 8.49838C83.0203 8.81046 82.9472 9.0658 82.8579 9.0658C82.4418 9.0658 81.8832 8.18289 81.8832 7.52553C81.8832 7.12437 81.7552 6.79612 81.5989 6.79612C81.4425 6.79612 81.3146 6.41311 81.3146 5.94498C81.3146 5.47686 81.1867 5.09385 81.0303 5.09385C80.874 5.09385 80.7461 4.71084 80.7461 4.24272C80.7461 3.7746 80.6181 3.39159 80.4618 3.39159C80.3054 3.39159 80.1775 3.16434 80.1775 2.88687C80.1775 2.60911 79.9216 2.19802 79.6089 1.97303C79.2962 1.74805 79.0404 1.33695 79.0404 1.0592C79.0404 0.743711 78.8275 0.554478 78.4718 0.554478C78.1591 0.554478 77.9033 0.426808 77.9033 0.270768C77.9033 -0.16331 75.819 -0.0455781 75.4158 0.41148Z" fill="#01010E"/>
</svg>
