<svg width="186" height="160" viewBox="0 0 186 160" fill="none" xmlns="http://www.w3.org/2000/svg">
<path d="M91.1124 0.551724C91.3471 0.551724 91.5389 0.427586 91.5389 0.275862C91.5389 0.124138 91.6631 0 91.815 0C91.9668 0 92.091 0.124138 92.091 0.275862C92.091 0.427586 92.2828 0.551724 92.5175 0.551724C93.0698 0.551724 94.2993 1.78042 94.2993 2.33242C94.2993 2.5669 94.4235 2.75862 94.5753 2.75862C94.7271 2.75862 94.8513 3.0069 94.8513 3.31035C94.8513 3.61379 94.9755 3.86207 95.1274 3.86207C95.2792 3.86207 95.4034 4.11035 95.4034 4.41379C95.4034 4.71724 95.5276 4.96552 95.6794 4.96552C95.8312 4.96552 95.9555 5.58621 95.9555 6.34483C95.9555 7.10345 96.0797 7.72414 96.2315 7.72414C96.3833 7.72414 96.5075 8.22069 96.5075 8.82759C96.5075 9.43448 96.6317 9.93102 96.7836 9.93102C96.9354 9.93102 97.0596 10.4276 97.0596 11.0345C97.0596 11.6414 97.1838 12.1379 97.3356 12.1379C97.4874 12.1379 97.6117 12.3329 97.6117 12.5713C97.6117 12.8099 97.798 13.1912 98.0257 13.4187C98.3937 13.7865 98.4859 13.7865 98.8538 13.4187C99.0815 13.1912 99.2679 12.6858 99.2679 12.2954C99.2679 11.9054 99.3921 11.5862 99.5439 11.5862C99.7048 11.5862 99.8199 10.6667 99.8199 9.37929C99.8199 8.09185 99.935 7.17241 100.096 7.17241C100.248 7.17241 100.372 6.8 100.372 6.34483C100.372 5.88966 100.496 5.51724 100.648 5.51724C100.8 5.51724 100.924 5.26897 100.924 4.96552C100.924 4.66207 101.048 4.41379 101.2 4.41379C101.352 4.41379 101.476 4.22207 101.476 3.98759C101.476 3.75311 101.781 3.25656 102.154 2.88414C102.674 2.36359 103.122 2.2069 104.086 2.2069C104.776 2.2069 105.341 2.33103 105.341 2.48276C105.341 2.63448 105.589 2.75862 105.893 2.75862C106.261 2.75862 106.445 2.94262 106.445 3.31035C106.445 3.61379 106.569 3.86207 106.721 3.86207C106.878 3.86207 106.997 4.68966 106.997 5.7931C106.997 6.89655 107.115 7.72414 107.273 7.72414C107.445 7.72414 107.549 9.28743 107.549 11.8621C107.549 14.4367 107.653 16 107.825 16C107.989 16 108.101 17.0116 108.101 18.4827C108.101 19.9539 108.213 20.9655 108.377 20.9655C108.549 20.9655 108.653 22.5288 108.653 25.1034C108.653 27.6781 108.549 29.2414 108.377 29.2414C107.914 29.2414 108.024 34.9967 108.495 35.4678C108.943 35.9156 111.413 36.0157 111.413 35.5862C111.413 35.4345 111.634 35.3103 111.904 35.3103C112.175 35.3103 112.575 35.0621 112.793 34.7586C113.012 34.4552 113.385 34.2069 113.622 34.2069C113.858 34.2069 114.231 33.9586 114.45 33.6552C114.669 33.3517 115.009 33.1034 115.206 33.1034C115.708 33.1034 119.142 29.6182 119.142 29.1087C119.142 28.878 119.266 28.6896 119.418 28.6896C119.57 28.6896 119.694 28.4414 119.694 28.1379C119.694 27.8345 119.819 27.5862 119.97 27.5862C120.124 27.5862 120.246 26.8505 120.246 25.931C120.246 25.0116 120.124 24.2758 119.97 24.2758C119.819 24.2758 119.694 24.0549 119.694 23.7851C119.694 23.515 119.446 23.1153 119.142 22.8965C118.839 22.6778 118.59 22.3054 118.59 22.069C118.59 21.8325 118.342 21.4601 118.038 21.2414C117.734 21.0226 117.486 20.6229 117.486 20.3528C117.486 20.083 117.362 19.8621 117.21 19.8621C117.058 19.8621 116.934 19.6138 116.934 19.3103C116.934 19.0069 116.81 18.7586 116.658 18.7586C116.506 18.7586 116.382 18.3862 116.382 17.931C116.382 17.4758 116.258 17.1034 116.106 17.1034C115.954 17.1034 115.83 16.8825 115.83 16.6127C115.83 16.3426 115.581 15.9429 115.278 15.7241C114.974 15.5054 114.726 15.1056 114.726 14.8356C114.726 14.5658 114.602 14.3448 114.45 14.3448C114.298 14.3448 114.174 14.1465 114.174 13.9037C114.174 13.6612 113.801 13.1147 113.346 12.6896C112.89 12.2645 112.517 11.7181 112.517 11.4756C112.517 11.2328 112.393 11.0345 112.241 11.0345C112.09 11.0345 111.965 10.4703 111.965 9.78068C111.965 8.81709 112.122 8.36994 112.643 7.84966C113.016 7.47725 113.513 7.17241 113.747 7.17241C113.982 7.17241 114.174 7.04828 114.174 6.89655C114.174 6.74483 114.422 6.62069 114.726 6.62069C115.029 6.62069 115.278 6.74483 115.278 6.89655C115.278 7.04828 115.526 7.17241 115.83 7.17241C116.133 7.17241 116.382 7.29655 116.382 7.44828C116.382 7.6 116.63 7.72414 116.934 7.72414C117.256 7.72414 117.486 7.90814 117.486 8.16524C117.486 8.40772 117.859 8.95419 118.314 9.37929C118.77 9.8044 119.142 10.3236 119.142 10.5324C119.142 10.7415 119.391 11.0916 119.694 11.3103C119.998 11.5291 120.246 11.8709 120.246 12.0701C120.246 12.6502 122.105 14.3448 122.741 14.3448C123.427 14.3448 124.111 13.7346 124.111 13.123C124.111 12.8847 124.235 12.6896 124.387 12.6896C124.539 12.6896 124.663 12.3172 124.663 11.8621C124.663 11.4069 124.787 11.0345 124.939 11.0345C125.091 11.0345 125.215 10.6621 125.215 10.2069C125.215 9.75171 125.339 9.37929 125.491 9.37929C125.643 9.37929 125.767 9.06345 125.767 8.67725C125.767 8.29104 126.072 7.67035 126.445 7.29794C126.987 6.75614 127.403 6.62069 128.527 6.62069C129.651 6.62069 130.068 6.75614 130.61 7.29794C131.224 7.91118 131.288 8.19723 131.288 10.3324C131.288 11.72 131.174 12.6896 131.012 12.6896C130.86 12.6896 130.736 13.0621 130.736 13.5172C130.736 13.9724 130.611 14.3448 130.46 14.3448C130.308 14.3448 130.184 14.7172 130.184 15.1724C130.184 15.6276 130.059 16 129.908 16C129.756 16 129.632 16.3724 129.632 16.8276C129.632 17.2827 129.507 17.6552 129.355 17.6552C129.204 17.6552 129.079 18.0276 129.079 18.4827C129.079 18.9379 128.955 19.3103 128.803 19.3103C128.652 19.3103 128.527 19.8069 128.527 20.4138C128.527 21.0207 128.403 21.5172 128.251 21.5172C128.09 21.5172 127.975 22.4367 127.975 23.7241C127.975 25.0116 128.09 25.931 128.251 25.931C128.403 25.931 128.527 26.1261 128.527 26.3644C128.527 27.1407 129.275 27.5862 130.578 27.5862C131.272 27.5862 131.84 27.4621 131.84 27.3103C131.84 27.1586 132.029 27.0345 132.26 27.0345C132.806 27.0345 135.704 24.1385 135.704 23.5923C135.704 23.3614 135.828 23.1724 135.98 23.1724C136.132 23.1724 136.256 22.9241 136.256 22.6207C136.256 22.3172 136.381 22.069 136.532 22.069C136.704 22.069 136.808 20.5056 136.808 17.931C136.808 15.3564 136.913 13.7931 137.084 13.7931C137.236 13.7931 137.36 13.4207 137.36 12.9655C137.36 12.5103 137.485 12.1379 137.636 12.1379C137.788 12.1379 137.913 11.9476 137.913 11.715C137.913 10.9352 139.751 9.37929 140.673 9.37929C141.752 9.37929 143.433 10.9694 143.433 11.9909C143.433 12.3752 143.557 12.6896 143.709 12.6896C143.861 12.6896 143.985 13.0055 143.985 13.3917C143.985 14.1716 145.387 15.7958 145.575 15.2336C145.637 15.0483 145.867 14.8965 146.086 14.8965C146.543 14.8965 148.954 12.576 148.954 12.136C148.954 11.9752 149.384 11.4132 149.911 10.8874C150.692 10.1067 151.076 9.93102 152.001 9.93102C152.624 9.93102 153.311 10.1084 153.528 10.3252C153.982 10.7787 154.085 13.7931 153.646 13.7931C153.495 13.7931 153.37 14.0141 153.37 14.2838C153.37 14.5539 153.122 14.9536 152.818 15.1724C152.515 15.3912 152.266 15.7909 152.266 16.061C152.266 16.3307 152.142 16.5517 151.99 16.5517C151.838 16.5517 151.714 16.7727 151.714 17.0425C151.714 17.3125 151.466 17.7123 151.162 17.931C150.858 18.1498 150.61 18.5495 150.61 18.8196C150.61 19.0894 150.486 19.3103 150.334 19.3103C150.182 19.3103 150.058 19.6827 150.058 20.1379C150.058 20.9194 150.119 20.9655 151.162 20.9655C151.769 20.9655 152.266 21.0896 152.266 21.2414C152.266 21.3931 152.515 21.5172 152.818 21.5172C153.122 21.5172 153.37 21.3931 153.37 21.2414C153.37 21.0896 153.743 20.9655 154.198 20.9655C154.654 20.9655 155.027 21.0896 155.027 21.2414C155.027 21.3972 155.811 21.5172 156.828 21.5172C158.593 21.5172 158.654 21.5418 159.864 22.7514C160.963 23.8494 161.099 24.123 161.099 25.2342C161.099 25.9208 160.975 26.4827 160.823 26.4827C160.671 26.4827 160.547 26.6778 160.547 26.9161C160.547 27.4736 159.883 28.1379 159.325 28.1379C159.086 28.1379 158.891 28.2621 158.891 28.4138C158.891 28.5655 158.643 28.6896 158.339 28.6896C158.035 28.6896 157.787 28.8138 157.787 28.9655C157.787 29.1172 157.414 29.2414 156.959 29.2414C156.503 29.2414 156.131 29.3655 156.131 29.5172C156.131 29.6932 153.831 29.7931 149.782 29.7931C145.733 29.7931 143.433 29.893 143.433 30.069C143.433 30.2207 143.061 30.3448 142.605 30.3448C141.961 30.3448 141.777 30.4673 141.777 30.8965C141.777 31.5098 142.194 31.6392 142.444 31.1034C142.573 30.8276 142.637 30.8276 142.766 31.1034C142.881 31.3484 143.8 31.4483 145.94 31.4483C147.765 31.4483 148.954 31.557 148.954 31.7241C148.954 31.8758 149.146 32 149.38 32C149.933 32 151.162 33.2287 151.162 33.7807C151.162 34.0152 151.286 34.2069 151.438 34.2069C151.59 34.2069 151.714 34.6455 151.714 35.1815C151.714 35.9261 151.488 36.3823 150.757 37.1125C150.231 37.6386 149.61 38.069 149.377 38.069C149.144 38.069 148.954 38.1931 148.954 38.3448C148.954 38.5084 147.942 38.6207 146.47 38.6207C144.997 38.6207 143.985 38.5084 143.985 38.3448C143.985 38.1931 143.488 38.069 142.881 38.069C142.274 38.069 141.777 37.9448 141.777 37.7931C141.777 37.6414 141.28 37.5172 140.673 37.5172C140.066 37.5172 139.569 37.3931 139.569 37.2414C139.569 37.0896 139.072 36.9655 138.465 36.9655C137.857 36.9655 137.36 36.8414 137.36 36.6896C137.36 36.5379 136.864 36.4138 136.256 36.4138C135.649 36.4138 135.152 36.2896 135.152 36.1379C135.152 35.9845 134.416 35.8621 133.496 35.8621C132.576 35.8621 131.84 35.7396 131.84 35.5862C131.84 35.4287 131.012 35.3103 129.908 35.3103C128.803 35.3103 127.975 35.4287 127.975 35.5862C127.975 35.7396 127.239 35.8621 126.319 35.8621C125.399 35.8621 124.663 35.9845 124.663 36.1379C124.663 36.2896 124.166 36.4138 123.559 36.4138C122.952 36.4138 122.455 36.5379 122.455 36.6896C122.455 36.8414 122.082 36.9655 121.627 36.9655C121.171 36.9655 120.798 37.0896 120.798 37.2414C120.798 37.3931 120.426 37.5172 119.97 37.5172C119.515 37.5172 119.142 37.6414 119.142 37.7931C119.142 37.9448 118.894 38.069 118.59 38.069C118.287 38.069 118.038 38.1931 118.038 38.3448C118.038 38.4965 117.693 38.6207 117.271 38.6207C116.821 38.6207 116.34 38.8485 116.106 39.1724C115.887 39.4758 115.487 39.7241 115.217 39.7241C114.947 39.7241 114.726 39.8483 114.726 40C114.726 40.1517 114.505 40.2758 114.235 40.2758C113.964 40.2758 113.564 40.5241 113.346 40.8276C113.127 41.131 112.776 41.3793 112.567 41.3793C112.358 41.3793 111.839 41.7517 111.413 42.2069C110.988 42.6621 110.501 43.0345 110.332 43.0345C109.901 43.0345 105.893 47.0849 105.893 47.5208C105.893 47.7175 105.644 48.0571 105.341 48.2758C105.037 48.4946 104.789 48.8943 104.789 49.1644C104.789 49.4342 104.664 49.6552 104.512 49.6552C104.361 49.6552 104.236 49.9034 104.236 50.2069C104.236 50.5103 104.112 50.7586 103.96 50.7586C103.809 50.7586 103.684 51.131 103.684 51.5862C103.684 52.0414 103.56 52.4138 103.408 52.4138C103.257 52.4138 103.132 53.0345 103.132 53.7931C103.132 54.5517 103.008 55.1724 102.856 55.1724C102.695 55.1724 102.58 56.0919 102.58 57.3793C102.58 58.6667 102.695 59.5862 102.856 59.5862C103.008 59.5862 103.132 59.8345 103.132 60.1379C103.132 60.5672 103.316 60.6896 103.96 60.6896C104.416 60.6896 104.789 60.5655 104.789 60.4138C104.789 60.2621 104.979 60.1379 105.212 60.1379C105.7 60.1379 107.549 58.3782 107.549 57.9131C107.549 57.7412 107.922 57.2527 108.377 56.8276C108.832 56.4025 109.205 55.856 109.205 55.6135C109.205 55.3707 109.329 55.1724 109.481 55.1724C109.633 55.1724 109.757 54.9514 109.757 54.6816C109.757 54.4116 110.006 54.0119 110.309 53.7931C110.613 53.5743 110.861 53.1746 110.861 52.9046C110.861 52.6348 110.985 52.4138 111.137 52.4138C111.289 52.4138 111.413 52.1655 111.413 51.8621C111.413 51.5586 111.538 51.3103 111.689 51.3103C111.841 51.3103 111.965 51.0894 111.965 50.8196C111.965 50.5495 112.214 50.1498 112.517 49.931C112.821 49.7123 113.07 49.3705 113.07 49.1713C113.07 48.6684 114.89 46.8965 115.407 46.8965C115.639 46.8965 115.83 46.7724 115.83 46.6207C115.83 46.469 116.202 46.3448 116.658 46.3448C117.113 46.3448 117.486 46.469 117.486 46.6207C117.486 46.7724 117.734 46.8965 118.038 46.8965C118.516 46.8965 118.59 47.0805 118.59 48.2758C118.59 49.0345 118.466 49.6552 118.314 49.6552C118.162 49.6552 118.038 50.0276 118.038 50.4827C118.038 50.9379 117.914 51.3103 117.762 51.3103C117.61 51.3103 117.486 51.5586 117.486 51.8621C117.486 52.1655 117.362 52.4138 117.21 52.4138C117.058 52.4138 116.934 52.6621 116.934 52.9655C116.934 53.8896 117.723 53.5939 119.142 52.1379C119.882 51.3793 120.681 50.7586 120.919 50.7586C121.156 50.7586 121.351 50.6345 121.351 50.4827C121.351 50.331 121.723 50.2069 122.179 50.2069C122.634 50.2069 123.007 50.331 123.007 50.4827C123.007 50.6345 123.255 50.7586 123.559 50.7586C123.927 50.7586 124.111 50.9426 124.111 51.3103C124.111 51.6138 124.235 51.8621 124.387 51.8621C124.539 51.8621 124.663 52.1103 124.663 52.4138C124.663 52.7172 124.539 52.9655 124.387 52.9655C124.235 52.9655 124.111 53.3379 124.111 53.7931C124.111 54.2483 123.987 54.6207 123.835 54.6207C123.683 54.6207 123.559 54.9658 123.559 55.3873C123.559 55.8375 123.331 56.3181 123.007 56.5517C122.703 56.7705 122.455 57.117 122.455 57.3219C122.455 57.8022 121.774 58.4827 121.293 58.4827C121.088 58.4827 120.741 58.731 120.522 59.0345C120.304 59.3379 119.953 59.5862 119.744 59.5862C119.535 59.5862 119.016 59.9586 118.59 60.4138C118.165 60.869 117.677 61.2414 117.506 61.2414C116.96 61.2414 114.726 63.688 114.726 64.2866C114.726 64.6157 115.318 65.4403 116.106 66.2069C117.319 67.3876 117.486 67.6874 117.486 68.6808C117.486 69.603 117.31 69.9878 116.529 70.7677C115.941 71.3556 115.303 71.7241 114.873 71.7241C114.488 71.7241 114.174 71.8483 114.174 72C114.174 72.1517 113.801 72.2759 113.346 72.2759C112.89 72.2759 112.517 72.4 112.517 72.5517C112.517 72.7092 111.689 72.8276 110.585 72.8276C109.481 72.8276 108.653 72.7092 108.653 72.5517C108.653 72.3881 107.641 72.2759 106.169 72.2759C104.697 72.2759 103.684 72.1636 103.684 72C103.684 71.8483 103.436 71.7241 103.132 71.7241C102.829 71.7241 102.58 71.8483 102.58 72C102.58 72.1517 102.235 72.2759 101.813 72.2759C101.363 72.2759 100.882 72.5037 100.648 72.8276C100.429 73.131 100.088 73.3793 99.8898 73.3793C99.4208 73.3793 97.0596 75.739 97.0596 76.2077C97.0596 76.4058 96.8112 76.7467 96.5075 76.9655C96.2039 77.1843 95.9555 77.5567 95.9555 77.7931C95.9555 78.0295 95.707 78.4019 95.4034 78.6207C95.0998 78.8394 94.8513 79.2391 94.8513 79.5092C94.8513 79.779 94.7271 80 94.5753 80C94.4235 80 94.2993 80.2483 94.2993 80.5517C94.2993 80.8551 94.175 81.1034 94.0232 81.1034C93.8714 81.1034 93.7472 81.3517 93.7472 81.6551C93.7472 81.9586 93.623 82.2069 93.4712 82.2069C93.3193 82.2069 93.1951 82.4551 93.1951 82.7586C93.1951 83.062 93.0709 83.3103 92.9191 83.3103C92.7673 83.3103 92.6431 83.6827 92.6431 84.1379C92.6431 84.5931 92.5188 84.9655 92.367 84.9655C92.2152 84.9655 92.091 85.2138 92.091 85.5172C92.091 85.8207 91.9668 86.069 91.815 86.069C91.6631 86.069 91.5389 86.3172 91.5389 86.6207C91.5389 86.9241 91.4147 87.1724 91.2629 87.1724C91.1111 87.1724 90.9869 87.5448 90.9869 88C90.9869 88.4552 90.8626 88.8276 90.7108 88.8276C90.559 88.8276 90.4348 89.0759 90.4348 89.3793C90.4348 89.6828 90.3106 89.931 90.1588 89.931C90.0069 89.931 89.8827 90.1793 89.8827 90.4827C89.8827 90.7862 89.7585 91.0345 89.6067 91.0345C89.4549 91.0345 89.3307 91.4069 89.3307 91.8621C89.3307 92.3172 89.2064 92.6897 89.0546 92.6897C88.9028 92.6897 88.7786 93.0621 88.7786 93.5172C88.7786 93.9724 88.6544 94.3448 88.5026 94.3448C88.3507 94.3448 88.2265 94.7172 88.2265 95.1724C88.2265 95.6276 88.1023 96 87.9505 96C87.7987 96 87.6745 96.4965 87.6745 97.1034C87.6745 97.7103 87.5502 98.2069 87.3984 98.2069C87.2466 98.2069 87.1224 98.7034 87.1224 99.3103C87.1224 99.9172 86.9982 100.414 86.8464 100.414C86.6887 100.414 86.5703 101.241 86.5703 102.345C86.5703 103.448 86.4519 104.276 86.2943 104.276C86.1162 104.276 86.0183 107.31 86.0183 112.828C86.0183 118.345 86.1162 121.379 86.2943 121.379C86.4461 121.379 86.5703 121.724 86.5703 122.146C86.5703 122.596 86.7983 123.077 87.1224 123.31C87.426 123.529 87.6745 123.929 87.6745 124.199C87.6745 124.485 87.8787 124.69 88.1655 124.69C88.4358 124.69 88.8357 124.938 89.0546 125.241C89.3991 125.719 89.7693 125.793 91.815 125.793C93.8606 125.793 94.2308 125.719 94.5753 125.241C94.7942 124.938 95.1362 124.69 95.3355 124.69C95.8387 124.69 97.6117 122.87 97.6117 122.354C97.6117 122.121 97.7359 121.931 97.8877 121.931C98.0395 121.931 98.1637 121.683 98.1637 121.379C98.1637 121.076 98.2879 120.828 98.4398 120.828C98.5916 120.828 98.7158 120.579 98.7158 120.276C98.7158 119.972 98.84 119.724 98.9918 119.724C99.1436 119.724 99.2679 119.352 99.2679 118.897C99.2679 118.441 99.3921 118.069 99.5439 118.069C99.6957 118.069 99.8199 117.448 99.8199 116.69C99.8199 115.931 99.9441 115.31 100.096 115.31C100.254 115.31 100.372 114.483 100.372 113.379C100.372 112.276 100.254 111.448 100.096 111.448C99.9323 111.448 99.8199 110.437 99.8199 108.966C99.8199 107.494 99.7076 106.483 99.5439 106.483C99.3921 106.483 99.2679 105.986 99.2679 105.379C99.2679 104.772 99.1436 104.276 98.9918 104.276C98.84 104.276 98.7158 103.655 98.7158 102.897C98.7158 102.138 98.5916 101.517 98.4398 101.517C98.2879 101.517 98.1637 101.021 98.1637 100.414C98.1637 99.8069 98.0395 99.3103 97.8877 99.3103C97.7359 99.3103 97.6117 98.9379 97.6117 98.4827C97.6117 98.0276 97.4874 97.6552 97.3356 97.6552C97.1838 97.6552 97.0596 97.1586 97.0596 96.5517C97.0596 95.9448 96.9354 95.4483 96.7836 95.4483C96.6317 95.4483 96.5075 94.8549 96.5075 94.1299C96.5075 93.128 96.64 92.7161 97.0596 92.4138C97.3632 92.195 97.6117 91.7953 97.6117 91.5252C97.6117 91.2254 97.8176 91.0345 98.1408 91.0345C98.4318 91.0345 98.7423 90.8794 98.8309 90.6897C98.9595 90.4138 99.0241 90.4138 99.1528 90.6897C99.2414 90.8794 99.4956 91.0345 99.7175 91.0345C100.251 91.0345 101.476 92.2745 101.476 92.8152C101.476 93.0496 101.6 93.2414 101.752 93.2414C101.904 93.2414 102.028 93.4364 102.028 93.6748C102.028 93.9134 102.213 94.293 102.439 94.5186C102.802 94.8817 102.929 94.8491 103.543 94.2356C103.924 93.8543 104.236 93.3503 104.236 93.1159C104.236 92.8814 104.361 92.6897 104.512 92.6897C104.664 92.6897 104.789 92.4414 104.789 92.1379C104.789 91.8345 104.913 91.5862 105.065 91.5862C105.216 91.5862 105.341 91.3379 105.341 91.0345C105.341 90.731 105.465 90.4827 105.617 90.4827C105.768 90.4827 105.893 90.2345 105.893 89.931C105.893 89.5859 106.077 89.3793 106.384 89.3793C106.654 89.3793 107.054 89.131 107.273 88.8276C107.575 88.4083 107.987 88.2759 108.99 88.2759C109.715 88.2759 110.309 88.4 110.309 88.5517C110.309 88.7034 110.558 88.8276 110.861 88.8276C111.372 88.8276 111.413 89.0116 111.413 91.3103C111.413 92.7815 111.301 93.7931 111.137 93.7931C110.985 93.7931 110.861 94.0414 110.861 94.3448C110.861 94.6483 110.737 94.8965 110.585 94.8965C110.433 94.8965 110.309 95.269 110.309 95.7241C110.309 96.1793 110.185 96.5517 110.033 96.5517C109.881 96.5517 109.757 96.8 109.757 97.1034C109.757 97.4069 109.633 97.6552 109.481 97.6552C109.329 97.6552 109.205 98.0276 109.205 98.4827C109.205 98.9379 109.081 99.3103 108.929 99.3103C108.777 99.3103 108.653 99.6828 108.653 100.138C108.653 100.593 108.529 100.966 108.377 100.966C108.225 100.966 108.101 101.586 108.101 102.345C108.101 103.103 107.977 103.724 107.825 103.724C107.654 103.724 107.549 105.195 107.549 107.586C107.549 109.977 107.654 111.448 107.825 111.448C107.977 111.448 108.101 111.64 108.101 111.874C108.101 112.109 108.406 112.606 108.779 112.978C109.465 113.663 110.309 113.885 110.309 113.379C110.309 113.228 110.558 113.103 110.861 113.103C111.165 113.103 111.413 112.979 111.413 112.828C111.413 112.676 111.662 112.552 111.965 112.552C112.269 112.552 112.517 112.428 112.517 112.276C112.517 112.124 112.739 112 113.009 112C113.279 112 113.679 111.752 113.898 111.448C114.117 111.145 114.458 110.897 114.656 110.897C115.159 110.897 117.486 108.521 117.486 108.007C117.486 107.77 117.727 107.586 118.038 107.586C118.36 107.586 118.59 107.402 118.59 107.145C118.59 106.903 118.963 106.356 119.418 105.931C119.874 105.506 120.246 104.987 120.246 104.778C120.246 104.569 120.495 104.219 120.798 104C121.102 103.781 121.351 103.382 121.351 103.111C121.351 102.842 121.475 102.621 121.627 102.621C121.778 102.621 121.903 102.372 121.903 102.069C121.903 101.766 122.027 101.517 122.179 101.517C122.33 101.517 122.455 101.269 122.455 100.966C122.455 100.662 122.579 100.414 122.731 100.414C122.883 100.414 123.007 100.041 123.007 99.5862C123.007 99.131 123.131 98.7586 123.283 98.7586C123.435 98.7586 123.559 98.3862 123.559 97.931C123.559 97.4759 123.683 97.1034 123.835 97.1034C123.987 97.1034 124.111 96.4827 124.111 95.7241C124.111 94.9655 124.235 94.3448 124.387 94.3448C124.561 94.3448 124.663 92.4138 124.663 89.1034C124.663 85.7931 124.561 83.862 124.387 83.862C124.229 83.862 124.111 83.0345 124.111 81.931C124.111 80.8276 123.992 80 123.835 80C123.683 80 123.559 79.6276 123.559 79.1724C123.559 78.7172 123.435 78.3448 123.283 78.3448C123.131 78.3448 123.007 77.9724 123.007 77.5172C123.007 77.0621 122.883 76.6896 122.731 76.6896C122.579 76.6896 122.455 76.3172 122.455 75.8621C122.455 75.4069 122.33 75.0345 122.179 75.0345C122.027 75.0345 121.903 74.6621 121.903 74.2069C121.903 73.7517 121.778 73.3793 121.627 73.3793C121.175 73.3793 121.281 69.2714 121.745 68.808C122.405 68.1484 124.307 68.3092 125.089 69.091C125.462 69.4634 125.767 69.9067 125.767 70.0761C125.767 70.5263 126.488 71.1724 126.99 71.1724C127.228 71.1724 127.423 70.9514 127.423 70.6816C127.423 70.4116 127.672 70.0119 127.975 69.7931C128.279 69.5743 128.527 69.1746 128.527 68.9046C128.527 68.6348 128.652 68.4138 128.803 68.4138C128.955 68.4138 129.079 68.1655 129.079 67.8621C129.079 67.5586 129.204 67.3103 129.355 67.3103C129.507 67.3103 129.632 67.0621 129.632 66.7586C129.632 66.4552 129.756 66.2069 129.908 66.2069C130.059 66.2069 130.184 66.0118 130.184 65.7735C130.184 65.216 130.848 64.5517 131.406 64.5517C131.645 64.5517 131.84 64.4276 131.84 64.2758C131.84 64.1241 132.088 64 132.392 64C132.695 64 132.944 64.1241 132.944 64.2758C132.944 64.4276 133.139 64.5517 133.378 64.5517C133.935 64.5517 134.6 65.216 134.6 65.7735C134.6 66.0118 134.724 66.2069 134.876 66.2069C135.042 66.2069 135.152 67.3103 135.152 68.9655C135.152 70.6207 135.042 71.7241 134.876 71.7241C134.715 71.7241 134.6 72.6436 134.6 73.931C134.6 75.2185 134.485 76.1379 134.324 76.1379C134.172 76.1379 134.048 76.7586 134.048 77.5172C134.048 78.2759 133.924 78.8965 133.772 78.8965C133.605 78.8965 133.496 80.0918 133.496 81.931V84.9655H134.324C134.78 84.9655 135.152 84.8414 135.152 84.6896C135.152 84.5379 135.351 84.4138 135.594 84.4138C135.836 84.4138 136.383 84.0414 136.808 83.5862C137.234 83.131 137.722 82.7586 137.893 82.7586C138.292 82.7586 140.673 80.3867 140.673 79.9892C140.673 79.8237 141.294 79.0839 142.053 78.3448C142.812 77.6058 143.433 76.8568 143.433 76.6803C143.433 76.5037 143.806 76.0113 144.261 75.5862C144.717 75.1611 145.089 74.6419 145.089 74.4331C145.089 74.224 145.338 73.8739 145.641 73.6552C145.945 73.4364 146.194 73.064 146.194 72.8276C146.194 72.5912 146.442 72.2188 146.746 72C147.049 71.7812 147.298 71.4088 147.298 71.1724C147.298 70.936 147.546 70.5636 147.85 70.3448C148.153 70.1261 148.402 69.7263 148.402 69.4563C148.402 69.1865 148.526 68.9655 148.678 68.9655C148.83 68.9655 148.954 68.7445 148.954 68.4747C148.954 68.2047 149.202 67.805 149.506 67.5862C149.83 67.3525 150.058 66.872 150.058 66.4218C150.058 66.0003 150.182 65.6552 150.334 65.6552C150.486 65.6552 150.61 65.2827 150.61 64.8276C150.61 64.3724 150.734 64 150.886 64C151.055 64 151.162 62.7125 151.162 60.6896C151.162 58.6667 151.055 57.3793 150.886 57.3793C150.734 57.3793 150.61 57.0069 150.61 56.5517C150.61 56.0965 150.486 55.7241 150.334 55.7241C150.182 55.7241 150.058 55.3517 150.058 54.8965C150.058 54.4414 149.934 54.069 149.782 54.069C149.63 54.069 149.506 53.6965 149.506 53.2414C149.506 52.7862 149.382 52.4138 149.23 52.4138C149.078 52.4138 148.954 51.851 148.954 51.1633C148.954 50.104 149.1 49.7663 149.911 48.9564C150.721 48.1465 151.059 48 152.119 48C152.807 48 153.37 48.1241 153.37 48.2758C153.37 48.4276 153.566 48.5517 153.806 48.5517C154.046 48.5517 154.719 49.0483 155.303 49.6552C156.002 50.3832 156.606 50.7586 157.075 50.7586C157.467 50.7586 157.787 50.6345 157.787 50.4827C157.787 50.331 158.035 50.2069 158.339 50.2069C158.643 50.2069 158.891 50.0827 158.891 49.931C158.891 49.7793 159.09 49.6552 159.332 49.6552C159.575 49.6552 160.122 49.2827 160.547 48.8276C161.023 48.3186 161.597 48 162.038 48C162.433 48 162.756 47.8759 162.756 47.7241C162.756 47.5724 163.252 47.4483 163.86 47.4483C164.467 47.4483 164.964 47.5724 164.964 47.7241C164.964 47.8759 165.156 48 165.39 48C165.625 48 166.122 48.3048 166.494 48.6772C167.108 49.2905 167.172 49.5765 167.172 51.7117C167.172 53.0993 167.059 54.069 166.896 54.069C166.744 54.069 166.62 54.2899 166.62 54.5597C166.62 54.8298 166.372 55.2295 166.068 55.4483C165.764 55.667 165.516 56.0394 165.516 56.2759C165.516 56.5123 165.267 56.8847 164.964 57.1034C164.66 57.3222 164.412 57.6722 164.412 57.8814C164.412 58.0902 164.039 58.6094 163.584 59.0345C163.128 59.4596 162.756 59.9788 162.756 60.1876C162.756 60.3967 162.507 60.7467 162.203 60.9655C161.338 61.589 161.489 62.3448 162.479 62.3448C162.935 62.3448 163.308 62.2207 163.308 62.069C163.308 61.9172 163.556 61.7931 163.86 61.7931C164.163 61.7931 164.412 61.669 164.412 61.5172C164.412 61.3655 164.66 61.2414 164.964 61.2414C165.267 61.2414 165.516 61.1172 165.516 60.9655C165.516 60.8138 165.764 60.6896 166.068 60.6896C166.372 60.6896 166.62 60.5655 166.62 60.4138C166.62 60.2621 166.868 60.1379 167.172 60.1379C167.476 60.1379 167.724 60.0138 167.724 59.8621C167.724 59.7103 167.973 59.5862 168.276 59.5862C168.58 59.5862 168.828 59.4621 168.828 59.3103C168.828 59.1586 169.077 59.0345 169.38 59.0345C169.684 59.0345 169.932 58.9103 169.932 58.7586C169.932 58.6069 170.181 58.4827 170.484 58.4827C170.788 58.4827 171.037 58.3586 171.037 58.2069C171.037 58.0552 171.285 57.931 171.589 57.931C171.892 57.931 172.141 57.8069 172.141 57.6552C172.141 57.4888 173.295 57.3793 175.051 57.3793C177.774 57.3793 178.006 57.4231 178.64 58.0565C179.638 59.0538 179.541 60.2088 178.361 61.3884C177.834 61.9145 177.267 62.3448 177.099 62.3448C176.781 62.3448 176.005 63.016 176.005 63.2907C176.005 63.3774 177.371 63.4483 179.041 63.4483C180.882 63.4483 182.078 63.557 182.078 63.7241C182.078 63.8759 182.267 64 182.499 64C183.047 64 185.39 66.3418 185.39 66.8894C185.39 67.1208 185.266 67.3103 185.114 67.3103C184.962 67.3103 184.838 67.5054 184.838 67.7437C184.838 68.3012 184.173 68.9655 183.616 68.9655C183.377 68.9655 183.182 69.0896 183.182 69.2414C183.182 69.3931 182.685 69.5172 182.078 69.5172C181.471 69.5172 180.974 69.6414 180.974 69.7931C180.974 69.9465 180.238 70.069 179.318 70.069C178.398 70.069 177.661 69.9465 177.661 69.7931C177.661 69.6207 176.005 69.5172 173.245 69.5172C170.484 69.5172 168.828 69.6207 168.828 69.7931C168.828 69.9465 168.092 70.069 167.172 70.069C166.252 70.069 165.516 70.1914 165.516 70.3448C165.516 70.4965 165.019 70.6207 164.412 70.6207C163.804 70.6207 163.308 70.7448 163.308 70.8965C163.308 71.0483 162.935 71.1724 162.479 71.1724C162.024 71.1724 161.651 71.2965 161.651 71.4483C161.651 71.6 161.43 71.7241 161.16 71.7241C160.89 71.7241 160.49 71.9724 160.271 72.2759C160.052 72.5793 159.68 72.8276 159.443 72.8276C159.207 72.8276 158.834 73.0759 158.615 73.3793C158.396 73.6827 158.023 73.931 157.787 73.931C157.55 73.931 157.178 74.1793 156.959 74.4827C156.74 74.7862 156.393 75.0345 156.188 75.0345C155.683 75.0345 155.027 75.7244 155.027 76.2563C155.027 76.4946 154.902 76.6896 154.751 76.6896C154.599 76.6896 154.475 76.9379 154.475 77.2414C154.475 77.5448 154.35 77.7931 154.198 77.7931C154.047 77.7931 153.922 78.0414 153.922 78.3448C153.922 78.7125 154.107 78.8965 154.475 78.8965C154.778 78.8965 155.027 79.0207 155.027 79.1724C155.027 79.3241 155.648 79.4483 156.407 79.4483C157.166 79.4483 157.787 79.3241 157.787 79.1724C157.787 79.0207 158.408 78.8965 159.167 78.8965C159.926 78.8965 160.547 78.7724 160.547 78.6207C160.547 78.4599 161.467 78.3448 162.756 78.3448C164.044 78.3448 164.964 78.2298 164.964 78.069C164.964 77.9172 165.585 77.7931 166.344 77.7931C167.103 77.7931 167.724 77.9172 167.724 78.069C167.724 78.2207 168.221 78.3448 168.828 78.3448C169.436 78.3448 169.932 78.469 169.932 78.6207C169.932 78.7724 170.181 78.8965 170.484 78.8965C170.788 78.8965 171.037 79.0207 171.037 79.1724C171.037 79.3241 171.285 79.4483 171.589 79.4483C171.949 79.4483 172.141 79.6322 172.141 79.9771C172.141 80.2678 172.291 80.5559 172.475 80.6171C172.907 80.7611 170.93 82.7586 170.356 82.7586C170.123 82.7586 169.932 82.8827 169.932 83.0345C169.932 83.1862 169.684 83.3103 169.38 83.3103C169.077 83.3103 168.828 83.4345 168.828 83.5862C168.828 83.7379 168.633 83.862 168.395 83.862C168.156 83.862 167.774 84.0482 167.547 84.2758C167.179 84.6436 167.179 84.7357 167.547 85.1034C167.774 85.331 168.28 85.5172 168.671 85.5172C169.061 85.5172 169.38 85.6414 169.38 85.7931C169.38 85.9448 169.629 86.069 169.932 86.069C170.278 86.069 170.484 86.253 170.484 86.5597C170.484 86.8298 170.733 87.2295 171.037 87.4483C171.34 87.667 171.589 88.0667 171.589 88.3368C171.589 88.6066 171.713 88.8276 171.865 88.8276C172.016 88.8276 172.141 89.4483 172.141 90.2069C172.141 90.9655 172.016 91.5862 171.865 91.5862C171.713 91.5862 171.589 91.7812 171.589 92.0196C171.589 92.5771 170.924 93.2414 170.366 93.2414C170.128 93.2414 169.932 93.3655 169.932 93.5172C169.932 93.6706 169.196 93.7931 168.276 93.7931C167.356 93.7931 166.62 93.6706 166.62 93.5172C166.62 93.3655 166.123 93.2414 165.516 93.2414C164.909 93.2414 164.412 93.1172 164.412 92.9655C164.412 92.8138 164.163 92.6897 163.86 92.6897C163.556 92.6897 163.308 92.5655 163.308 92.4138C163.308 92.2621 162.962 92.1379 162.54 92.1379C162.09 92.1379 161.609 91.9101 161.375 91.5862C161.156 91.2828 160.784 91.0345 160.547 91.0345C160.311 91.0345 159.938 90.7862 159.719 90.4827C159.5 90.1793 159.15 89.931 158.941 89.931C158.732 89.931 158.212 89.5586 157.787 89.1034C157.362 88.6483 156.842 88.2759 156.633 88.2759C156.424 88.2759 156.074 88.0276 155.855 87.7241C155.636 87.4207 155.263 87.1724 155.027 87.1724C154.79 87.1724 154.417 86.9241 154.198 86.6207C153.965 86.2968 153.484 86.069 153.033 86.069C152.612 86.069 152.266 85.9448 152.266 85.7931C152.266 85.6276 151.162 85.5172 149.506 85.5172C147.85 85.5172 146.746 85.6276 146.746 85.7931C146.746 85.9448 146.524 86.069 146.255 86.069C145.984 86.069 145.584 86.3172 145.365 86.6207C145.147 86.9241 144.807 87.1724 144.61 87.1724C144.178 87.1724 139.569 91.7288 139.569 92.1556C139.569 92.3214 139.072 92.9341 138.465 93.5172C137.857 94.1004 137.36 94.7459 137.36 94.952C137.36 95.1581 137.112 95.5054 136.808 95.7241C136.505 95.9429 136.256 96.3153 136.256 96.5517C136.256 96.7881 136.008 97.1605 135.704 97.3793C135.401 97.5981 135.152 97.9978 135.152 98.2678C135.152 98.5376 135.028 98.7586 134.876 98.7586C134.724 98.7586 134.6 99.0069 134.6 99.3103C134.6 99.6138 134.476 99.8621 134.324 99.8621C134.172 99.8621 134.048 100.359 134.048 100.966C134.048 101.572 134.172 102.069 134.324 102.069C134.476 102.069 134.6 101.945 134.6 101.793C134.6 101.641 134.792 101.517 135.027 101.517C135.522 101.517 136.808 100.312 136.808 99.8475C136.808 99.6737 137.181 99.1837 137.636 98.7586C138.092 98.3335 138.465 97.837 138.465 97.6552C138.465 97.4734 138.837 96.9768 139.293 96.5517C139.748 96.1266 140.121 95.6395 140.121 95.4695C140.121 95.2996 140.801 94.4803 141.633 93.6491C142.893 92.3903 143.308 92.1379 144.117 92.1379C144.652 92.1379 145.089 92.0138 145.089 91.8621C145.089 91.4524 145.899 91.5283 146.351 91.9804C146.797 92.4259 146.893 94.3448 146.47 94.3448C146.318 94.3448 146.194 94.5931 146.194 94.8965C146.194 95.2 146.069 95.4483 145.917 95.4483C145.766 95.4483 145.641 95.6965 145.641 96C145.641 96.3034 145.517 96.5517 145.365 96.5517C145.214 96.5517 145.089 96.8 145.089 97.1034C145.089 97.4069 144.965 97.6552 144.813 97.6552C144.662 97.6552 144.537 97.7793 144.537 97.931C144.537 98.0827 144.91 98.2069 145.365 98.2069C145.821 98.2069 146.194 98.0827 146.194 97.931C146.194 97.7793 146.415 97.6552 146.685 97.6552C146.955 97.6552 147.355 97.4069 147.574 97.1034C147.793 96.8 148.165 96.5517 148.402 96.5517C148.638 96.5517 149.011 96.3034 149.23 96C149.464 95.6761 149.945 95.4483 150.395 95.4483C150.817 95.4483 151.162 95.3241 151.162 95.1724C151.162 95.0207 151.659 94.8965 152.266 94.8965C152.874 94.8965 153.37 95.0207 153.37 95.1724C153.37 95.3241 153.566 95.4483 153.804 95.4483C154.449 95.4483 155.027 96.1448 155.027 96.9227C155.027 97.3004 155.182 97.6816 155.372 97.7702C155.648 97.8988 155.648 97.9633 155.372 98.0919C155.182 98.1804 155.027 98.4328 155.027 98.6529C155.027 99.1845 153.227 100.966 152.689 100.966C152.457 100.966 152.266 101.09 152.266 101.241C152.266 101.393 152.045 101.517 151.775 101.517C151.505 101.517 151.105 101.766 150.886 102.069C150.667 102.372 150.267 102.621 149.997 102.621C149.727 102.621 149.506 102.745 149.506 102.897C149.506 103.048 149.257 103.172 148.954 103.172C148.586 103.172 148.402 103.356 148.402 103.724C148.402 104.092 148.218 104.276 147.85 104.276C147.482 104.276 147.298 104.46 147.298 104.828C147.298 105.131 147.173 105.379 147.022 105.379C146.87 105.379 146.746 105.628 146.746 105.931C146.746 106.36 146.93 106.483 147.574 106.483C148.029 106.483 148.402 106.359 148.402 106.207C148.402 106.055 148.65 105.931 148.954 105.931C149.257 105.931 149.506 105.807 149.506 105.655C149.506 105.503 149.754 105.379 150.058 105.379C150.362 105.379 150.61 105.255 150.61 105.103C150.61 104.952 150.983 104.828 151.438 104.828C151.894 104.828 152.266 104.703 152.266 104.552C152.266 104.392 153.147 104.276 154.356 104.276C156.49 104.276 157.235 104.586 157.235 105.474C157.235 105.7 157.39 105.958 157.58 106.046C157.856 106.175 157.856 106.239 157.58 106.368C157.39 106.456 157.235 106.709 157.235 106.929C157.235 107.46 155.435 109.241 154.898 109.241C154.665 109.241 154.475 109.366 154.475 109.517C154.475 109.669 154.226 109.793 153.922 109.793C153.619 109.793 153.37 109.917 153.37 110.069C153.37 110.221 152.998 110.345 152.542 110.345C152.087 110.345 151.714 110.469 151.714 110.621C151.714 110.772 151.466 110.897 151.162 110.897C150.858 110.897 150.61 111.021 150.61 111.172C150.61 111.324 150.237 111.448 149.782 111.448C149.327 111.448 148.954 111.572 148.954 111.724C148.954 111.876 148.581 112 148.126 112C147.67 112 147.298 112.124 147.298 112.276C147.298 112.428 146.925 112.552 146.47 112.552C146.014 112.552 145.641 112.676 145.641 112.828C145.641 112.979 145.02 113.103 144.261 113.103C143.502 113.103 142.881 113.228 142.881 113.379C142.881 113.531 142.26 113.655 141.501 113.655C140.742 113.655 140.121 113.779 140.121 113.931C140.121 114.084 139.385 114.207 138.465 114.207C137.545 114.207 136.808 114.329 136.808 114.483C136.808 114.634 136.312 114.759 135.704 114.759C135.097 114.759 134.6 114.883 134.6 115.034C134.6 115.186 134.103 115.31 133.496 115.31C132.889 115.31 132.392 115.434 132.392 115.586C132.392 115.738 131.895 115.862 131.288 115.862C130.68 115.862 130.184 115.986 130.184 116.138C130.184 116.29 129.811 116.414 129.355 116.414C128.9 116.414 128.527 116.538 128.527 116.69C128.527 116.841 128.155 116.966 127.699 116.966C127.244 116.966 126.871 117.09 126.871 117.241C126.871 117.393 126.623 117.517 126.319 117.517C126.015 117.517 125.767 117.641 125.767 117.793C125.767 117.945 125.394 118.069 124.939 118.069C124.484 118.069 124.111 118.193 124.111 118.345C124.111 118.497 123.862 118.621 123.559 118.621C123.255 118.621 123.007 118.745 123.007 118.897C123.007 119.048 122.758 119.172 122.455 119.172C122.151 119.172 121.903 119.297 121.903 119.448C121.903 119.6 121.654 119.724 121.351 119.724C121.047 119.724 120.798 119.848 120.798 120C120.798 120.152 120.55 120.276 120.246 120.276C119.943 120.276 119.694 120.4 119.694 120.552C119.694 120.703 119.473 120.828 119.203 120.828C118.933 120.828 118.533 121.076 118.314 121.379C118.095 121.683 117.695 121.931 117.425 121.931C117.155 121.931 116.934 122.055 116.934 122.207C116.934 122.359 116.686 122.483 116.382 122.483C116.078 122.483 115.83 122.607 115.83 122.759C115.83 122.91 115.609 123.034 115.339 123.034C115.069 123.034 114.669 123.283 114.45 123.586C114.231 123.89 113.831 124.138 113.561 124.138C113.291 124.138 113.07 124.262 113.07 124.414C113.07 124.566 112.821 124.69 112.517 124.69C112.214 124.69 111.965 124.814 111.965 124.966C111.965 125.117 111.744 125.241 111.474 125.241C111.204 125.241 110.804 125.49 110.585 125.793C110.366 126.097 109.994 126.345 109.757 126.345C109.521 126.345 109.148 126.593 108.929 126.897C108.71 127.2 108.31 127.448 108.04 127.448C107.77 127.448 107.549 127.572 107.549 127.724C107.549 127.876 107.328 128 107.058 128C106.788 128 106.388 128.248 106.169 128.552C105.95 128.855 105.55 129.103 105.28 129.103C105.01 129.103 104.789 129.228 104.789 129.379C104.789 129.531 104.54 129.655 104.236 129.655C103.933 129.655 103.684 129.779 103.684 129.931C103.684 130.083 103.436 130.207 103.132 130.207C102.829 130.207 102.58 130.331 102.58 130.483C102.58 130.634 102.359 130.759 102.089 130.759C101.819 130.759 101.419 131.007 101.2 131.31C100.966 131.634 100.485 131.862 100.035 131.862C99.6132 131.862 99.2679 131.986 99.2679 132.138C99.2679 132.29 99.0194 132.414 98.7158 132.414C98.4122 132.414 98.1637 132.538 98.1637 132.69C98.1637 132.841 97.9153 132.966 97.6117 132.966C97.308 132.966 97.0596 133.09 97.0596 133.241C97.0596 133.393 96.8112 133.517 96.5075 133.517C96.2039 133.517 95.9555 133.641 95.9555 133.793C95.9555 133.945 95.6416 134.069 95.2582 134.069C94.4784 134.069 92.091 136.247 92.091 136.958C92.091 137.19 91.9668 137.379 91.815 137.379C91.6463 137.379 91.5389 138.667 91.5389 140.69C91.5389 142.713 91.6463 144 91.815 144C91.9668 144 92.091 144.314 92.091 144.699C92.091 145.129 92.4598 145.766 93.048 146.354L94.0047 147.31H96.9125C98.6667 147.31 99.8199 147.201 99.8199 147.034C99.8199 146.883 100.193 146.759 100.648 146.759C101.103 146.759 101.476 146.634 101.476 146.483C101.476 146.331 101.725 146.207 102.028 146.207C102.332 146.207 102.58 146.083 102.58 145.931C102.58 145.779 102.829 145.655 103.132 145.655C103.436 145.655 103.684 145.531 103.684 145.379C103.684 145.228 103.933 145.103 104.236 145.103C104.54 145.103 104.789 144.979 104.789 144.828C104.789 144.676 105.037 144.552 105.341 144.552C105.644 144.552 105.893 144.428 105.893 144.276C105.893 144.124 106.091 144 106.334 144C106.577 144 107.123 143.628 107.549 143.172C107.974 142.717 108.46 142.345 108.628 142.345C109.021 142.345 116.934 134.446 116.934 134.054C116.934 133.89 117.555 133.153 118.314 132.414C119.073 131.675 119.694 130.936 119.694 130.772C119.694 130.348 123.753 126.345 124.183 126.345C124.38 126.345 124.72 126.097 124.939 125.793C125.158 125.49 125.558 125.241 125.828 125.241C126.098 125.241 126.319 125.117 126.319 124.966C126.319 124.536 128.789 124.636 129.237 125.084C129.683 125.529 129.779 127.448 129.355 127.448C129.204 127.448 129.079 127.647 129.079 127.889C129.079 128.132 128.707 128.678 128.251 129.103C127.796 129.529 127.423 130.018 127.423 130.192C127.423 130.598 126.164 131.862 125.76 131.862C125.359 131.862 124.663 132.562 124.663 132.966C124.663 133.422 123.946 134.069 123.44 134.069C123.202 134.069 123.007 134.267 123.007 134.51C123.007 134.753 122.634 135.299 122.179 135.724C121.723 136.149 121.351 136.668 121.351 136.877C121.351 137.086 121.102 137.436 120.798 137.655C120.474 137.889 120.246 138.369 120.246 138.82C120.246 139.585 120.25 139.586 122.179 139.586C123.283 139.586 124.111 139.468 124.111 139.31C124.111 139.159 124.305 139.034 124.543 139.034C124.781 139.034 125.58 138.414 126.319 137.655C127.059 136.897 127.806 136.276 127.979 136.276C128.153 136.276 128.772 135.779 129.355 135.172C129.939 134.566 130.563 134.069 130.741 134.069C130.92 134.069 131.414 133.697 131.84 133.241C132.265 132.786 132.785 132.414 132.994 132.414C133.203 132.414 133.553 132.166 133.772 131.862C133.991 131.559 134.364 131.31 134.6 131.31C134.837 131.31 135.209 131.062 135.428 130.759C135.647 130.455 135.995 130.207 136.201 130.207C136.407 130.207 137.053 129.71 137.636 129.103C138.22 128.497 138.833 128 138.998 128C139.385 128 145.089 122.308 145.089 121.922C145.089 121.476 146.389 120.276 146.871 120.276C147.106 120.276 147.298 120.152 147.298 120C147.298 119.848 147.546 119.724 147.85 119.724C148.153 119.724 148.402 119.6 148.402 119.448C148.402 118.943 149.246 119.164 149.932 119.85C150.305 120.222 150.61 120.719 150.61 120.953C150.61 121.188 150.734 121.379 150.886 121.379C151.038 121.379 151.162 121.752 151.162 122.207C151.162 122.662 151.038 123.034 150.886 123.034C150.734 123.034 150.61 123.283 150.61 123.586C150.61 123.89 150.486 124.138 150.334 124.138C150.182 124.138 150.058 124.327 150.058 124.558C150.058 125.026 147.197 128 146.746 128C146.589 128 145.654 128.805 144.67 129.788C143.416 131.041 142.881 131.784 142.881 132.271C142.881 132.947 142.932 132.966 144.813 132.966C145.917 132.966 146.746 132.847 146.746 132.69C146.746 132.538 146.967 132.414 147.237 132.414C147.507 132.414 147.907 132.166 148.126 131.862C148.345 131.559 148.692 131.31 148.898 131.31C149.105 131.31 149.75 130.814 150.334 130.207C150.918 129.6 151.541 129.103 151.72 129.103C151.899 129.103 152.393 128.731 152.818 128.276C153.244 127.821 153.763 127.448 153.972 127.448C154.181 127.448 154.532 127.2 154.751 126.897C154.969 126.593 155.342 126.345 155.579 126.345C155.815 126.345 156.188 126.097 156.407 125.793C156.626 125.49 156.998 125.241 157.235 125.241C157.471 125.241 157.844 124.993 158.063 124.69C158.282 124.386 158.682 124.138 158.952 124.138C159.222 124.138 159.443 124.014 159.443 123.862C159.443 123.71 159.692 123.586 159.995 123.586C160.299 123.586 160.547 123.462 160.547 123.31C160.547 123.159 160.796 123.034 161.099 123.034C161.403 123.034 161.651 122.91 161.651 122.759C161.651 122.607 161.9 122.483 162.203 122.483C162.507 122.483 162.756 122.359 162.756 122.207C162.756 122.046 163.676 121.931 164.964 121.931C166.988 121.931 167.172 121.977 167.172 122.483C167.172 122.786 167.296 123.034 167.448 123.034C167.6 123.034 167.724 123.655 167.724 124.414C167.724 125.172 167.6 125.793 167.448 125.793C167.296 125.793 167.172 125.983 167.172 126.214C167.172 126.762 164.829 129.103 164.281 129.103C164.049 129.103 163.86 129.228 163.86 129.379C163.86 129.531 163.611 129.655 163.308 129.655C163.004 129.655 162.756 129.779 162.756 129.931C162.756 130.083 162.507 130.207 162.203 130.207C161.9 130.207 161.651 130.331 161.651 130.483C161.651 130.634 161.403 130.759 161.099 130.759C160.796 130.759 160.547 130.883 160.547 131.034C160.547 131.186 160.299 131.31 159.995 131.31C159.692 131.31 159.443 131.434 159.443 131.586C159.443 131.738 159.195 131.862 158.891 131.862C158.587 131.862 158.339 131.986 158.339 132.138C158.339 132.29 157.966 132.414 157.511 132.414C157.055 132.414 156.683 132.538 156.683 132.69C156.683 132.841 156.488 132.966 156.249 132.966C155.597 132.966 155.027 133.665 155.027 134.463C155.027 135.13 155.108 135.172 156.407 135.172C157.166 135.172 157.787 135.048 157.787 134.897C157.787 134.745 158.408 134.621 159.167 134.621C159.926 134.621 160.547 134.745 160.547 134.897C160.547 135.048 160.739 135.172 160.974 135.172C161.715 135.172 162.756 136.459 162.756 137.374C162.756 138.473 160.638 140.69 159.588 140.69C159.205 140.69 158.891 140.814 158.891 140.966C158.891 141.117 158.518 141.241 158.063 141.241C157.607 141.241 157.235 141.366 157.235 141.517C157.235 141.675 156.407 141.793 155.303 141.793C154.198 141.793 153.37 141.911 153.37 142.069C153.37 142.221 152.874 142.345 152.266 142.345C151.659 142.345 151.162 142.221 151.162 142.069C151.162 141.902 149.966 141.793 148.126 141.793C146.285 141.793 145.089 141.684 145.089 141.517C145.089 141.342 142.881 141.241 139.017 141.241C135.152 141.241 132.944 141.342 132.944 141.517C132.944 141.669 132.571 141.793 132.116 141.793C131.66 141.793 131.288 141.917 131.288 142.069C131.288 142.221 131.096 142.345 130.861 142.345C130.309 142.345 129.079 143.574 129.079 144.126C129.079 144.48 129.522 144.552 131.714 144.552C134.203 144.552 134.39 144.593 135.088 145.29C135.56 145.762 135.705 146.069 135.49 146.14C135.304 146.202 135.152 146.463 135.152 146.721C135.152 146.978 134.904 147.367 134.6 147.586C134.296 147.805 134.048 148.151 134.048 148.356C134.048 148.837 133.367 149.517 132.887 149.517C132.681 149.517 132.335 149.766 132.116 150.069C131.897 150.372 131.497 150.621 131.227 150.621C130.957 150.621 130.736 150.745 130.736 150.897C130.736 151.048 130.487 151.172 130.184 151.172C129.88 151.172 129.632 151.297 129.632 151.448C129.632 151.6 129.259 151.724 128.803 151.724C128.348 151.724 127.975 151.848 127.975 152C127.975 152.152 127.478 152.276 126.871 152.276C126.264 152.276 125.767 152.4 125.767 152.552C125.767 152.703 125.146 152.828 124.387 152.828C123.628 152.828 123.007 152.952 123.007 153.103C123.007 153.257 122.271 153.379 121.351 153.379C120.431 153.379 119.694 153.502 119.694 153.655C119.694 153.813 118.866 153.931 117.762 153.931C116.658 153.931 115.83 154.049 115.83 154.207C115.83 154.36 115.094 154.483 114.174 154.483C113.254 154.483 112.517 154.605 112.517 154.759C112.517 154.91 111.896 155.034 111.137 155.034C110.378 155.034 109.757 155.159 109.757 155.31C109.757 155.462 109.26 155.586 108.653 155.586C108.046 155.586 107.549 155.71 107.549 155.862C107.549 156.014 107.052 156.138 106.445 156.138C105.837 156.138 105.341 156.262 105.341 156.414C105.341 156.566 104.968 156.69 104.512 156.69C104.057 156.69 103.684 156.814 103.684 156.966C103.684 157.117 103.436 157.241 103.132 157.241C102.829 157.241 102.58 157.366 102.58 157.517C102.58 157.669 101.959 157.793 101.2 157.793C100.441 157.793 99.8199 157.917 99.8199 158.069C99.8199 158.221 99.3231 158.345 98.7158 158.345C98.1085 158.345 97.6117 158.469 97.6117 158.621C97.6117 158.772 97.1148 158.897 96.5075 158.897C95.9003 158.897 95.4034 159.021 95.4034 159.172C95.4034 159.324 94.7823 159.448 94.0232 159.448C93.2641 159.448 92.6431 159.572 92.6431 159.724C92.6431 159.876 92.2704 160 91.815 160C91.3595 160 90.9869 159.876 90.9869 159.724C90.9869 159.572 90.6142 159.448 90.1588 159.448C89.7033 159.448 89.3307 159.324 89.3307 159.172C89.3307 159.021 88.958 158.897 88.5026 158.897C88.0471 158.897 87.6745 158.772 87.6745 158.621C87.6745 158.469 87.3018 158.345 86.8464 158.345C86.3909 158.345 86.0183 158.221 86.0183 158.069C86.0183 157.917 85.7698 157.793 85.4662 157.793C85.1626 157.793 84.9141 157.669 84.9141 157.517C84.9141 157.366 84.5415 157.241 84.086 157.241C83.6306 157.241 83.2579 157.117 83.2579 156.966C83.2579 156.814 83.0095 156.69 82.7059 156.69C82.4022 156.69 82.1538 156.566 82.1538 156.414C82.1538 156.262 81.7812 156.138 81.3257 156.138C80.8702 156.138 80.4976 156.014 80.4976 155.862C80.4976 155.71 80.2492 155.586 79.9455 155.586C79.6419 155.586 79.3935 155.462 79.3935 155.31C79.3935 155.159 79.145 155.034 78.8414 155.034C78.5378 155.034 78.2893 154.91 78.2893 154.759C78.2893 154.607 77.9167 154.483 77.4612 154.483C77.0058 154.483 76.6331 154.359 76.6331 154.207C76.6331 154.055 76.2605 153.931 75.805 153.931C75.3496 153.931 74.9769 153.807 74.9769 153.655C74.9769 153.503 74.4801 153.379 73.8728 153.379C73.2655 153.379 72.7687 153.503 72.7687 153.655C72.7687 153.807 72.396 153.931 71.9406 153.931C71.4851 153.931 71.1125 154.055 71.1125 154.207C71.1125 154.359 70.8914 154.483 70.6214 154.483C70.3512 154.483 69.9512 154.731 69.7323 155.034C69.5134 155.338 69.1408 155.586 68.9042 155.586C68.6676 155.586 68.295 155.834 68.0761 156.138C67.8572 156.441 67.4572 156.69 67.187 156.69C66.917 156.69 66.6959 156.814 66.6959 156.966C66.6959 157.117 66.4475 157.241 66.1439 157.241C65.8402 157.241 65.5918 157.366 65.5918 157.517C65.5918 157.669 65.3434 157.793 65.0397 157.793C64.7361 157.793 64.4877 157.917 64.4877 158.069C64.4877 158.221 64.2392 158.345 63.9356 158.345C63.632 158.345 63.3835 158.469 63.3835 158.621C63.3835 158.772 62.8867 158.897 62.2794 158.897C61.6721 158.897 61.1753 159.021 61.1753 159.172C61.1753 159.335 60.2025 159.448 58.8094 159.448C56.0515 159.448 55.6546 159.207 55.6546 157.528C55.6546 156.604 55.8304 156.22 56.6116 155.439C57.1377 154.913 57.7588 154.483 57.9918 154.483C58.2245 154.483 58.4149 154.359 58.4149 154.207C58.4149 154.055 58.6634 153.931 58.967 153.931C59.2706 153.931 59.5191 153.807 59.5191 153.655C59.5191 153.503 59.7675 153.379 60.0711 153.379C60.3748 153.379 60.6232 153.255 60.6232 153.103C60.6232 152.952 60.9958 152.828 61.4513 152.828C61.9067 152.828 62.2794 152.703 62.2794 152.552C62.2794 152.4 62.5278 152.276 62.8315 152.276C63.1351 152.276 63.3835 152.152 63.3835 152C63.3835 151.848 63.5787 151.724 63.8172 151.724C64.056 151.724 64.4286 151.547 64.6453 151.33C65.0914 150.884 65.1871 148.966 64.7637 148.966C64.6119 148.966 64.4877 148.717 64.4877 148.414C64.4877 148.11 64.3634 147.862 64.2116 147.862C64.0598 147.862 63.9356 147.673 63.9356 147.442C63.9356 146.961 61.0684 144 60.6019 144C60.4319 144 59.9444 143.628 59.5191 143.172C59.0937 142.717 58.5742 142.345 58.3652 142.345C58.156 142.345 57.8057 142.097 57.5868 141.793C57.3679 141.49 56.9953 141.241 56.7587 141.241C56.5222 141.241 56.1495 140.993 55.9306 140.69C55.7117 140.386 55.3118 140.138 55.0415 140.138C54.7716 140.138 54.5505 140.014 54.5505 139.862C54.5505 139.71 54.302 139.586 53.9984 139.586C53.6948 139.586 53.4463 139.462 53.4463 139.31C53.4463 139.159 53.1979 139.034 52.8943 139.034C52.5906 139.034 52.3422 138.91 52.3422 138.759C52.3422 138.607 52.1211 138.483 51.8511 138.483C51.5809 138.483 51.1809 138.234 50.962 137.931C50.7282 137.607 50.2474 137.379 49.7969 137.379C49.3751 137.379 49.0298 137.255 49.0298 137.103C49.0298 136.952 48.5329 136.828 47.9257 136.828C47.3184 136.828 46.8215 136.703 46.8215 136.552C46.8215 136.394 45.9934 136.276 44.8893 136.276C43.7852 136.276 42.9571 136.394 42.9571 136.552C42.9571 136.703 42.336 136.828 41.5769 136.828C40.8178 136.828 40.1967 136.952 40.1967 137.103C40.1967 137.255 39.6999 137.379 39.0926 137.379C38.4853 137.379 37.9885 137.503 37.9885 137.655C37.9885 137.807 37.3674 137.931 36.6083 137.931C35.8492 137.931 35.2281 138.055 35.2281 138.207C35.2281 138.359 34.7313 138.483 34.124 138.483C33.5167 138.483 33.0199 138.607 33.0199 138.759C33.0199 138.91 32.3988 139.034 31.6397 139.034C30.8806 139.034 30.2595 139.159 30.2595 139.31C30.2595 139.478 29.0635 139.586 27.2232 139.586C25.3829 139.586 24.1868 139.478 24.1868 139.31C24.1868 139.159 23.9384 139.034 23.6347 139.034C23.3311 139.034 23.0827 138.91 23.0827 138.759C23.0827 138.607 22.8875 138.483 22.649 138.483C21.8413 138.483 21.4265 137.737 21.4265 136.286C21.4265 135.047 21.5416 134.763 22.3835 133.922C23.28 133.026 23.4539 132.966 25.1438 132.966C26.1621 132.966 26.9471 132.846 26.9471 132.69C26.9471 132.538 27.5682 132.414 28.3273 132.414C29.6219 132.414 29.7075 132.37 29.7075 131.712C29.7075 130.808 28.5542 129.655 27.6496 129.655C27.2632 129.655 26.9471 129.531 26.9471 129.379C26.9471 129.228 26.6987 129.103 26.3951 129.103C26.0914 129.103 25.843 128.979 25.843 128.828C25.843 128.676 25.5946 128.552 25.2909 128.552C24.9873 128.552 24.7389 128.428 24.7389 128.276C24.7389 128.124 24.4904 128 24.1868 128C23.8832 128 23.6347 127.876 23.6347 127.724C23.6347 127.572 23.4396 127.448 23.2011 127.448C22.6432 127.448 21.9785 126.784 21.9785 126.226C21.9785 125.988 21.8543 125.793 21.7025 125.793C21.5507 125.793 21.4265 125.172 21.4265 124.414V123.034H23.3587C24.4628 123.034 25.2909 123.153 25.2909 123.31C25.2909 123.462 25.5394 123.586 25.843 123.586C26.1466 123.586 26.3951 123.71 26.3951 123.862C26.3951 124.298 27.2171 124.183 27.7236 123.677C28.0587 123.342 28.091 123.186 27.8418 123.103C27.6532 123.04 27.4992 122.806 27.4992 122.582C27.4992 122.359 26.7539 121.445 25.843 120.552C24.9321 119.658 24.1868 118.761 24.1868 118.559C24.1868 118.356 23.9384 118.012 23.6347 117.793C23.3107 117.559 23.0827 117.079 23.0827 116.629C23.0827 116.207 22.9585 115.862 22.8066 115.862C22.2681 115.862 22.5408 114.447 23.2083 113.781C23.7645 113.225 24.1592 113.103 25.4165 113.103C26.2584 113.103 26.9471 113.228 26.9471 113.379C26.9471 113.531 27.1956 113.655 27.4992 113.655C27.8028 113.655 28.0513 113.779 28.0513 113.931C28.0513 114.083 28.2431 114.207 28.4777 114.207C28.9994 114.207 30.2595 115.423 30.2595 115.927C30.2595 116.127 30.508 116.471 30.8116 116.69C31.1152 116.908 31.3637 117.281 31.3637 117.517C31.3637 117.754 31.6121 118.126 31.9157 118.345C32.2194 118.564 32.4678 118.936 32.4678 119.172C32.4678 119.409 32.7162 119.781 33.0199 120C33.3235 120.219 33.5719 120.618 33.5719 120.889C33.5719 121.158 33.6961 121.379 33.848 121.379C33.9998 121.379 34.124 121.6 34.124 121.87C34.124 122.14 34.3724 122.54 34.6761 122.759C34.9797 122.977 35.2281 123.319 35.2281 123.518C35.2281 124.021 37.0486 125.793 37.5653 125.793C37.798 125.793 37.9885 125.917 37.9885 126.069C37.9885 126.221 38.2096 126.345 38.4795 126.345C38.7498 126.345 39.1497 126.593 39.3686 126.897C39.6024 127.22 40.0833 127.448 40.5338 127.448C40.9555 127.448 41.3009 127.572 41.3009 127.724C41.3009 127.876 41.7872 128 42.3821 128C42.9974 128 43.5124 128.148 43.5773 128.342C43.6604 128.591 43.8172 128.559 44.1523 128.224C44.6588 127.718 44.7734 126.897 44.3372 126.897C44.1854 126.897 44.0612 126.648 44.0612 126.345C44.0612 126.041 43.937 125.793 43.7852 125.793C43.6333 125.793 43.5091 125.545 43.5091 125.241C43.5091 124.938 43.3849 124.69 43.2331 124.69C43.0813 124.69 42.9571 124.441 42.9571 124.138C42.9571 123.834 42.8328 123.586 42.681 123.586C42.5292 123.586 42.405 123.338 42.405 123.034C42.405 122.731 42.2808 122.483 42.129 122.483C41.9771 122.483 41.8529 122.262 41.8529 121.992C41.8529 121.722 41.6045 121.322 41.3009 121.103C40.9972 120.885 40.7488 120.485 40.7488 120.215C40.7488 119.945 40.6246 119.724 40.4728 119.724C40.3209 119.724 40.1967 119.476 40.1967 119.172C40.1967 118.869 40.0725 118.621 39.9207 118.621C39.7689 118.621 39.6447 118.372 39.6447 118.069C39.6447 117.766 39.5205 117.517 39.3686 117.517C39.2168 117.517 39.0926 117.269 39.0926 116.966C39.0926 116.662 38.9684 116.414 38.8166 116.414C38.6647 116.414 38.5405 116.041 38.5405 115.586C38.5405 115.131 38.4163 114.759 38.2645 114.759C38.1127 114.759 37.9885 114.191 37.9885 113.498C37.9885 112.196 38.4343 111.448 39.211 111.448C39.4495 111.448 39.6447 111.324 39.6447 111.172C39.6447 111.021 40.2657 110.897 41.0248 110.897C41.7839 110.897 42.405 111.021 42.405 111.172C42.405 111.324 42.5941 111.448 42.8251 111.448C43.3717 111.448 46.2695 114.344 46.2695 114.89C46.2695 115.121 46.3937 115.31 46.5455 115.31C46.6973 115.31 46.8215 115.559 46.8215 115.862C46.8215 116.166 46.9457 116.414 47.0976 116.414C47.2494 116.414 47.3736 116.662 47.3736 116.966C47.3736 117.269 47.4978 117.517 47.6496 117.517C47.8014 117.517 47.9257 117.766 47.9257 118.069C47.9257 118.372 48.0499 118.621 48.2017 118.621C48.3535 118.621 48.4777 118.869 48.4777 119.172C48.4777 119.476 48.6019 119.724 48.7538 119.724C48.9056 119.724 49.0298 119.945 49.0298 120.215C49.0298 120.485 49.2782 120.885 49.5819 121.103C49.8855 121.322 50.1339 121.722 50.1339 121.992C50.1339 122.262 50.2581 122.483 50.41 122.483C50.5618 122.483 50.686 122.731 50.686 123.034C50.686 123.338 50.8102 123.586 50.962 123.586C51.1138 123.586 51.2381 123.807 51.2381 124.077C51.2381 124.347 51.4865 124.747 51.7901 124.966C52.0938 125.184 52.3422 125.525 52.3422 125.722C52.3422 126.156 55.2416 129.103 55.6684 129.103C56.4457 129.103 56.7587 128.277 56.7587 126.226C56.7587 125.018 56.8749 124.138 57.0348 124.138C57.1882 124.138 57.3108 123.402 57.3108 122.483C57.3108 121.563 57.4334 120.828 57.5868 120.828C57.7386 120.828 57.8629 120.579 57.8629 120.276C57.8629 119.972 57.9871 119.724 58.1389 119.724C58.2907 119.724 58.4149 119.532 58.4149 119.298C58.4149 118.746 59.6444 117.517 60.1967 117.517C60.4313 117.517 60.6232 117.393 60.6232 117.241C60.6232 116.818 62.5433 116.914 62.9891 117.36C63.206 117.576 63.3835 117.949 63.3835 118.187C63.3835 118.426 63.5077 118.621 63.6596 118.621C63.8252 118.621 63.9356 119.724 63.9356 121.379V124.138H64.653C65.0941 124.138 65.6683 123.819 66.1439 123.31C66.5692 122.855 67.1161 122.483 67.3587 122.483C67.6016 122.483 67.8001 122.359 67.8001 122.207C67.8001 122.055 68.0485 121.931 68.3521 121.931C68.6558 121.931 68.9042 121.807 68.9042 121.655C68.9042 121.217 71.9204 121.32 72.3742 121.773C72.8222 122.221 72.9224 124.69 72.4926 124.69C72.3408 124.69 72.2166 124.938 72.2166 125.241C72.2166 125.545 72.0924 125.793 71.9406 125.793C71.7887 125.793 71.6645 126.041 71.6645 126.345C71.6645 126.648 71.5403 126.897 71.3885 126.897C71.2367 126.897 71.1125 127.092 71.1125 127.332C71.1125 127.572 70.6156 128.244 70.0083 128.828C69.4011 129.411 68.9042 130.056 68.9042 130.262C68.9042 130.468 68.6558 130.816 68.3521 131.034C68.0485 131.253 67.8001 131.653 67.8001 131.923C67.8001 132.193 67.6758 132.414 67.524 132.414C67.3722 132.414 67.248 132.635 67.248 132.905C67.248 133.175 66.9996 133.574 66.6959 133.793C66.3923 134.012 66.1439 134.412 66.1439 134.682C66.1439 134.951 66.0196 135.172 65.8678 135.172C65.716 135.172 65.5918 135.793 65.5918 136.552C65.5918 137.31 65.716 137.931 65.8678 137.931C66.0196 137.931 66.1439 138.179 66.1439 138.483C66.1439 138.786 66.2681 139.034 66.4199 139.034C66.5717 139.034 66.6959 139.224 66.6959 139.455C66.6959 140.003 69.0392 142.345 69.5871 142.345C69.8187 142.345 70.0083 142.469 70.0083 142.621C70.0083 142.772 70.2568 142.897 70.5604 142.897C70.864 142.897 71.1125 143.021 71.1125 143.172C71.1125 143.324 71.3609 143.448 71.6645 143.448C71.9682 143.448 72.2166 143.572 72.2166 143.724C72.2166 143.876 72.465 144 72.7687 144C73.0723 144 73.3207 144.124 73.3207 144.276C73.3207 144.428 73.6934 144.552 74.1488 144.552C74.6043 144.552 74.9769 144.676 74.9769 144.828C74.9769 144.979 75.3496 145.103 75.805 145.103C76.2605 145.103 76.6331 145.228 76.6331 145.379C76.6331 145.531 77.0058 145.655 77.4612 145.655C77.9167 145.655 78.2893 145.779 78.2893 145.931C78.2893 146.083 78.7862 146.207 79.3935 146.207C80.0007 146.207 80.4976 146.331 80.4976 146.483C80.4976 146.906 82.4177 146.81 82.8635 146.364C83.3115 145.917 83.4117 143.448 82.9819 143.448C82.8301 143.448 82.7059 143.076 82.7059 142.621C82.7059 142.166 82.5816 141.793 82.4298 141.793C82.278 141.793 82.1538 141.297 82.1538 140.69C82.1538 140.083 82.0296 139.586 81.8778 139.586C81.7243 139.586 81.6017 138.85 81.6017 137.931C81.6017 137.012 81.4792 136.276 81.3257 136.276C81.162 136.276 81.0497 135.264 81.0497 133.793C81.0497 132.322 80.9373 131.31 80.7736 131.31C80.616 131.31 80.4976 130.483 80.4976 129.379C80.4976 128.276 80.3792 127.448 80.2216 127.448C80.0697 127.448 79.9455 126.952 79.9455 126.345C79.9455 125.738 79.8213 125.241 79.6695 125.241C79.5177 125.241 79.3935 124.869 79.3935 124.414C79.3935 123.959 79.2692 123.586 79.1174 123.586C78.9656 123.586 78.8414 123.365 78.8414 123.095C78.8414 122.825 78.593 122.426 78.2893 122.207C77.9857 121.988 77.7373 121.648 77.7373 121.451C77.7373 120.949 74.2499 117.517 73.74 117.517C73.5093 117.517 73.3207 117.393 73.3207 117.241C73.3207 117.09 73.0723 116.966 72.7687 116.966C72.465 116.966 72.2166 116.841 72.2166 116.69C72.2166 116.538 71.9682 116.414 71.6645 116.414C71.3609 116.414 71.1125 116.29 71.1125 116.138C71.1125 115.986 70.864 115.862 70.5604 115.862C70.2568 115.862 70.0083 115.738 70.0083 115.586C70.0083 115.434 69.6357 115.31 69.1802 115.31C68.7248 115.31 68.3521 115.186 68.3521 115.034C68.3521 114.883 68.1037 114.759 67.8001 114.759C67.4964 114.759 67.248 114.634 67.248 114.483C67.248 114.331 66.9027 114.207 66.4809 114.207C66.0304 114.207 65.5496 113.979 65.3158 113.655C65.0969 113.352 64.6969 113.103 64.4267 113.103C64.1567 113.103 63.9356 112.979 63.9356 112.828C63.9356 112.676 63.6872 112.552 63.3835 112.552C63.0799 112.552 62.8315 112.428 62.8315 112.276C62.8315 112.124 62.583 112 62.2794 112C61.9758 112 61.7273 111.876 61.7273 111.724C61.7273 111.572 61.4789 111.448 61.1753 111.448C60.8716 111.448 60.6232 111.324 60.6232 111.172C60.6232 111.021 60.3748 110.897 60.0711 110.897C59.7675 110.897 59.5191 110.772 59.5191 110.621C59.5191 110.469 59.2706 110.345 58.967 110.345C58.6634 110.345 58.4149 110.221 58.4149 110.069C58.4149 109.917 58.0423 109.793 57.5868 109.793C57.1314 109.793 56.7587 109.669 56.7587 109.517C56.7587 109.354 55.7465 109.241 54.2744 109.241C52.8023 109.241 51.7901 109.354 51.7901 109.517C51.7901 109.669 51.2933 109.793 50.686 109.793C50.0787 109.793 49.5819 109.917 49.5819 110.069C49.5819 110.226 48.7538 110.345 47.6496 110.345C46.5455 110.345 45.7174 110.226 45.7174 110.069C45.7174 109.917 45.5222 109.793 45.2837 109.793C44.6387 109.793 44.0612 109.097 44.0612 108.319C44.0612 107.941 43.9061 107.56 43.7162 107.471C43.4401 107.343 43.4401 107.278 43.7162 107.15C43.9061 107.061 44.0612 106.809 44.0612 106.588C44.0612 106.057 45.8612 104.276 46.3984 104.276C46.6311 104.276 46.8215 104.152 46.8215 104C46.8215 103.848 47.07 103.724 47.3736 103.724C47.7824 103.724 47.9257 103.54 47.9257 103.015C47.9257 102.217 47.3548 101.517 46.7031 101.517C46.4646 101.517 46.2695 101.393 46.2695 101.241C46.2695 101.081 45.3494 100.966 44.0612 100.966C42.7729 100.966 41.8529 101.081 41.8529 101.241C41.8529 101.395 41.1167 101.517 40.1967 101.517C39.2767 101.517 38.5405 101.64 38.5405 101.793C38.5405 101.951 37.7124 102.069 36.6083 102.069C35.5042 102.069 34.6761 102.187 34.6761 102.345C34.6761 102.506 33.756 102.621 32.4678 102.621C31.1796 102.621 30.2595 102.736 30.2595 102.897C30.2595 103.064 29.0635 103.172 27.2232 103.172C25.3829 103.172 24.1868 103.064 24.1868 102.897C24.1868 102.743 23.4506 102.621 22.5306 102.621C21.6106 102.621 20.8744 102.498 20.8744 102.345C20.8744 102.193 20.3775 102.069 19.7703 102.069C19.163 102.069 18.6661 101.945 18.6661 101.793C18.6661 101.641 18.4765 101.517 18.2449 101.517C17.6175 101.517 15.3537 99.1371 15.3537 98.4775C15.3537 97.4419 16.56 96.5517 17.9636 96.5517C18.6537 96.5517 19.2182 96.4276 19.2182 96.2759C19.2182 96.1241 19.5908 96 20.0463 96C20.6903 96 20.8744 95.8775 20.8744 95.4483C20.8744 95.1448 20.7502 94.8965 20.5984 94.8965C20.4465 94.8965 20.3223 94.6756 20.3223 94.4058C20.3223 94.1357 20.0739 93.736 19.7703 93.5172C19.4666 93.2985 19.2182 92.8988 19.2182 92.6287C19.2182 92.3589 19.094 92.1379 18.9422 92.1379C18.7903 92.1379 18.6661 91.7655 18.6661 91.3103C18.6661 90.8552 18.7903 90.4827 18.9422 90.4827C19.094 90.4827 19.2182 90.1103 19.2182 89.6552C19.2182 89.2 19.3424 88.8276 19.4942 88.8276C19.646 88.8276 19.7703 88.5793 19.7703 88.2759C19.7703 87.9081 19.9544 87.7241 20.3223 87.7241C20.626 87.7241 20.8744 87.6 20.8744 87.4483C20.8744 87.2965 21.247 87.1724 21.7025 87.1724C22.158 87.1724 22.5306 87.2965 22.5306 87.4483C22.5306 87.6 22.8759 87.7241 23.2977 87.7241C23.7482 87.7241 24.229 87.952 24.4628 88.2759C24.6817 88.5793 25.0276 88.8276 25.2319 88.8276C25.4358 88.8276 26.2076 89.4483 26.9471 90.2069C27.6866 90.9655 28.4857 91.5862 28.7234 91.5862C28.9611 91.5862 29.1554 91.7103 29.1554 91.8621C29.1554 92.0138 29.4038 92.1379 29.7075 92.1379C30.0111 92.1379 30.2595 92.2621 30.2595 92.4138C30.2595 92.5746 31.1796 92.6897 32.4678 92.6897C33.756 92.6897 34.6761 92.5746 34.6761 92.4138C34.6761 92.2621 34.9245 92.1379 35.2281 92.1379C35.5961 92.1379 35.7802 91.9539 35.7802 91.5862C35.7802 91.2828 35.656 91.0345 35.5042 91.0345C35.3523 91.0345 35.2281 90.8135 35.2281 90.5437C35.2281 90.2736 34.9797 89.8739 34.6761 89.6552C34.3724 89.4364 34.124 89.0955 34.124 88.8974C34.124 88.395 31.7465 86.069 31.2328 86.069C31.0012 86.069 30.8116 85.9448 30.8116 85.7931C30.8116 85.6414 30.5905 85.5172 30.3205 85.5172C30.0503 85.5172 29.6503 85.269 29.4314 84.9655C29.1976 84.6416 28.7168 84.4138 28.2663 84.4138C27.8445 84.4138 27.4992 84.2896 27.4992 84.1379C27.4992 83.9862 27.2508 83.862 26.9471 83.862C26.6435 83.862 26.3951 83.7379 26.3951 83.5862C26.3951 83.4345 25.8982 83.3103 25.2909 83.3103C24.6837 83.3103 24.1868 83.1862 24.1868 83.0345C24.1868 82.8827 23.6899 82.7586 23.0827 82.7586C22.4754 82.7586 21.9785 82.6345 21.9785 82.4827C21.9785 82.3081 19.9544 82.2069 16.4579 82.2069C12.9614 82.2069 10.9372 82.1056 10.9372 81.931C10.9372 81.7776 10.201 81.6551 9.281 81.6551C8.36098 81.6551 7.6248 81.5327 7.6248 81.3793C7.6248 81.2276 7.12794 81.1034 6.52067 81.1034C5.91339 81.1034 5.41653 80.9793 5.41653 80.8276C5.41653 80.6758 5.1681 80.5517 4.86447 80.5517C4.56083 80.5517 4.3124 80.4276 4.3124 80.2758C4.3124 80.1241 4.06397 80 3.76033 80C3.4567 80 3.20827 79.8758 3.20827 79.7241C3.20827 79.5724 3.01642 79.4483 2.7818 79.4483C2.54717 79.4483 2.05031 79.1435 1.67766 78.771C1.106 78.1997 1 77.8303 1 76.4066C1 74.6712 1.36547 73.931 2.22255 73.931C2.46104 73.931 2.6562 73.8069 2.6562 73.6552C2.6562 73.4855 4.03637 73.3793 6.24463 73.3793C8.4529 73.3793 9.83307 73.4855 9.83307 73.6552C9.83307 73.8069 10.4541 73.931 11.2132 73.931C11.9723 73.931 12.5934 74.0552 12.5934 74.2069C12.5934 74.3586 13.2145 74.4827 13.9736 74.4827C14.7327 74.4827 15.3537 74.6069 15.3537 74.7586C15.3537 74.9103 15.9748 75.0345 16.7339 75.0345C17.493 75.0345 18.1141 74.9103 18.1141 74.7586C18.1141 74.6069 18.3625 74.4827 18.6661 74.4827C19.1263 74.4827 19.2182 74.2988 19.2182 73.3793C19.2182 72.7724 19.094 72.2759 18.9422 72.2759C18.7903 72.2759 18.6661 72.0852 18.6661 71.8524C18.6661 71.6196 17.424 70.1964 15.9058 68.6896C14.3876 67.1829 13.1455 65.7597 13.1455 65.5269C13.1455 65.2941 13.0213 65.1034 12.8694 65.1034C12.3635 65.1034 12.5851 64.2593 13.2711 63.5738C13.8706 62.9743 14.188 62.8965 16.0314 62.8965H18.1141V59.0345C18.1141 56.6436 18.2192 55.1724 18.3901 55.1724C18.5419 55.1724 18.6661 54.6758 18.6661 54.069C18.6661 53.4621 18.7903 52.9655 18.9422 52.9655C19.094 52.9655 19.2182 52.7172 19.2182 52.4138C19.2182 52.1103 19.3424 51.8621 19.4942 51.8621C19.646 51.8621 19.7703 51.6138 19.7703 51.3103C19.7703 50.9426 19.9544 50.7586 20.3223 50.7586C20.626 50.7586 20.8744 50.6345 20.8744 50.4827C20.8744 50.331 21.1228 50.2069 21.4265 50.2069C21.7301 50.2069 21.9785 50.0827 21.9785 49.931C21.9785 49.7793 22.227 49.6552 22.5306 49.6552C22.8342 49.6552 23.0827 49.7793 23.0827 49.931C23.0827 50.0827 23.2778 50.2069 23.5163 50.2069C24.0742 50.2069 24.7389 50.8711 24.7389 51.4287C24.7389 51.667 24.8631 51.8621 25.0149 51.8621C25.1667 51.8621 25.2909 52.2345 25.2909 52.6896C25.2909 53.1448 25.4151 53.5172 25.567 53.5172C25.7378 53.5172 25.843 54.9884 25.843 57.3793C25.843 59.7702 25.7378 61.2414 25.567 61.2414C25.3983 61.2414 25.2909 62.5288 25.2909 64.5517C25.2909 66.5746 25.3983 67.8621 25.567 67.8621C25.7188 67.8621 25.843 68.2345 25.843 68.6896C25.843 69.1448 25.9672 69.5172 26.119 69.5172C26.2708 69.5172 26.3951 69.7655 26.3951 70.069C26.3951 70.3724 26.5193 70.6207 26.6711 70.6207C26.8229 70.6207 26.9471 70.869 26.9471 71.1724C26.9471 71.4759 27.0713 71.7241 27.2232 71.7241C27.375 71.7241 27.4992 71.9724 27.4992 72.2759C27.4992 72.5793 27.6234 72.8276 27.7752 72.8276C27.927 72.8276 28.0513 73.0486 28.0513 73.3184C28.0513 73.5884 28.2997 73.9881 28.6033 74.2069C28.907 74.4256 29.1554 74.766 29.1554 74.9633C29.1554 75.4309 32.0711 78.3448 32.539 78.3448C32.7364 78.3448 33.077 78.5931 33.2959 78.8965C33.5148 79.2 33.9148 79.4483 34.185 79.4483C34.455 79.4483 34.6761 79.5724 34.6761 79.7241C34.6761 79.8758 34.9245 80 35.2281 80C35.5318 80 35.7802 80.1241 35.7802 80.2758C35.7802 80.4276 36.0286 80.5517 36.3323 80.5517C36.6359 80.5517 36.8843 80.6758 36.8843 80.8276C36.8843 81.2507 38.8044 81.155 39.2502 80.7092C39.6985 80.2615 39.7876 78.8965 39.3686 78.8965C39.2168 78.8965 39.0926 78.6483 39.0926 78.3448C39.0926 78.0414 38.9684 77.7931 38.8166 77.7931C38.6647 77.7931 38.5405 77.5721 38.5405 77.3023C38.5405 77.0322 38.2921 76.6325 37.9885 76.4138C37.6848 76.195 37.4364 75.8538 37.4364 75.6552C37.4364 75.4565 35.9458 73.8119 34.124 72C32.3022 70.1881 30.8116 68.5161 30.8116 68.2839C30.8116 68.0519 30.6874 67.8621 30.5356 67.8621C30.3837 67.8621 30.2595 67.6138 30.2595 67.3103C30.2595 67.0069 30.1353 66.7586 29.9835 66.7586C29.8317 66.7586 29.7075 66.3862 29.7075 65.931C29.7075 65.4759 29.5833 65.1034 29.4314 65.1034C29.2796 65.1034 29.1554 64.731 29.1554 64.2758C29.1554 63.8207 29.2796 63.4483 29.4314 63.4483C29.5833 63.4483 29.7075 63.1291 29.7075 62.739C29.7075 61.9514 30.2761 61.2414 30.9068 61.2414C31.1329 61.2414 31.3902 61.0863 31.4788 60.8965C31.6074 60.6207 31.672 60.6207 31.8006 60.8965C31.8892 61.0863 32.324 61.2414 32.7667 61.2414C33.2098 61.2414 33.5719 61.3655 33.5719 61.5172C33.5719 61.669 33.7638 61.7931 33.9984 61.7931C34.4828 61.7931 35.7802 62.9945 35.7802 63.443C35.7802 63.6055 36.3419 64.3001 37.0287 64.9862C38.1298 66.0869 38.3249 66.1859 38.6849 65.8262C39.1481 65.3633 39.232 64.5517 38.8166 64.5517C38.6556 64.5517 38.5405 63.6323 38.5405 62.3448C38.5405 61.0574 38.6556 60.1379 38.8166 60.1379C38.9684 60.1379 39.0926 59.9462 39.0926 59.7117C39.0926 59.0943 40.3508 57.931 41.0182 57.931C41.6782 57.931 44.6133 60.7412 44.6133 61.3732C44.6133 61.6041 44.7375 61.7931 44.8893 61.7931C45.0411 61.7931 45.1653 62.0414 45.1653 62.3448C45.1653 62.6483 45.2895 62.8965 45.4414 62.8965C45.5932 62.8965 45.7174 63.3931 45.7174 64C45.7174 64.6069 45.8416 65.1034 45.9934 65.1034C46.1679 65.1034 46.2695 67.0345 46.2695 70.3448C46.2695 73.6552 46.1679 75.5862 45.9934 75.5862C45.8297 75.5862 45.7174 76.5978 45.7174 78.069C45.7174 79.5401 45.8297 80.5517 45.9934 80.5517C46.1469 80.5517 46.2695 81.2874 46.2695 82.2069C46.2695 83.1263 46.392 83.862 46.5455 83.862C46.6973 83.862 46.8215 84.2345 46.8215 84.6896C46.8215 85.1448 46.9457 85.5172 47.0976 85.5172C47.2494 85.5172 47.3736 85.7655 47.3736 86.069C47.3736 86.3724 47.4978 86.6207 47.6496 86.6207C47.8014 86.6207 47.9257 86.869 47.9257 87.1724C47.9257 87.4759 48.0499 87.7241 48.2017 87.7241C48.3535 87.7241 48.4777 87.9451 48.4777 88.2149C48.4777 88.485 48.7262 88.8847 49.0298 89.1034C49.3334 89.3222 49.5819 89.6679 49.5819 89.872C49.5819 90.0759 50.2029 90.8472 50.962 91.5862C51.7211 92.3252 52.3422 93.0659 52.3422 93.2326C52.3422 93.632 54.1673 95.4483 54.5684 95.4483C54.7404 95.4483 55.2292 95.8207 55.6546 96.2759C56.08 96.731 56.6268 97.1034 56.8694 97.1034C57.1123 97.1034 57.3108 97.2276 57.3108 97.3793C57.3108 97.531 57.6834 97.6552 58.1389 97.6552C58.5943 97.6552 58.967 97.7793 58.967 97.931C58.967 98.0827 59.2154 98.2069 59.5191 98.2069C60.0405 98.2069 60.0711 98.0229 60.0711 94.8965C60.0711 92.8736 60.1785 91.5862 60.3472 91.5862C60.499 91.5862 60.6232 91.2703 60.6232 90.8841C60.6232 89.9801 61.7765 88.8276 62.681 88.8276C63.0675 88.8276 63.3835 88.7034 63.3835 88.5517C63.3835 88.4 63.7562 88.2759 64.2116 88.2759C64.6671 88.2759 65.0397 88.4 65.0397 88.5517C65.0397 88.7034 65.2316 88.8276 65.4662 88.8276C65.7008 88.8276 66.1977 89.1324 66.5703 89.5048C67.248 90.1818 67.248 90.1826 67.248 96.1253V96.1255C67.248 99.904 67.3485 102.069 67.524 102.069C67.6758 102.069 67.8001 102.414 67.8001 102.836C67.8001 103.286 68.0281 103.766 68.3521 104C68.6558 104.219 68.9042 104.565 68.9042 104.77C68.9042 105.25 69.5852 105.931 70.0657 105.931C70.2708 105.931 70.6175 106.179 70.8364 106.483C71.0702 106.807 71.5511 107.034 72.0016 107.034C72.4233 107.034 72.7687 107.159 72.7687 107.31C72.7687 107.462 73.2655 107.586 73.8728 107.586C74.4801 107.586 74.9769 107.462 74.9769 107.31C74.9769 107.159 75.2916 107.034 75.6761 107.034C76.4537 107.034 78.2893 105.394 78.2893 104.699C78.2893 104.466 78.4135 104.276 78.5654 104.276C78.7172 104.276 78.8414 104.028 78.8414 103.724C78.8414 103.421 78.9656 103.172 79.1174 103.172C79.2692 103.172 79.3935 102.8 79.3935 102.345C79.3935 101.89 79.5177 101.517 79.6695 101.517C79.8213 101.517 79.9455 101.021 79.9455 100.414C79.9455 99.8069 80.0697 99.3103 80.2216 99.3103C80.3734 99.3103 80.4976 98.8138 80.4976 98.2069C80.4976 97.6 80.6218 97.1034 80.7736 97.1034C80.9254 97.1034 81.0497 96.4827 81.0497 95.7241C81.0497 94.9655 81.1739 94.3448 81.3257 94.3448C81.4913 94.3448 81.6017 93.2414 81.6017 91.5862C81.6017 89.931 81.4913 88.8276 81.3257 88.8276C81.1739 88.8276 81.0497 88.4552 81.0497 88C81.0497 87.5448 80.9254 87.1724 80.7736 87.1724C80.6218 87.1724 80.4976 86.9241 80.4976 86.6207C80.4976 86.3172 80.3734 86.069 80.2216 86.069C80.0697 86.069 79.9455 85.848 79.9455 85.5782C79.9455 85.3081 79.6971 84.9084 79.3935 84.6896C79.0898 84.4709 78.8414 84.1305 78.8414 83.9332C78.8414 83.4656 75.9257 80.5517 75.4578 80.5517C75.2604 80.5517 74.9198 80.3034 74.7009 80C74.482 79.6965 74.1094 79.4483 73.8728 79.4483C73.6362 79.4483 73.2636 79.2 73.0447 78.8965C72.8258 78.5931 72.4258 78.3448 72.1556 78.3448C71.8856 78.3448 71.6645 78.2207 71.6645 78.069C71.6645 77.9172 71.4161 77.7931 71.1125 77.7931C70.8088 77.7931 70.5604 77.669 70.5604 77.5172C70.5604 77.3655 70.1878 77.2414 69.7323 77.2414C69.2768 77.2414 68.9042 77.1172 68.9042 76.9655C68.9042 76.8138 68.5315 76.6896 68.0761 76.6896C67.6206 76.6896 67.248 76.5655 67.248 76.4138C67.248 76.2621 66.8754 76.1379 66.4199 76.1379C65.9644 76.1379 65.5918 76.0138 65.5918 75.8621C65.5918 75.7103 65.0949 75.5862 64.4877 75.5862C63.8804 75.5862 63.3835 75.4621 63.3835 75.3103C63.3835 75.1586 62.7625 75.0345 62.0034 75.0345C61.2443 75.0345 60.6232 74.9103 60.6232 74.7586C60.6232 74.6069 60.0021 74.4827 59.243 74.4827C58.4839 74.4827 57.8629 74.3586 57.8629 74.2069C57.8629 74.0552 57.366 73.931 56.7587 73.931C56.1515 73.931 55.6546 73.8069 55.6546 73.6552C55.6546 73.5034 55.4062 73.3793 55.1025 73.3793C54.7346 73.3793 54.5505 73.1953 54.5505 72.8276C54.5505 72.5241 54.4262 72.2759 54.2744 72.2759C54.1226 72.2759 53.9984 72.0276 53.9984 71.7241C53.9984 71.4207 54.1226 71.1724 54.2744 71.1724C54.4262 71.1724 54.5505 70.9774 54.5505 70.739C54.5505 70.1815 55.2151 69.5172 55.773 69.5172C56.0115 69.5172 56.2067 69.3931 56.2067 69.2414C56.2067 69.0896 56.7035 68.9655 57.3108 68.9655C57.9181 68.9655 58.4149 69.0896 58.4149 69.2414C58.4149 69.3931 58.6634 69.5172 58.967 69.5172C59.4578 69.5172 59.5191 69.3332 59.5191 67.8621C59.5191 66.9426 59.3965 66.2069 59.243 66.2069C59.0912 66.2069 58.967 65.9586 58.967 65.6552C58.967 65.3517 58.8428 65.1034 58.691 65.1034C58.5391 65.1034 58.4149 64.8552 58.4149 64.5517C58.4149 64.2483 58.2907 64 58.1389 64C57.9871 64 57.8629 63.7517 57.8629 63.4483C57.8629 63.1448 57.7386 62.8965 57.5868 62.8965C57.435 62.8965 57.3108 62.6756 57.3108 62.4058C57.3108 62.1357 57.0624 61.736 56.7587 61.5172C56.4551 61.2985 56.2067 60.8988 56.2067 60.6287C56.2067 60.3589 56.0824 60.1379 55.9306 60.1379C55.7788 60.1379 55.6546 59.8896 55.6546 59.5862C55.6546 59.2827 55.5304 59.0345 55.3786 59.0345C55.2267 59.0345 55.1025 58.7862 55.1025 58.4827C55.1025 58.1793 54.9783 57.931 54.8265 57.931C54.6747 57.931 54.5505 57.6827 54.5505 57.3793C54.5505 57.0759 54.4262 56.8276 54.2744 56.8276C54.1226 56.8276 53.9984 56.6066 53.9984 56.3368C53.9984 56.0667 53.75 55.667 53.4463 55.4483C53.1427 55.2295 52.8943 54.8571 52.8943 54.6207C52.8943 54.3843 52.6458 54.0119 52.3422 53.7931C52.0386 53.5743 51.7901 53.2342 51.7901 53.0375C51.7901 52.571 48.3204 49.1034 47.8536 49.1034C47.6568 49.1034 47.3165 48.8552 47.0976 48.5517C46.8638 48.2279 46.3829 48 45.9324 48C45.5106 48 45.1653 47.8759 45.1653 47.7241C45.1653 47.5724 44.9169 47.4483 44.6133 47.4483C44.3096 47.4483 44.0612 47.3241 44.0612 47.1724C44.0612 47.0207 43.4401 46.8965 42.681 46.8965C41.9219 46.8965 41.3009 46.7724 41.3009 46.6207C41.3009 46.469 40.9282 46.3448 40.4728 46.3448C40.0173 46.3448 39.6447 46.2207 39.6447 46.069C39.6447 45.9172 39.3261 45.7931 38.9366 45.7931C38.4503 45.7931 37.8077 45.3614 36.8843 44.4138C36.1448 43.6552 35.3954 43.0345 35.2187 43.0345C35.0421 43.0345 34.5494 42.6621 34.124 42.2069C33.6986 41.7517 33.1791 41.3793 32.9702 41.3793C32.7609 41.3793 32.4107 41.131 32.1918 40.8276C31.958 40.5037 31.4771 40.2758 31.0266 40.2758C30.6049 40.2758 30.2595 40.1517 30.2595 40C30.2595 39.827 28.5114 39.7241 25.567 39.7241C22.6225 39.7241 20.8744 39.6212 20.8744 39.4483C20.8744 39.2965 20.626 39.1724 20.3223 39.1724C20.0187 39.1724 19.7703 39.0483 19.7703 38.8965C19.7703 38.7448 19.5806 38.6207 19.349 38.6207C18.8011 38.6207 16.4579 36.2789 16.4579 35.7313C16.4579 35.4998 16.3337 35.3103 16.1818 35.3103C16.03 35.3103 15.9058 35.0621 15.9058 34.7586C15.9058 34.4552 15.7816 34.2069 15.6298 34.2069C15.4722 34.2069 15.3537 33.3793 15.3537 32.2758C15.3537 31.1724 15.4722 30.3448 15.6298 30.3448C15.7816 30.3448 15.9058 30.1531 15.9058 29.9186C15.9058 29.6841 16.2108 29.1876 16.5835 28.8152C17.1041 28.2946 17.5515 28.1379 18.5157 28.1379C19.2058 28.1379 19.7703 28.2621 19.7703 28.4138C19.7703 28.5655 19.9914 28.6896 20.2613 28.6896C20.5316 28.6896 20.9315 28.9379 21.1504 29.2414C21.3693 29.5448 21.742 29.7931 21.9785 29.7931C22.2151 29.7931 22.5877 30.0414 22.8066 30.3448C23.0255 30.6483 23.4255 30.8965 23.6957 30.8965C23.9657 30.8965 24.1868 31.0207 24.1868 31.1724C24.1868 31.3241 24.5594 31.4483 25.0149 31.4483H25.843V29.7931C25.843 28.8736 25.7204 28.1379 25.567 28.1379C25.4151 28.1379 25.2909 27.6414 25.2909 27.0345C25.2909 26.4276 25.1667 25.931 25.0149 25.931C24.8631 25.931 24.7389 25.5586 24.7389 25.1034C24.7389 24.6483 24.8631 24.2758 25.0149 24.2758C25.1667 24.2758 25.2909 23.8325 25.2909 23.2907C25.2909 22.7487 25.4684 22.128 25.6854 21.9114C26.1312 21.4656 28.0513 21.3699 28.0513 21.7931C28.0513 21.9448 28.2431 22.069 28.4777 22.069C28.9732 22.069 30.2595 23.2745 30.2595 23.7387C30.2595 23.9125 30.6322 24.4025 31.0876 24.8276C31.5431 25.2527 31.9157 25.7718 31.9157 25.9807C31.9157 26.1898 32.1642 26.5398 32.4678 26.7586C32.7714 26.9774 33.0199 27.3771 33.0199 27.6472C33.0199 27.917 33.1441 28.1379 33.2959 28.1379C33.4477 28.1379 33.5719 28.3862 33.5719 28.6896C33.5719 28.9931 33.6961 29.2414 33.848 29.2414C33.9998 29.2414 34.124 29.4896 34.124 29.7931C34.124 30.0965 34.2482 30.3448 34.4 30.3448C34.5518 30.3448 34.6761 30.5931 34.6761 30.8965C34.6761 31.2 34.8003 31.4483 34.9521 31.4483C35.1039 31.4483 35.2281 31.6965 35.2281 32C35.2281 32.3034 35.3523 32.5517 35.5042 32.5517C35.656 32.5517 35.7802 32.7434 35.7802 32.9779C35.7802 33.6483 37.0632 34.7586 37.838 34.7586C38.5127 34.7586 38.5405 34.693 38.5405 33.1034C38.5405 32.184 38.418 31.4483 38.2645 31.4483C38.1069 31.4483 37.9885 30.6207 37.9885 29.5172C37.9885 28.4138 38.1069 27.5862 38.2645 27.5862C38.4163 27.5862 38.5405 27.3945 38.5405 27.16C38.5405 26.3029 39.8274 25.3793 41.0215 25.3793C41.9382 25.3793 42.3252 25.5569 43.1042 26.3357C43.6306 26.8615 44.0612 27.4822 44.0612 27.715C44.0612 27.9476 44.1854 28.1379 44.3372 28.1379C44.489 28.1379 44.6133 28.7586 44.6133 29.5172C44.6133 30.2758 44.7375 30.8965 44.8893 30.8965C45.0549 30.8965 45.1653 32 45.1653 33.6552C45.1653 35.3103 45.2757 36.4138 45.4414 36.4138C45.5932 36.4138 45.7174 36.9103 45.7174 37.5172C45.7174 38.1241 45.8416 38.6207 45.9934 38.6207C46.1452 38.6207 46.2695 38.869 46.2695 39.1724C46.2695 39.4758 46.3937 39.7241 46.5455 39.7241C46.6973 39.7241 46.8215 39.9724 46.8215 40.2758C46.8215 40.7247 47.0056 40.8276 47.8072 40.8276C48.8512 40.8276 49.5819 40.3247 49.5819 39.6058C49.5819 39.3674 49.7061 39.1724 49.8579 39.1724C50.0335 39.1724 50.1339 36.9655 50.1339 33.1034C50.1339 29.2414 50.0335 27.0345 49.8579 27.0345C49.6892 27.0345 49.5819 25.747 49.5819 23.7241C49.5819 21.7012 49.4745 20.4138 49.3058 20.4138C49.1361 20.4138 49.0298 19.0345 49.0298 16.8276C49.0298 14.6207 49.1361 13.2414 49.3058 13.2414C49.4576 13.2414 49.5819 12.8689 49.5819 12.4138C49.5819 11.9586 49.7061 11.5862 49.8579 11.5862C50.0097 11.5862 50.1339 11.3912 50.1339 11.1528C50.1339 10.4623 50.8511 9.93102 51.783 9.93102C52.8449 9.93102 53.9984 11.0019 53.9984 11.9876C53.9984 12.3738 54.1226 12.6896 54.2744 12.6896C54.4262 12.6896 54.5505 13.0621 54.5505 13.5172C54.5505 13.9724 54.6747 14.3448 54.8265 14.3448C54.9783 14.3448 55.1025 14.7172 55.1025 15.1724C55.1025 15.741 55.2383 16 55.5362 16C56.094 16 56.7587 15.3357 56.7587 14.7782C56.7587 14.5398 56.8829 14.3448 57.0348 14.3448C57.1866 14.3448 57.3108 14.1553 57.3108 13.9238C57.3108 13.3763 59.654 11.0345 60.202 11.0345C60.4336 11.0345 60.6232 10.9103 60.6232 10.7586C60.6232 10.6069 60.8716 10.4827 61.1753 10.4827C61.4789 10.4827 61.7273 10.3586 61.7273 10.2069C61.7273 10.0552 62.3484 9.93102 63.1075 9.93102C63.8666 9.93102 64.4877 10.0552 64.4877 10.2069C64.4877 10.3586 64.7361 10.4827 65.0397 10.4827C65.4077 10.4827 65.5918 10.6667 65.5918 11.0345C65.5918 11.3379 65.716 11.5862 65.8678 11.5862C66.0254 11.5862 66.1439 12.4138 66.1439 13.5172C66.1439 14.6207 66.0254 15.4483 65.8678 15.4483C65.716 15.4483 65.5918 15.9448 65.5918 16.5517C65.5918 17.1586 65.4676 17.6552 65.3158 17.6552C65.1639 17.6552 65.0397 17.9034 65.0397 18.2069C65.0397 18.5103 64.9155 18.7586 64.7637 18.7586C64.6119 18.7586 64.4877 19.131 64.4877 19.5862C64.4877 20.0414 64.3634 20.4138 64.2116 20.4138C64.0598 20.4138 63.9356 20.6621 63.9356 20.9655C63.9356 21.269 63.8114 21.5172 63.6596 21.5172C63.5077 21.5172 63.3835 21.7655 63.3835 22.069C63.3835 22.3724 63.2593 22.6207 63.1075 22.6207C62.9557 22.6207 62.8315 22.869 62.8315 23.1724C62.8315 23.4758 62.7072 23.7241 62.5554 23.7241C62.4036 23.7241 62.2794 23.9724 62.2794 24.2758C62.2794 24.5793 62.1552 24.8276 62.0034 24.8276C61.8515 24.8276 61.7273 25.2 61.7273 25.6552C61.7273 26.1103 61.6031 26.4827 61.4513 26.4827C61.2995 26.4827 61.1753 26.8552 61.1753 27.3103C61.1753 27.7655 61.051 28.1379 60.8992 28.1379C60.7474 28.1379 60.6232 28.6345 60.6232 29.2414C60.6232 29.8483 60.499 30.3448 60.3472 30.3448C60.1953 30.3448 60.0711 30.9655 60.0711 31.7241C60.0711 32.4827 59.9469 33.1034 59.7951 33.1034C59.6416 33.1034 59.5191 33.8392 59.5191 34.7586C59.5191 35.6781 59.3965 36.4138 59.243 36.4138C59.0691 36.4138 58.967 38.253 58.967 41.3793C58.967 44.5056 59.0691 46.3448 59.243 46.3448C59.3948 46.3448 59.5191 46.8414 59.5191 47.4483C59.5191 48.0552 59.6433 48.5517 59.7951 48.5517C59.9469 48.5517 60.0711 48.8 60.0711 49.1034C60.0711 49.4069 60.1953 49.6552 60.3472 49.6552C60.499 49.6552 60.6232 49.8469 60.6232 50.0814C60.6232 50.5655 61.8253 51.8621 62.2741 51.8621C62.6959 51.8621 65.0397 49.4651 65.0397 49.0336C65.0397 48.8356 65.2882 48.4946 65.5918 48.2758C65.8954 48.0571 66.1439 47.6847 66.1439 47.4483C66.1439 47.2118 66.3923 46.8394 66.6959 46.6207C66.9996 46.4019 67.248 46.0022 67.248 45.7321C67.248 45.4623 67.3722 45.2414 67.524 45.2414C67.6758 45.2414 67.8001 44.9931 67.8001 44.6896C67.8001 44.3862 67.9243 44.1379 68.0761 44.1379C68.2279 44.1379 68.3521 43.9169 68.3521 43.6471C68.3521 43.3771 68.6006 42.9774 68.9042 42.7586C69.2078 42.5398 69.4563 42.1401 69.4563 41.8701C69.4563 41.6003 69.5805 41.3793 69.7323 41.3793C69.8841 41.3793 70.0083 41.131 70.0083 40.8276C70.0083 40.5241 70.1325 40.2758 70.2844 40.2758C70.4362 40.2758 70.5604 40.0276 70.5604 39.7241C70.5604 39.4207 70.6846 39.1724 70.8364 39.1724C70.9882 39.1724 71.1125 38.9241 71.1125 38.6207C71.1125 38.3172 71.2367 38.069 71.3885 38.069C71.5403 38.069 71.6645 37.8207 71.6645 37.5172C71.6645 37.2138 71.7887 36.9655 71.9406 36.9655C72.0924 36.9655 72.2166 36.7172 72.2166 36.4138C72.2166 36.1103 72.3408 35.8621 72.4926 35.8621C72.6444 35.8621 72.7687 35.6138 72.7687 35.3103C72.7687 35.0069 72.8929 34.7586 73.0447 34.7586C73.2194 34.7586 73.3207 32.7357 73.3207 29.2414C73.3207 25.747 73.2194 23.7241 73.0447 23.7241C72.8774 23.7241 72.7687 22.5288 72.7687 20.6896C72.7687 18.8505 72.8774 17.6552 73.0447 17.6552C73.1965 17.6552 73.3207 17.0345 73.3207 16.2758C73.3207 15.5172 73.4449 14.8965 73.5968 14.8965C73.7486 14.8965 73.8728 14.7048 73.8728 14.4703C73.8728 14.2359 74.1778 13.7393 74.5505 13.3669C75.2364 12.6814 76.0811 12.4598 76.0811 12.9655C76.0811 13.1172 76.2762 13.2414 76.5147 13.2414C76.7535 13.2414 77.1261 13.4187 77.3428 13.6356C77.5598 13.8521 77.7373 14.2245 77.7373 14.4632C77.7373 14.7015 77.8615 14.8965 78.0133 14.8965C78.1883 14.8965 78.2893 16.9721 78.2893 20.5713C78.2893 25.2259 78.363 26.32 78.6998 26.6565C79.063 27.0196 79.19 26.987 79.8039 26.3735C80.1854 25.9923 80.4976 25.4883 80.4976 25.2538C80.4976 25.0193 80.6218 24.8276 80.7736 24.8276C80.9254 24.8276 81.0497 24.331 81.0497 23.7241C81.0497 23.1172 81.1739 22.6207 81.3257 22.6207C81.4775 22.6207 81.6017 22.1829 81.6017 21.648C81.6017 20.3233 83.6424 18.2069 84.9194 18.2069C85.8353 18.2069 87.1224 19.2472 87.1224 19.9876C87.1224 20.2221 87.2466 20.4138 87.3984 20.4138C87.5502 20.4138 87.6745 20.9103 87.6745 21.5172C87.6745 22.1241 87.5502 22.6207 87.3984 22.6207C87.2466 22.6207 87.1224 23.1172 87.1224 23.7241C87.1224 24.331 86.9982 24.8276 86.8464 24.8276C86.6945 24.8276 86.5703 25.2 86.5703 25.6552C86.5703 26.1103 86.4461 26.4827 86.2943 26.4827C86.1425 26.4827 86.0183 26.7037 86.0183 26.9735C86.0183 27.2436 85.7698 27.6433 85.4662 27.8621C85.1626 28.0808 84.9141 28.4532 84.9141 28.6896C84.9141 28.9261 84.6657 29.2985 84.3621 29.5172C84.0584 29.736 83.81 30.1357 83.81 30.4058C83.81 30.6756 83.6858 30.8965 83.534 30.8965C83.3821 30.8965 83.2579 31.1448 83.2579 31.4483C83.2579 31.7517 83.1337 32 82.9819 32C82.8301 32 82.7059 32.2483 82.7059 32.5517C82.7059 32.8552 82.5816 33.1034 82.4298 33.1034C82.278 33.1034 82.1538 33.3517 82.1538 33.6552C82.1538 33.9586 82.0296 34.2069 81.8778 34.2069C81.4587 34.2069 81.5479 35.5718 81.9962 36.0196C82.4483 36.4717 83.2579 36.5476 83.2579 36.1379C83.2579 35.9862 83.5064 35.8621 83.81 35.8621C84.1136 35.8621 84.3621 35.7379 84.3621 35.5862C84.3621 35.4345 84.7347 35.3103 85.1902 35.3103C85.6456 35.3103 86.0183 35.1862 86.0183 35.0345C86.0183 34.8786 86.8069 34.7586 87.8321 34.7586C89.6972 34.7586 90.4348 35.1048 90.4348 35.9804C90.4348 36.2188 90.559 36.4138 90.7108 36.4138C90.8626 36.4138 90.9869 36.6621 90.9869 36.9655C90.9869 37.269 90.8626 37.5172 90.7108 37.5172C90.559 37.5172 90.4348 37.7089 90.4348 37.9434C90.4348 38.4648 89.2178 39.7241 88.714 39.7241C88.513 39.7241 88.1694 39.9724 87.9505 40.2758C87.7316 40.5793 87.3316 40.8276 87.0614 40.8276C86.7914 40.8276 86.5703 40.9517 86.5703 41.1034C86.5703 41.2552 86.3492 41.3793 86.0793 41.3793C85.809 41.3793 85.4091 41.6276 85.1902 41.931C84.9713 42.2345 84.5713 42.4827 84.3011 42.4827C84.0311 42.4827 83.81 42.6069 83.81 42.7586C83.81 42.9103 83.5889 43.0345 83.3189 43.0345C83.0487 43.0345 82.6487 43.2827 82.4298 43.5862C82.2109 43.8896 81.8651 44.1379 81.6608 44.1379C81.4568 44.1379 80.685 44.7586 79.9455 45.5172C79.206 46.2758 78.4069 46.8965 78.1693 46.8965C77.9316 46.8965 77.7373 47.0207 77.7373 47.1724C77.7373 47.3241 77.5162 47.4483 77.2462 47.4483C76.976 47.4483 76.576 47.6965 76.3571 48C76.1382 48.3034 75.7907 48.5517 75.5845 48.5517C75.3783 48.5517 74.7324 49.0483 74.1488 49.6552C73.5653 50.2621 72.8921 50.7586 72.6522 50.7586C72.4126 50.7586 72.2166 50.9796 72.2166 51.2494C72.2166 51.5195 71.9682 51.9192 71.6645 52.1379C71.3609 52.3567 71.1125 52.7564 71.1125 53.0265C71.1125 53.2962 70.9882 53.5172 70.8364 53.5172C70.6846 53.5172 70.5604 53.7655 70.5604 54.069C70.5604 54.3724 70.4362 54.6207 70.2844 54.6207C70.1325 54.6207 70.0083 54.9931 70.0083 55.4483C70.0083 55.9034 69.8841 56.2759 69.7323 56.2759C69.5747 56.2759 69.4563 57.1034 69.4563 58.2069C69.4563 59.3103 69.5747 60.1379 69.7323 60.1379C69.8858 60.1379 70.0083 60.8736 70.0083 61.7931C70.0083 62.7125 70.1309 63.4483 70.2844 63.4483C70.4362 63.4483 70.5604 63.6965 70.5604 64C70.5604 64.3034 70.6846 64.5517 70.8364 64.5517C70.9882 64.5517 71.1125 64.7435 71.1125 64.9779C71.1125 65.4731 72.3187 66.7586 72.7833 66.7586C72.9572 66.7586 73.4474 67.131 73.8728 67.5862C74.2982 68.0414 74.845 68.4138 75.0876 68.4138C75.3305 68.4138 75.529 68.5379 75.529 68.6896C75.529 69.0993 76.3386 69.0235 76.7907 68.5713C77.2368 68.1258 77.3326 66.2069 76.9092 66.2069C76.7573 66.2069 76.6331 65.9859 76.6331 65.7161C76.6331 65.446 76.3847 65.0463 76.0811 64.8276C75.7774 64.6088 75.529 64.2632 75.529 64.059C75.529 63.8552 74.9079 63.0839 74.1488 62.3448C73.3897 61.6058 72.7687 60.8345 72.7687 60.6306C72.7687 60.4265 72.5202 60.0808 72.2166 59.8621C71.913 59.6433 71.6645 59.2436 71.6645 58.9735C71.6645 58.7037 71.5403 58.4827 71.3885 58.4827C71.2367 58.4827 71.1125 58.1103 71.1125 57.6552C71.1125 57.2 70.9882 56.8276 70.8364 56.8276C70.6846 56.8276 70.5604 56.4552 70.5604 56C70.5604 55.5448 70.6846 55.1724 70.8364 55.1724C70.9882 55.1724 71.1125 54.9241 71.1125 54.6207C71.1125 54.253 71.2966 54.069 71.6645 54.069C71.9682 54.069 72.2166 53.9448 72.2166 53.7931C72.2166 53.6414 72.465 53.5172 72.7687 53.5172C73.0723 53.5172 73.3207 53.6414 73.3207 53.7931C73.3207 53.9448 73.5131 54.069 73.748 54.069C73.9832 54.069 75.033 54.9379 76.0811 56C77.1292 57.0621 78.1256 57.931 78.2957 57.931C78.8345 57.931 79.3935 57.1686 79.3935 56.4334C79.3935 56.0433 79.5177 55.7241 79.6695 55.7241C79.8304 55.7241 79.9455 54.8047 79.9455 53.5172C79.9455 52.2298 80.0606 51.3103 80.2216 51.3103C80.3734 51.3103 80.4976 51.12 80.4976 50.8874C80.4976 50.1018 82.3365 48.5517 83.2684 48.5517C84.1975 48.5517 84.9141 49.0836 84.9141 49.7735C84.9141 50.0118 85.0383 50.2069 85.1902 50.2069C85.342 50.2069 85.4662 50.5793 85.4662 51.0345C85.4662 51.4896 85.5904 51.8621 85.7422 51.8621C85.9059 51.8621 86.0183 52.8736 86.0183 54.3448C86.0183 55.816 85.9059 56.8276 85.7422 56.8276C85.5904 56.8276 85.4662 57.3241 85.4662 57.931C85.4662 58.5379 85.342 59.0345 85.1902 59.0345C85.0367 59.0345 84.9141 59.7702 84.9141 60.6896C84.9141 61.6091 84.7916 62.3448 84.6381 62.3448C84.4772 62.3448 84.3621 63.2643 84.3621 64.5517C84.3621 65.8392 84.247 66.7586 84.086 66.7586C83.9174 66.7586 83.81 68.0461 83.81 70.069C83.81 72.0919 83.9174 73.3793 84.086 73.3793C84.2378 73.3793 84.3621 73.5743 84.3621 73.8127C84.3621 75.1139 86.4373 75.4684 87.5489 74.3572C87.9215 73.9848 88.2265 73.4883 88.2265 73.2538C88.2265 73.0193 88.3507 72.8276 88.5026 72.8276C88.6544 72.8276 88.7786 72.4552 88.7786 72C88.7786 71.5448 88.9028 71.1724 89.0546 71.1724C89.2064 71.1724 89.3307 70.8 89.3307 70.3448C89.3307 69.8896 89.4549 69.5172 89.6067 69.5172C89.7585 69.5172 89.8827 69.1448 89.8827 68.6896C89.8827 68.2345 90.0069 67.8621 90.1588 67.8621C90.3106 67.8621 90.4348 67.4896 90.4348 67.0345C90.4348 66.5793 90.559 66.2069 90.7108 66.2069C90.8626 66.2069 90.9869 65.8345 90.9869 65.3793C90.9869 64.9241 91.1111 64.5517 91.2629 64.5517C91.4147 64.5517 91.5389 64.0552 91.5389 63.4483C91.5389 62.8414 91.6631 62.3448 91.815 62.3448C91.9668 62.3448 92.091 61.9724 92.091 61.5172C92.091 61.0621 92.2152 60.6896 92.367 60.6896C92.5188 60.6896 92.6431 60.3172 92.6431 59.8621C92.6431 59.4069 92.7673 59.0345 92.9191 59.0345C93.0709 59.0345 93.1951 58.7862 93.1951 58.4827C93.1951 58.1793 93.3193 57.931 93.4712 57.931C93.623 57.931 93.7472 57.5586 93.7472 57.1034C93.7472 56.6483 93.8714 56.2759 94.0232 56.2759C94.175 56.2759 94.2993 55.9034 94.2993 55.4483C94.2993 54.9931 94.4235 54.6207 94.5753 54.6207C94.7271 54.6207 94.8513 54.3724 94.8513 54.069C94.8513 53.7655 94.9755 53.5172 95.1274 53.5172C95.2792 53.5172 95.4034 53.269 95.4034 52.9655C95.4034 52.6621 95.5276 52.4138 95.6794 52.4138C95.8312 52.4138 95.9555 52.0414 95.9555 51.5862C95.9555 51.131 96.0797 50.7586 96.2315 50.7586C96.3833 50.7586 96.5075 50.5103 96.5075 50.2069C96.5075 49.9034 96.6317 49.6552 96.7836 49.6552C96.9354 49.6552 97.0596 49.4069 97.0596 49.1034C97.0596 48.8 97.1838 48.5517 97.3356 48.5517C97.4874 48.5517 97.6117 48.1793 97.6117 47.7241C97.6117 47.269 97.7359 46.8965 97.8877 46.8965C98.0395 46.8965 98.1637 46.5241 98.1637 46.069C98.1637 45.6138 98.2879 45.2414 98.4398 45.2414C98.5916 45.2414 98.7158 44.869 98.7158 44.4138C98.7158 43.9586 98.84 43.5862 98.9918 43.5862C99.1436 43.5862 99.2679 43.2138 99.2679 42.7586C99.2679 42.3034 99.3921 41.931 99.5439 41.931C99.6957 41.931 99.8199 41.5586 99.8199 41.1034C99.8199 40.6483 99.9441 40.2758 100.096 40.2758C100.249 40.2758 100.372 39.5401 100.372 38.6207C100.372 37.7012 100.495 36.9655 100.648 36.9655C100.819 36.9655 100.924 35.4943 100.924 33.1034C100.924 30.7125 100.819 29.2414 100.648 29.2414C100.496 29.2414 100.372 29.0204 100.372 28.7506C100.372 28.4805 100.124 28.0808 99.8199 27.8621C99.5163 27.6433 99.2679 27.2932 99.2679 27.0841C99.2679 26.8753 98.8952 26.3561 98.4398 25.931C97.9843 25.5059 97.6117 24.9867 97.6117 24.7779C97.6117 24.5688 97.3632 24.2187 97.0596 24C96.756 23.7812 96.5075 23.3815 96.5075 23.1114C96.5075 22.8416 96.3833 22.6207 96.2315 22.6207C96.0797 22.6207 95.9555 22.3724 95.9555 22.069C95.9555 21.7655 95.8312 21.5172 95.6794 21.5172C95.5276 21.5172 95.4034 21.269 95.4034 20.9655C95.4034 20.6621 95.2792 20.4138 95.1274 20.4138C94.9755 20.4138 94.8513 20.1655 94.8513 19.8621C94.8513 19.5586 94.7271 19.3103 94.5753 19.3103C94.4235 19.3103 94.2993 19.0621 94.2993 18.7586C94.2993 18.4552 94.175 18.2069 94.0232 18.2069C93.8714 18.2069 93.7472 17.9586 93.7472 17.6552C93.7472 17.3517 93.623 17.1034 93.4712 17.1034C93.3193 17.1034 93.1951 16.8552 93.1951 16.5517C93.1951 16.2483 93.0709 16 92.9191 16C92.7673 16 92.6431 15.7517 92.6431 15.4483C92.6431 15.1448 92.5188 14.8965 92.367 14.8965C92.2152 14.8965 92.091 14.6483 92.091 14.3448C92.091 14.0414 91.9668 13.7931 91.815 13.7931C91.6631 13.7931 91.5389 13.5448 91.5389 13.2414C91.5389 12.9379 91.4147 12.6896 91.2629 12.6896C91.1111 12.6896 90.9869 12.3172 90.9869 11.8621C90.9869 11.4069 90.8626 11.0345 90.7108 11.0345C90.559 11.0345 90.4348 10.6621 90.4348 10.2069C90.4348 9.75171 90.3106 9.37929 90.1588 9.37929C90.0069 9.37929 89.8827 8.88276 89.8827 8.27586C89.8827 7.66897 89.7585 7.17241 89.6067 7.17241C89.4549 7.17241 89.3307 6.55172 89.3307 5.7931C89.3307 5.03448 89.2064 4.41379 89.0546 4.41379C88.9028 4.41379 88.7786 4.04138 88.7786 3.58621C88.7786 3.13103 88.9028 2.75862 89.0546 2.75862C89.2064 2.75862 89.3307 2.5669 89.3307 2.33242C89.3307 1.78042 90.5601 0.551724 91.1124 0.551724Z" fill="#01010E"/>
</svg>
