<svg width="3938" height="2893" viewBox="0 0 3938 2893" fill="none" xmlns="http://www.w3.org/2000/svg">
<g clip-path="url(#clip0)">
<path opacity="0.1" d="M2955 938C3189.5 402.722 3721.5 111.889 3941 111.889V2954H-8C124 2705.69 843.86 2647.99 1107.5 2194.5C1425.5 1647.5 2326.5 1700.41 2393.5 1396.5C2465.11 1071.68 2720.5 1473.28 2955 938Z" fill="black"/>
<path opacity="0.5" d="M3805 975C4051.25 466.919 4331.5 0 4562 0V2954H428C566.614 2718.3 1559.19 2673.65 1965 2519.5C2918 2157.5 2944.54 1480.46 3154.5 1270.5C3450 975 3558.75 1483.08 3805 975Z" fill="black"/>
<path opacity="0.5" d="M3598 2009.5C3820.42 1645.04 4054.81 546.5 4263 546.5L4562 2954H828C953.201 2784.93 1551 2947.77 1817 2719C2610.32 2036.7 3051.23 2905.44 3598 2009.5Z" fill="black"/>
</g>
<defs>
<clipPath id="clip0">
<rect width="3938" height="2893" fill="white" transform="matrix(-1 0 0 1 3938 0)"/>
</clipPath>
</defs>
</svg>
