<svg width="501" height="65" viewBox="0 0 501 65" fill="none" xmlns="http://www.w3.org/2000/svg">
<mask id="mask0" mask-type="alpha" maskUnits="userSpaceOnUse" x="0" y="0" width="501" height="65">
<rect width="501" height="65" fill="white"/>
</mask>
<g mask="url(#mask0)">
<path fill-rule="evenodd" clip-rule="evenodd" d="M-188.064 13.1279C-282.221 -4.73679 -376.461 -4.82508 -470.619 12.8631C-526.393 16.9605 -616.315 16.9757 -741.145 12.7044L-742.855 62.6751C-616.796 66.9885 -524.078 67.0395 -465.481 62.6189L-464.081 62.5133L-462.702 62.2516C-461.292 61.9841 -459.883 61.721 -458.473 61.4621V571H1993.65V61.2123C1995.78 61.5695 1997.91 61.9358 2000.04 62.311L2008.71 13.0685C1914.3 -3.55582 1819.82 -3.55582 1725.41 13.0685L1725.33 13.0823L1725.25 13.0966C1633 29.946 1544.63 29.8786 1459.95 13.163L1459.85 13.1451L1459.76 13.1279C1365.31 -4.79326 1270.77 -4.82546 1176.32 13.0313C1104.22 23.6248 1015.13 23.743 908.601 12.843C815.137 1.55278 721.651 1.56203 628.187 12.8708L628.028 12.89L627.869 12.9113C527.147 26.41 438.213 26.2744 360.761 13.0466L360.513 13.0043L360.265 12.967C266.257 -1.15149 172.208 -1.1515 78.201 12.967L77.9904 12.9987L77.7803 13.0339C-23.5485 30.0225 -111.769 29.7887 -187.387 13.266L-187.725 13.1923L-188.064 13.1279Z" fill="#01010E"/>
</g>
</svg>
