<svg width="3938" height="2893" viewBox="0 0 3938 2893" fill="none" xmlns="http://www.w3.org/2000/svg">
<g clip-path="url(#clip0)">
<path opacity="0.1" d="M1094 482.507C859.5 -52.7713 216.5 111.889 -3 111.889V2954H3946C3814 2705.69 3104 2290.06 2586.5 2375.84C2165 2445.7 1988.5 1741.02 1921.5 1437.11C1849.89 1112.29 1328.5 1017.79 1094 482.507Z" fill="black"/>
<path opacity="0.5" d="M369.09 591.01C122.841 82.9297 -393.503 0 -624 0V2954H3510C3371.39 2718.3 2258.4 2543.5 1963.9 2224.58C1711.21 1950.92 676.371 1937.3 606.015 1648.83C530.815 1340.51 615.339 1099.09 369.09 591.01Z" fill="black"/>
<path opacity="0.5" d="M206.5 1662.5C-15.9223 1298.04 -415.805 1662.5 -624 1662.5V2954H3110C2984.8 2784.93 1662 2866.28 1396 2637.5C602.678 1955.2 753.267 2558.44 206.5 1662.5Z" fill="black"/>
</g>
<defs>
<clipPath id="clip0">
<rect width="3938" height="2893" fill="white"/>
</clipPath>
</defs>
</svg>
