<svg width="396" height="288" viewBox="0 0 396 288" fill="none" xmlns="http://www.w3.org/2000/svg">
<path opacity="0.5" d="M175.954 135.836L0.681171 146.397L86.3361 240.549L175.954 135.836Z" fill="url(#paint0_linear)"/>
<path opacity="0.5" d="M189.759 125.403L123.119 287.856L245.135 251.616L189.759 125.403Z" fill="url(#paint1_linear)"/>
<rect width="41.3795" height="38.6572" transform="matrix(-0.953683 -0.300814 -0.300814 0.953683 299.552 129.864)" fill="#E1FF00"/>
<rect width="41.3795" height="38.6572" transform="matrix(-0.953683 -0.300814 -0.300814 0.953683 260.09 117.417)" fill="#2AE0DD"/>
<rect width="41.3795" height="38.6572" transform="matrix(-0.953683 -0.300814 -0.300814 0.953683 220.627 104.969)" fill="#F01EF0"/>
<path fill-rule="evenodd" clip-rule="evenodd" d="M231.659 59.1328L237.493 40.6381C237.493 40.6381 241.096 29.2146 230.218 22.0725C227.17 19.9694 214.079 14.4129 214.079 14.4129C209.599 19.5654 211.746 24.5243 211.746 24.5243L223.429 28.2095C232.257 30.9938 228.981 41.3788 228.981 41.3788L225.485 56.5496C220.969 55.1708 203.549 50.5123 199.135 64.5065L194.776 78.3255C158.963 72.1806 141.729 84.5108 136.284 101.773C129.814 122.283 148.924 148.578 197.993 164.056C239.906 177.276 285.17 186.742 315.766 185.647C320.463 192.092 325.972 198.473 329.098 198.558C332.483 198.651 336.39 189.781 339.188 181.492C345.109 179.063 349.253 175.521 351.15 170.688L355.858 172.174L355.19 174.292C354.984 174.944 355.423 175.612 356.107 175.626C356.548 175.636 357.072 175.631 357.633 175.594C356.341 177.51 354.881 180.701 354.058 183.31C352.747 187.468 353.549 188.572 354.839 188.98C356.13 189.387 357.42 188.942 358.732 184.784C359.721 181.647 360.44 177.294 360.179 175.169C361.519 174.768 362.691 174.04 363.1 172.745C363.454 171.622 363.085 170.543 362.407 169.588C363.688 167.667 365.124 164.517 365.938 161.937C367.25 157.778 366.448 156.674 365.157 156.267C363.867 155.86 362.576 156.304 361.265 160.463C360.62 162.506 360.091 165.067 359.872 167.19C359.534 166.951 359.212 166.742 358.926 166.566C358.358 166.216 357.643 166.517 357.442 167.153L356.677 169.577L351.884 168.066C352.498 164.071 350.872 159.709 347.53 155.135C350.401 146.146 353.22 134.304 350.03 132.197C346.888 130.121 335.678 133.541 327.213 136.743C311.497 125.646 290.372 114.485 270.08 105.103L270.192 92.6287C270.192 92.6287 270.596 83.2029 259.42 76.1001C258.921 75.7831 258.079 75.2293 256.975 74.5037C251.573 70.9533 239.913 63.2899 231.659 59.1328ZM270.513 154.959C263.631 152.788 259.811 145.449 261.982 138.567C264.153 131.684 271.492 127.864 278.375 130.035C285.257 132.206 289.077 139.546 286.906 146.428C284.735 153.311 277.396 157.13 270.513 154.959ZM222.519 126.119C220.348 133.002 224.168 140.341 231.05 142.512C237.933 144.683 245.272 140.863 247.443 133.981C249.614 127.098 245.794 119.759 238.912 117.588C232.029 115.417 224.69 119.236 222.519 126.119ZM191.587 130.064C184.705 127.893 180.885 120.554 183.056 113.671C185.227 106.789 192.566 102.969 199.449 105.14C206.332 107.311 210.151 114.65 207.98 121.533C205.809 128.416 198.47 132.235 191.587 130.064Z" fill="black"/>
<defs>
<linearGradient id="paint0_linear" x1="170.245" y1="137.512" x2="78.3876" y2="216.213" gradientUnits="userSpaceOnUse">
<stop stop-color="#E1FF00"/>
<stop offset="1" stop-color="#E1FF00" stop-opacity="0"/>
</linearGradient>
<linearGradient id="paint1_linear" x1="188.789" y1="131.273" x2="219.763" y2="248.202" gradientUnits="userSpaceOnUse">
<stop stop-color="#E1FF00"/>
<stop offset="1" stop-color="#E1FF00" stop-opacity="0"/>
</linearGradient>
</defs>
</svg>
