<svg width="373" height="155" viewBox="0 0 373 155" fill="none" xmlns="http://www.w3.org/2000/svg">
<path d="M0 33.9695H6.29242V26.5627H0V33.9695ZM0.177251 87.8206H6.20381V43.9901H0.177251V87.8206Z" fill="white"/>
<path d="M26.0935 87.8202H32.12V66.8201C32.12 64.7287 32.2973 62.7246 32.829 60.8946C34.8674 53.662 41.4258 48.5212 49.0477 48.5212C57.6441 48.5212 58.7077 54.6208 58.7077 61.5048V87.8202H64.7344V59.9362C64.7344 49.131 60.8349 42.9444 49.8451 42.9444C39.2986 42.9444 33.6267 50.0025 32.0314 54.0107H31.8542C31.8542 54.0107 32.0314 52.4422 32.0314 50.5253V43.9897H26.0935V87.8202Z" fill="white"/>
<path d="M122.452 65.6872C122.452 78.9321 132.998 88.8659 146.027 88.8659C159.055 88.8659 169.601 78.9321 169.601 65.6872C169.601 52.7036 159.055 42.9444 146.027 42.9444C132.998 42.9444 122.452 52.7036 122.452 65.6872ZM128.656 65.6872C128.656 55.7534 136.455 48.3467 146.027 48.3467C155.598 48.3467 163.397 55.7534 163.397 65.6872C163.397 75.8823 155.598 83.5505 146.027 83.5505C136.455 83.5505 128.656 75.8823 128.656 65.6872Z" fill="white"/>
<path d="M186.505 88.4353H192.531V69.9622C192.531 67.1738 192.886 64.2109 193.772 61.4225C195.722 54.9746 200.419 50.0948 206.711 50.0948C207.864 50.0948 208.927 50.2689 208.927 50.2689V44.4307C208.927 44.4307 207.775 44.1693 206.534 44.1693C199.533 44.1693 194.57 49.2232 192.443 55.8457H192.266C192.266 55.8457 192.443 54.2772 192.443 52.3603V44.6049H186.505V88.4353Z" fill="white"/>
<path d="M223.086 87.8202H229.112V67.0816C229.112 65.0774 229.29 63.0729 229.733 61.2433C231.594 54.5336 237.089 48.3467 244.356 48.3467C252.775 48.3467 253.75 54.795 253.75 61.4175V87.8202H259.777V67.0816C259.777 64.7287 259.954 62.6373 260.574 60.7205C262.258 54.2722 267.842 48.3467 274.666 48.3467C282.819 48.3467 284.326 54.2722 284.326 61.4175V87.8202H290.353V59.9362C290.353 49.131 286.365 42.9444 275.552 42.9444C268.019 42.9444 261.549 47.9984 259.156 53.9235H258.979C257.65 46.6912 253.396 42.9444 245.153 42.9444C238.241 42.9444 231.151 48.0853 229.024 54.0107H228.846C228.846 54.0107 229.024 52.4422 229.024 50.5253V43.9897H223.086V87.8202Z" fill="white"/>
<path d="M305.953 75.8823C305.953 84.5962 313.664 88.8659 321.108 88.8659C332.275 88.8659 335.997 79.3677 335.997 79.3677H336.175C336.175 79.3677 335.997 80.849 335.997 83.0276V87.8202H341.758V59.7617C341.758 48.7826 335.82 42.9444 325.096 42.9444C315.082 42.9444 309.233 47.9111 309.233 47.9111L312.069 52.4422C312.069 52.4422 317.297 48.2598 324.653 48.2598C331.034 48.2598 335.732 51.1351 335.732 59.5875V60.7205H333.25C325.54 60.7205 305.953 61.0688 305.953 75.8823ZM312.157 75.5336C312.157 65.8613 326.16 65.5999 333.161 65.5999H335.732V67.5171C335.732 75.098 330.591 83.8119 322.083 83.8119C315.436 83.8119 312.157 79.6291 312.157 75.5336Z" fill="white"/>
<path d="M360.504 77.4512C360.504 87.0363 367.061 88.1692 370.784 88.1692C371.935 88.1692 373 87.9947 373 87.9947V82.6794C373 82.6794 372.29 82.7666 371.494 82.7666C369.19 82.7666 366.529 81.8951 366.529 76.1441V26.5627H360.504V77.4512Z" fill="white"/>
<path fill-rule="evenodd" clip-rule="evenodd" d="M115.058 3.40883C119.452 1.11607 123.607 0 127.538 0C131.514 0 134.681 0.910921 137.123 2.6501L137.144 2.6642C139.555 4.29924 140.679 6.3398 140.679 8.84533C140.679 10.9961 140.094 12.805 138.957 14.3226L138.935 14.3538C137.877 15.8737 136.752 16.4671 135.555 16.4671C134.829 16.4671 134.365 16.207 134.019 15.6492C133.499 14.7076 132.74 13.0442 131.736 10.6203C130.876 8.46049 129.795 6.72883 128.452 5.49858C127.126 4.10281 125.408 3.41599 123.391 3.41599C119.961 3.41599 117.124 5.28962 114.871 8.66052L114.86 8.67896C112.75 11.9797 110.689 17.0804 108.653 23.9045C107.543 27.6352 106.661 31.1017 106.009 34.3029C105.827 35.022 105.687 35.6061 105.592 36.051C105.505 36.4563 105.43 36.8538 105.43 37.1227V37.3948C105.43 38.1381 105.684 38.8629 106.333 39.3647C106.932 39.8274 107.703 39.9691 108.462 39.9691C110.15 39.9691 112.564 39.8772 115.694 39.6966L122.3 39.5638L122.351 39.6653L122.477 39.7889C122.481 39.7932 122.501 39.8131 122.523 39.8772C122.546 39.9463 122.57 40.0646 122.57 40.2498C122.57 40.6063 122.304 41.3585 121.393 42.6133L121.377 42.635L121.363 42.6571C120.981 43.2405 120.65 43.6155 120.378 43.8353C120.11 44.0529 119.968 44.0646 119.935 44.0646L108.311 44.3367C106.763 44.3382 105.417 44.5707 104.425 45.1805L104.396 45.1983L104.369 45.2175C103.462 45.854 102.891 46.8224 102.569 47.9756C96.7513 67.395 95.5085 73.4021 91.6684 91.9653L91.1053 94.686L91.1002 94.7109L91.0962 94.7362C90.5769 98.0325 89.1211 102.002 87.4459 105.759C85.7779 109.5 83.9241 112.96 82.653 115.219C80.1311 119.701 77.436 123.287 74.5788 126.003L74.5657 126.016C71.7689 128.766 69.0562 130.768 66.4314 132.059C64.247 133.133 62.5116 133.878 61.2061 134.317L60.622 132.914C61.72 132.24 62.9357 131.273 64.2636 130.045C66.0338 128.506 67.7177 126.438 69.3252 123.872C71.0501 121.275 72.6058 118.109 74.0012 114.388C75.4848 110.786 78.5098 102.222 79.3238 97.2589L90.033 48.5491C90.1619 48.1373 90.2072 47.6683 90.2072 47.1832C90.2072 46.4156 89.8881 45.7169 89.2001 45.2656C88.5906 44.866 87.8149 44.7445 87.0366 44.7445L78.7339 44.8806C78.1661 44.8795 77.8978 44.7745 77.7801 44.6986C77.7109 44.565 77.6283 44.2922 77.6283 43.7843C77.6283 43.186 77.8666 42.5114 78.4898 41.7439C79.1609 40.9389 79.8642 40.5771 80.6123 40.5108L89.6046 40.1027L89.6339 40.0998C91.2382 39.942 92.1044 38.6538 92.5172 37.1387L93.6189 33.347C95.9876 25.5533 99.0697 19.1995 102.842 14.2528C106.736 9.17599 110.811 5.58459 115.051 3.41271L115.058 3.40883Z" fill="white"/>
<path d="M186.117 142.588V138.159C188.208 141.593 191.652 143.309 196.45 143.309C200.769 143.309 203.802 142.417 205.55 140.631C207.332 138.846 208.223 136.202 208.223 132.7C208.223 129.507 207.486 127.207 206.013 125.799C204.539 124.357 201.917 123.276 198.147 122.555L193.571 121.679C191.035 121.199 189.373 120.512 188.585 119.619C187.796 118.727 187.402 117.216 187.402 115.087C187.402 112.478 187.968 110.538 189.099 109.268C190.23 107.998 192.355 107.362 195.474 107.362C200.82 107.362 203.836 109.628 204.522 114.16H207.298V104.993H204.522V109.01C202.671 105.852 199.398 104.272 194.702 104.272C190.658 104.272 187.813 105.199 186.168 107.053C184.523 108.907 183.701 111.603 183.701 115.139C183.701 118.366 184.386 120.667 185.757 122.04C187.162 123.413 189.716 124.46 193.417 125.181L198.044 126.057C200.512 126.538 202.208 127.259 203.134 128.22C204.059 129.181 204.522 130.846 204.522 133.215C204.522 135.55 203.87 137.301 202.568 138.468C201.3 139.636 199.089 140.219 195.936 140.219C192.68 140.219 190.247 139.413 188.636 137.799C187.025 136.151 186.185 134.039 186.117 131.464H183.341V142.588H186.117Z" fill="white"/>
<path d="M212.345 115.705H216.972V136.151C216.972 137.009 216.989 137.73 217.023 138.314C217.092 138.898 217.229 139.533 217.434 140.219C217.64 140.906 217.914 141.455 218.257 141.867C218.634 142.279 219.148 142.623 219.799 142.897C220.485 143.172 221.29 143.309 222.215 143.309C223.449 143.309 224.923 143.069 226.637 142.588L226.174 140.065C224.974 140.34 224.032 140.477 223.346 140.477C222.353 140.477 221.633 140.151 221.187 139.498C220.776 138.846 220.57 137.73 220.57 136.151V115.705H225.968V113.13H220.57V106.538L216.972 107.259V113.13H212.345V115.705Z" fill="white"/>
<path d="M252.099 142.588H257.6V140.013H254.515V120.649C254.515 115.156 251.122 112.409 244.336 112.409C242.28 112.409 240.566 112.615 239.195 113.027C237.824 113.439 236.762 114.092 236.008 114.984C235.288 115.843 234.757 116.77 234.414 117.765C234.106 118.761 233.9 119.997 233.797 121.473L236.83 121.628C236.967 119.499 237.516 117.937 238.475 116.941C239.469 115.946 241.423 115.448 244.336 115.448C248.723 115.448 250.917 117.182 250.917 120.649V125.799L241.406 126.417C237.944 126.658 235.596 127.43 234.363 128.735C233.129 130.04 232.512 132.168 232.512 135.121C232.512 137.833 233.146 139.876 234.414 141.249C235.716 142.623 237.978 143.309 241.2 143.309C244.833 143.309 248.158 141.953 251.174 139.241L252.099 142.588ZM241.714 140.374C239.624 140.374 238.15 139.962 237.293 139.138C236.436 138.28 236.008 136.992 236.008 135.275C236.008 132.941 236.385 131.379 237.139 130.589C237.927 129.765 239.418 129.284 241.611 129.147L250.917 128.58V136.357C248.106 139.035 245.039 140.374 241.714 140.374Z" fill="white"/>
<path d="M263.785 106.538H266.869V140.013H263.785V142.588H273.553V140.013H270.468V128.065H274.581L282.755 140.013H280.03V142.588H289.798V140.013H286.765L277.82 126.984L285.788 115.705H288.873V113.13H279.105V115.705H281.778L275.095 125.284H270.468V103.963H263.785V106.538Z" fill="white"/>
<path d="M294.924 115.705H298.008V140.013H294.924V142.588H304.692V140.013H301.607V113.13H294.924V115.705ZM299.808 107.98C300.802 107.98 301.436 107.74 301.71 107.259C301.984 106.779 302.121 106.109 302.121 105.251C302.121 104.667 302.087 104.221 302.018 103.912C301.95 103.569 301.727 103.242 301.35 102.933C301.007 102.624 300.493 102.47 299.808 102.47C299.157 102.47 298.66 102.624 298.317 102.933C297.974 103.242 297.768 103.569 297.7 103.912C297.631 104.221 297.597 104.667 297.597 105.251C297.597 105.8 297.631 106.247 297.7 106.59C297.768 106.899 297.974 107.208 298.317 107.517C298.66 107.826 299.157 107.98 299.808 107.98Z" fill="white"/>
<path d="M311.391 115.705H314.476V140.013H311.391V142.588H321.159V140.013H318.074V119.259C321.262 116.718 324.603 115.448 328.099 115.448C330.053 115.448 331.441 115.929 332.263 116.89C333.12 117.851 333.549 119.413 333.549 121.576V140.013H330.464V142.588H340.232V140.013H337.147V121.628C337.147 118.469 336.479 116.152 335.142 114.675C333.84 113.165 331.681 112.409 328.665 112.409C324.86 112.409 321.227 113.748 317.766 116.426L316.892 113.13H311.391V115.705Z" fill="white"/>
<path d="M358.452 133.112C360.303 133.112 361.896 132.924 363.233 132.546C364.57 132.134 365.598 131.636 366.318 131.052C367.072 130.434 367.654 129.645 368.066 128.683C368.511 127.722 368.785 126.812 368.888 125.954C369.025 125.061 369.094 123.997 369.094 122.761C369.094 119.534 368.545 117.165 367.449 115.654L370.893 112.203L368.734 110.04L365.084 113.697C363.37 112.839 361.16 112.409 358.452 112.409C356.601 112.409 355.007 112.615 353.671 113.027C352.368 113.405 351.34 113.903 350.586 114.521C349.832 115.105 349.25 115.877 348.838 116.838C348.427 117.8 348.153 118.727 348.016 119.619C347.913 120.478 347.861 121.525 347.861 122.761C347.861 126.744 348.753 129.49 350.535 131.001L348.324 133.112C346.816 134.623 346.062 136.22 346.062 137.902C346.062 139.962 347.005 141.387 348.89 142.176C346.902 143.79 345.908 145.713 345.908 147.945C345.908 149.49 346.182 150.743 346.73 151.704C347.313 152.665 348.187 153.369 349.352 153.816C350.552 154.296 351.786 154.605 353.054 154.743C354.322 154.914 355.95 155 357.938 155C359.583 155 360.902 154.966 361.896 154.897C362.89 154.863 364.038 154.691 365.341 154.382C366.677 154.073 367.706 153.644 368.425 153.094C369.145 152.545 369.762 151.721 370.276 150.622C370.825 149.558 371.099 148.253 371.099 146.708C371.099 144.477 370.43 142.777 369.094 141.61C367.791 140.443 365.923 139.859 363.49 139.859H351.717C349.901 139.859 348.993 139.121 348.993 137.644C348.993 136.511 349.438 135.516 350.329 134.657L352.797 132.288C354.339 132.838 356.224 133.112 358.452 133.112ZM358.452 130.383C355.539 130.383 353.619 129.765 352.694 128.529C351.803 127.293 351.357 125.37 351.357 122.761C351.357 120.152 351.803 118.229 352.694 116.993C353.619 115.757 355.539 115.139 358.452 115.139C361.399 115.139 363.319 115.757 364.21 116.993C365.135 118.229 365.598 120.152 365.598 122.761C365.598 125.37 365.135 127.293 364.21 128.529C363.319 129.765 361.399 130.383 358.452 130.383ZM357.938 152.271C356.498 152.271 355.316 152.219 354.391 152.116C353.499 152.047 352.591 151.859 351.666 151.549C350.775 151.275 350.106 150.811 349.661 150.159C349.25 149.541 349.044 148.734 349.044 147.738C349.044 145.61 349.832 143.893 351.409 142.588H362.462C365.992 142.588 367.757 143.979 367.757 146.76C367.757 149.163 367.02 150.674 365.546 151.292C364.107 151.944 361.571 152.271 357.938 152.271Z" fill="white"/>
</svg>
