<svg width="374" height="70" viewBox="0 0 374 70" fill="none" xmlns="http://www.w3.org/2000/svg">
<path d="M142.19 22.7692V22.8122L138.154 1.50371L134.805 0.429688L132.701 3.26509L142.19 22.7692Z" fill="white"/>
<path d="M144.379 13.8763L146.097 22.1248L147.943 13.7474L146.14 12.5446L144.379 13.8763Z" fill="white"/>
<path d="M157.131 15.3371L154.942 15.5519L152.366 23.7144L158.033 17.3133L157.131 15.3371Z" fill="white"/>
<path d="M175.852 17.0555V13.5757L172.46 12.5017L156.573 27.409L175.852 17.0555Z" fill="white"/>
<path d="M137.037 25.8623L132.314 18.7738L132.4 18.9457L132.314 18.7738L130.168 19.1175L129.824 21.2655L137.037 25.8623Z" fill="white"/>
<path d="M167.436 33.0798L158.978 34.7553L167.436 36.6026L168.724 34.8413L167.436 33.0798Z" fill="white"/>
<path d="M133.259 34.7983L111.533 32.0488L109.429 34.8842L111.533 37.7196L133.259 34.7983Z" fill="white"/>
<path d="M125.23 39.5238L124.586 41.5429L126.346 42.8317L133.86 38.6216L125.23 39.5238Z" fill="white"/>
<path d="M127.72 45.4953L127.634 47.6434L129.695 48.3738L135.706 42.0585L127.72 45.4953Z" fill="white"/>
<path d="M138.54 44.9798L132.143 50.6077L132.701 52.6698L134.89 52.7557L138.54 44.9798Z" fill="white"/>
<path d="M146.14 47.4715L144.422 55.8059L146.183 57.0517L147.943 55.7629L146.14 47.4715Z" fill="white"/>
<path d="M175.895 52.5409L156.573 42.2733L172.546 57.0948L175.895 56.0208V52.5409Z" fill="white"/>
<path d="M154.598 54.1305L150.262 46.8701L151.249 55.2045L153.31 55.8489L154.598 54.1305Z" fill="white"/>
<path d="M142.233 46.8701L132.83 66.4173L134.933 69.2526L138.282 68.1786L142.233 46.8701Z" fill="white"/>
<path d="M204.276 27.6668C204.833 27.4949 205.306 27.2372 205.692 26.8935C206.594 26.1632 207.067 25.0892 207.067 23.6714C207.067 22.3826 206.594 21.3516 205.692 20.5783C204.791 19.805 203.502 19.4183 201.828 19.4183H195.216V33.2947H198.78V28.1823H200.969L203.932 33.2517H207.925L204.276 27.6668ZM198.78 22.0819H201.356C202.043 22.0819 202.601 22.2108 202.944 22.5115C203.288 22.8123 203.46 23.2418 203.46 23.8433C203.46 24.4448 203.288 24.9173 202.944 25.1751C202.601 25.4758 202.086 25.6047 201.356 25.6047H198.78V22.0819Z" fill="white"/>
<path d="M220.763 30.4593H213.292V27.6238H219.003V25.0033H213.292V22.1678H220.463V19.3754H209.643V33.2517H220.763V30.4593Z" fill="white"/>
<path d="M228.964 28.1823H232.141V28.3972C232.141 28.7838 232.055 29.1275 231.927 29.4282C231.797 29.7289 231.583 29.9438 231.325 30.1585C231.067 30.3733 230.767 30.5023 230.423 30.5882C230.08 30.6741 229.694 30.717 229.308 30.717C228.534 30.717 227.933 30.5452 227.418 30.2444C226.903 29.9438 226.517 29.4282 226.259 28.7838C226.002 28.1393 225.872 27.3231 225.872 26.335C225.872 25.3899 226.002 24.6166 226.259 23.9722C226.517 23.3278 226.903 22.8553 227.375 22.5115C227.848 22.1678 228.448 21.996 229.136 21.996C229.822 21.996 230.381 22.1678 230.853 22.4686C231.325 22.8123 231.626 23.3278 231.841 24.0152L235.19 22.6833C234.674 21.4375 233.902 20.5353 232.957 19.9768C231.969 19.4183 230.724 19.1177 229.136 19.1177C227.718 19.1177 226.473 19.4183 225.443 19.9768C224.412 20.5353 223.597 21.3946 223.038 22.4256C222.481 23.4996 222.18 24.7884 222.18 26.2921C222.18 27.8387 222.437 29.1275 222.996 30.2015C223.511 31.2755 224.284 32.0918 225.228 32.6073C226.173 33.1658 227.289 33.4235 228.534 33.4235C229.737 33.4235 230.724 33.1658 231.497 32.6503C231.969 32.3495 232.312 31.9199 232.613 31.4473L232.742 33.2088H235.19V25.7765H228.921V28.1823H228.964Z" fill="white"/>
<path d="M249.015 30.4593H241.544V27.6238H247.298V25.0033H241.544V22.1678H248.758V19.3754H237.938V33.2517H249.015V30.4593Z" fill="white"/>
<path d="M263.699 33.2517V19.3754H260.479V26.378L260.565 28.9557L259.492 26.8935L255.198 19.3754H251.162V33.2517H254.383V26.2491L254.297 23.6715L255.37 25.7336L259.663 33.2517H263.699Z" fill="white"/>
<path d="M201.785 47.2138L201.871 48.7604H201.828L200.798 46.8272L196.805 40.426H195.345V50.0492H196.461V43.2614L196.375 41.7148H196.418L197.448 43.6051L201.442 50.0492H202.902V40.426H201.785V47.2138Z" fill="white"/>
<path d="M206.852 45.7102H211.188V44.6362H206.852V41.5001H212.433V40.426H205.649V50.0492H212.648V48.9752H206.852V45.7102Z" fill="white"/>
<path d="M213.464 41.5001H216.813V50.0492H218.015V41.5001H221.364V40.426H213.464V41.5001Z" fill="white"/>
<path d="M231.412 49.1471L229.136 40.426H227.805L225.529 49.1471L223.211 40.426H221.965L224.799 50.0492H226.259L227.933 43.8199L228.448 41.6289L228.964 43.8199L230.638 50.0492H232.098L234.932 40.426H233.73L231.412 49.1471Z" fill="white"/>
<path d="M240.427 40.2543C237.68 40.2543 235.962 42.1876 235.962 45.2378C235.962 48.288 237.68 50.2212 240.427 50.2212C243.176 50.2212 244.893 48.288 244.893 45.2378C244.893 42.1876 243.132 40.2543 240.427 40.2543ZM240.427 49.1043C238.41 49.1043 237.207 47.6436 237.207 45.2378C237.207 42.8319 238.452 41.3713 240.427 41.3713C242.446 41.3713 243.648 42.8319 243.648 45.2378C243.648 47.6436 242.403 49.1043 240.427 49.1043Z" fill="white"/>
<path d="M253.953 43.2185C253.953 41.5001 252.665 40.3831 250.69 40.3831H247.04V50.0063H248.199V46.0109H250.518L253.138 50.0063H254.511L251.806 45.8821C253.138 45.5813 253.953 44.5933 253.953 43.2185ZM248.199 44.9369V41.5001H250.647C252.021 41.5001 252.708 42.0586 252.708 43.2185C252.708 44.3784 252.021 44.9369 250.647 44.9369H248.199Z" fill="white"/>
<path d="M260.05 44.3354L263.914 40.426H262.368L257.517 45.3665V40.426H256.358V50.0492H257.517V46.9561L259.234 45.1947L262.54 50.0492H263.958L260.05 44.3354Z" fill="white"/>
<path d="M142.19 22.7692V22.8122L138.154 1.50371L134.805 0.429688L132.701 3.26509L142.19 22.7692Z" fill="white"/>
<path d="M144.379 13.8763L146.097 22.1248L147.943 13.7474L146.14 12.5446L144.379 13.8763Z" fill="white"/>
<path d="M157.131 15.3371L154.942 15.5519L152.366 23.7144L158.033 17.3133L157.131 15.3371Z" fill="white"/>
<path d="M175.852 17.0555V13.5757L172.46 12.5017L156.573 27.409L175.852 17.0555Z" fill="white"/>
<path d="M137.037 25.8623L132.314 18.7738L132.4 18.9457L132.314 18.7738L130.168 19.1175L129.824 21.2655L137.037 25.8623Z" fill="white"/>
<path d="M167.436 33.0798L158.978 34.7553L167.436 36.6026L168.724 34.8413L167.436 33.0798Z" fill="white"/>
<path d="M133.259 34.7983L111.533 32.0488L109.429 34.8842L111.533 37.7196L133.259 34.7983Z" fill="white"/>
<path d="M125.23 39.5238L124.586 41.5429L126.346 42.8317L133.86 38.6216L125.23 39.5238Z" fill="white"/>
<path d="M127.72 45.4953L127.634 47.6434L129.695 48.3738L135.706 42.0585L127.72 45.4953Z" fill="white"/>
<path d="M138.54 44.9798L132.143 50.6077L132.701 52.6698L134.89 52.7557L138.54 44.9798Z" fill="white"/>
<path d="M146.14 47.4715L144.422 55.8059L146.183 57.0517L147.943 55.7629L146.14 47.4715Z" fill="white"/>
<path d="M175.895 52.5409L156.573 42.2733L172.546 57.0948L175.895 56.0208V52.5409Z" fill="white"/>
<path d="M154.598 54.1305L150.262 46.8701L151.249 55.2045L153.31 55.8489L154.598 54.1305Z" fill="white"/>
<path d="M142.233 46.8701L132.83 66.4173L134.933 69.2526L138.282 68.1786L142.233 46.8701Z" fill="white"/>
<path d="M204.276 27.6668C204.833 27.4949 205.306 27.2372 205.692 26.8935C206.594 26.1632 207.067 25.0892 207.067 23.6714C207.067 22.3826 206.594 21.3516 205.692 20.5783C204.791 19.805 203.502 19.4183 201.828 19.4183H195.216V33.2947H198.78V28.1823H200.969L203.932 33.2517H207.925L204.276 27.6668ZM198.78 22.0819H201.356C202.043 22.0819 202.601 22.2108 202.944 22.5115C203.288 22.8123 203.46 23.2418 203.46 23.8433C203.46 24.4448 203.288 24.9173 202.944 25.1751C202.601 25.4758 202.086 25.6047 201.356 25.6047H198.78V22.0819Z" fill="white"/>
<path d="M220.763 30.4593H213.292V27.6238H219.003V25.0033H213.292V22.1678H220.463V19.3754H209.643V33.2517H220.763V30.4593Z" fill="white"/>
<path d="M228.964 28.1823H232.141V28.3972C232.141 28.7838 232.055 29.1275 231.927 29.4282C231.797 29.7289 231.583 29.9438 231.325 30.1585C231.067 30.3733 230.767 30.5023 230.423 30.5882C230.08 30.6741 229.694 30.717 229.308 30.717C228.534 30.717 227.933 30.5452 227.418 30.2444C226.903 29.9438 226.517 29.4282 226.259 28.7838C226.002 28.1393 225.872 27.3231 225.872 26.335C225.872 25.3899 226.002 24.6166 226.259 23.9722C226.517 23.3278 226.903 22.8553 227.375 22.5115C227.848 22.1678 228.448 21.996 229.136 21.996C229.822 21.996 230.381 22.1678 230.853 22.4686C231.325 22.8123 231.626 23.3278 231.841 24.0152L235.19 22.6833C234.674 21.4375 233.902 20.5353 232.957 19.9768C231.969 19.4183 230.724 19.1177 229.136 19.1177C227.718 19.1177 226.473 19.4183 225.443 19.9768C224.412 20.5353 223.597 21.3946 223.038 22.4256C222.481 23.4996 222.18 24.7884 222.18 26.2921C222.18 27.8387 222.437 29.1275 222.996 30.2015C223.511 31.2755 224.284 32.0918 225.228 32.6073C226.173 33.1658 227.289 33.4235 228.534 33.4235C229.737 33.4235 230.724 33.1658 231.497 32.6503C231.969 32.3495 232.312 31.9199 232.613 31.4473L232.742 33.2088H235.19V25.7765H228.921V28.1823H228.964Z" fill="white"/>
<path d="M249.015 30.4593H241.544V27.6238H247.298V25.0033H241.544V22.1678H248.758V19.3754H237.938V33.2517H249.015V30.4593Z" fill="white"/>
<path d="M263.699 33.2517V19.3754H260.479V26.378L260.565 28.9557L259.492 26.8935L255.198 19.3754H251.162V33.2517H254.383V26.2491L254.297 23.6715L255.37 25.7336L259.663 33.2517H263.699Z" fill="white"/>
<path d="M201.785 47.2138L201.871 48.7604H201.828L200.798 46.8272L196.805 40.426H195.345V50.0492H196.461V43.2614L196.375 41.7148H196.418L197.448 43.6051L201.442 50.0492H202.902V40.426H201.785V47.2138Z" fill="white"/>
<path d="M206.852 45.7102H211.188V44.6362H206.852V41.5001H212.433V40.426H205.649V50.0492H212.648V48.9752H206.852V45.7102Z" fill="white"/>
<path d="M213.464 41.5001H216.813V50.0492H218.015V41.5001H221.364V40.426H213.464V41.5001Z" fill="white"/>
<path d="M231.412 49.1471L229.136 40.426H227.805L225.529 49.1471L223.211 40.426H221.965L224.799 50.0492H226.259L227.933 43.8199L228.448 41.6289L228.964 43.8199L230.638 50.0492H232.098L234.932 40.426H233.73L231.412 49.1471Z" fill="white"/>
<path d="M240.427 40.2543C237.68 40.2543 235.962 42.1876 235.962 45.2378C235.962 48.288 237.68 50.2212 240.427 50.2212C243.176 50.2212 244.893 48.288 244.893 45.2378C244.893 42.1876 243.132 40.2543 240.427 40.2543ZM240.427 49.1043C238.41 49.1043 237.207 47.6436 237.207 45.2378C237.207 42.8319 238.452 41.3713 240.427 41.3713C242.446 41.3713 243.648 42.8319 243.648 45.2378C243.648 47.6436 242.403 49.1043 240.427 49.1043Z" fill="white"/>
<path d="M253.953 43.2185C253.953 41.5001 252.665 40.3831 250.69 40.3831H247.04V50.0063H248.199V46.0109H250.518L253.138 50.0063H254.511L251.806 45.8821C253.138 45.5813 253.953 44.5933 253.953 43.2185ZM248.199 44.9369V41.5001H250.647C252.021 41.5001 252.708 42.0586 252.708 43.2185C252.708 44.3784 252.021 44.9369 250.647 44.9369H248.199Z" fill="white"/>
<path d="M260.05 44.3354L263.914 40.426H262.368L257.517 45.3665V40.426H256.358V50.0492H257.517V46.9561L259.234 45.1947L262.54 50.0492H263.958L260.05 44.3354Z" fill="white"/>
</svg>
